<?xml version="1.0" encoding="utf-8" standalone="no"?>
<!DOCTYPE svg PUBLIC "-//W3C//DTD SVG 1.1//EN"
  "http://www.w3.org/Graphics/SVG/1.1/DTD/svg11.dtd">
<svg xmlns:xlink="http://www.w3.org/1999/xlink" width="460.8pt" height="345.6pt" viewBox="0 0 460.8 345.6" xmlns="http://www.w3.org/2000/svg" version="1.1">
 <metadata>
  <rdf:RDF xmlns:dc="http://purl.org/dc/elements/1.1/" xmlns:cc="http://creativecommons.org/ns#" xmlns:rdf="http://www.w3.org/1999/02/22-rdf-syntax-ns#">
   <cc:Work>
    <dc:type rdf:resource="http://purl.org/dc/dcmitype/StillImage"/>
    <dc:date>2025-11-16T17:45:08.089647</dc:date>
    <dc:format>image/svg+xml</dc:format>
    <dc:creator>
     <cc:Agent>
      <dc:title>Matplotlib v3.10.7, https://matplotlib.org/</dc:title>
     </cc:Agent>
    </dc:creator>
   </cc:Work>
  </rdf:RDF>
 </metadata>
 <defs>
  <style type="text/css">*{stroke-linejoin: round; stroke-linecap: butt}</style>
 </defs>
 <g id="figure_1">
  <g id="patch_1">
   <path d="M 0 345.6 
L 460.8 345.6 
L 460.8 0 
L 0 0 
z
" style="fill: #ffffff"/>
  </g>
  <g id="axes_1">
   <g id="patch_2">
    <path d="M 57.6 307.584 
L 414.72 307.584 
L 414.72 41.472 
L 57.6 41.472 
z
" style="fill: #ffffff"/>
   </g>
   <g id="matplotlib.axis_1">
    <g id="xtick_1">
     <g id="line2d_1">
      <defs>
       <path id="m5223ee0cd7" d="M 0 0 
L 0 3.5 
" style="stroke: #000000; stroke-width: 0.8"/>
      </defs>
      <g>
       <use xlink:href="#m5223ee0cd7" x="93.309224" y="307.584" style="stroke: #000000; stroke-width: 0.8"/>
      </g>
     </g>
     <g id="text_1">
      <!-- −10 -->
      <g transform="translate(82.75688 322.182437) scale(0.1 -0.1)">
       <defs>
        <path id="DejaVuSans-2212" d="M 678 2272 
L 4684 2272 
L 4684 1741 
L 678 1741 
L 678 2272 
z
" transform="scale(0.015625)"/>
        <path id="DejaVuSans-31" d="M 794 531 
L 1825 531 
L 1825 4091 
L 703 3866 
L 703 4441 
L 1819 4666 
L 2450 4666 
L 2450 531 
L 3481 531 
L 3481 0 
L 794 0 
L 794 531 
z
" transform="scale(0.015625)"/>
        <path id="DejaVuSans-30" d="M 2034 4250 
Q 1547 4250 1301 3770 
Q 1056 3291 1056 2328 
Q 1056 1369 1301 889 
Q 1547 409 2034 409 
Q 2525 409 2770 889 
Q 3016 1369 3016 2328 
Q 3016 3291 2770 3770 
Q 2525 4250 2034 4250 
z
M 2034 4750 
Q 2819 4750 3233 4129 
Q 3647 3509 3647 2328 
Q 3647 1150 3233 529 
Q 2819 -91 2034 -91 
Q 1250 -91 836 529 
Q 422 1150 422 2328 
Q 422 3509 836 4129 
Q 1250 4750 2034 4750 
z
" transform="scale(0.015625)"/>
       </defs>
       <use xlink:href="#DejaVuSans-2212"/>
       <use xlink:href="#DejaVuSans-31" transform="translate(83.789062 0)"/>
       <use xlink:href="#DejaVuSans-30" transform="translate(147.412109 0)"/>
      </g>
     </g>
    </g>
    <g id="xtick_2">
     <g id="line2d_2">
      <g>
       <use xlink:href="#m5223ee0cd7" x="136.438263" y="307.584" style="stroke: #000000; stroke-width: 0.8"/>
      </g>
     </g>
     <g id="text_2">
      <!-- −5 -->
      <g transform="translate(129.06717 322.182437) scale(0.1 -0.1)">
       <defs>
        <path id="DejaVuSans-35" d="M 691 4666 
L 3169 4666 
L 3169 4134 
L 1269 4134 
L 1269 2991 
Q 1406 3038 1543 3061 
Q 1681 3084 1819 3084 
Q 2600 3084 3056 2656 
Q 3513 2228 3513 1497 
Q 3513 744 3044 326 
Q 2575 -91 1722 -91 
Q 1428 -91 1123 -41 
Q 819 9 494 109 
L 494 744 
Q 775 591 1075 516 
Q 1375 441 1709 441 
Q 2250 441 2565 725 
Q 2881 1009 2881 1497 
Q 2881 1984 2565 2268 
Q 2250 2553 1709 2553 
Q 1456 2553 1204 2497 
Q 953 2441 691 2322 
L 691 4666 
z
" transform="scale(0.015625)"/>
       </defs>
       <use xlink:href="#DejaVuSans-2212"/>
       <use xlink:href="#DejaVuSans-35" transform="translate(83.789062 0)"/>
      </g>
     </g>
    </g>
    <g id="xtick_3">
     <g id="line2d_3">
      <g>
       <use xlink:href="#m5223ee0cd7" x="179.567303" y="307.584" style="stroke: #000000; stroke-width: 0.8"/>
      </g>
     </g>
     <g id="text_3">
      <!-- 0 -->
      <g transform="translate(176.386053 322.182437) scale(0.1 -0.1)">
       <use xlink:href="#DejaVuSans-30"/>
      </g>
     </g>
    </g>
    <g id="xtick_4">
     <g id="line2d_4">
      <g>
       <use xlink:href="#m5223ee0cd7" x="222.696343" y="307.584" style="stroke: #000000; stroke-width: 0.8"/>
      </g>
     </g>
     <g id="text_4">
      <!-- 5 -->
      <g transform="translate(219.515093 322.182437) scale(0.1 -0.1)">
       <use xlink:href="#DejaVuSans-35"/>
      </g>
     </g>
    </g>
    <g id="xtick_5">
     <g id="line2d_5">
      <g>
       <use xlink:href="#m5223ee0cd7" x="265.825383" y="307.584" style="stroke: #000000; stroke-width: 0.8"/>
      </g>
     </g>
     <g id="text_5">
      <!-- 10 -->
      <g transform="translate(259.462883 322.182437) scale(0.1 -0.1)">
       <use xlink:href="#DejaVuSans-31"/>
       <use xlink:href="#DejaVuSans-30" transform="translate(63.623047 0)"/>
      </g>
     </g>
    </g>
    <g id="xtick_6">
     <g id="line2d_6">
      <g>
       <use xlink:href="#m5223ee0cd7" x="308.954422" y="307.584" style="stroke: #000000; stroke-width: 0.8"/>
      </g>
     </g>
     <g id="text_6">
      <!-- 15 -->
      <g transform="translate(302.591922 322.182437) scale(0.1 -0.1)">
       <use xlink:href="#DejaVuSans-31"/>
       <use xlink:href="#DejaVuSans-35" transform="translate(63.623047 0)"/>
      </g>
     </g>
    </g>
    <g id="xtick_7">
     <g id="line2d_7">
      <g>
       <use xlink:href="#m5223ee0cd7" x="352.083462" y="307.584" style="stroke: #000000; stroke-width: 0.8"/>
      </g>
     </g>
     <g id="text_7">
      <!-- 20 -->
      <g transform="translate(345.720962 322.182437) scale(0.1 -0.1)">
       <defs>
        <path id="DejaVuSans-32" d="M 1228 531 
L 3431 531 
L 3431 0 
L 469 0 
L 469 531 
Q 828 903 1448 1529 
Q 2069 2156 2228 2338 
Q 2531 2678 2651 2914 
Q 2772 3150 2772 3378 
Q 2772 3750 2511 3984 
Q 2250 4219 1831 4219 
Q 1534 4219 1204 4116 
Q 875 4013 500 3803 
L 500 4441 
Q 881 4594 1212 4672 
Q 1544 4750 1819 4750 
Q 2544 4750 2975 4387 
Q 3406 4025 3406 3419 
Q 3406 3131 3298 2873 
Q 3191 2616 2906 2266 
Q 2828 2175 2409 1742 
Q 1991 1309 1228 531 
z
" transform="scale(0.015625)"/>
       </defs>
       <use xlink:href="#DejaVuSans-32"/>
       <use xlink:href="#DejaVuSans-30" transform="translate(63.623047 0)"/>
      </g>
     </g>
    </g>
    <g id="xtick_8">
     <g id="line2d_8">
      <g>
       <use xlink:href="#m5223ee0cd7" x="395.212502" y="307.584" style="stroke: #000000; stroke-width: 0.8"/>
      </g>
     </g>
     <g id="text_8">
      <!-- 25 -->
      <g transform="translate(388.850002 322.182437) scale(0.1 -0.1)">
       <use xlink:href="#DejaVuSans-32"/>
       <use xlink:href="#DejaVuSans-35" transform="translate(63.623047 0)"/>
      </g>
     </g>
    </g>
    <g id="text_9">
     <!-- X-axis -->
     <g transform="translate(221.163906 335.860562) scale(0.1 -0.1)">
      <defs>
       <path id="DejaVuSans-58" d="M 403 4666 
L 1081 4666 
L 2241 2931 
L 3406 4666 
L 4084 4666 
L 2584 2425 
L 4184 0 
L 3506 0 
L 2194 1984 
L 872 0 
L 191 0 
L 1856 2491 
L 403 4666 
z
" transform="scale(0.015625)"/>
       <path id="DejaVuSans-2d" d="M 313 2009 
L 1997 2009 
L 1997 1497 
L 313 1497 
L 313 2009 
z
" transform="scale(0.015625)"/>
       <path id="DejaVuSans-61" d="M 2194 1759 
Q 1497 1759 1228 1600 
Q 959 1441 959 1056 
Q 959 750 1161 570 
Q 1363 391 1709 391 
Q 2188 391 2477 730 
Q 2766 1069 2766 1631 
L 2766 1759 
L 2194 1759 
z
M 3341 1997 
L 3341 0 
L 2766 0 
L 2766 531 
Q 2569 213 2275 61 
Q 1981 -91 1556 -91 
Q 1019 -91 701 211 
Q 384 513 384 1019 
Q 384 1609 779 1909 
Q 1175 2209 1959 2209 
L 2766 2209 
L 2766 2266 
Q 2766 2663 2505 2880 
Q 2244 3097 1772 3097 
Q 1472 3097 1187 3025 
Q 903 2953 641 2809 
L 641 3341 
Q 956 3463 1253 3523 
Q 1550 3584 1831 3584 
Q 2591 3584 2966 3190 
Q 3341 2797 3341 1997 
z
" transform="scale(0.015625)"/>
       <path id="DejaVuSans-78" d="M 3513 3500 
L 2247 1797 
L 3578 0 
L 2900 0 
L 1881 1375 
L 863 0 
L 184 0 
L 1544 1831 
L 300 3500 
L 978 3500 
L 1906 2253 
L 2834 3500 
L 3513 3500 
z
" transform="scale(0.015625)"/>
       <path id="DejaVuSans-69" d="M 603 3500 
L 1178 3500 
L 1178 0 
L 603 0 
L 603 3500 
z
M 603 4863 
L 1178 4863 
L 1178 4134 
L 603 4134 
L 603 4863 
z
" transform="scale(0.015625)"/>
       <path id="DejaVuSans-73" d="M 2834 3397 
L 2834 2853 
Q 2591 2978 2328 3040 
Q 2066 3103 1784 3103 
Q 1356 3103 1142 2972 
Q 928 2841 928 2578 
Q 928 2378 1081 2264 
Q 1234 2150 1697 2047 
L 1894 2003 
Q 2506 1872 2764 1633 
Q 3022 1394 3022 966 
Q 3022 478 2636 193 
Q 2250 -91 1575 -91 
Q 1294 -91 989 -36 
Q 684 19 347 128 
L 347 722 
Q 666 556 975 473 
Q 1284 391 1588 391 
Q 1994 391 2212 530 
Q 2431 669 2431 922 
Q 2431 1156 2273 1281 
Q 2116 1406 1581 1522 
L 1381 1569 
Q 847 1681 609 1914 
Q 372 2147 372 2553 
Q 372 3047 722 3315 
Q 1072 3584 1716 3584 
Q 2034 3584 2315 3537 
Q 2597 3491 2834 3397 
z
" transform="scale(0.015625)"/>
      </defs>
      <use xlink:href="#DejaVuSans-58"/>
      <use xlink:href="#DejaVuSans-2d" transform="translate(63.505859 0)"/>
      <use xlink:href="#DejaVuSans-61" transform="translate(99.589844 0)"/>
      <use xlink:href="#DejaVuSans-78" transform="translate(160.869141 0)"/>
      <use xlink:href="#DejaVuSans-69" transform="translate(220.048828 0)"/>
      <use xlink:href="#DejaVuSans-73" transform="translate(247.832031 0)"/>
     </g>
    </g>
   </g>
   <g id="matplotlib.axis_2">
    <g id="ytick_1">
     <g id="line2d_9">
      <defs>
       <path id="m0e89917a87" d="M 0 0 
L -3.5 0 
" style="stroke: #000000; stroke-width: 0.8"/>
      </defs>
      <g>
       <use xlink:href="#m0e89917a87" x="57.6" y="283.495643" style="stroke: #000000; stroke-width: 0.8"/>
      </g>
     </g>
     <g id="text_10">
      <!-- −40 -->
      <g transform="translate(29.495313 287.294861) scale(0.1 -0.1)">
       <defs>
        <path id="DejaVuSans-34" d="M 2419 4116 
L 825 1625 
L 2419 1625 
L 2419 4116 
z
M 2253 4666 
L 3047 4666 
L 3047 1625 
L 3713 1625 
L 3713 1100 
L 3047 1100 
L 3047 0 
L 2419 0 
L 2419 1100 
L 313 1100 
L 313 1709 
L 2253 4666 
z
" transform="scale(0.015625)"/>
       </defs>
       <use xlink:href="#DejaVuSans-2212"/>
       <use xlink:href="#DejaVuSans-34" transform="translate(83.789062 0)"/>
       <use xlink:href="#DejaVuSans-30" transform="translate(147.412109 0)"/>
      </g>
     </g>
    </g>
    <g id="ytick_2">
     <g id="line2d_10">
      <g>
       <use xlink:href="#m0e89917a87" x="57.6" y="231.663539" style="stroke: #000000; stroke-width: 0.8"/>
      </g>
     </g>
     <g id="text_11">
      <!-- −30 -->
      <g transform="translate(29.495313 235.462758) scale(0.1 -0.1)">
       <defs>
        <path id="DejaVuSans-33" d="M 2597 2516 
Q 3050 2419 3304 2112 
Q 3559 1806 3559 1356 
Q 3559 666 3084 287 
Q 2609 -91 1734 -91 
Q 1441 -91 1130 -33 
Q 819 25 488 141 
L 488 750 
Q 750 597 1062 519 
Q 1375 441 1716 441 
Q 2309 441 2620 675 
Q 2931 909 2931 1356 
Q 2931 1769 2642 2001 
Q 2353 2234 1838 2234 
L 1294 2234 
L 1294 2753 
L 1863 2753 
Q 2328 2753 2575 2939 
Q 2822 3125 2822 3475 
Q 2822 3834 2567 4026 
Q 2313 4219 1838 4219 
Q 1578 4219 1281 4162 
Q 984 4106 628 3988 
L 628 4550 
Q 988 4650 1302 4700 
Q 1616 4750 1894 4750 
Q 2613 4750 3031 4423 
Q 3450 4097 3450 3541 
Q 3450 3153 3228 2886 
Q 3006 2619 2597 2516 
z
" transform="scale(0.015625)"/>
       </defs>
       <use xlink:href="#DejaVuSans-2212"/>
       <use xlink:href="#DejaVuSans-33" transform="translate(83.789062 0)"/>
       <use xlink:href="#DejaVuSans-30" transform="translate(147.412109 0)"/>
      </g>
     </g>
    </g>
    <g id="ytick_3">
     <g id="line2d_11">
      <g>
       <use xlink:href="#m0e89917a87" x="57.6" y="179.831436" style="stroke: #000000; stroke-width: 0.8"/>
      </g>
     </g>
     <g id="text_12">
      <!-- −20 -->
      <g transform="translate(29.495313 183.630655) scale(0.1 -0.1)">
       <use xlink:href="#DejaVuSans-2212"/>
       <use xlink:href="#DejaVuSans-32" transform="translate(83.789062 0)"/>
       <use xlink:href="#DejaVuSans-30" transform="translate(147.412109 0)"/>
      </g>
     </g>
    </g>
    <g id="ytick_4">
     <g id="line2d_12">
      <g>
       <use xlink:href="#m0e89917a87" x="57.6" y="127.999332" style="stroke: #000000; stroke-width: 0.8"/>
      </g>
     </g>
     <g id="text_13">
      <!-- −10 -->
      <g transform="translate(29.495313 131.798551) scale(0.1 -0.1)">
       <use xlink:href="#DejaVuSans-2212"/>
       <use xlink:href="#DejaVuSans-31" transform="translate(83.789062 0)"/>
       <use xlink:href="#DejaVuSans-30" transform="translate(147.412109 0)"/>
      </g>
     </g>
    </g>
    <g id="ytick_5">
     <g id="line2d_13">
      <g>
       <use xlink:href="#m0e89917a87" x="57.6" y="76.167229" style="stroke: #000000; stroke-width: 0.8"/>
      </g>
     </g>
     <g id="text_14">
      <!-- 0 -->
      <g transform="translate(44.2375 79.966448) scale(0.1 -0.1)">
       <use xlink:href="#DejaVuSans-30"/>
      </g>
     </g>
    </g>
    <g id="text_15">
     <!-- Y-axis -->
     <g transform="translate(23.415625 188.80925) rotate(-90) scale(0.1 -0.1)">
      <defs>
       <path id="DejaVuSans-59" d="M -13 4666 
L 666 4666 
L 1959 2747 
L 3244 4666 
L 3922 4666 
L 2272 2222 
L 2272 0 
L 1638 0 
L 1638 2222 
L -13 4666 
z
" transform="scale(0.015625)"/>
      </defs>
      <use xlink:href="#DejaVuSans-59"/>
      <use xlink:href="#DejaVuSans-2d" transform="translate(49.208984 0)"/>
      <use xlink:href="#DejaVuSans-61" transform="translate(85.292969 0)"/>
      <use xlink:href="#DejaVuSans-78" transform="translate(146.572266 0)"/>
      <use xlink:href="#DejaVuSans-69" transform="translate(205.751953 0)"/>
      <use xlink:href="#DejaVuSans-73" transform="translate(233.535156 0)"/>
     </g>
    </g>
   </g>
   <g id="line2d_14">
    <path d="M 179.567303 76.167229 
L 179.662204 76.172283 
L 185.607689 76.247232 
L 185.553234 76.145392 
L 185.744365 75.954085 
L 185.939645 75.861057 
L 186.196858 75.781821 
L 188.732164 76.093876 
L 199.294535 77.703947 
L 209.992426 79.764299 
L 220.790169 81.310731 
L 226.353496 81.505962 
L 242.670954 82.511888 
L 256.280598 83.517141 
L 264.108062 89.471908 
L 271.611963 94.375712 
L 278.120998 98.539349 
L 281.425389 104.888818 
L 282.876242 107.956366 
L 284.219875 111.207016 
L 285.434768 114.469137 
L 286.364768 117.754292 
L 287.707099 124.374848 
L 288.507014 131.049662 
L 288.368699 137.416365 
L 287.366785 143.617149 
L 285.758883 149.944407 
L 284.834559 153.275455 
L 282.479653 163.182861 
L 280.779101 169.457328 
L 279.310686 175.762004 
L 278.419563 179.046807 
L 276.624351 184.869874 
L 276.610213 184.850292 
L 276.414166 184.767604 
L 262.789728 185.150555 
L 257.274205 185.044729 
L 246.246757 184.437744 
L 240.77413 183.900629 
L 229.172643 182.491071 
L 220.90497 181.050045 
L 204.251165 181.840858 
L 198.725318 181.592991 
L 193.247481 181.171944 
L 187.681282 181.017183 
L 176.858644 180.969306 
L 165.345114 180.316201 
L 160.324566 179.952106 
L 154.799555 179.857886 
L 149.234796 179.601804 
L 143.751025 179.199856 
L 132.634584 178.971194 
L 117.86413 178.688797 
L 117.767754 178.638929 
L 117.684696 178.082802 
L 117.448703 174.65089 
L 116.857783 171.310544 
L 116.153227 168.024725 
L 115.071594 164.751585 
L 113.531568 160.903746 
L 111.879036 157.598055 
L 112.089945 155.013976 
L 112.22958 151.703366 
L 111.882702 148.552094 
L 111.351749 145.401194 
L 111.035854 144.302975 
L 113.47161 140.017741 
L 114.562093 136.784573 
L 115.332438 133.521126 
L 117.171555 123.606023 
L 117.557163 120.288441 
L 117.722581 116.965055 
L 118.704888 110.813035 
L 119.499273 107.845264 
L 120.266564 104.545072 
L 121.252494 101.310366 
L 122.114273 98.026548 
L 122.633391 94.80342 
L 122.785818 91.436205 
L 123.512042 84.828928 
L 125.197714 79.645215 
L 125.688092 79.687417 
L 140.275213 81.470255 
L 151.256867 82.384065 
L 181.240141 84.749122 
L 197.671149 85.246508 
L 208.18939 85.824887 
L 254.11672 90.002104 
L 258.123071 91.601591 
L 261.955328 93.487248 
L 265.424817 95.82444 
L 268.679473 98.489543 
L 271.457716 101.327859 
L 273.670201 104.392764 
L 277.667297 110.432277 
L 279.610295 113.533817 
L 282.947077 119.874106 
L 284.440342 123.040026 
L 285.687021 125.985313 
L 286.759434 129.089279 
L 287.685932 132.205072 
L 288.531425 135.493441 
L 289.121214 138.792964 
L 289.594633 142.093342 
L 289.587422 145.398556 
L 289.404546 148.698265 
L 288.589554 154.967052 
L 287.874311 159.132508 
L 287.004346 162.20256 
L 284.581383 168.221817 
L 281.092347 177.806563 
L 277.858126 187.57184 
L 274.954696 194.00325 
L 274.024679 195.874187 
L 274.035504 195.870813 
L 247.031904 195.222129 
L 224.9751 195.81824 
L 219.770547 195.638424 
L 214.580915 195.221844 
L 211.389729 195.109736 
L 212.517131 195.145873 
L 204.36927 193.130926 
L 196.64341 191.522322 
L 187.884471 191.969856 
L 182.361194 192.49546 
L 176.826099 192.763167 
L 166.589352 191.989874 
L 161.303777 191.883488 
L 155.725354 191.648502 
L 144.709283 191.517808 
L 133.632995 190.865739 
L 128.760233 190.909822 
L 129.00261 190.930462 
L 125.998103 189.100244 
L 119.429326 184.427601 
L 115.938436 181.749281 
L 115.433343 178.866716 
L 114.648265 175.635622 
L 112.175574 169.244874 
L 112.727979 165.862803 
L 113.11012 162.647855 
L 113.266885 159.491663 
L 113.030538 156.320871 
L 114.091926 149.407095 
L 116.721021 142.969133 
L 117.624126 139.70398 
L 119.908369 133.173068 
L 120.159018 129.860374 
L 119.920385 126.540865 
L 120.865739 120.215643 
L 120.867904 117.190343 
L 122.628724 110.627264 
L 123.767038 107.387602 
L 125.092988 104.153896 
L 126.656528 100.97355 
L 127.939928 97.735568 
L 129.423334 94.568885 
L 131.763938 87.915105 
L 131.933254 87.876277 
L 146.81047 89.340705 
L 157.593661 90.805958 
L 162.916268 91.704991 
L 173.200784 94.197799 
L 183.195999 96.773973 
L 193.110986 98.619414 
L 200.06814 100.149295 
L 205.47283 100.790106 
L 210.926618 101.236349 
L 221.815406 102.564614 
L 227.274266 103.236872 
L 235.227356 104.003484 
L 235.421083 102.844316 
L 235.760293 96.276354 
L 235.769643 92.961691 
L 235.588458 89.657845 
L 235.078345 86.36661 
L 234.508188 84.594346 
L 234.703864 84.720578 
L 234.909366 84.920262 
L 234.336276 91.618581 
L 233.163356 98.219389 
L 232.114233 102.417551 
L 232.555391 102.397689 
L 233.702615 102.609314 
L 239.178632 103.448015 
L 250.071414 103.973898 
L 252.41546 104.044685 
L 253.934422 107.42601 
L 256.595647 114.517585 
L 256.996851 115.926874 
L 257.060561 115.707961 
L 257.241807 115.65872 
L 257.97632 112.827252 
L 255.846436 109.791912 
L 256.622068 108.98527 
L 262.792169 103.664906 
L 262.851454 103.676164 
L 276.228694 108.350606 
L 279.632127 109.68959 
L 280.002933 109.472284 
L 284.001599 106.997747 
L 287.478231 104.395039 
L 290.560801 101.631911 
L 291.603161 100.555405 
L 291.551812 100.622942 
L 292.663696 101.256035 
L 297.153584 103.075202 
L 301.952837 104.671983 
L 307.060143 106.583935 
L 305.857663 106.676196 
L 305.728957 106.509027 
L 307.319521 105.675448 
L 307.287882 105.696015 
L 306.90462 106.307245 
L 303.58572 112.708655 
L 300.754695 115.560395 
L 297.556176 118.22019 
L 294.330098 120.623339 
L 294.311001 120.595345 
L 302.872771 124.793703 
L 302.872331 124.788536 
L 300.066399 127.122328 
L 293.153771 132.196929 
L 288.413544 136.205769 
L 286.230499 136.939354 
L 282.849019 137.958208 
L 282.901187 137.926766 
L 283.500371 137.456986 
L 288.468517 135.758033 
L 296.125267 133.492779 
L 296.041191 133.5344 
L 300.678857 138.856131 
L 302.892343 141.850669 
L 307.017635 147.051699 
L 307.06732 146.975361 
L 307.392185 146.714407 
L 307.390227 146.55775 
L 306.079958 143.321441 
L 304.595741 140.057698 
L 302.827425 136.881961 
L 301.390581 134.555948 
L 301.389994 134.563267 
L 303.396513 133.858288 
L 307.964689 132.406331 
L 312.874361 130.968654 
L 315.813889 130.273212 
L 315.780283 130.249038 
L 317.232904 132.293658 
L 319.134118 135.462912 
L 320.472386 138.184693 
L 322.804848 137.924341 
L 327.890512 137.1824 
L 332.82293 136.592442 
L 343.541627 135.6814 
L 353.377584 135.478353 
L 353.600647 135.563181 
L 353.554378 135.640986 
L 353.596282 135.721891 
L 353.481378 135.649792 
L 353.481378 135.649792 
L 349.512713 135.838269 
L 344.119055 136.25783 
L 338.621776 136.568029 
L 327.692187 137.531915 
L 323.545977 138.080324 
L 324.27918 139.274318 
L 325.982302 142.333791 
L 327.503765 145.484696 
L 329.243315 148.619937 
L 331.223015 151.723902 
L 333.514677 154.742495 
L 335.301306 157.8586 
L 336.604303 161.079431 
L 342.150241 166.414603 
L 345.026395 169.713172 
L 346.761063 171.909775 
L 354.002385 170.254071 
L 359.354208 169.527644 
L 373.455903 168.289852 
L 373.477113 168.306977 
L 373.468143 168.258348 
L 373.483428 168.265563 
L 367.297317 169.438405 
L 362.007799 170.340423 
L 345.644676 174.085681 
L 352.104871 181.880976 
L 356.237073 187.494501 
L 358.130214 190.570208 
L 359.703061 193.753907 
L 361.130123 196.905579 
L 362.318397 200.161511 
L 363.613278 204.516978 
L 363.613278 204.516978 
L 371.384708 202.553557 
L 376.094071 201.540265 
L 381.346481 200.536443 
L 386.695819 199.770536 
L 391.904505 198.892795 
L 397.877471 197.184933 
L 398.404905 197.372876 
L 398.322994 197.46111 
L 398.470634 197.666987 
L 397.265625 197.938401 
L 386.530031 199.842987 
L 381.378785 201.112469 
L 371.578478 204.069947 
L 370.16966 204.817879 
L 356.676619 210.07565 
L 356.684692 210.070218 
L 363.097377 215.028295 
L 368.035695 219.204397 
L 367.957821 219.464812 
L 368.275967 219.874078 
L 368.425081 219.823464 
L 368.35083 219.810812 
L 368.181583 219.766527 
L 363.287731 218.124377 
L 358.267382 216.661001 
L 353.168304 215.371983 
L 345.271826 213.706742 
L 341.015464 215.56327 
L 337.117496 217.690428 
L 329.691745 222.575905 
L 326.272181 225.148104 
L 322.971559 227.838641 
L 315.80547 234.677343 
L 319.256156 236.831604 
L 323.067141 238.745966 
L 330.853581 243.149103 
L 333.17934 244.642464 
L 333.402093 244.488382 
L 331.449529 243.970699 
L 326.61096 242.550733 
L 321.990485 240.795076 
L 317.148888 239.252257 
L 312.963569 237.643813 
L 310.007151 236.709809 
L 303.033685 240.690551 
L 303.250158 240.613254 
L 311.642587 243.614198 
L 315.512736 245.89776 
L 322.767248 250.617555 
L 326.206659 253.020444 
L 324.381042 251.564258 
L 322.906494 250.310009 
L 320.593096 249.009137 
L 313.144883 244.079386 
L 309.353953 241.893035 
L 305.883022 240.149688 
L 305.414365 240.538885 
L 302.624736 243.469073 
L 299.689753 246.279285 
L 296.48856 248.953464 
L 292.976364 251.467435 
L 290.45435 253.024383 
L 282.952597 257.942499 
L 279.21814 260.323474 
L 275.418929 262.501008 
L 272.116529 264.235398 
L 273.327377 265.102813 
L 277.746819 267.000578 
L 282.895667 268.058026 
L 288.356476 268.227118 
L 293.47585 268.565721 
L 299.2871 270.640835 
L 299.22772 270.548118 
L 287.171859 267.999575 
L 281.73227 267.424912 
L 276.215591 267.26855 
L 271.891215 266.958672 
L 268.733686 270.891189 
L 266.991816 273.986603 
L 267.296747 274.081061 
L 281.704814 277.73579 
L 286.833227 278.944027 
L 294.140529 281.118503 
L 289.71392 279.742775 
L 287.771198 278.920469 
L 287.93169 278.873981 
L 281.865685 277.089723 
L 278.23566 276.453982 
L 267.480304 275.885736 
L 264.826497 275.854424 
L 264.909408 278.1627 
L 264.636781 280.668818 
L 264.00074 283.932255 
L 263.081177 287.171487 
L 262.423838 290.266817 
L 261.924766 295.488 
L 261.813011 295.358741 
L 261.712278 295.309729 
L 261.093532 293.28978 
L 260.403139 289.967119 
L 259.151819 286.748485 
L 257.623732 283.878511 
L 255.64994 277.769133 
L 254.204875 274.582008 
L 252.626327 271.382102 
L 251.625707 268.758272 
L 251.596535 268.770437 
L 250.914164 268.869675 
L 250.914992 268.841753 
L 249.282351 271.216788 
L 240.823996 279.329948 
L 237.641832 281.994253 
L 233.478525 285.172712 
L 222.873215 292.946807 
L 223.058213 292.947325 
L 224.30158 291.457831 
L 230.828289 282.355212 
L 234.520005 275.506641 
L 234.507748 275.507294 
L 225.075177 273.471941 
L 222.506782 276.165692 
L 219.423004 278.842789 
L 217.025375 281.202487 
L 216.968634 281.152484 
L 219.02105 278.728685 
L 222.180123 276.017794 
L 225.678613 273.398863 
L 225.648353 273.374704 
L 218.326103 271.916942 
L 213.185924 270.750092 
L 203.182885 268.052558 
L 198.325313 266.553397 
L 193.645346 264.841652 
L 188.93249 263.618627 
L 184.693724 262.301547 
L 179.795939 260.968177 
L 175.557605 265.819553 
L 175.612784 265.842805 
L 175.662892 265.805133 
L 176.614301 262.624435 
L 177.932997 259.030921 
L 173.239583 257.963496 
L 168.660512 257.120597 
L 167.801736 258.198907 
L 165.694597 261.2335 
L 161.906479 267.399551 
L 161.061478 268.518927 
L 158.543975 268.678943 
L 151.11147 268.924897 
L 151.205 268.874895 
L 155.321986 268.080962 
L 160.425859 266.967276 
L 162.835513 266.189872 
L 165.085667 263.299248 
L 167.235201 260.255361 
L 167.335174 260.542189 
L 160.695855 257.831982 
L 155.92229 256.206154 
L 151.037055 254.721849 
L 145.906459 253.516908 
L 140.702181 252.525199 
L 130.721328 249.792761 
L 125.556513 248.661712 
L 118.955459 247.503824 
L 116.760708 250.294698 
L 110.856325 255.727661 
L 111.018249 255.8012 
L 111.100367 255.6081 
L 111.986082 254.592258 
L 119.878455 246.769715 
L 119.71095 246.726778 
L 114.672641 245.477842 
L 109.861985 243.841005 
L 89.693337 238.964298 
L 84.858718 237.698465 
L 73.832727 234.594691 
L 73.894859 234.677198 
L 74.17851 234.629279 
L 74.445505 234.562037 
L 81.010676 236.159274 
L 91.125756 238.648931 
L 96.216647 239.900987 
L 102.470832 241.56727 
L 103.260827 239.69851 
L 104.774294 236.490067 
L 106.568747 233.348295 
L 108.140378 230.326587 
L 109.902803 227.381072 
L 111.532209 224.36956 
L 115.431989 218.189089 
L 119.394262 212.741841 
L 118.579667 212.567089 
L 107.813718 210.852675 
L 102.84904 209.85656 
L 91.468252 208.229825 
L 91.460437 208.31058 
L 91.550905 208.2284 
L 91.766274 208.149636 
L 96.553356 209.023821 
L 102.996273 210.409993 
L 108.577628 210.112647 
L 112.505269 210.078526 
L 112.131315 210.066962 
L 117.684946 210.556693 
L 122.825643 211.8621 
L 125.855139 212.762501 
L 125.887477 212.714147 
L 125.79437 212.710996 
L 122.304049 217.364503 
L 119.670866 220.265406 
L 117.266836 223.272901 
L 116.538844 226.58207 
L 117.308257 229.891042 
L 129.671792 234.336303 
L 134.595437 236.287528 
L 146.652523 241.534196 
L 156.799716 240.757456 
L 172.889556 238.970041 
L 174.209702 239.060219 
L 179.442298 239.621047 
L 199.739074 241.214947 
L 201.417225 240.847623 
L 206.587983 239.904766 
L 216.494146 239.684516 
L 227.397348 239.860465 
L 232.859253 240.127032 
L 242.682176 240.917322 
L 257.617176 237.295496 
L 267.94257 234.98947 
L 273.246571 234.152185 
L 278.658567 233.501666 
L 288.435351 232.770129 
L 287.447402 229.969868 
L 286.742044 226.866934 
L 286.376025 223.592752 
L 286.165452 220.294162 
L 286.302378 216.998024 
L 286.813802 210.80713 
L 286.605161 207.497251 
L 286.857526 203.272909 
L 283.991438 198.331314 
L 282.770006 195.273261 
L 282.126573 191.994399 
L 283.36222 185.423182 
L 282.739221 182.14816 
L 281.958473 178.904455 
L 281.703882 175.593342 
L 281.84293 172.312443 
L 282.219447 169.021395 
L 282.910667 165.886117 
L 283.792216 162.797043 
L 285.125266 156.574874 
L 285.351823 153.291766 
L 285.126275 150.010737 
L 284.500774 146.715661 
L 283.908207 141.24229 
L 283.899935 141.243751 
L 275.770482 142.598394 
L 270.528958 142.830006 
L 265.042849 142.778334 
L 243.071226 143.250846 
L 232.085863 143.682675 
L 226.632834 143.969908 
L 211.290549 145.22241 
L 206.114004 145.794626 
L 195.366704 147.225912 
L 179.251978 149.149137 
L 163.273704 151.021893 
L 153.189212 152.253849 
L 142.784408 153.781637 
L 139.399598 154.256745 
L 136.73682 157.147095 
L 133.694722 159.917827 
L 129.963508 162.303327 
L 125.98676 164.602858 
L 121.821608 166.736029 
L 118.082725 168.908007 
L 114.585348 171.270991 
L 111.603769 173.661207 
L 110.216609 174.954056 
L 110.439742 179.21551 
L 110.877062 182.469099 
L 111.07461 185.7349 
L 111.842911 189.021335 
L 112.484127 195.582149 
L 112.976014 199.621902 
L 113.539521 202.732196 
L 113.642504 205.727289 
L 114.509044 212.169506 
L 115.006055 215.896944 
L 115.651653 219.218625 
L 116.907597 223.474072 
L 128.681204 223.15856 
L 139.654085 223.566001 
L 146.586414 223.988692 
L 145.866185 225.985073 
L 145.622308 229.355233 
L 145.014835 232.907525 
L 145.129964 232.842269 
L 145.491506 233.002508 
L 145.396579 231.113051 
L 145.015974 227.757938 
L 143.813571 221.120418 
L 142.966706 215.873386 
L 143.024283 215.871033 
L 143.111137 215.690435 
L 148.078369 215.152075 
L 157.589314 214.458966 
L 157.574408 214.451564 
L 158.047215 216.044842 
L 160.754054 222.106389 
L 160.948367 222.184567 
L 168.118001 225.827773 
L 168.110402 225.817339 
L 170.848483 232.011669 
L 171.021189 232.020357 
L 181.736841 231.793809 
L 181.728249 231.794198 
L 187.382837 233.793144 
L 187.134949 233.705061 
L 171.173409 232.351279 
L 168.709119 229.879877 
L 166.066654 226.980669 
L 163.784895 224.231204 
L 163.939013 224.04918 
L 167.039551 223.648648 
L 172.612909 223.071248 
L 177.947696 222.735506 
L 179.843001 221.850364 
L 190.570427 220.316668 
L 200.287943 219.186894 
L 205.083642 217.680425 
L 210.33688 216.53818 
L 215.392224 215.585159 
L 220.185388 215.256854 
L 224.875343 214.18635 
L 229.789224 212.669794 
L 239.282624 210.167626 
L 245.145957 208.531696 
L 245.124013 208.52347 
L 249.944563 211.636169 
L 250.321226 214.674007 
L 251.169712 217.638798 
L 252.441484 221.374908 
L 252.441294 221.308796 
L 250.123678 218.622971 
L 248.75245 214.690153 
L 248.63683 211.372344 
L 248.928589 206.917924 
L 248.962955 206.919914 
L 251.596474 206.644732 
L 261.740907 205.991104 
L 261.740718 205.995763 
L 262.438545 208.008326 
L 266.267386 217.34293 
L 267.346941 220.434705 
L 270.54031 226.879742 
L 270.48557 226.868282 
L 270.595705 226.817248 
L 270.544933 226.753676 
L 270.474745 226.718202 
L 251.106132 234.970049 
L 246.560917 236.48097 
L 241.573984 237.87301 
L 230.847464 239.45577 
L 220.214465 241.399759 
L 215.897619 242.37921 
L 221.226617 241.133078 
L 231.160443 238.585209 
L 241.508557 236.292333 
L 252.106389 234.514434 
L 262.78413 233.043662 
L 270.445141 232.041794 
L 269.158809 228.55749 
L 266.043892 222.197624 
L 264.320309 219.060092 
L 260.638529 212.747683 
L 258.012971 208.169254 
L 258.018742 208.175573 
L 257.268806 208.37226 
L 252.557001 209.816816 
L 242.944953 212.427977 
L 238.053421 213.932668 
L 232.878411 214.947411 
L 227.728467 216.146697 
L 223.003154 217.730308 
L 217.87186 218.99541 
L 212.933248 220.387807 
L 208.098224 221.954142 
L 203.585512 223.537286 
L 193.736797 225.264431 
L 188.801438 226.274877 
L 183.51876 227.084142 
L 178.212422 228.038677 
L 162.642597 231.115902 
L 157.394198 232.039115 
L 146.226123 234.591333 
L 141.074351 235.225301 
L 131.710708 237.628569 
L 127.125125 238.958617 
L 121.942214 240.25753 
L 117.304988 241.581617 
L 117.236973 241.533631 
L 115.689641 238.667497 
L 113.872796 235.032688 
L 113.872796 235.032688 
" clip-path="url(#p9121c44648)" style="fill: none; stroke: #0000ff; stroke-opacity: 0.7; stroke-width: 0.75; stroke-linecap: square"/>
   </g>
   <g id="line2d_15">
    <path d="M 179.567303 76.167229 
L 179.567245 76.16723 
L 179.662137 76.172146 
L 185.607197 76.223425 
L 185.552747 76.121589 
L 185.743847 75.930306 
L 185.939066 75.837303 
L 186.196219 75.75808 
L 188.731511 76.070134 
L 199.294193 77.680178 
L 209.825473 79.693095 
L 220.33941 81.224478 
L 225.850627 81.459233 
L 236.748701 82.186775 
L 255.648523 84.013177 
L 262.981044 90.008311 
L 270.200942 95.056937 
L 276.379485 99.19836 
L 276.331793 99.124122 
L 278.956068 105.124159 
L 280.056887 107.999821 
L 281.030601 111.039207 
L 281.865711 114.075255 
L 282.417049 117.276954 
L 283.00753 123.705727 
L 283.059341 130.163343 
L 282.256202 136.308779 
L 280.680648 142.225267 
L 278.636492 147.921457 
L 277.434004 151.066615 
L 274.208897 160.454873 
L 271.699497 166.287595 
L 268.195068 175.112199 
L 266.817976 178.17655 
L 265.907153 180.496425 
L 265.996604 180.363761 
L 266.427596 180.386745 
L 258.534325 180.607874 
L 253.086043 180.627478 
L 242.602415 180.362751 
L 237.611757 180.150211 
L 232.872609 179.75568 
L 223.064028 178.659482 
L 219.212602 177.983015 
L 216.104339 177.308418 
L 216.177383 177.309471 
L 200.498499 177.356299 
L 195.137759 176.847954 
L 189.773532 176.152481 
L 184.385942 175.704598 
L 174.033553 175.12546 
L 157.86658 173.398803 
L 152.585587 173.111427 
L 147.2612 172.707475 
L 141.973585 172.124785 
L 116.408765 170.206402 
L 116.401801 169.786242 
L 116.567917 166.500528 
L 116.370188 163.277209 
L 116.044639 160.098653 
L 115.376023 156.772956 
L 114.311459 152.881515 
L 113.065483 149.617099 
L 113.518353 146.899251 
L 113.932972 143.469723 
L 113.79491 140.251121 
L 113.454071 137.238189 
L 113.222958 136.311998 
L 115.757782 131.974314 
L 116.825019 128.785761 
L 117.603059 125.480832 
L 119.346311 115.55893 
L 119.64837 112.295999 
L 119.703888 109.057755 
L 120.418992 103.039314 
L 121.044763 100.040235 
L 121.58854 96.756335 
L 122.318348 93.47168 
L 122.858493 90.197542 
L 122.883868 86.947394 
L 122.526144 83.579444 
L 122.261989 76.941224 
L 123.205531 71.595183 
L 123.831201 71.616701 
L 139.003137 72.679818 
L 150.072693 73.049892 
L 166.253634 73.410517 
L 178.117017 73.582084 
L 178.103788 73.58 
L 178.083938 73.645316 
L 177.652397 73.302468 
L 179.15977 73.426723 
L 195.622799 74.175454 
L 205.80154 74.883459 
L 242.601501 78.782341 
L 251.857791 80.043289 
L 255.651115 81.693972 
L 259.153324 83.561971 
L 262.138153 85.75183 
L 265.016611 88.385557 
L 267.451296 91.154471 
L 271.099208 96.955747 
L 274.667192 102.858829 
L 277.929907 109.069805 
L 279.343958 112.146041 
L 280.481102 114.977447 
L 281.412415 117.926683 
L 282.170475 120.860727 
L 282.817933 124.091801 
L 283.502812 130.504971 
L 283.327595 133.656234 
L 282.986423 136.780155 
L 281.943706 142.505786 
L 281.141653 146.31307 
L 280.15107 149.299908 
L 277.473112 155.051229 
L 272.010436 167.301395 
L 270.7799 170.395109 
L 269.310743 173.436902 
L 266.011392 179.494248 
L 265.048363 181.165797 
L 265.14959 181.064646 
L 265.450501 181.067172 
L 238.909984 180.008012 
L 222.958796 180.020119 
L 217.387127 180.431275 
L 212.905677 180.385555 
L 206.4209 180.106504 
L 208.315896 180.194025 
L 200.655623 178.133007 
L 193.45537 176.418046 
L 185.193389 176.535537 
L 179.88796 176.806334 
L 174.597319 176.811522 
L 164.987132 175.551434 
L 149.345346 174.556434 
L 144.037182 174.315795 
L 133.62472 173.476734 
L 128.84956 173.384419 
L 129.289913 173.420849 
L 126.466495 171.654114 
L 120.131755 167.187237 
L 116.333774 164.365838 
L 116.311594 164.002951 
L 114.984726 158.465277 
L 112.550207 152.295028 
L 113.053763 148.886832 
L 113.37654 145.65823 
L 113.462821 142.508315 
L 113.140645 139.388615 
L 113.895032 132.472395 
L 114.992433 129.313241 
L 115.967934 126.117224 
L 116.526293 122.86843 
L 117.970831 116.348516 
L 117.817197 113.08872 
L 117.162904 109.90426 
L 117.175512 103.587326 
L 116.696137 100.66859 
L 117.245041 94.0527 
L 117.75802 90.783391 
L 118.469151 87.492425 
L 119.440009 84.218705 
L 120.121778 80.930409 
L 121.023577 77.681727 
L 122.060169 70.865773 
L 122.215535 70.81418 
L 137.11555 70.957917 
L 147.894077 71.439298 
L 153.275257 71.84503 
L 169.202068 74.144343 
L 174.147208 74.937971 
L 184.085518 75.872024 
L 190.83321 76.768889 
L 196.176901 76.991683 
L 201.609853 77.048283 
L 212.546701 77.631356 
L 218.031426 77.95202 
L 225.877403 78.253564 
L 225.850208 78.260157 
L 225.893452 77.138857 
L 225.51128 70.652497 
L 225.189184 67.313125 
L 224.693738 63.991013 
L 223.883899 60.694358 
L 223.267647 58.840927 
L 223.496315 58.959552 
L 223.788455 59.04721 
L 223.826894 59.122315 
L 223.035091 65.722844 
L 221.501648 72.11497 
L 220.163555 76.071789 
L 220.473983 76.019452 
L 221.019516 76.072522 
L 221.414979 75.962748 
L 221.554169 75.78179 
L 221.55859 75.79096 
L 222.558592 76.148307 
L 227.527605 77.729086 
L 232.514744 78.774159 
L 239.652827 80.088844 
L 239.535727 80.065698 
L 239.709732 83.589291 
L 239.575559 90.888128 
L 239.333926 92.430125 
L 238.984773 92.392906 
L 239.015122 92.30494 
L 238.911951 92.331403 
L 238.710649 92.327194 
L 240.328977 89.739311 
L 239.250354 86.494385 
L 240.186606 85.857284 
L 248.377621 81.179997 
L 248.431623 81.197725 
L 263.203725 88.55909 
L 263.098138 88.521529 
L 268.288193 86.381732 
L 272.60473 84.24978 
L 278.095598 80.955963 
L 278.001702 80.931617 
L 278.057155 80.913329 
L 278.864176 81.594431 
L 282.666217 83.79691 
L 286.80264 85.75013 
L 290.934323 87.975756 
L 289.631728 87.905591 
L 289.666421 87.559958 
L 289.439946 87.476902 
L 291.721892 86.99132 
L 291.101536 87.341677 
L 283.529094 91.89092 
L 278.937806 93.547759 
L 274.150118 94.930973 
L 269.555815 96.071526 
L 269.675118 96.032189 
L 269.710371 95.850038 
L 272.722606 100.316783 
L 273.477858 101.65262 
L 273.467063 101.525935 
L 273.583777 101.390564 
L 269.321686 102.500169 
L 254.129772 105.953861 
L 251.697507 106.645135 
L 245.407364 106.425774 
L 245.438574 106.419402 
L 246.130415 106.315161 
L 251.831747 106.360054 
L 260.33363 106.732516 
L 260.228476 106.73689 
L 260.269021 106.772174 
L 259.853524 112.882044 
L 259.277257 116.194322 
L 258.922371 119.555747 
L 258.52403 122.025007 
L 258.584109 121.998728 
L 258.875334 121.921354 
L 258.865353 121.925355 
L 258.960375 121.811337 
L 260.162229 118.579817 
L 261.207116 115.277934 
L 261.924427 111.973754 
L 262.305792 109.531772 
L 262.27878 109.561243 
L 264.540403 109.432202 
L 275.130677 109.176129 
L 278.180769 109.261379 
L 278.12312 109.250189 
L 278.044725 109.068995 
L 277.921899 111.133416 
L 277.423061 114.327254 
L 276.738832 116.972188 
L 276.833309 116.856067 
L 279.029455 117.214565 
L 284.081003 117.858145 
L 288.873605 118.597992 
L 293.821866 119.494205 
L 299.153314 120.580188 
L 308.30619 123.025818 
L 308.613599 123.236832 
L 304.914612 122.452152 
L 299.729955 121.514995 
L 294.519284 120.453693 
L 283.936729 118.667037 
L 279.865675 118.141762 
L 279.973279 118.082792 
L 279.860941 119.272601 
L 279.390707 122.40609 
L 278.717156 125.57618 
L 278.19422 128.804009 
L 277.883505 132.034884 
L 277.897516 135.228606 
L 277.375596 138.448069 
L 276.318342 141.69734 
L 276.877793 144.632302 
L 277.58169 147.622935 
L 277.860144 151.219269 
L 277.861225 153.526192 
L 277.891452 153.464893 
L 285.095819 153.974228 
L 290.12219 154.813002 
L 300.406864 157.040748 
L 303.49359 157.84215 
L 303.472871 157.744061 
L 303.604928 157.465728 
L 297.733472 156.477883 
L 292.667045 155.512624 
L 276.459408 153.214719 
L 276.64532 153.086285 
L 274.551854 161.314763 
L 272.756559 167.070786 
L 271.536415 170.071975 
L 270.016669 173.019516 
L 268.240476 176.144972 
L 266.160641 179.258239 
L 263.056925 183.210892 
L 263.035512 183.158138 
L 263.07273 183.161876 
L 271.394995 184.324292 
L 276.234493 185.177922 
L 281.4902 186.236539 
L 286.565701 187.525666 
L 291.641953 188.684803 
L 298.31329 189.539781 
L 298.500734 189.325146 
L 298.719555 189.567208 
L 298.832452 189.479803 
L 298.885627 189.297442 
L 299.034351 189.25607 
L 297.850006 188.986773 
L 287.729842 186.116243 
L 282.512494 184.996973 
L 272.169577 183.187503 
L 270.625907 183.19062 
L 255.224218 182.018383 
L 255.661631 182.092259 
L 255.139386 182.126793 
L 253.349913 192.687284 
L 253.289473 192.714134 
L 253.019725 193.079541 
L 253.368136 193.376446 
L 254.177034 193.533431 
L 254.110009 193.436607 
L 254.01552 193.25832 
L 252.827737 189.875046 
L 251.327571 186.5607 
L 249.553226 183.333774 
L 247.548268 180.157291 
L 246.326325 178.504646 
L 241.331823 177.822913 
L 236.261903 177.476098 
L 220.973096 177.503326 
L 216.245304 177.74847 
L 205.385998 178.640173 
L 205.449447 178.596172 
L 204.644407 181.730328 
L 204.332083 184.944618 
L 203.672863 188.420513 
L 202.875031 191.529485 
L 202.171653 193.570942 
L 202.49846 193.687309 
L 202.77957 193.616266 
L 202.457887 192.393759 
L 201.884742 189.217294 
L 201.913476 185.852108 
L 201.52013 182.489987 
L 201.580654 179.424377 
L 201.410434 177.294675 
L 201.322953 177.2775 
L 192.074628 175.797977 
L 192.417903 175.825229 
L 192.514572 181.533799 
L 191.254871 184.644191 
L 188.198939 190.741785 
L 186.488004 193.733011 
L 187.610613 192.073216 
L 188.656608 190.795642 
L 188.489416 190.924373 
L 187.607312 190.906139 
L 186.68329 190.657851 
L 186.14265 190.250873 
L 186.913219 188.351899 
L 190.433683 182.034761 
L 191.79942 178.946742 
L 192.725444 176.15616 
L 192.133299 176.106015 
L 180.862412 176.242179 
L 175.489716 176.099967 
L 170.326147 175.762389 
L 166.978926 175.370141 
L 151.257203 173.793185 
L 146.34508 173.111926 
L 142.126091 172.383598 
L 142.174999 172.377616 
L 141.634754 173.22497 
L 140.671028 176.443807 
L 141.270493 179.757035 
L 143.373459 182.911584 
L 145.040587 185.947002 
L 144.239153 190.017813 
L 144.569584 190.099212 
L 144.828193 189.95165 
L 144.518788 185.544734 
L 144.436351 182.425676 
L 143.423824 179.243846 
L 141.722369 176.066537 
L 140.663175 173.455838 
L 133.952891 173.074747 
L 128.792532 173.160204 
L 128.673704 173.659271 
L 127.735505 179.724597 
L 127.282046 182.790869 
L 126.967173 186.022341 
L 125.864234 190.715619 
L 126.648075 187.676331 
L 127.179004 186.264235 
L 127.342029 186.156582 
L 127.775979 186.156186 
L 127.850837 186.214459 
L 128.438199 182.020527 
L 128.076759 179.700329 
L 124.971651 173.654245 
L 124.140826 172.243862 
L 124.545275 172.487057 
L 121.074299 173.352818 
L 117.228545 174.095725 
L 112.115295 174.924169 
L 106.970326 175.591809 
L 102.117912 176.354866 
L 94.120781 177.982539 
L 94.243864 177.948463 
L 94.638728 178.648761 
L 94.854269 178.598111 
L 94.759979 178.792129 
L 97.590106 177.686459 
L 102.423782 176.025881 
L 106.818987 174.115462 
L 110.527819 172.205724 
L 119.023506 168.761919 
L 123.246819 166.748375 
L 127.616122 164.53639 
L 131.506909 162.855527 
L 131.591881 162.885085 
L 131.25244 162.6701 
L 131.217874 162.618196 
L 131.302837 162.66409 
L 131.466012 162.588504 
L 127.394923 162.868927 
L 111.752016 162.510313 
L 106.39145 162.185481 
L 94.490042 161.033789 
L 83.733629 159.894194 
L 83.55018 160.01042 
L 83.553697 160.24705 
L 83.800869 160.344658 
L 86.608361 160.309742 
L 103.117888 159.59372 
L 115.303682 158.392989 
L 114.166771 152.31454 
L 114.22527 152.318639 
L 109.235563 152.139306 
L 104.032881 151.679529 
L 99.700109 151.498337 
L 99.864864 151.449208 
L 99.952252 151.325093 
L 100.132935 151.268273 
L 104.827461 151.332095 
L 110.416543 151.888084 
L 116.147845 152.700605 
L 116.239145 152.596117 
L 115.9098 151.174463 
L 115.332125 147.928302 
L 114.932657 144.596673 
L 114.792677 141.253303 
L 114.877004 137.964242 
L 115.108145 134.668652 
L 115.673032 131.317754 
L 115.418911 128.282869 
L 115.438622 125.444239 
L 115.060774 122.091652 
L 114.487685 121.933689 
L 105.873029 121.322843 
L 106.279537 121.376486 
L 111.761791 120.788278 
L 118.22541 120.225469 
L 118.300847 117.197495 
L 118.078362 114.333586 
L 116.285785 114.223286 
L 111.012082 114.054137 
L 100.597043 113.976309 
L 98.943726 113.906487 
L 99.076034 113.938492 
L 97.955736 112.500932 
L 95.058931 108.061859 
L 95.183782 107.828203 
L 95.48382 107.647412 
L 95.968605 107.72582 
L 98.481026 109.817446 
L 101.809743 112.383701 
L 103.805643 113.539774 
L 108.834057 113.941092 
L 114.089738 114.214585 
L 113.563287 114.388629 
L 114.248355 112.744693 
L 115.429772 109.447873 
L 116.161679 106.043479 
L 116.569278 102.618307 
L 116.384049 99.328909 
L 115.825812 96.073929 
L 115.964842 89.534853 
L 115.581573 86.252919 
L 114.648297 82.053929 
L 109.550547 81.9245 
L 98.928758 80.698313 
L 99.26416 80.673804 
L 99.472147 80.599506 
L 101.360815 80.803305 
L 111.44369 82.316015 
L 116.075372 83.078716 
L 115.995078 83.069849 
L 117.072479 79.711842 
L 118.680416 76.642041 
L 120.375727 70.243327 
L 121.82091 63.909981 
L 122.66878 60.7883 
L 125.036956 53.598097 
L 124.69704 53.568 
L 124.403935 53.728103 
L 124.163904 53.648753 
L 124.181286 53.670099 
L 123.927293 54.951045 
L 119.593996 71.895362 
L 119.578767 71.891732 
L 128.010336 72.037932 
L 154.284825 73.588825 
L 159.929871 74.041033 
L 170.22156 75.139631 
L 170.350821 74.575085 
L 170.66471 71.156807 
L 171.144948 67.81794 
L 171.883085 64.654737 
L 172.696822 57.554154 
L 172.991801 57.552099 
L 173.65421 57.857643 
L 172.622134 60.740924 
L 170.87346 64.586766 
L 171.745008 67.900566 
L 172.049797 70.231638 
L 172.04693 69.97575 
L 171.551509 73.292625 
L 169.682306 76.375525 
L 168.311098 78.098333 
L 168.694157 78.245098 
L 168.764196 78.119712 
L 161.430941 75.95273 
L 156.843418 74.299453 
L 152.088518 72.766742 
L 146.814241 72.187044 
L 141.530903 72.457886 
L 133.523709 79.450232 
L 129.936263 82.285125 
L 120.260938 89.151584 
L 120.318164 91.619171 
L 120.575391 94.527235 
L 121.058676 97.491095 
L 121.479182 100.824271 
L 122.042935 104.11903 
L 121.833293 104.71228 
L 120.551701 107.563572 
L 116.579662 118.838113 
L 117.192123 120.200095 
L 118.478177 123.641504 
L 118.122919 129.589593 
L 117.062789 135.955811 
L 116.245715 139.065685 
L 115.275495 141.97198 
L 114.220838 144.435605 
L 114.219343 144.429202 
L 117.152828 150.45287 
L 119.917636 156.766208 
L 121.323492 160.173971 
L 122.135866 163.468624 
L 122.560198 166.70314 
L 122.586904 169.791437 
L 122.472917 172.282787 
L 122.31294 172.244428 
L 127.038268 172.155321 
L 132.183959 172.263071 
L 142.849638 172.952816 
L 152.575206 174.133045 
L 157.845098 174.81452 
L 163.170556 175.233403 
L 170.101271 176.136475 
L 178.587437 175.334764 
L 183.821338 175.145671 
L 189.281813 175.320465 
L 199.686461 177.09074 
L 205.14423 177.234652 
L 210.529236 177.160087 
L 215.598182 177.362105 
L 224.87039 178.192864 
L 232.748384 179.369735 
L 242.957521 181.081903 
L 248.307714 181.727067 
L 253.631214 182.123059 
L 258.960891 182.315703 
L 268.507331 183.059647 
L 268.532736 183.210866 
L 268.325256 181.492589 
L 267.937221 178.461318 
L 268.566198 175.444772 
L 269.707635 172.322848 
L 271.451926 166.026454 
L 272.565182 162.810169 
L 274.462317 156.512681 
L 275.930954 150.30904 
L 276.713509 144.468318 
L 276.882754 141.383069 
L 276.909249 138.293796 
L 276.526649 131.879608 
L 276.475779 128.675454 
L 275.932176 119.172326 
L 275.619305 112.95839 
L 275.404216 109.934032 
L 275.059381 106.883993 
L 274.48104 103.753678 
L 273.827141 98.340739 
L 274.079217 98.461059 
L 270.08076 96.612961 
L 266.280609 94.554458 
L 263.112348 92.124614 
L 260.095918 89.549009 
L 257.166351 86.784201 
L 254.119898 84.228838 
L 250.708951 81.745933 
L 247.148855 79.520277 
L 245.116929 78.387 
L 239.450478 78.020748 
L 234.142878 77.807897 
L 228.901926 77.475491 
L 223.401512 77.486136 
L 212.736267 77.038946 
L 201.043448 76.787873 
L 196.22014 76.471366 
L 174.572144 76.005851 
L 167.751528 76.231217 
L 167.896775 76.187526 
L 167.799861 77.034484 
L 167.640763 79.954299 
L 167.194123 83.22608 
L 166.306687 86.619333 
L 165.245931 90.010532 
L 163.668315 94.318563 
L 164.106444 94.441066 
L 161.355245 93.784079 
L 156.273867 93.113625 
L 150.973405 92.189704 
L 151.754813 92.41136 
L 152.133309 92.644707 
L 152.064326 92.688179 
L 152.385705 92.384778 
L 152.102127 92.448295 
L 154.624832 92.789597 
L 159.607404 93.302044 
L 176.15777 94.534705 
L 180.425854 94.922854 
L 180.676111 94.307616 
L 180.440974 94.051032 
L 181.237646 94.157428 
L 181.171821 94.196829 
L 179.925047 97.445754 
L 177.069046 103.477129 
L 177.262952 103.416753 
L 174.914346 103.092677 
L 165.127381 102.263116 
L 165.385562 102.236468 
L 157.355698 104.659381 
L 157.644571 104.658141 
L 148.21038 103.806846 
L 148.237444 103.809093 
L 148.074009 103.988147 
L 143.619397 110.332498 
L 138.434532 112.360017 
L 138.482636 112.607111 
L 139.182025 112.83535 
L 138.936859 112.868673 
L 145.555323 107.621763 
L 149.361505 104.470983 
L 159.13361 104.234887 
L 164.046625 104.315049 
L 164.313823 104.457481 
L 164.312178 104.453032 
L 163.601403 106.127493 
L 162.08526 109.20976 
L 160.246059 112.20272 
L 160.748645 113.626418 
L 158.460236 120.091032 
L 156.040999 125.843589 
L 156.306844 129.096747 
L 155.841562 132.440341 
L 155.185486 135.595647 
L 153.708105 138.340734 
L 153.40265 141.349343 
L 153.700906 144.669553 
L 153.6579 150.903688 
L 153.797962 154.785481 
L 153.885686 154.742826 
L 147.41457 156.161165 
L 147.465898 156.171749 
L 142.736365 155.227302 
L 132.557004 153.938074 
L 131.880148 153.874326 
L 132.099425 153.942392 
L 137.189225 153.595258 
L 143.881473 154.231143 
L 149.170694 155.350894 
L 156.216208 157.139618 
L 156.21593 157.139969 
L 155.75693 158.715816 
L 153.397125 164.650031 
L 153.433508 164.597782 
L 153.547907 164.531557 
L 150.432071 164.305393 
L 130.37551 163.306571 
L 119.901621 163.233442 
L 119.244212 163.755041 
L 119.678875 163.704775 
L 119.121665 162.069505 
L 117.904878 158.844875 
L 117.006491 155.710358 
L 114.729933 149.646934 
L 114.171427 146.520995 
L 113.93181 143.207911 
L 115.513773 136.631903 
L 116.01548 133.28997 
L 116.392715 129.95921 
L 116.448737 127.159119 
L 117.339073 126.983565 
L 117.30676 127.256144 
L 117.298496 133.593544 
L 117.29829 136.7016 
L 117.077052 139.936963 
L 116.734391 143.198924 
L 115.212075 149.605732 
L 113.102339 155.951089 
L 111.481505 160.412735 
L 111.47906 160.394595 
L 117.287914 161.225071 
L 128.202821 162.360383 
L 153.323431 164.450986 
L 153.597919 164.445611 
L 153.645145 164.000176 
L 153.670742 160.877498 
L 153.997297 157.88755 
L 154.210243 154.642196 
L 154.22696 151.39621 
L 155.088504 148.194886 
L 155.664005 144.932176 
L 155.481094 141.744634 
L 155.941395 138.464463 
L 156.123331 135.23819 
L 156.000315 131.998117 
L 155.70428 128.929072 
L 157.574982 122.914349 
L 158.286907 119.842382 
L 159.448084 116.659607 
L 160.394131 113.405832 
L 161.120718 110.169677 
L 161.656963 106.955262 
L 163.773198 100.632872 
L 165.010891 93.85017 
L 166.384551 90.784822 
L 166.731385 88.026843 
L 166.907212 85.16237 
L 166.83253 82.103039 
L 167.229019 78.737061 
L 167.048913 75.65997 
L 169.218 75.177476 
L 169.739375 75.87909 
L 169.157098 76.008403 
L 174.079969 75.764998 
L 180.40131 76.355209 
L 180.40131 76.355209 
" clip-path="url(#p9121c44648)" style="fill: none; stroke: #ff0000; stroke-opacity: 0.7; stroke-width: 0.75; stroke-linecap: square"/>
   </g>
   <g id="patch_3">
    <path d="M 57.6 307.584 
L 57.6 41.472 
" style="fill: none; stroke: #000000; stroke-width: 0.8; stroke-linejoin: miter; stroke-linecap: square"/>
   </g>
   <g id="patch_4">
    <path d="M 414.72 307.584 
L 414.72 41.472 
" style="fill: none; stroke: #000000; stroke-width: 0.8; stroke-linejoin: miter; stroke-linecap: square"/>
   </g>
   <g id="patch_5">
    <path d="M 57.6 307.584 
L 414.72 307.584 
" style="fill: none; stroke: #000000; stroke-width: 0.8; stroke-linejoin: miter; stroke-linecap: square"/>
   </g>
   <g id="patch_6">
    <path d="M 57.6 41.472 
L 414.72 41.472 
" style="fill: none; stroke: #000000; stroke-width: 0.8; stroke-linejoin: miter; stroke-linecap: square"/>
   </g>
   <g id="text_16">
    <!-- Initial Trajectory Estimate vs Incremental Trajectory Estimate -->
    <g transform="translate(53.263125 35.472) scale(0.12 -0.12)">
     <defs>
      <path id="DejaVuSans-49" d="M 628 4666 
L 1259 4666 
L 1259 0 
L 628 0 
L 628 4666 
z
" transform="scale(0.015625)"/>
      <path id="DejaVuSans-6e" d="M 3513 2113 
L 3513 0 
L 2938 0 
L 2938 2094 
Q 2938 2591 2744 2837 
Q 2550 3084 2163 3084 
Q 1697 3084 1428 2787 
Q 1159 2491 1159 1978 
L 1159 0 
L 581 0 
L 581 3500 
L 1159 3500 
L 1159 2956 
Q 1366 3272 1645 3428 
Q 1925 3584 2291 3584 
Q 2894 3584 3203 3211 
Q 3513 2838 3513 2113 
z
" transform="scale(0.015625)"/>
      <path id="DejaVuSans-74" d="M 1172 4494 
L 1172 3500 
L 2356 3500 
L 2356 3053 
L 1172 3053 
L 1172 1153 
Q 1172 725 1289 603 
Q 1406 481 1766 481 
L 2356 481 
L 2356 0 
L 1766 0 
Q 1100 0 847 248 
Q 594 497 594 1153 
L 594 3053 
L 172 3053 
L 172 3500 
L 594 3500 
L 594 4494 
L 1172 4494 
z
" transform="scale(0.015625)"/>
      <path id="DejaVuSans-6c" d="M 603 4863 
L 1178 4863 
L 1178 0 
L 603 0 
L 603 4863 
z
" transform="scale(0.015625)"/>
      <path id="DejaVuSans-20" transform="scale(0.015625)"/>
      <path id="DejaVuSans-54" d="M -19 4666 
L 3928 4666 
L 3928 4134 
L 2272 4134 
L 2272 0 
L 1638 0 
L 1638 4134 
L -19 4134 
L -19 4666 
z
" transform="scale(0.015625)"/>
      <path id="DejaVuSans-72" d="M 2631 2963 
Q 2534 3019 2420 3045 
Q 2306 3072 2169 3072 
Q 1681 3072 1420 2755 
Q 1159 2438 1159 1844 
L 1159 0 
L 581 0 
L 581 3500 
L 1159 3500 
L 1159 2956 
Q 1341 3275 1631 3429 
Q 1922 3584 2338 3584 
Q 2397 3584 2469 3576 
Q 2541 3569 2628 3553 
L 2631 2963 
z
" transform="scale(0.015625)"/>
      <path id="DejaVuSans-6a" d="M 603 3500 
L 1178 3500 
L 1178 -63 
Q 1178 -731 923 -1031 
Q 669 -1331 103 -1331 
L -116 -1331 
L -116 -844 
L 38 -844 
Q 366 -844 484 -692 
Q 603 -541 603 -63 
L 603 3500 
z
M 603 4863 
L 1178 4863 
L 1178 4134 
L 603 4134 
L 603 4863 
z
" transform="scale(0.015625)"/>
      <path id="DejaVuSans-65" d="M 3597 1894 
L 3597 1613 
L 953 1613 
Q 991 1019 1311 708 
Q 1631 397 2203 397 
Q 2534 397 2845 478 
Q 3156 559 3463 722 
L 3463 178 
Q 3153 47 2828 -22 
Q 2503 -91 2169 -91 
Q 1331 -91 842 396 
Q 353 884 353 1716 
Q 353 2575 817 3079 
Q 1281 3584 2069 3584 
Q 2775 3584 3186 3129 
Q 3597 2675 3597 1894 
z
M 3022 2063 
Q 3016 2534 2758 2815 
Q 2500 3097 2075 3097 
Q 1594 3097 1305 2825 
Q 1016 2553 972 2059 
L 3022 2063 
z
" transform="scale(0.015625)"/>
      <path id="DejaVuSans-63" d="M 3122 3366 
L 3122 2828 
Q 2878 2963 2633 3030 
Q 2388 3097 2138 3097 
Q 1578 3097 1268 2742 
Q 959 2388 959 1747 
Q 959 1106 1268 751 
Q 1578 397 2138 397 
Q 2388 397 2633 464 
Q 2878 531 3122 666 
L 3122 134 
Q 2881 22 2623 -34 
Q 2366 -91 2075 -91 
Q 1284 -91 818 406 
Q 353 903 353 1747 
Q 353 2603 823 3093 
Q 1294 3584 2113 3584 
Q 2378 3584 2631 3529 
Q 2884 3475 3122 3366 
z
" transform="scale(0.015625)"/>
      <path id="DejaVuSans-6f" d="M 1959 3097 
Q 1497 3097 1228 2736 
Q 959 2375 959 1747 
Q 959 1119 1226 758 
Q 1494 397 1959 397 
Q 2419 397 2687 759 
Q 2956 1122 2956 1747 
Q 2956 2369 2687 2733 
Q 2419 3097 1959 3097 
z
M 1959 3584 
Q 2709 3584 3137 3096 
Q 3566 2609 3566 1747 
Q 3566 888 3137 398 
Q 2709 -91 1959 -91 
Q 1206 -91 779 398 
Q 353 888 353 1747 
Q 353 2609 779 3096 
Q 1206 3584 1959 3584 
z
" transform="scale(0.015625)"/>
      <path id="DejaVuSans-79" d="M 2059 -325 
Q 1816 -950 1584 -1140 
Q 1353 -1331 966 -1331 
L 506 -1331 
L 506 -850 
L 844 -850 
Q 1081 -850 1212 -737 
Q 1344 -625 1503 -206 
L 1606 56 
L 191 3500 
L 800 3500 
L 1894 763 
L 2988 3500 
L 3597 3500 
L 2059 -325 
z
" transform="scale(0.015625)"/>
      <path id="DejaVuSans-45" d="M 628 4666 
L 3578 4666 
L 3578 4134 
L 1259 4134 
L 1259 2753 
L 3481 2753 
L 3481 2222 
L 1259 2222 
L 1259 531 
L 3634 531 
L 3634 0 
L 628 0 
L 628 4666 
z
" transform="scale(0.015625)"/>
      <path id="DejaVuSans-6d" d="M 3328 2828 
Q 3544 3216 3844 3400 
Q 4144 3584 4550 3584 
Q 5097 3584 5394 3201 
Q 5691 2819 5691 2113 
L 5691 0 
L 5113 0 
L 5113 2094 
Q 5113 2597 4934 2840 
Q 4756 3084 4391 3084 
Q 3944 3084 3684 2787 
Q 3425 2491 3425 1978 
L 3425 0 
L 2847 0 
L 2847 2094 
Q 2847 2600 2669 2842 
Q 2491 3084 2119 3084 
Q 1678 3084 1418 2786 
Q 1159 2488 1159 1978 
L 1159 0 
L 581 0 
L 581 3500 
L 1159 3500 
L 1159 2956 
Q 1356 3278 1631 3431 
Q 1906 3584 2284 3584 
Q 2666 3584 2933 3390 
Q 3200 3197 3328 2828 
z
" transform="scale(0.015625)"/>
      <path id="DejaVuSans-76" d="M 191 3500 
L 800 3500 
L 1894 563 
L 2988 3500 
L 3597 3500 
L 2284 0 
L 1503 0 
L 191 3500 
z
" transform="scale(0.015625)"/>
     </defs>
     <use xlink:href="#DejaVuSans-49"/>
     <use xlink:href="#DejaVuSans-6e" transform="translate(29.492188 0)"/>
     <use xlink:href="#DejaVuSans-69" transform="translate(92.871094 0)"/>
     <use xlink:href="#DejaVuSans-74" transform="translate(120.654297 0)"/>
     <use xlink:href="#DejaVuSans-69" transform="translate(159.863281 0)"/>
     <use xlink:href="#DejaVuSans-61" transform="translate(187.646484 0)"/>
     <use xlink:href="#DejaVuSans-6c" transform="translate(248.925781 0)"/>
     <use xlink:href="#DejaVuSans-20" transform="translate(276.708984 0)"/>
     <use xlink:href="#DejaVuSans-54" transform="translate(308.496094 0)"/>
     <use xlink:href="#DejaVuSans-72" transform="translate(354.830078 0)"/>
     <use xlink:href="#DejaVuSans-61" transform="translate(395.943359 0)"/>
     <use xlink:href="#DejaVuSans-6a" transform="translate(457.222656 0)"/>
     <use xlink:href="#DejaVuSans-65" transform="translate(485.005859 0)"/>
     <use xlink:href="#DejaVuSans-63" transform="translate(546.529297 0)"/>
     <use xlink:href="#DejaVuSans-74" transform="translate(601.509766 0)"/>
     <use xlink:href="#DejaVuSans-6f" transform="translate(640.71875 0)"/>
     <use xlink:href="#DejaVuSans-72" transform="translate(701.900391 0)"/>
     <use xlink:href="#DejaVuSans-79" transform="translate(743.013672 0)"/>
     <use xlink:href="#DejaVuSans-20" transform="translate(802.193359 0)"/>
     <use xlink:href="#DejaVuSans-45" transform="translate(833.980469 0)"/>
     <use xlink:href="#DejaVuSans-73" transform="translate(897.164062 0)"/>
     <use xlink:href="#DejaVuSans-74" transform="translate(949.263672 0)"/>
     <use xlink:href="#DejaVuSans-69" transform="translate(988.472656 0)"/>
     <use xlink:href="#DejaVuSans-6d" transform="translate(1016.255859 0)"/>
     <use xlink:href="#DejaVuSans-61" transform="translate(1113.667969 0)"/>
     <use xlink:href="#DejaVuSans-74" transform="translate(1174.947266 0)"/>
     <use xlink:href="#DejaVuSans-65" transform="translate(1214.15625 0)"/>
     <use xlink:href="#DejaVuSans-20" transform="translate(1275.679688 0)"/>
     <use xlink:href="#DejaVuSans-76" transform="translate(1307.466797 0)"/>
     <use xlink:href="#DejaVuSans-73" transform="translate(1366.646484 0)"/>
     <use xlink:href="#DejaVuSans-20" transform="translate(1418.746094 0)"/>
     <use xlink:href="#DejaVuSans-49" transform="translate(1450.533203 0)"/>
     <use xlink:href="#DejaVuSans-6e" transform="translate(1480.025391 0)"/>
     <use xlink:href="#DejaVuSans-63" transform="translate(1543.404297 0)"/>
     <use xlink:href="#DejaVuSans-72" transform="translate(1598.384766 0)"/>
     <use xlink:href="#DejaVuSans-65" transform="translate(1637.248047 0)"/>
     <use xlink:href="#DejaVuSans-6d" transform="translate(1698.771484 0)"/>
     <use xlink:href="#DejaVuSans-65" transform="translate(1796.183594 0)"/>
     <use xlink:href="#DejaVuSans-6e" transform="translate(1857.707031 0)"/>
     <use xlink:href="#DejaVuSans-74" transform="translate(1921.085938 0)"/>
     <use xlink:href="#DejaVuSans-61" transform="translate(1960.294922 0)"/>
     <use xlink:href="#DejaVuSans-6c" transform="translate(2021.574219 0)"/>
     <use xlink:href="#DejaVuSans-20" transform="translate(2049.357422 0)"/>
     <use xlink:href="#DejaVuSans-54" transform="translate(2081.144531 0)"/>
     <use xlink:href="#DejaVuSans-72" transform="translate(2127.478516 0)"/>
     <use xlink:href="#DejaVuSans-61" transform="translate(2168.591797 0)"/>
     <use xlink:href="#DejaVuSans-6a" transform="translate(2229.871094 0)"/>
     <use xlink:href="#DejaVuSans-65" transform="translate(2257.654297 0)"/>
     <use xlink:href="#DejaVuSans-63" transform="translate(2319.177734 0)"/>
     <use xlink:href="#DejaVuSans-74" transform="translate(2374.158203 0)"/>
     <use xlink:href="#DejaVuSans-6f" transform="translate(2413.367188 0)"/>
     <use xlink:href="#DejaVuSans-72" transform="translate(2474.548828 0)"/>
     <use xlink:href="#DejaVuSans-79" transform="translate(2515.662109 0)"/>
     <use xlink:href="#DejaVuSans-20" transform="translate(2574.841797 0)"/>
     <use xlink:href="#DejaVuSans-45" transform="translate(2606.628906 0)"/>
     <use xlink:href="#DejaVuSans-73" transform="translate(2669.8125 0)"/>
     <use xlink:href="#DejaVuSans-74" transform="translate(2721.912109 0)"/>
     <use xlink:href="#DejaVuSans-69" transform="translate(2761.121094 0)"/>
     <use xlink:href="#DejaVuSans-6d" transform="translate(2788.904297 0)"/>
     <use xlink:href="#DejaVuSans-61" transform="translate(2886.316406 0)"/>
     <use xlink:href="#DejaVuSans-74" transform="translate(2947.595703 0)"/>
     <use xlink:href="#DejaVuSans-65" transform="translate(2986.804688 0)"/>
    </g>
   </g>
   <g id="legend_1">
    <g id="patch_7">
     <path d="M 64.6 302.584 
L 256.378125 302.584 
Q 258.378125 302.584 258.378125 300.584 
L 258.378125 272.22775 
Q 258.378125 270.22775 256.378125 270.22775 
L 64.6 270.22775 
Q 62.6 270.22775 62.6 272.22775 
L 62.6 300.584 
Q 62.6 302.584 64.6 302.584 
z
" style="fill: #ffffff; opacity: 0.8; stroke: #cccccc; stroke-linejoin: miter"/>
    </g>
    <g id="line2d_16">
     <path d="M 66.6 278.326187 
L 76.6 278.326187 
L 86.6 278.326187 
" style="fill: none; stroke: #0000ff; stroke-opacity: 0.7; stroke-width: 0.75; stroke-linecap: square"/>
    </g>
    <g id="text_17">
     <!-- Initial Trajectory Estimate -->
     <g transform="translate(94.6 281.826187) scale(0.1 -0.1)">
      <use xlink:href="#DejaVuSans-49"/>
      <use xlink:href="#DejaVuSans-6e" transform="translate(29.492188 0)"/>
      <use xlink:href="#DejaVuSans-69" transform="translate(92.871094 0)"/>
      <use xlink:href="#DejaVuSans-74" transform="translate(120.654297 0)"/>
      <use xlink:href="#DejaVuSans-69" transform="translate(159.863281 0)"/>
      <use xlink:href="#DejaVuSans-61" transform="translate(187.646484 0)"/>
      <use xlink:href="#DejaVuSans-6c" transform="translate(248.925781 0)"/>
      <use xlink:href="#DejaVuSans-20" transform="translate(276.708984 0)"/>
      <use xlink:href="#DejaVuSans-54" transform="translate(308.496094 0)"/>
      <use xlink:href="#DejaVuSans-72" transform="translate(354.830078 0)"/>
      <use xlink:href="#DejaVuSans-61" transform="translate(395.943359 0)"/>
      <use xlink:href="#DejaVuSans-6a" transform="translate(457.222656 0)"/>
      <use xlink:href="#DejaVuSans-65" transform="translate(485.005859 0)"/>
      <use xlink:href="#DejaVuSans-63" transform="translate(546.529297 0)"/>
      <use xlink:href="#DejaVuSans-74" transform="translate(601.509766 0)"/>
      <use xlink:href="#DejaVuSans-6f" transform="translate(640.71875 0)"/>
      <use xlink:href="#DejaVuSans-72" transform="translate(701.900391 0)"/>
      <use xlink:href="#DejaVuSans-79" transform="translate(743.013672 0)"/>
      <use xlink:href="#DejaVuSans-20" transform="translate(802.193359 0)"/>
      <use xlink:href="#DejaVuSans-45" transform="translate(833.980469 0)"/>
      <use xlink:href="#DejaVuSans-73" transform="translate(897.164062 0)"/>
      <use xlink:href="#DejaVuSans-74" transform="translate(949.263672 0)"/>
      <use xlink:href="#DejaVuSans-69" transform="translate(988.472656 0)"/>
      <use xlink:href="#DejaVuSans-6d" transform="translate(1016.255859 0)"/>
      <use xlink:href="#DejaVuSans-61" transform="translate(1113.667969 0)"/>
      <use xlink:href="#DejaVuSans-74" transform="translate(1174.947266 0)"/>
      <use xlink:href="#DejaVuSans-65" transform="translate(1214.15625 0)"/>
     </g>
    </g>
    <g id="line2d_17">
     <path d="M 66.6 293.004312 
L 76.6 293.004312 
L 86.6 293.004312 
" style="fill: none; stroke: #ff0000; stroke-opacity: 0.7; stroke-width: 0.75; stroke-linecap: square"/>
    </g>
    <g id="text_18">
     <!-- Incremental Trajectory Estimate -->
     <g transform="translate(94.6 296.504312) scale(0.1 -0.1)">
      <use xlink:href="#DejaVuSans-49"/>
      <use xlink:href="#DejaVuSans-6e" transform="translate(29.492188 0)"/>
      <use xlink:href="#DejaVuSans-63" transform="translate(92.871094 0)"/>
      <use xlink:href="#DejaVuSans-72" transform="translate(147.851562 0)"/>
      <use xlink:href="#DejaVuSans-65" transform="translate(186.714844 0)"/>
      <use xlink:href="#DejaVuSans-6d" transform="translate(248.238281 0)"/>
      <use xlink:href="#DejaVuSans-65" transform="translate(345.650391 0)"/>
      <use xlink:href="#DejaVuSans-6e" transform="translate(407.173828 0)"/>
      <use xlink:href="#DejaVuSans-74" transform="translate(470.552734 0)"/>
      <use xlink:href="#DejaVuSans-61" transform="translate(509.761719 0)"/>
      <use xlink:href="#DejaVuSans-6c" transform="translate(571.041016 0)"/>
      <use xlink:href="#DejaVuSans-20" transform="translate(598.824219 0)"/>
      <use xlink:href="#DejaVuSans-54" transform="translate(630.611328 0)"/>
      <use xlink:href="#DejaVuSans-72" transform="translate(676.945312 0)"/>
      <use xlink:href="#DejaVuSans-61" transform="translate(718.058594 0)"/>
      <use xlink:href="#DejaVuSans-6a" transform="translate(779.337891 0)"/>
      <use xlink:href="#DejaVuSans-65" transform="translate(807.121094 0)"/>
      <use xlink:href="#DejaVuSans-63" transform="translate(868.644531 0)"/>
      <use xlink:href="#DejaVuSans-74" transform="translate(923.625 0)"/>
      <use xlink:href="#DejaVuSans-6f" transform="translate(962.833984 0)"/>
      <use xlink:href="#DejaVuSans-72" transform="translate(1024.015625 0)"/>
      <use xlink:href="#DejaVuSans-79" transform="translate(1065.128906 0)"/>
      <use xlink:href="#DejaVuSans-20" transform="translate(1124.308594 0)"/>
      <use xlink:href="#DejaVuSans-45" transform="translate(1156.095703 0)"/>
      <use xlink:href="#DejaVuSans-73" transform="translate(1219.279297 0)"/>
      <use xlink:href="#DejaVuSans-74" transform="translate(1271.378906 0)"/>
      <use xlink:href="#DejaVuSans-69" transform="translate(1310.587891 0)"/>
      <use xlink:href="#DejaVuSans-6d" transform="translate(1338.371094 0)"/>
      <use xlink:href="#DejaVuSans-61" transform="translate(1435.783203 0)"/>
      <use xlink:href="#DejaVuSans-74" transform="translate(1497.0625 0)"/>
      <use xlink:href="#DejaVuSans-65" transform="translate(1536.271484 0)"/>
     </g>
    </g>
   </g>
  </g>
 </g>
 <defs>
  <clipPath id="p9121c44648">
   <rect x="57.6" y="41.472" width="357.12" height="266.112"/>
  </clipPath>
 </defs>
</svg>
