<?xml version="1.0" encoding="utf-8" standalone="no"?>
<!DOCTYPE svg PUBLIC "-//W3C//DTD SVG 1.1//EN"
  "http://www.w3.org/Graphics/SVG/1.1/DTD/svg11.dtd">
<svg xmlns:xlink="http://www.w3.org/1999/xlink" width="460.8pt" height="345.6pt" viewBox="0 0 460.8 345.6" xmlns="http://www.w3.org/2000/svg" version="1.1">
 <metadata>
  <rdf:RDF xmlns:dc="http://purl.org/dc/elements/1.1/" xmlns:cc="http://creativecommons.org/ns#" xmlns:rdf="http://www.w3.org/1999/02/22-rdf-syntax-ns#">
   <cc:Work>
    <dc:type rdf:resource="http://purl.org/dc/dcmitype/StillImage"/>
    <dc:date>2025-11-16T16:41:02.262951</dc:date>
    <dc:format>image/svg+xml</dc:format>
    <dc:creator>
     <cc:Agent>
      <dc:title>Matplotlib v3.10.7, https://matplotlib.org/</dc:title>
     </cc:Agent>
    </dc:creator>
   </cc:Work>
  </rdf:RDF>
 </metadata>
 <defs>
  <style type="text/css">*{stroke-linejoin: round; stroke-linecap: butt}</style>
 </defs>
 <g id="figure_1">
  <g id="patch_1">
   <path d="M 0 345.6 
L 460.8 345.6 
L 460.8 0 
L 0 0 
z
" style="fill: #ffffff"/>
  </g>
  <g id="axes_1">
   <g id="patch_2">
    <path d="M 57.6 307.584 
L 414.72 307.584 
L 414.72 41.472 
L 57.6 41.472 
z
" style="fill: #ffffff"/>
   </g>
   <g id="PathCollection_1">
    <defs>
     <path id="m133bed24b0" d="M 0 3.535534 
C 0.937635 3.535534 1.836992 3.163008 2.5 2.5 
C 3.163008 1.836992 3.535534 0.937635 3.535534 0 
C 3.535534 -0.937635 3.163008 -1.836992 2.5 -2.5 
C 1.836992 -3.163008 0.937635 -3.535534 0 -3.535534 
C -0.937635 -3.535534 -1.836992 -3.163008 -2.5 -2.5 
C -3.163008 -1.836992 -3.535534 -0.937635 -3.535534 0 
C -3.535534 0.937635 -3.163008 1.836992 -2.5 2.5 
C -1.836992 3.163008 -0.937635 3.535534 0 3.535534 
z
" style="stroke: #0000ff"/>
    </defs>
    <g clip-path="url(#p2e32b7f08f)">
     <use xlink:href="#m133bed24b0" x="113.872796" y="234.993457" style="fill: #0000ff; stroke: #0000ff"/>
    </g>
   </g>
   <g id="PathCollection_2">
    <defs>
     <path id="m9bec10bbeb" d="M 0 3.535534 
C 0.937635 3.535534 1.836992 3.163008 2.5 2.5 
C 3.163008 1.836992 3.535534 0.937635 3.535534 0 
C 3.535534 -0.937635 3.163008 -1.836992 2.5 -2.5 
C 1.836992 -3.163008 0.937635 -3.535534 0 -3.535534 
C -0.937635 -3.535534 -1.836992 -3.163008 -2.5 -2.5 
C -3.163008 -1.836992 -3.535534 -0.937635 -3.535534 0 
C -3.535534 0.937635 -3.163008 1.836992 -2.5 2.5 
C -1.836992 3.163008 -0.937635 3.535534 0 3.535534 
z
" style="stroke: #ff0000"/>
    </defs>
    <g clip-path="url(#p2e32b7f08f)">
     <use xlink:href="#m9bec10bbeb" x="178.416443" y="75.781236" style="fill: #ff0000; stroke: #ff0000"/>
    </g>
   </g>
   <g id="matplotlib.axis_1">
    <g id="xtick_1">
     <g id="line2d_1">
      <defs>
       <path id="m2060db0c81" d="M 0 0 
L 0 3.5 
" style="stroke: #000000; stroke-width: 0.8"/>
      </defs>
      <g>
       <use xlink:href="#m2060db0c81" x="93.309224" y="307.584" style="stroke: #000000; stroke-width: 0.8"/>
      </g>
     </g>
     <g id="text_1">
      <!-- −10 -->
      <g transform="translate(82.75688 322.182437) scale(0.1 -0.1)">
       <defs>
        <path id="DejaVuSans-2212" d="M 678 2272 
L 4684 2272 
L 4684 1741 
L 678 1741 
L 678 2272 
z
" transform="scale(0.015625)"/>
        <path id="DejaVuSans-31" d="M 794 531 
L 1825 531 
L 1825 4091 
L 703 3866 
L 703 4441 
L 1819 4666 
L 2450 4666 
L 2450 531 
L 3481 531 
L 3481 0 
L 794 0 
L 794 531 
z
" transform="scale(0.015625)"/>
        <path id="DejaVuSans-30" d="M 2034 4250 
Q 1547 4250 1301 3770 
Q 1056 3291 1056 2328 
Q 1056 1369 1301 889 
Q 1547 409 2034 409 
Q 2525 409 2770 889 
Q 3016 1369 3016 2328 
Q 3016 3291 2770 3770 
Q 2525 4250 2034 4250 
z
M 2034 4750 
Q 2819 4750 3233 4129 
Q 3647 3509 3647 2328 
Q 3647 1150 3233 529 
Q 2819 -91 2034 -91 
Q 1250 -91 836 529 
Q 422 1150 422 2328 
Q 422 3509 836 4129 
Q 1250 4750 2034 4750 
z
" transform="scale(0.015625)"/>
       </defs>
       <use xlink:href="#DejaVuSans-2212"/>
       <use xlink:href="#DejaVuSans-31" transform="translate(83.789062 0)"/>
       <use xlink:href="#DejaVuSans-30" transform="translate(147.412109 0)"/>
      </g>
     </g>
    </g>
    <g id="xtick_2">
     <g id="line2d_2">
      <g>
       <use xlink:href="#m2060db0c81" x="136.438263" y="307.584" style="stroke: #000000; stroke-width: 0.8"/>
      </g>
     </g>
     <g id="text_2">
      <!-- −5 -->
      <g transform="translate(129.06717 322.182437) scale(0.1 -0.1)">
       <defs>
        <path id="DejaVuSans-35" d="M 691 4666 
L 3169 4666 
L 3169 4134 
L 1269 4134 
L 1269 2991 
Q 1406 3038 1543 3061 
Q 1681 3084 1819 3084 
Q 2600 3084 3056 2656 
Q 3513 2228 3513 1497 
Q 3513 744 3044 326 
Q 2575 -91 1722 -91 
Q 1428 -91 1123 -41 
Q 819 9 494 109 
L 494 744 
Q 775 591 1075 516 
Q 1375 441 1709 441 
Q 2250 441 2565 725 
Q 2881 1009 2881 1497 
Q 2881 1984 2565 2268 
Q 2250 2553 1709 2553 
Q 1456 2553 1204 2497 
Q 953 2441 691 2322 
L 691 4666 
z
" transform="scale(0.015625)"/>
       </defs>
       <use xlink:href="#DejaVuSans-2212"/>
       <use xlink:href="#DejaVuSans-35" transform="translate(83.789062 0)"/>
      </g>
     </g>
    </g>
    <g id="xtick_3">
     <g id="line2d_3">
      <g>
       <use xlink:href="#m2060db0c81" x="179.567303" y="307.584" style="stroke: #000000; stroke-width: 0.8"/>
      </g>
     </g>
     <g id="text_3">
      <!-- 0 -->
      <g transform="translate(176.386053 322.182437) scale(0.1 -0.1)">
       <use xlink:href="#DejaVuSans-30"/>
      </g>
     </g>
    </g>
    <g id="xtick_4">
     <g id="line2d_4">
      <g>
       <use xlink:href="#m2060db0c81" x="222.696343" y="307.584" style="stroke: #000000; stroke-width: 0.8"/>
      </g>
     </g>
     <g id="text_4">
      <!-- 5 -->
      <g transform="translate(219.515093 322.182437) scale(0.1 -0.1)">
       <use xlink:href="#DejaVuSans-35"/>
      </g>
     </g>
    </g>
    <g id="xtick_5">
     <g id="line2d_5">
      <g>
       <use xlink:href="#m2060db0c81" x="265.825383" y="307.584" style="stroke: #000000; stroke-width: 0.8"/>
      </g>
     </g>
     <g id="text_5">
      <!-- 10 -->
      <g transform="translate(259.462883 322.182437) scale(0.1 -0.1)">
       <use xlink:href="#DejaVuSans-31"/>
       <use xlink:href="#DejaVuSans-30" transform="translate(63.623047 0)"/>
      </g>
     </g>
    </g>
    <g id="xtick_6">
     <g id="line2d_6">
      <g>
       <use xlink:href="#m2060db0c81" x="308.954422" y="307.584" style="stroke: #000000; stroke-width: 0.8"/>
      </g>
     </g>
     <g id="text_6">
      <!-- 15 -->
      <g transform="translate(302.591922 322.182437) scale(0.1 -0.1)">
       <use xlink:href="#DejaVuSans-31"/>
       <use xlink:href="#DejaVuSans-35" transform="translate(63.623047 0)"/>
      </g>
     </g>
    </g>
    <g id="xtick_7">
     <g id="line2d_7">
      <g>
       <use xlink:href="#m2060db0c81" x="352.083462" y="307.584" style="stroke: #000000; stroke-width: 0.8"/>
      </g>
     </g>
     <g id="text_7">
      <!-- 20 -->
      <g transform="translate(345.720962 322.182437) scale(0.1 -0.1)">
       <defs>
        <path id="DejaVuSans-32" d="M 1228 531 
L 3431 531 
L 3431 0 
L 469 0 
L 469 531 
Q 828 903 1448 1529 
Q 2069 2156 2228 2338 
Q 2531 2678 2651 2914 
Q 2772 3150 2772 3378 
Q 2772 3750 2511 3984 
Q 2250 4219 1831 4219 
Q 1534 4219 1204 4116 
Q 875 4013 500 3803 
L 500 4441 
Q 881 4594 1212 4672 
Q 1544 4750 1819 4750 
Q 2544 4750 2975 4387 
Q 3406 4025 3406 3419 
Q 3406 3131 3298 2873 
Q 3191 2616 2906 2266 
Q 2828 2175 2409 1742 
Q 1991 1309 1228 531 
z
" transform="scale(0.015625)"/>
       </defs>
       <use xlink:href="#DejaVuSans-32"/>
       <use xlink:href="#DejaVuSans-30" transform="translate(63.623047 0)"/>
      </g>
     </g>
    </g>
    <g id="xtick_8">
     <g id="line2d_8">
      <g>
       <use xlink:href="#m2060db0c81" x="395.212502" y="307.584" style="stroke: #000000; stroke-width: 0.8"/>
      </g>
     </g>
     <g id="text_8">
      <!-- 25 -->
      <g transform="translate(388.850002 322.182437) scale(0.1 -0.1)">
       <use xlink:href="#DejaVuSans-32"/>
       <use xlink:href="#DejaVuSans-35" transform="translate(63.623047 0)"/>
      </g>
     </g>
    </g>
    <g id="text_9">
     <!-- X-axis -->
     <g transform="translate(221.163906 335.860562) scale(0.1 -0.1)">
      <defs>
       <path id="DejaVuSans-58" d="M 403 4666 
L 1081 4666 
L 2241 2931 
L 3406 4666 
L 4084 4666 
L 2584 2425 
L 4184 0 
L 3506 0 
L 2194 1984 
L 872 0 
L 191 0 
L 1856 2491 
L 403 4666 
z
" transform="scale(0.015625)"/>
       <path id="DejaVuSans-2d" d="M 313 2009 
L 1997 2009 
L 1997 1497 
L 313 1497 
L 313 2009 
z
" transform="scale(0.015625)"/>
       <path id="DejaVuSans-61" d="M 2194 1759 
Q 1497 1759 1228 1600 
Q 959 1441 959 1056 
Q 959 750 1161 570 
Q 1363 391 1709 391 
Q 2188 391 2477 730 
Q 2766 1069 2766 1631 
L 2766 1759 
L 2194 1759 
z
M 3341 1997 
L 3341 0 
L 2766 0 
L 2766 531 
Q 2569 213 2275 61 
Q 1981 -91 1556 -91 
Q 1019 -91 701 211 
Q 384 513 384 1019 
Q 384 1609 779 1909 
Q 1175 2209 1959 2209 
L 2766 2209 
L 2766 2266 
Q 2766 2663 2505 2880 
Q 2244 3097 1772 3097 
Q 1472 3097 1187 3025 
Q 903 2953 641 2809 
L 641 3341 
Q 956 3463 1253 3523 
Q 1550 3584 1831 3584 
Q 2591 3584 2966 3190 
Q 3341 2797 3341 1997 
z
" transform="scale(0.015625)"/>
       <path id="DejaVuSans-78" d="M 3513 3500 
L 2247 1797 
L 3578 0 
L 2900 0 
L 1881 1375 
L 863 0 
L 184 0 
L 1544 1831 
L 300 3500 
L 978 3500 
L 1906 2253 
L 2834 3500 
L 3513 3500 
z
" transform="scale(0.015625)"/>
       <path id="DejaVuSans-69" d="M 603 3500 
L 1178 3500 
L 1178 0 
L 603 0 
L 603 3500 
z
M 603 4863 
L 1178 4863 
L 1178 4134 
L 603 4134 
L 603 4863 
z
" transform="scale(0.015625)"/>
       <path id="DejaVuSans-73" d="M 2834 3397 
L 2834 2853 
Q 2591 2978 2328 3040 
Q 2066 3103 1784 3103 
Q 1356 3103 1142 2972 
Q 928 2841 928 2578 
Q 928 2378 1081 2264 
Q 1234 2150 1697 2047 
L 1894 2003 
Q 2506 1872 2764 1633 
Q 3022 1394 3022 966 
Q 3022 478 2636 193 
Q 2250 -91 1575 -91 
Q 1294 -91 989 -36 
Q 684 19 347 128 
L 347 722 
Q 666 556 975 473 
Q 1284 391 1588 391 
Q 1994 391 2212 530 
Q 2431 669 2431 922 
Q 2431 1156 2273 1281 
Q 2116 1406 1581 1522 
L 1381 1569 
Q 847 1681 609 1914 
Q 372 2147 372 2553 
Q 372 3047 722 3315 
Q 1072 3584 1716 3584 
Q 2034 3584 2315 3537 
Q 2597 3491 2834 3397 
z
" transform="scale(0.015625)"/>
      </defs>
      <use xlink:href="#DejaVuSans-58"/>
      <use xlink:href="#DejaVuSans-2d" transform="translate(63.505859 0)"/>
      <use xlink:href="#DejaVuSans-61" transform="translate(99.589844 0)"/>
      <use xlink:href="#DejaVuSans-78" transform="translate(160.869141 0)"/>
      <use xlink:href="#DejaVuSans-69" transform="translate(220.048828 0)"/>
      <use xlink:href="#DejaVuSans-73" transform="translate(247.832031 0)"/>
     </g>
    </g>
   </g>
   <g id="matplotlib.axis_2">
    <g id="ytick_1">
     <g id="line2d_9">
      <defs>
       <path id="mba67ebee5e" d="M 0 0 
L -3.5 0 
" style="stroke: #000000; stroke-width: 0.8"/>
      </defs>
      <g>
       <use xlink:href="#mba67ebee5e" x="57.6" y="283.48786" style="stroke: #000000; stroke-width: 0.8"/>
      </g>
     </g>
     <g id="text_10">
      <!-- −40 -->
      <g transform="translate(29.495313 287.287079) scale(0.1 -0.1)">
       <defs>
        <path id="DejaVuSans-34" d="M 2419 4116 
L 825 1625 
L 2419 1625 
L 2419 4116 
z
M 2253 4666 
L 3047 4666 
L 3047 1625 
L 3713 1625 
L 3713 1100 
L 3047 1100 
L 3047 0 
L 2419 0 
L 2419 1100 
L 313 1100 
L 313 1709 
L 2253 4666 
z
" transform="scale(0.015625)"/>
       </defs>
       <use xlink:href="#DejaVuSans-2212"/>
       <use xlink:href="#DejaVuSans-34" transform="translate(83.789062 0)"/>
       <use xlink:href="#DejaVuSans-30" transform="translate(147.412109 0)"/>
      </g>
     </g>
    </g>
    <g id="ytick_2">
     <g id="line2d_10">
      <g>
       <use xlink:href="#mba67ebee5e" x="57.6" y="231.622122" style="stroke: #000000; stroke-width: 0.8"/>
      </g>
     </g>
     <g id="text_11">
      <!-- −30 -->
      <g transform="translate(29.495313 235.421341) scale(0.1 -0.1)">
       <defs>
        <path id="DejaVuSans-33" d="M 2597 2516 
Q 3050 2419 3304 2112 
Q 3559 1806 3559 1356 
Q 3559 666 3084 287 
Q 2609 -91 1734 -91 
Q 1441 -91 1130 -33 
Q 819 25 488 141 
L 488 750 
Q 750 597 1062 519 
Q 1375 441 1716 441 
Q 2309 441 2620 675 
Q 2931 909 2931 1356 
Q 2931 1769 2642 2001 
Q 2353 2234 1838 2234 
L 1294 2234 
L 1294 2753 
L 1863 2753 
Q 2328 2753 2575 2939 
Q 2822 3125 2822 3475 
Q 2822 3834 2567 4026 
Q 2313 4219 1838 4219 
Q 1578 4219 1281 4162 
Q 984 4106 628 3988 
L 628 4550 
Q 988 4650 1302 4700 
Q 1616 4750 1894 4750 
Q 2613 4750 3031 4423 
Q 3450 4097 3450 3541 
Q 3450 3153 3228 2886 
Q 3006 2619 2597 2516 
z
" transform="scale(0.015625)"/>
       </defs>
       <use xlink:href="#DejaVuSans-2212"/>
       <use xlink:href="#DejaVuSans-33" transform="translate(83.789062 0)"/>
       <use xlink:href="#DejaVuSans-30" transform="translate(147.412109 0)"/>
      </g>
     </g>
    </g>
    <g id="ytick_3">
     <g id="line2d_11">
      <g>
       <use xlink:href="#mba67ebee5e" x="57.6" y="179.756384" style="stroke: #000000; stroke-width: 0.8"/>
      </g>
     </g>
     <g id="text_12">
      <!-- −20 -->
      <g transform="translate(29.495313 183.555602) scale(0.1 -0.1)">
       <use xlink:href="#DejaVuSans-2212"/>
       <use xlink:href="#DejaVuSans-32" transform="translate(83.789062 0)"/>
       <use xlink:href="#DejaVuSans-30" transform="translate(147.412109 0)"/>
      </g>
     </g>
    </g>
    <g id="ytick_4">
     <g id="line2d_12">
      <g>
       <use xlink:href="#mba67ebee5e" x="57.6" y="127.890645" style="stroke: #000000; stroke-width: 0.8"/>
      </g>
     </g>
     <g id="text_13">
      <!-- −10 -->
      <g transform="translate(29.495313 131.689864) scale(0.1 -0.1)">
       <use xlink:href="#DejaVuSans-2212"/>
       <use xlink:href="#DejaVuSans-31" transform="translate(83.789062 0)"/>
       <use xlink:href="#DejaVuSans-30" transform="translate(147.412109 0)"/>
      </g>
     </g>
    </g>
    <g id="ytick_5">
     <g id="line2d_13">
      <g>
       <use xlink:href="#mba67ebee5e" x="57.6" y="76.024907" style="stroke: #000000; stroke-width: 0.8"/>
      </g>
     </g>
     <g id="text_14">
      <!-- 0 -->
      <g transform="translate(44.2375 79.824126) scale(0.1 -0.1)">
       <use xlink:href="#DejaVuSans-30"/>
      </g>
     </g>
    </g>
    <g id="text_15">
     <!-- Y-axis -->
     <g transform="translate(23.415625 188.80925) rotate(-90) scale(0.1 -0.1)">
      <defs>
       <path id="DejaVuSans-59" d="M -13 4666 
L 666 4666 
L 1959 2747 
L 3244 4666 
L 3922 4666 
L 2272 2222 
L 2272 0 
L 1638 0 
L 1638 2222 
L -13 4666 
z
" transform="scale(0.015625)"/>
      </defs>
      <use xlink:href="#DejaVuSans-59"/>
      <use xlink:href="#DejaVuSans-2d" transform="translate(49.208984 0)"/>
      <use xlink:href="#DejaVuSans-61" transform="translate(85.292969 0)"/>
      <use xlink:href="#DejaVuSans-78" transform="translate(146.572266 0)"/>
      <use xlink:href="#DejaVuSans-69" transform="translate(205.751953 0)"/>
      <use xlink:href="#DejaVuSans-73" transform="translate(233.535156 0)"/>
     </g>
    </g>
   </g>
   <g id="line2d_14">
    <path d="M 179.567303 76.024907 
L 179.662204 76.029964 
L 185.607689 76.104962 
L 185.553234 76.003056 
L 185.744365 75.811625 
L 185.939645 75.718536 
L 186.196858 75.639249 
L 188.732164 75.951507 
L 199.294535 77.562622 
L 209.992426 79.624311 
L 220.790169 81.171746 
L 226.353496 81.367104 
L 242.670954 82.373683 
L 256.280598 83.379588 
L 264.108062 89.33822 
L 271.611963 94.245206 
L 278.120998 98.411544 
L 281.425389 104.765134 
L 282.876242 107.834673 
L 284.219875 111.087432 
L 285.434768 114.35167 
L 286.364768 117.638957 
L 287.707099 124.263809 
L 288.507014 130.942954 
L 288.368699 137.313789 
L 287.366785 143.518596 
L 285.758883 149.849961 
L 284.834559 153.18317 
L 282.479653 163.097005 
L 280.779101 169.375544 
L 279.310686 175.684311 
L 278.419563 178.971245 
L 276.624351 184.798091 
L 276.610213 184.778496 
L 276.414166 184.695755 
L 262.789728 185.078955 
L 257.274205 184.97306 
L 246.246757 184.365682 
L 240.77413 183.828218 
L 229.172643 182.417744 
L 220.90497 180.975784 
L 204.251165 181.767109 
L 198.725318 181.519082 
L 193.247481 181.097761 
L 187.681282 180.942901 
L 176.858644 180.894992 
L 165.345114 180.241463 
L 160.324566 179.877132 
L 154.799555 179.782851 
L 149.234796 179.526603 
L 143.751025 179.124394 
L 132.634584 178.895584 
L 117.86413 178.613004 
L 117.767754 178.563103 
L 117.684696 178.006615 
L 117.448703 174.572476 
L 116.857783 171.229962 
L 116.153227 167.942012 
L 115.071594 164.666747 
L 113.531568 160.816411 
L 111.879036 157.508575 
L 112.089945 154.922819 
L 112.22958 151.610061 
L 111.882702 148.456744 
L 111.351749 145.303799 
L 111.035854 144.204868 
L 113.47161 139.916853 
L 114.562093 136.681587 
L 115.332438 133.416022 
L 117.171555 123.494485 
L 117.557163 120.174751 
L 117.722581 116.849208 
L 118.704888 110.693196 
L 119.499273 107.723498 
L 120.266564 104.421165 
L 121.252494 101.184359 
L 122.114273 97.898411 
L 122.633391 94.673192 
L 122.785818 91.303791 
L 123.512042 84.692227 
L 125.197714 79.50515 
L 125.688092 79.547379 
L 140.275213 81.331374 
L 151.256867 82.245777 
L 181.240141 84.612369 
L 197.671149 85.110078 
L 208.18939 85.688832 
L 254.11672 89.868759 
L 258.123071 91.469284 
L 261.955328 93.356165 
L 265.424817 95.694874 
L 268.679473 98.361707 
L 271.457716 101.201864 
L 273.670201 104.268758 
L 277.667297 110.31219 
L 279.610295 113.415742 
L 282.947077 119.760146 
L 284.440342 122.928121 
L 285.687021 125.875319 
L 286.759434 128.981299 
L 287.685932 132.099114 
L 288.531425 135.389617 
L 289.121214 138.691281 
L 289.594633 141.993801 
L 289.587422 145.301159 
L 289.404546 148.60301 
L 288.589554 154.875865 
L 287.874311 159.044024 
L 287.004346 162.116068 
L 284.581383 168.139231 
L 281.092347 177.730197 
L 277.858126 187.501811 
L 274.954696 193.937395 
L 274.024679 195.809545 
L 274.035504 195.806169 
L 247.031904 195.157064 
L 224.9751 195.753562 
L 219.770547 195.573629 
L 214.580915 195.156779 
L 211.389729 195.044598 
L 212.517131 195.080759 
L 204.36927 193.064505 
L 196.64341 191.454857 
L 187.884471 191.902681 
L 182.361194 192.428625 
L 176.826099 192.696507 
L 166.589352 191.922711 
L 161.303777 191.816257 
L 155.725354 191.581119 
L 144.709283 191.450339 
L 133.632995 190.797847 
L 128.760233 190.841959 
L 129.00261 190.862612 
L 125.998103 189.031207 
L 119.429326 184.355531 
L 115.938436 181.675473 
L 115.433343 178.791038 
L 114.648265 175.557847 
L 112.175574 169.162952 
L 112.727979 165.778687 
L 113.11012 162.561652 
L 113.266885 159.403412 
L 113.030538 156.230562 
L 114.091926 149.3123 
L 116.721021 142.87016 
L 117.624126 139.602889 
L 119.908369 133.067738 
L 120.159018 129.752895 
L 119.920385 126.431232 
L 120.865739 120.101905 
L 120.867904 117.074642 
L 122.628724 110.507304 
L 123.767038 107.265539 
L 125.092988 104.029735 
L 126.656528 100.847326 
L 127.939928 97.607242 
L 129.423334 94.438504 
L 131.763938 87.780406 
L 131.933254 87.741554 
L 146.81047 89.206932 
L 157.593661 90.673135 
L 162.916268 91.572751 
L 173.200784 94.067177 
L 183.195999 96.645023 
L 193.110986 98.491661 
L 200.06814 100.022536 
L 205.47283 100.663762 
L 210.926618 101.110295 
L 221.815406 102.439422 
L 227.274266 103.112116 
L 235.227356 103.879225 
L 235.421083 102.719305 
L 235.760293 96.147081 
L 235.769643 92.830267 
L 235.588458 89.524278 
L 235.078345 86.230907 
L 234.508188 84.457493 
L 234.703864 84.583807 
L 234.909366 84.783619 
L 234.336276 91.486286 
L 233.163356 98.091377 
L 232.114233 102.292264 
L 232.555391 102.272389 
L 233.702615 102.484151 
L 239.178632 103.323396 
L 250.071414 103.84962 
L 252.41546 103.920454 
L 253.934422 107.303972 
L 256.595647 114.400149 
L 256.996851 115.810352 
L 257.060561 115.591298 
L 257.241807 115.542025 
L 257.97632 112.708719 
L 255.846436 109.67141 
L 256.622068 108.864244 
L 262.792169 103.540428 
L 262.851454 103.551693 
L 276.228694 108.229169 
L 279.632127 109.569021 
L 280.002933 109.351574 
L 284.001599 106.875431 
L 287.478231 104.271035 
L 290.560801 101.506114 
L 291.603161 100.428909 
L 291.551812 100.49649 
L 292.663696 101.129994 
L 297.153584 102.950341 
L 301.952837 104.548159 
L 307.060143 106.461351 
L 305.857663 106.553672 
L 305.728957 106.386394 
L 307.319521 105.552274 
L 307.287882 105.572854 
L 306.90462 106.184481 
L 303.58572 112.590045 
L 300.754695 115.443636 
L 297.556176 118.105157 
L 294.330098 120.509866 
L 294.311001 120.481853 
L 302.872771 124.682936 
L 302.872331 124.677765 
L 300.066399 127.013072 
L 293.153771 132.090966 
L 288.413544 136.102408 
L 286.230499 136.836469 
L 282.849019 137.855983 
L 282.901187 137.824521 
L 283.500371 137.354436 
L 288.468517 135.654381 
L 296.125267 133.387656 
L 296.041191 133.429305 
L 300.678857 138.75449 
L 302.892343 141.75097 
L 307.017635 146.955376 
L 307.06732 146.878988 
L 307.392185 146.617865 
L 307.390227 146.461106 
L 306.079958 143.222697 
L 304.595741 139.956836 
L 302.827425 136.779038 
L 301.390581 134.451516 
L 301.389994 134.458839 
L 303.396513 133.753403 
L 307.964689 132.300504 
L 312.874361 130.861893 
L 315.813889 130.166 
L 315.780283 130.14181 
L 317.232904 132.187758 
L 319.134118 135.359068 
L 320.472386 138.082616 
L 322.804848 137.822094 
L 327.890512 137.079672 
L 332.82293 136.489331 
L 343.541627 135.577698 
L 353.377584 135.374519 
L 353.600647 135.459402 
L 353.554378 135.537258 
L 353.596282 135.618215 
L 353.481378 135.54607 
L 353.481378 135.54607 
L 349.512713 135.734669 
L 344.119055 136.154502 
L 338.621776 136.464902 
L 327.692187 137.429413 
L 323.545977 137.978179 
L 324.27918 139.172948 
L 325.982302 142.234406 
L 327.503765 145.387355 
L 329.243315 148.524631 
L 331.223015 151.63061 
L 333.514677 154.651162 
L 335.301306 157.769289 
L 336.604303 160.99221 
L 342.150241 166.330844 
L 345.026395 169.631554 
L 346.761063 171.829582 
L 354.002385 170.172804 
L 359.354208 169.445905 
L 373.455903 168.20731 
L 373.477113 168.224447 
L 373.468143 168.175786 
L 373.483428 168.183006 
L 367.297317 169.356608 
L 362.007799 170.259212 
L 345.644676 174.006901 
L 352.104871 181.807254 
L 356.237073 187.424422 
L 358.130214 190.502124 
L 359.703061 193.687889 
L 361.130123 196.841606 
L 362.318397 200.099651 
L 363.613278 204.457945 
L 363.613278 204.457945 
L 371.384708 202.49325 
L 376.094071 201.479301 
L 381.346481 200.474827 
L 386.695819 199.708423 
L 391.904505 198.830113 
L 397.877471 197.121142 
L 398.404905 197.309207 
L 398.322994 197.397498 
L 398.470634 197.603509 
L 397.265625 197.875099 
L 386.530031 199.780921 
L 381.378785 201.051227 
L 371.578478 204.010623 
L 370.16966 204.759041 
L 356.676619 210.020224 
L 356.684692 210.014788 
L 363.097377 214.976083 
L 368.035695 219.154895 
L 367.957821 219.415479 
L 368.275967 219.825011 
L 368.425081 219.774364 
L 368.35083 219.761704 
L 368.181583 219.71739 
L 363.287731 218.074174 
L 358.267382 216.609849 
L 353.168304 215.319994 
L 345.271826 213.653673 
L 341.015464 215.511405 
L 337.117496 217.639944 
L 329.691745 222.52859 
L 326.272181 225.102459 
L 322.971559 227.794742 
L 315.80547 234.637881 
L 319.256156 236.793541 
L 323.067141 238.709145 
L 330.853581 243.115139 
L 333.17934 244.609469 
L 333.402093 244.455288 
L 331.449529 243.937268 
L 326.61096 242.51638 
L 321.990485 240.759584 
L 317.148888 239.215764 
L 312.963569 237.606277 
L 310.007151 236.671667 
L 303.033685 240.654992 
L 303.250158 240.577644 
L 311.642587 243.580536 
L 315.512736 245.865579 
L 322.767248 250.588437 
L 326.206659 252.992886 
L 324.381042 251.535754 
L 322.906494 250.280692 
L 320.593096 248.978976 
L 313.144883 244.046025 
L 309.353953 241.858256 
L 305.883022 240.113778 
L 305.414365 240.503227 
L 302.624736 243.435317 
L 299.689753 246.247353 
L 296.48856 248.923267 
L 292.976364 251.438869 
L 290.45435 252.996828 
L 282.952597 257.918134 
L 279.21814 260.300655 
L 275.418929 262.479602 
L 272.116529 264.215117 
L 273.327377 265.083096 
L 277.746819 266.982092 
L 282.895667 268.040226 
L 288.356476 268.209428 
L 293.47585 268.548251 
L 299.2871 270.624711 
L 299.22772 270.531934 
L 287.171859 267.981737 
L 281.73227 267.406702 
L 276.215591 267.250238 
L 271.891215 266.940159 
L 268.733686 270.875228 
L 266.991816 273.97265 
L 267.296747 274.06717 
L 281.704814 277.72427 
L 286.833227 278.933291 
L 294.140529 281.109178 
L 289.71392 279.732558 
L 287.771198 278.909718 
L 287.93169 278.8632 
L 281.865685 277.077784 
L 278.23566 276.44163 
L 267.480304 275.873016 
L 264.826497 275.841684 
L 264.909408 278.151457 
L 264.636781 280.659202 
L 264.00074 283.924757 
L 263.081177 287.16609 
L 262.423838 290.263429 
L 261.924766 295.488 
L 261.813011 295.358657 
L 261.712278 295.309613 
L 261.093532 293.288353 
L 260.403139 289.963536 
L 259.151819 286.742814 
L 257.623732 283.870977 
L 255.64994 277.757635 
L 254.204875 274.568442 
L 252.626327 271.366459 
L 251.625707 268.740927 
L 251.596535 268.7531 
L 250.914164 268.852402 
L 250.914992 268.824462 
L 249.282351 271.201038 
L 240.823996 279.319463 
L 237.641832 281.985497 
L 233.478525 285.166018 
L 222.873215 292.945158 
L 223.058213 292.945676 
L 224.30158 291.455216 
L 230.828289 282.34669 
L 234.520005 275.493675 
L 234.507748 275.494328 
L 225.075177 273.457654 
L 222.506782 276.153153 
L 219.423004 278.831987 
L 217.025375 281.193216 
L 216.968634 281.143182 
L 219.02105 278.71781 
L 222.180123 276.005159 
L 225.678613 273.384529 
L 225.648353 273.360354 
L 218.326103 271.901646 
L 213.185924 270.734039 
L 203.182885 268.034754 
L 198.325313 266.534621 
L 193.645346 264.821765 
L 188.93249 263.597946 
L 184.693724 262.280012 
L 179.795939 260.945776 
L 175.557605 265.8003 
L 175.612784 265.823567 
L 175.662892 265.785871 
L 176.614301 262.603109 
L 177.932997 259.007263 
L 173.239583 257.939145 
L 168.660512 257.095699 
L 167.801736 258.174709 
L 165.694597 261.211272 
L 161.906479 267.381324 
L 161.061478 268.501426 
L 158.543975 268.661546 
L 151.11147 268.90766 
L 151.205 268.857625 
L 155.321986 268.063177 
L 160.425859 266.948769 
L 162.835513 266.17086 
L 165.085667 263.27836 
L 167.235201 260.232498 
L 167.335174 260.519512 
L 160.695855 257.807546 
L 155.92229 256.180663 
L 151.037055 254.695395 
L 145.906459 253.489672 
L 140.702181 252.497319 
L 130.721328 249.763108 
L 125.556513 248.631325 
L 118.955459 247.472686 
L 116.760708 250.265371 
L 110.856325 255.70186 
L 111.018249 255.775447 
L 111.100367 255.582221 
L 111.986082 254.56572 
L 119.878455 246.738101 
L 119.71095 246.695135 
L 114.672641 245.445389 
L 109.861985 243.80749 
L 89.693337 238.927619 
L 84.858718 237.660964 
L 73.832727 234.555176 
L 73.894859 234.637736 
L 74.17851 234.589786 
L 74.445505 234.522501 
L 81.010676 236.120775 
L 91.125756 238.612047 
L 96.216647 239.864916 
L 102.470832 241.53228 
L 103.260827 239.662307 
L 104.774294 236.451782 
L 106.568747 233.307971 
L 108.140378 230.284302 
L 109.902803 227.336876 
L 111.532209 224.323409 
L 115.431989 218.138928 
L 119.394262 212.688145 
L 118.579667 212.51328 
L 107.813718 210.797753 
L 102.84904 209.800992 
L 91.468252 208.173202 
L 91.460437 208.254008 
L 91.550905 208.171775 
L 91.766274 208.09296 
L 96.553356 208.967712 
L 102.996273 210.354784 
L 108.577628 210.057245 
L 112.505269 210.023102 
L 112.131315 210.011531 
L 117.684946 210.501579 
L 122.825643 211.807833 
L 125.855139 212.708819 
L 125.887477 212.660433 
L 125.79437 212.65728 
L 122.304049 217.313807 
L 119.670866 220.216592 
L 117.266836 223.226039 
L 116.538844 226.537355 
L 117.308257 229.848475 
L 129.671792 234.29662 
L 134.595437 236.249111 
L 146.652523 241.499184 
L 156.799716 240.72194 
L 172.889556 238.933365 
L 174.209702 239.023602 
L 179.442298 239.584794 
L 199.739074 241.179728 
L 201.417225 240.812166 
L 206.587983 239.868697 
L 216.494146 239.648304 
L 227.397348 239.824367 
L 232.859253 240.091107 
L 242.682176 240.881909 
L 257.617176 237.257734 
L 267.94257 234.950212 
L 273.246571 234.112383 
L 278.658567 233.461442 
L 288.435351 232.72943 
L 287.447402 229.927352 
L 286.742044 226.822404 
L 286.376025 223.546098 
L 286.165452 220.245367 
L 286.302378 216.94709 
L 286.813802 210.752179 
L 286.605161 207.440152 
L 286.857526 203.213068 
L 283.991438 198.268267 
L 282.770006 195.20823 
L 282.126573 191.927239 
L 283.36222 185.351758 
L 282.739221 182.074611 
L 281.958473 178.828801 
L 281.703882 175.51554 
L 281.84293 172.232511 
L 282.219447 168.939328 
L 282.910667 165.802016 
L 283.792216 162.710937 
L 285.125266 156.48473 
L 285.351823 153.199492 
L 285.126275 149.916334 
L 284.500774 146.61912 
L 283.908207 141.142196 
L 283.899935 141.143659 
L 275.770482 142.49918 
L 270.528958 142.730942 
L 265.042849 142.679237 
L 243.071226 143.152056 
L 232.085863 143.584165 
L 226.632834 143.871584 
L 211.290549 145.124899 
L 206.114004 145.697486 
L 195.366704 147.129702 
L 179.251978 149.054175 
L 163.273704 150.928146 
L 153.189212 152.160901 
L 142.784408 153.68968 
L 139.399598 154.165097 
L 136.73682 157.057323 
L 133.694722 159.829852 
L 129.963508 162.2169 
L 125.98676 164.517924 
L 121.821608 166.652479 
L 118.082725 168.825866 
L 114.585348 171.190384 
L 111.603769 173.582151 
L 110.216609 174.875838 
L 110.439742 179.140058 
L 110.877062 182.395759 
L 111.07461 185.663679 
L 111.842911 188.952247 
L 112.484127 195.517318 
L 112.976014 199.559693 
L 113.539521 202.672005 
L 113.642504 205.669041 
L 114.509044 212.115439 
L 115.006055 215.845296 
L 115.651653 219.169132 
L 116.907597 223.427341 
L 128.681204 223.111623 
L 139.654085 223.51933 
L 146.586414 223.942295 
L 145.866185 225.939971 
L 145.622308 229.312318 
L 145.014835 232.866915 
L 145.129964 232.801616 
L 145.491506 232.961959 
L 145.396579 231.071277 
L 145.015974 227.713987 
L 143.813571 221.072159 
L 142.966706 215.821723 
L 143.024283 215.819368 
L 143.111137 215.638652 
L 148.078369 215.099944 
L 157.589314 214.406385 
L 157.574408 214.398978 
L 158.047215 215.993289 
L 160.754054 222.05877 
L 160.948367 222.136999 
L 168.118001 225.782569 
L 168.110402 225.772128 
L 170.848483 231.970478 
L 171.021189 231.979171 
L 181.736841 231.752476 
L 181.728249 231.752865 
L 187.382837 233.753109 
L 187.134949 233.664968 
L 171.173409 232.310308 
L 168.709119 229.837303 
L 166.066654 226.936213 
L 163.784895 224.184964 
L 163.939013 224.002822 
L 167.039551 223.60203 
L 172.612909 223.024256 
L 177.947696 222.688295 
L 179.843001 221.802579 
L 190.570427 220.267887 
L 200.287943 219.13738 
L 205.083642 217.629934 
L 210.33688 216.486948 
L 215.392224 215.533308 
L 220.185388 215.20479 
L 224.875343 214.133592 
L 229.789224 212.616052 
L 239.282624 210.112259 
L 245.145957 208.475268 
L 245.124013 208.467037 
L 249.944563 211.581756 
L 250.321226 214.621565 
L 251.169712 217.58828 
L 252.441484 221.326814 
L 252.441294 221.26066 
L 250.123678 218.573091 
L 248.75245 214.637721 
L 248.63683 211.317759 
L 248.928589 206.860449 
L 248.962955 206.86244 
L 251.596474 206.58708 
L 261.740907 205.933027 
L 261.740718 205.93769 
L 262.438545 207.951559 
L 266.267386 217.29222 
L 267.346941 220.386001 
L 270.54031 226.83522 
L 270.48557 226.823753 
L 270.595705 226.772686 
L 270.544933 226.709073 
L 270.474745 226.673576 
L 251.106132 234.930778 
L 246.560917 236.442679 
L 241.573984 237.835622 
L 230.847464 239.41941 
L 220.214465 241.36466 
L 215.897619 242.344746 
L 221.226617 241.097806 
L 231.160443 238.548283 
L 241.508557 236.253919 
L 252.106389 234.474867 
L 262.78413 233.003141 
L 270.445141 232.000623 
L 269.158809 228.514057 
L 266.043892 222.150064 
L 264.320309 219.010496 
L 260.638529 212.693991 
L 258.012971 208.112591 
L 258.018742 208.118914 
L 257.268806 208.315729 
L 252.557001 209.761222 
L 242.944953 212.374077 
L 238.053421 213.879745 
L 232.878411 214.895147 
L 227.728467 216.095211 
L 223.003154 217.679849 
L 217.87186 218.945773 
L 212.933248 220.339073 
L 208.098224 221.906424 
L 203.585512 223.490596 
L 193.736797 225.218861 
L 188.801438 226.229963 
L 183.51876 227.039753 
L 178.212422 227.994907 
L 162.642597 231.074129 
L 157.394198 231.997941 
L 146.226123 234.551815 
L 141.074351 235.186196 
L 131.710708 237.591023 
L 127.125125 238.921934 
L 121.942214 240.22169 
L 117.304988 241.546636 
L 117.236973 241.498619 
L 115.689641 238.630625 
L 113.872796 234.993457 
L 113.872796 234.993457 
" clip-path="url(#p2e32b7f08f)" style="fill: none; stroke: #0000ff; stroke-opacity: 0.7; stroke-width: 0.75; stroke-linecap: square"/>
   </g>
   <g id="line2d_15">
    <path d="M 179.567303 76.024907 
L 179.66235 76.029963 
L 185.607929 76.104954 
L 185.553457 76.00301 
L 185.74468 75.811485 
L 185.940041 75.718289 
L 186.197384 75.638968 
L 188.732732 75.951234 
L 199.295156 77.562365 
L 209.843935 79.572065 
L 220.421444 81.097172 
L 226.001022 81.326544 
L 237.042847 82.049386 
L 256.374018 83.884127 
L 263.50466 89.759637 
L 270.540175 94.753593 
L 276.508672 98.827183 
L 276.450599 98.760847 
L 276.51907 98.692055 
L 279.201909 104.720331 
L 280.352999 107.612348 
L 281.377124 110.677785 
L 282.268155 113.744828 
L 282.731888 116.952453 
L 283.161123 123.414176 
L 283.064553 129.926297 
L 282.144428 136.107858 
L 280.461233 142.027668 
L 278.347867 147.749384 
L 277.082713 150.904863 
L 273.681412 160.31971 
L 269.964611 169.074746 
L 267.513797 175.032291 
L 265.141332 180.435197 
L 265.220664 180.304141 
L 265.640938 180.33428 
L 257.707177 180.518042 
L 252.238134 180.511895 
L 241.710501 180.192035 
L 236.693444 179.95275 
L 227.331246 179.024288 
L 222.067977 178.399859 
L 218.190902 177.70802 
L 215.067976 177.002691 
L 215.12425 177.003414 
L 199.323299 177.00834 
L 193.925253 176.476067 
L 188.523079 175.74986 
L 183.062903 175.274792 
L 172.618841 174.636871 
L 156.19271 172.827326 
L 145.561296 172.106725 
L 140.139783 171.493379 
L 114.341853 169.495896 
L 114.073727 169.308959 
L 114.327025 165.45208 
L 114.186773 162.139003 
L 113.917886 158.867234 
L 113.257665 155.708267 
L 112.186319 151.960301 
L 110.873425 148.939348 
L 111.393341 146.497314 
L 111.897103 143.331936 
L 111.837597 140.312604 
L 111.309158 137.165413 
L 110.792657 136.209726 
L 113.668894 131.732031 
L 114.861212 128.515489 
L 115.666947 125.032857 
L 116.309097 121.620423 
L 117.069007 118.283563 
L 117.686036 115.043084 
L 118.133429 111.921906 
L 118.350383 108.934653 
L 119.439766 103.307329 
L 122.037728 93.879862 
L 122.825437 90.640792 
L 122.937647 87.310295 
L 122.658931 83.854236 
L 122.551284 77.048614 
L 123.691571 71.451291 
L 124.211161 71.458423 
L 139.05063 72.523349 
L 150.01592 72.893829 
L 166.101686 73.252351 
L 176.36292 73.388341 
L 177.753248 73.487479 
L 177.68948 73.445626 
L 177.933712 73.383879 
L 178.100935 73.505011 
L 178.265429 73.486647 
L 177.879446 73.188109 
L 179.217817 73.308947 
L 195.632355 74.075808 
L 205.884018 74.779175 
L 242.813136 78.645472 
L 252.348561 79.924718 
L 256.164745 81.574909 
L 259.65974 83.43306 
L 262.613699 85.591446 
L 265.526088 88.256021 
L 267.983838 91.025148 
L 271.637902 96.752913 
L 275.223024 102.576252 
L 278.349136 108.78453 
L 279.696538 111.863515 
L 280.777048 114.700403 
L 281.649815 117.664566 
L 282.351681 120.615748 
L 282.92217 123.854927 
L 283.464118 130.292651 
L 283.221076 133.465412 
L 282.813385 136.616481 
L 281.666767 142.383909 
L 280.793995 146.21017 
L 279.754954 149.199049 
L 276.986199 154.987812 
L 271.338129 167.276019 
L 270.073093 170.369468 
L 268.571079 173.409451 
L 265.204435 179.46332 
L 264.236233 181.133787 
L 264.356486 181.029991 
L 264.662012 181.017388 
L 237.998902 179.832741 
L 221.915724 179.804601 
L 216.295058 180.18249 
L 211.792317 180.108748 
L 205.285515 179.790544 
L 207.185834 179.881318 
L 194.275908 176.555645 
L 192.010744 175.978564 
L 183.766386 176.055113 
L 178.476794 176.297735 
L 173.185993 176.278209 
L 163.486936 174.974012 
L 147.789129 173.949031 
L 142.48638 173.697728 
L 131.981877 172.825278 
L 127.197725 172.750861 
L 127.637716 172.850182 
L 124.692706 170.983968 
L 118.136601 166.282423 
L 114.177201 163.280928 
L 114.1649 162.916898 
L 112.939176 157.447224 
L 110.460926 151.571226 
L 110.930618 148.310784 
L 111.23207 145.220847 
L 111.317184 142.194942 
L 111.02776 139.163634 
L 111.922802 132.36187 
L 114.196833 125.817715 
L 114.876626 122.576183 
L 116.565303 116.098239 
L 116.558127 112.87003 
L 116.065465 109.791057 
L 116.365226 103.614813 
L 116.036843 100.83532 
L 116.826332 94.26454 
L 117.441262 90.962553 
L 118.255841 87.63942 
L 119.328941 84.334957 
L 120.113593 81.009972 
L 121.117271 77.726478 
L 122.414483 70.642577 
L 122.524349 70.597583 
L 137.180699 70.770704 
L 147.945992 71.283693 
L 153.311373 71.701245 
L 169.183432 74.015662 
L 174.127853 74.8168 
L 184.072011 75.775782 
L 190.821435 76.66583 
L 196.174673 76.898729 
L 201.628756 76.959435 
L 212.603205 77.551035 
L 218.10323 77.874603 
L 225.98887 78.180069 
L 226.035891 77.042441 
L 225.659795 70.522161 
L 225.340937 67.181189 
L 224.847556 63.858292 
L 224.039469 60.560352 
L 223.416936 58.716487 
L 223.96224 59.002511 
L 223.184431 65.588946 
L 221.652678 71.99085 
L 220.305782 75.951358 
L 220.63711 75.897542 
L 221.205633 75.953427 
L 221.614711 75.839379 
L 221.626335 75.706486 
L 221.754297 75.656403 
L 221.755078 75.660599 
L 222.754942 76.018108 
L 227.724275 77.597225 
L 232.723421 78.641565 
L 239.881392 79.956188 
L 239.773179 79.934522 
L 239.9528 83.455591 
L 239.829261 90.755426 
L 239.596454 92.288848 
L 239.269905 92.249688 
L 239.30586 92.153988 
L 239.212578 92.177361 
L 239.030829 92.170835 
L 240.654204 89.573049 
L 239.576868 86.323896 
L 240.519599 85.681478 
L 248.502233 81.01398 
L 248.812503 81.01637 
L 263.660149 88.438118 
L 263.576545 88.411204 
L 268.832064 86.254206 
L 273.18177 84.113747 
L 278.65924 80.851718 
L 278.74363 80.773608 
L 278.649499 80.747264 
L 279.453843 81.423137 
L 283.232881 83.633275 
L 287.36168 85.583041 
L 291.491648 87.768197 
L 290.210362 87.678905 
L 290.413633 87.315097 
L 290.211649 87.188185 
L 292.514758 86.766481 
L 288.08287 89.478764 
L 284.291529 91.707544 
L 279.64747 93.344372 
L 274.820551 94.703058 
L 270.181212 95.819933 
L 270.285394 95.788182 
L 270.334268 95.600378 
L 273.292314 100.079591 
L 274.025201 101.41407 
L 274.050453 101.286079 
L 274.169824 101.160097 
L 269.862784 102.246184 
L 254.519962 105.608657 
L 252.050961 106.281308 
L 245.736238 106.002591 
L 245.771937 106.000321 
L 246.465443 105.869096 
L 252.165372 105.952064 
L 260.670402 106.378056 
L 260.5943 106.371441 
L 260.083888 112.481608 
L 259.451514 115.798846 
L 259.039595 119.158211 
L 258.571428 121.643689 
L 258.638284 121.609383 
L 258.989043 121.54776 
L 259.082235 121.43004 
L 260.353911 118.202609 
L 261.484956 114.893911 
L 262.282073 111.587825 
L 262.715133 109.154721 
L 262.675223 109.18177 
L 270.113823 108.935581 
L 275.56365 108.903125 
L 278.59659 109.012427 
L 278.539725 108.987967 
L 278.478008 108.799769 
L 278.330454 110.871503 
L 277.768644 114.079268 
L 277.038524 116.728741 
L 277.149914 116.62322 
L 279.338841 116.989679 
L 284.369354 117.67065 
L 289.137638 118.450192 
L 294.052032 119.386618 
L 299.380068 120.521845 
L 308.506578 123.056842 
L 308.808457 123.282647 
L 305.120799 122.462013 
L 299.929447 121.472265 
L 294.718962 120.357851 
L 284.131104 118.473197 
L 280.057443 117.910688 
L 280.149126 117.862465 
L 280.014212 119.063554 
L 279.489249 122.21436 
L 278.742937 125.399319 
L 278.167759 128.648017 
L 277.803225 131.903079 
L 277.758246 135.108756 
L 277.186567 138.344416 
L 276.064445 141.618828 
L 276.580434 144.55785 
L 277.250529 147.557303 
L 277.487814 151.166312 
L 277.472519 153.477072 
L 277.545348 153.423641 
L 284.727006 153.998298 
L 289.735325 154.875849 
L 299.997819 157.183257 
L 303.08828 158.003342 
L 303.078881 157.912522 
L 303.242607 157.63951 
L 297.353097 156.612439 
L 292.287601 155.60451 
L 276.01985 153.196031 
L 276.212247 153.075764 
L 273.13325 164.134174 
L 272.147138 167.083271 
L 270.89011 170.093891 
L 269.328621 173.0353 
L 267.518939 176.166833 
L 265.395356 179.271373 
L 262.237246 183.214427 
L 262.224632 183.153526 
L 262.244056 183.170187 
L 270.56737 184.405418 
L 275.406862 185.29899 
L 280.661053 186.401518 
L 285.728785 187.732414 
L 290.800937 188.934438 
L 297.475945 189.864194 
L 297.691197 189.657909 
L 297.912039 189.912114 
L 298.059008 189.838162 
L 298.149737 189.664867 
L 298.308011 189.640312 
L 297.12096 189.367975 
L 286.960513 186.440304 
L 281.718098 185.293479 
L 271.554768 183.504631 
L 271.604395 183.449729 
L 271.435505 183.3498 
L 269.86483 183.304381 
L 259.695352 182.356189 
L 254.398709 182.023892 
L 254.686442 182.07766 
L 254.313448 182.230673 
L 252.398102 193.240181 
L 252.617325 193.472635 
L 253.319521 193.680012 
L 253.277998 193.613635 
L 253.147978 193.453383 
L 251.909543 190.049404 
L 250.365421 186.714117 
L 248.593747 183.465012 
L 246.549182 180.270994 
L 245.355597 178.66135 
L 240.390971 177.874646 
L 235.330168 177.419882 
L 224.675529 177.073433 
L 215.251251 177.494318 
L 204.312415 178.447626 
L 204.393588 178.411205 
L 203.534747 181.543938 
L 203.157242 184.76503 
L 202.434471 188.247733 
L 201.61277 191.375162 
L 200.892392 193.429281 
L 201.141878 193.606751 
L 201.46018 193.604454 
L 201.104952 192.379574 
L 200.525284 189.181732 
L 200.592636 185.785298 
L 200.197165 182.399148 
L 200.283001 179.317414 
L 200.055092 177.106437 
L 190.772332 175.495482 
L 191.077433 175.434455 
L 191.134489 181.193803 
L 189.837327 184.315338 
L 186.72542 190.446237 
L 184.994177 193.44942 
L 186.167347 191.774884 
L 187.259353 190.49467 
L 187.148535 190.641529 
L 186.232539 190.70772 
L 185.220312 190.528072 
L 184.567653 190.139865 
L 185.365914 188.213416 
L 188.99679 181.844032 
L 190.400085 178.734584 
L 191.381699 175.884393 
L 190.786576 175.796444 
L 185.076037 175.834108 
L 179.507257 175.757428 
L 174.131732 175.53674 
L 168.958736 175.119462 
L 165.579879 174.709482 
L 149.774444 173.040218 
L 140.44931 171.741854 
L 140.536294 171.928981 
L 139.956846 172.604167 
L 138.956445 175.820599 
L 139.509334 179.134434 
L 141.602243 182.308315 
L 143.274189 185.335485 
L 142.41268 189.409277 
L 142.799524 189.454785 
L 143.045173 189.280977 
L 142.798867 184.85293 
L 142.755621 181.714152 
L 141.787593 178.514969 
L 140.050009 175.216406 
L 138.929987 172.379722 
L 132.158027 172.001182 
L 127.046747 172.096417 
L 126.626251 172.608951 
L 126.727577 173.0054 
L 125.746923 179.102405 
L 125.271905 182.18672 
L 124.941151 185.436247 
L 123.800032 190.15611 
L 124.606578 187.098948 
L 125.29728 185.552372 
L 125.76238 185.499159 
L 125.875716 185.549783 
L 126.497695 181.333823 
L 126.146533 178.98549 
L 122.951468 172.905173 
L 122.053715 171.45921 
L 122.464489 171.728999 
L 119.002037 172.588991 
L 115.136886 173.334963 
L 110.014874 174.151062 
L 100.033311 175.55245 
L 92.018252 177.190909 
L 92.156005 177.17625 
L 92.579485 177.925452 
L 92.814643 177.893544 
L 92.711802 178.089554 
L 95.567823 176.989189 
L 100.473535 175.322211 
L 104.920826 173.414792 
L 108.681653 171.498717 
L 117.28488 168.06408 
L 121.557429 166.058021 
L 126.004602 163.809812 
L 130.028748 162.073493 
L 129.631036 161.714184 
L 129.696034 161.723354 
L 129.889424 161.622212 
L 125.803069 161.870227 
L 110.090243 161.385794 
L 104.698627 161.016195 
L 98.093223 160.377325 
L 81.827263 158.546111 
L 81.938529 158.719517 
L 82.191785 158.734443 
L 85.031053 158.668564 
L 101.702294 157.866918 
L 107.090401 157.330947 
L 113.720199 156.909238 
L 113.7113 157.033269 
L 112.555089 151.292995 
L 112.476511 151.479397 
L 107.406732 151.400734 
L 102.097148 151.013126 
L 97.673238 150.903985 
L 97.760953 151.027054 
L 97.688709 151.315185 
L 102.320521 151.550105 
L 107.844566 152.295403 
L 112.773963 153.186768 
L 113.433937 153.458402 
L 112.99581 152.156351 
L 112.421669 148.990437 
L 112.002937 145.757499 
L 111.820353 142.466023 
L 111.867305 139.09972 
L 112.040497 135.637217 
L 112.439555 132.105678 
L 112.273459 128.964202 
L 112.279486 126.039739 
L 112.727933 122.535919 
L 113.409961 122.04034 
L 112.643868 122.308812 
L 104.145904 121.341012 
L 104.278845 121.205711 
L 104.222022 121.257968 
L 104.458947 121.342399 
L 104.732997 121.209965 
L 110.278884 120.53985 
L 116.724781 119.861445 
L 116.710966 119.841845 
L 116.925527 116.869979 
L 116.842224 114.062764 
L 116.927084 114.131477 
L 115.161916 113.954261 
L 109.904455 113.689833 
L 97.947251 113.405667 
L 98.09094 113.471605 
L 96.965365 112.019996 
L 94.072986 107.513573 
L 94.199528 107.240987 
L 94.557001 107.03784 
L 95.056505 107.179623 
L 97.451825 109.316953 
L 100.650501 111.941601 
L 102.573876 113.154153 
L 107.719932 113.588639 
L 113.0902 113.894608 
L 112.524725 114.067557 
L 113.226986 112.531413 
L 114.484423 109.349733 
L 115.295816 106.060438 
L 115.778003 102.751757 
L 115.715933 99.454045 
L 115.285533 96.212686 
L 115.688064 89.625255 
L 115.439194 86.344613 
L 114.736769 82.041037 
L 114.89875 82.038622 
L 109.995303 81.854034 
L 99.793414 80.54357 
L 99.890339 80.531629 
L 100.950415 80.231626 
L 101.444722 80.15421 
L 103.456147 80.287067 
L 118.840353 82.439469 
L 116.404305 83.094303 
L 117.463138 79.906385 
L 119.090502 76.834728 
L 120.855888 70.278773 
L 122.340197 63.869652 
L 123.197049 60.764378 
L 125.584283 53.713614 
L 125.517973 53.598419 
L 124.90584 53.568 
L 124.376385 53.83318 
L 123.041333 53.826713 
L 121.682116 58.132072 
L 119.73247 64.754409 
L 118.726562 68.069329 
L 117.222048 72.225829 
L 120.351093 72.226273 
L 125.85395 72.37277 
L 152.45534 73.950077 
L 158.098414 74.429191 
L 168.336935 75.546968 
L 168.548603 75.011585 
L 168.927302 71.565153 
L 169.465102 68.247196 
L 170.228512 65.073291 
L 171.190324 57.952709 
L 171.49192 57.950564 
L 172.170804 58.244225 
L 171.078262 61.129322 
L 169.247071 64.979373 
L 170.049933 68.307069 
L 170.307314 70.647725 
L 170.316385 70.398065 
L 169.748345 73.719253 
L 167.805333 76.795119 
L 166.389371 78.511158 
L 166.404483 78.519226 
L 166.813079 78.637589 
L 166.918058 78.510635 
L 159.631089 76.257855 
L 155.051913 74.550825 
L 150.345454 72.94271 
L 145.040479 72.29938 
L 138.74669 72.489265 
L 136.638537 75.720815 
L 130.274701 80.743807 
L 114.904962 91.28656 
L 120.294053 88.86619 
L 119.76909 92.518846 
L 119.930966 96.708451 
L 120.450618 100.750851 
L 117.703421 104.405812 
L 113.682052 108.900367 
L 115.742028 108.567596 
L 116.30807 110.582253 
L 115.821275 113.629346 
L 115.320955 119.659446 
L 114.635946 122.302973 
L 120.803 123.034364 
L 127.551206 126.086448 
L 129.120711 128.883903 
L 130.12996 132.021111 
L 128.805646 134.902228 
L 125.346204 136.93022 
L 118.464541 137.170665 
L 106.486212 133.797075 
L 109.550646 139.545197 
L 108.771287 139.579378 
L 112.625561 144.279801 
L 114.744902 148.670236 
L 117.572288 152.791783 
L 118.943629 158.180754 
L 118.188902 161.100675 
L 121.335591 166.319567 
L 123.128668 172.491734 
L 124.156969 179.546712 
L 130.324849 183.71176 
L 128.241976 179.393837 
L 124.794948 178.672686 
L 129.400951 177.325285 
L 134.584818 176.188115 
L 139.367059 175.693334 
L 144.678601 175.830884 
L 153.534958 176.353176 
L 158.293737 176.771896 
L 163.701048 176.77721 
L 169.06397 177.232391 
L 172.840652 176.544282 
L 177.728594 175.851289 
L 182.8364 175.467295 
L 188.307761 175.473932 
L 198.973957 177.076077 
L 204.394834 177.04873 
L 209.843893 176.814258 
L 215.11905 176.988254 
L 220.058665 177.341922 
L 224.813296 177.806549 
L 229.023006 178.396184 
L 243.17407 180.785076 
L 248.480595 181.409831 
L 253.786632 181.766299 
L 259.07321 181.93459 
L 268.183768 182.475763 
L 268.552758 182.413082 
L 268.601595 182.534677 
L 268.401476 180.844368 
L 267.886972 177.732151 
L 268.5748 174.710491 
L 269.563264 171.493539 
L 271.254587 165.11198 
L 272.225696 161.920948 
L 274.24788 152.452592 
L 274.876842 149.35336 
L 275.174948 146.50598 
L 275.442086 140.400582 
L 274.869378 134.155554 
L 274.467396 130.994119 
L 273.784186 124.613144 
L 273.488773 121.424542 
L 273.073906 118.247525 
L 272.838921 115.221091 
L 272.032322 108.898998 
L 271.772587 105.894945 
L 271.094765 102.771411 
L 270.619189 97.400709 
L 270.908844 97.627354 
L 267.14279 95.805522 
L 263.603898 93.744356 
L 260.722125 91.312682 
L 258.03455 88.725522 
L 255.512382 85.634456 
L 253.088361 82.916123 
L 250.584543 80.499929 
L 247.697074 78.0036 
L 245.579366 77.803806 
L 238.961683 77.600782 
L 234.488981 77.264228 
L 230.104683 76.802488 
L 225.4034 76.437575 
L 210.585762 74.979311 
L 183.033963 74.447184 
L 181.918314 74.633687 
L 170.141665 74.856713 
L 167.900779 75.036503 
L 167.779038 79.629418 
L 167.337384 82.838796 
L 166.452761 86.174765 
L 165.393389 89.512753 
L 163.833607 93.693942 
L 163.877751 93.67918 
L 164.242339 93.780479 
L 161.442301 93.099135 
L 156.324371 92.402106 
L 150.975928 91.448444 
L 151.681895 91.631165 
L 152.010452 91.822059 
L 151.976028 91.848076 
L 152.323659 91.429829 
L 152.033642 91.48518 
L 154.472453 91.850556 
L 159.375123 92.38736 
L 180.41503 94.100634 
L 180.630005 93.446192 
L 180.34146 93.221204 
L 181.098745 93.341793 
L 181.029143 93.383321 
L 179.679061 96.590481 
L 177.952323 100.042165 
L 176.546794 102.581518 
L 176.747542 102.497697 
L 174.392733 102.160377 
L 164.610605 101.268374 
L 164.882313 101.236792 
L 156.787648 103.61852 
L 157.057308 103.621746 
L 147.581395 102.71475 
L 147.579722 102.79878 
L 147.477534 102.932911 
L 143.101165 109.161241 
L 138.096413 111.253148 
L 138.104235 111.433272 
L 138.701805 111.689334 
L 138.471544 111.485882 
L 148.588419 103.505345 
L 153.243307 103.322627 
L 163.458992 103.224416 
L 163.550705 103.316744 
L 163.850036 103.504155 
L 163.106597 105.159072 
L 161.560543 108.274022 
L 159.582906 111.367843 
L 160.035048 112.893407 
L 157.541855 119.483529 
L 156.15714 122.755221 
L 154.921699 125.383568 
L 155.131124 128.695566 
L 154.661259 132.109151 
L 153.90346 135.299212 
L 152.346656 138.081029 
L 152.031043 141.153282 
L 152.315772 144.526292 
L 152.255777 150.877119 
L 152.376943 154.896045 
L 152.442358 154.860125 
L 146.03371 156.304601 
L 146.182443 156.311643 
L 141.446463 155.408596 
L 131.377093 154.19567 
L 130.796137 154.138753 
L 130.905458 154.207578 
L 131.130674 154.293293 
L 136.308532 153.895427 
L 143.077515 154.500985 
L 148.52511 155.567526 
L 155.896207 157.383819 
L 155.858736 157.407084 
L 155.490022 159.020858 
L 154.195744 162.410935 
L 153.10325 164.863387 
L 152.999314 164.572754 
L 153.086372 164.335359 
L 149.855887 164.061195 
L 134.53979 163.136633 
L 129.498474 162.736416 
L 124.447488 162.584715 
L 118.100019 163.320826 
L 116.354052 164.693044 
L 120.477483 166.642155 
L 120.652242 167.106582 
L 121.891224 165.964246 
L 118.967211 157.465018 
L 117.803058 154.901346 
L 116.707473 152.029857 
L 114.968045 148.396016 
L 113.565675 144.714454 
L 114.168058 141.464067 
L 114.606574 138.179407 
L 114.504292 134.836777 
L 114.65291 131.445246 
L 114.463467 128.474152 
L 115.022373 128.280457 
L 114.291766 126.374124 
L 113.136875 124.136775 
L 112.843696 124.360945 
L 112.580777 127.511814 
L 113.648232 130.914364 
L 113.740929 136.910524 
L 113.281674 140.44773 
L 112.157622 143.880153 
L 113.247561 147.987108 
L 112.315667 151.659653 
L 112.202278 155.778529 
L 113.058469 158.835936 
L 112.682751 160.996799 
L 113.232781 160.960549 
L 113.262049 161.108118 
L 123.694441 162.604081 
L 129.081157 163.244991 
L 145.024733 164.704376 
L 153.99131 165.051574 
L 154.063946 164.558016 
L 153.677067 161.345912 
L 153.791739 154.900309 
L 153.588887 151.520759 
L 154.322133 148.233605 
L 154.800482 144.91648 
L 154.549959 141.604392 
L 154.970933 138.252243 
L 155.133385 134.932587 
L 155.002672 131.599539 
L 154.716412 128.440497 
L 156.693043 122.2668 
L 157.481241 119.14128 
L 158.753713 115.876353 
L 159.791493 112.563663 
L 160.576874 109.252394 
L 161.193684 105.981441 
L 163.458619 99.756959 
L 164.877894 93.041936 
L 166.292122 90.001039 
L 166.688403 87.247771 
L 166.902378 84.375454 
L 166.856479 81.313961 
L 167.11025 77.940861 
L 167.095439 74.853994 
L 167.196659 74.837274 
L 178.417665 75.781773 
L 178.416443 75.781236 
" clip-path="url(#p2e32b7f08f)" style="fill: none; stroke: #ff0000; stroke-opacity: 0.7; stroke-width: 0.75; stroke-linecap: square"/>
   </g>
   <g id="patch_3">
    <path d="M 57.6 307.584 
L 57.6 41.472 
" style="fill: none; stroke: #000000; stroke-width: 0.8; stroke-linejoin: miter; stroke-linecap: square"/>
   </g>
   <g id="patch_4">
    <path d="M 414.72 307.584 
L 414.72 41.472 
" style="fill: none; stroke: #000000; stroke-width: 0.8; stroke-linejoin: miter; stroke-linecap: square"/>
   </g>
   <g id="patch_5">
    <path d="M 57.6 307.584 
L 414.72 307.584 
" style="fill: none; stroke: #000000; stroke-width: 0.8; stroke-linejoin: miter; stroke-linecap: square"/>
   </g>
   <g id="patch_6">
    <path d="M 57.6 41.472 
L 414.72 41.472 
" style="fill: none; stroke: #000000; stroke-width: 0.8; stroke-linejoin: miter; stroke-linecap: square"/>
   </g>
   <g id="text_16">
    <!-- Initial Trajectory Estimate vs Optimized Trajectory Estimate -->
    <g transform="translate(58.480312 35.472) scale(0.12 -0.12)">
     <defs>
      <path id="DejaVuSans-49" d="M 628 4666 
L 1259 4666 
L 1259 0 
L 628 0 
L 628 4666 
z
" transform="scale(0.015625)"/>
      <path id="DejaVuSans-6e" d="M 3513 2113 
L 3513 0 
L 2938 0 
L 2938 2094 
Q 2938 2591 2744 2837 
Q 2550 3084 2163 3084 
Q 1697 3084 1428 2787 
Q 1159 2491 1159 1978 
L 1159 0 
L 581 0 
L 581 3500 
L 1159 3500 
L 1159 2956 
Q 1366 3272 1645 3428 
Q 1925 3584 2291 3584 
Q 2894 3584 3203 3211 
Q 3513 2838 3513 2113 
z
" transform="scale(0.015625)"/>
      <path id="DejaVuSans-74" d="M 1172 4494 
L 1172 3500 
L 2356 3500 
L 2356 3053 
L 1172 3053 
L 1172 1153 
Q 1172 725 1289 603 
Q 1406 481 1766 481 
L 2356 481 
L 2356 0 
L 1766 0 
Q 1100 0 847 248 
Q 594 497 594 1153 
L 594 3053 
L 172 3053 
L 172 3500 
L 594 3500 
L 594 4494 
L 1172 4494 
z
" transform="scale(0.015625)"/>
      <path id="DejaVuSans-6c" d="M 603 4863 
L 1178 4863 
L 1178 0 
L 603 0 
L 603 4863 
z
" transform="scale(0.015625)"/>
      <path id="DejaVuSans-20" transform="scale(0.015625)"/>
      <path id="DejaVuSans-54" d="M -19 4666 
L 3928 4666 
L 3928 4134 
L 2272 4134 
L 2272 0 
L 1638 0 
L 1638 4134 
L -19 4134 
L -19 4666 
z
" transform="scale(0.015625)"/>
      <path id="DejaVuSans-72" d="M 2631 2963 
Q 2534 3019 2420 3045 
Q 2306 3072 2169 3072 
Q 1681 3072 1420 2755 
Q 1159 2438 1159 1844 
L 1159 0 
L 581 0 
L 581 3500 
L 1159 3500 
L 1159 2956 
Q 1341 3275 1631 3429 
Q 1922 3584 2338 3584 
Q 2397 3584 2469 3576 
Q 2541 3569 2628 3553 
L 2631 2963 
z
" transform="scale(0.015625)"/>
      <path id="DejaVuSans-6a" d="M 603 3500 
L 1178 3500 
L 1178 -63 
Q 1178 -731 923 -1031 
Q 669 -1331 103 -1331 
L -116 -1331 
L -116 -844 
L 38 -844 
Q 366 -844 484 -692 
Q 603 -541 603 -63 
L 603 3500 
z
M 603 4863 
L 1178 4863 
L 1178 4134 
L 603 4134 
L 603 4863 
z
" transform="scale(0.015625)"/>
      <path id="DejaVuSans-65" d="M 3597 1894 
L 3597 1613 
L 953 1613 
Q 991 1019 1311 708 
Q 1631 397 2203 397 
Q 2534 397 2845 478 
Q 3156 559 3463 722 
L 3463 178 
Q 3153 47 2828 -22 
Q 2503 -91 2169 -91 
Q 1331 -91 842 396 
Q 353 884 353 1716 
Q 353 2575 817 3079 
Q 1281 3584 2069 3584 
Q 2775 3584 3186 3129 
Q 3597 2675 3597 1894 
z
M 3022 2063 
Q 3016 2534 2758 2815 
Q 2500 3097 2075 3097 
Q 1594 3097 1305 2825 
Q 1016 2553 972 2059 
L 3022 2063 
z
" transform="scale(0.015625)"/>
      <path id="DejaVuSans-63" d="M 3122 3366 
L 3122 2828 
Q 2878 2963 2633 3030 
Q 2388 3097 2138 3097 
Q 1578 3097 1268 2742 
Q 959 2388 959 1747 
Q 959 1106 1268 751 
Q 1578 397 2138 397 
Q 2388 397 2633 464 
Q 2878 531 3122 666 
L 3122 134 
Q 2881 22 2623 -34 
Q 2366 -91 2075 -91 
Q 1284 -91 818 406 
Q 353 903 353 1747 
Q 353 2603 823 3093 
Q 1294 3584 2113 3584 
Q 2378 3584 2631 3529 
Q 2884 3475 3122 3366 
z
" transform="scale(0.015625)"/>
      <path id="DejaVuSans-6f" d="M 1959 3097 
Q 1497 3097 1228 2736 
Q 959 2375 959 1747 
Q 959 1119 1226 758 
Q 1494 397 1959 397 
Q 2419 397 2687 759 
Q 2956 1122 2956 1747 
Q 2956 2369 2687 2733 
Q 2419 3097 1959 3097 
z
M 1959 3584 
Q 2709 3584 3137 3096 
Q 3566 2609 3566 1747 
Q 3566 888 3137 398 
Q 2709 -91 1959 -91 
Q 1206 -91 779 398 
Q 353 888 353 1747 
Q 353 2609 779 3096 
Q 1206 3584 1959 3584 
z
" transform="scale(0.015625)"/>
      <path id="DejaVuSans-79" d="M 2059 -325 
Q 1816 -950 1584 -1140 
Q 1353 -1331 966 -1331 
L 506 -1331 
L 506 -850 
L 844 -850 
Q 1081 -850 1212 -737 
Q 1344 -625 1503 -206 
L 1606 56 
L 191 3500 
L 800 3500 
L 1894 763 
L 2988 3500 
L 3597 3500 
L 2059 -325 
z
" transform="scale(0.015625)"/>
      <path id="DejaVuSans-45" d="M 628 4666 
L 3578 4666 
L 3578 4134 
L 1259 4134 
L 1259 2753 
L 3481 2753 
L 3481 2222 
L 1259 2222 
L 1259 531 
L 3634 531 
L 3634 0 
L 628 0 
L 628 4666 
z
" transform="scale(0.015625)"/>
      <path id="DejaVuSans-6d" d="M 3328 2828 
Q 3544 3216 3844 3400 
Q 4144 3584 4550 3584 
Q 5097 3584 5394 3201 
Q 5691 2819 5691 2113 
L 5691 0 
L 5113 0 
L 5113 2094 
Q 5113 2597 4934 2840 
Q 4756 3084 4391 3084 
Q 3944 3084 3684 2787 
Q 3425 2491 3425 1978 
L 3425 0 
L 2847 0 
L 2847 2094 
Q 2847 2600 2669 2842 
Q 2491 3084 2119 3084 
Q 1678 3084 1418 2786 
Q 1159 2488 1159 1978 
L 1159 0 
L 581 0 
L 581 3500 
L 1159 3500 
L 1159 2956 
Q 1356 3278 1631 3431 
Q 1906 3584 2284 3584 
Q 2666 3584 2933 3390 
Q 3200 3197 3328 2828 
z
" transform="scale(0.015625)"/>
      <path id="DejaVuSans-76" d="M 191 3500 
L 800 3500 
L 1894 563 
L 2988 3500 
L 3597 3500 
L 2284 0 
L 1503 0 
L 191 3500 
z
" transform="scale(0.015625)"/>
      <path id="DejaVuSans-4f" d="M 2522 4238 
Q 1834 4238 1429 3725 
Q 1025 3213 1025 2328 
Q 1025 1447 1429 934 
Q 1834 422 2522 422 
Q 3209 422 3611 934 
Q 4013 1447 4013 2328 
Q 4013 3213 3611 3725 
Q 3209 4238 2522 4238 
z
M 2522 4750 
Q 3503 4750 4090 4092 
Q 4678 3434 4678 2328 
Q 4678 1225 4090 567 
Q 3503 -91 2522 -91 
Q 1538 -91 948 565 
Q 359 1222 359 2328 
Q 359 3434 948 4092 
Q 1538 4750 2522 4750 
z
" transform="scale(0.015625)"/>
      <path id="DejaVuSans-70" d="M 1159 525 
L 1159 -1331 
L 581 -1331 
L 581 3500 
L 1159 3500 
L 1159 2969 
Q 1341 3281 1617 3432 
Q 1894 3584 2278 3584 
Q 2916 3584 3314 3078 
Q 3713 2572 3713 1747 
Q 3713 922 3314 415 
Q 2916 -91 2278 -91 
Q 1894 -91 1617 61 
Q 1341 213 1159 525 
z
M 3116 1747 
Q 3116 2381 2855 2742 
Q 2594 3103 2138 3103 
Q 1681 3103 1420 2742 
Q 1159 2381 1159 1747 
Q 1159 1113 1420 752 
Q 1681 391 2138 391 
Q 2594 391 2855 752 
Q 3116 1113 3116 1747 
z
" transform="scale(0.015625)"/>
      <path id="DejaVuSans-7a" d="M 353 3500 
L 3084 3500 
L 3084 2975 
L 922 459 
L 3084 459 
L 3084 0 
L 275 0 
L 275 525 
L 2438 3041 
L 353 3041 
L 353 3500 
z
" transform="scale(0.015625)"/>
      <path id="DejaVuSans-64" d="M 2906 2969 
L 2906 4863 
L 3481 4863 
L 3481 0 
L 2906 0 
L 2906 525 
Q 2725 213 2448 61 
Q 2172 -91 1784 -91 
Q 1150 -91 751 415 
Q 353 922 353 1747 
Q 353 2572 751 3078 
Q 1150 3584 1784 3584 
Q 2172 3584 2448 3432 
Q 2725 3281 2906 2969 
z
M 947 1747 
Q 947 1113 1208 752 
Q 1469 391 1925 391 
Q 2381 391 2643 752 
Q 2906 1113 2906 1747 
Q 2906 2381 2643 2742 
Q 2381 3103 1925 3103 
Q 1469 3103 1208 2742 
Q 947 2381 947 1747 
z
" transform="scale(0.015625)"/>
     </defs>
     <use xlink:href="#DejaVuSans-49"/>
     <use xlink:href="#DejaVuSans-6e" transform="translate(29.492188 0)"/>
     <use xlink:href="#DejaVuSans-69" transform="translate(92.871094 0)"/>
     <use xlink:href="#DejaVuSans-74" transform="translate(120.654297 0)"/>
     <use xlink:href="#DejaVuSans-69" transform="translate(159.863281 0)"/>
     <use xlink:href="#DejaVuSans-61" transform="translate(187.646484 0)"/>
     <use xlink:href="#DejaVuSans-6c" transform="translate(248.925781 0)"/>
     <use xlink:href="#DejaVuSans-20" transform="translate(276.708984 0)"/>
     <use xlink:href="#DejaVuSans-54" transform="translate(308.496094 0)"/>
     <use xlink:href="#DejaVuSans-72" transform="translate(354.830078 0)"/>
     <use xlink:href="#DejaVuSans-61" transform="translate(395.943359 0)"/>
     <use xlink:href="#DejaVuSans-6a" transform="translate(457.222656 0)"/>
     <use xlink:href="#DejaVuSans-65" transform="translate(485.005859 0)"/>
     <use xlink:href="#DejaVuSans-63" transform="translate(546.529297 0)"/>
     <use xlink:href="#DejaVuSans-74" transform="translate(601.509766 0)"/>
     <use xlink:href="#DejaVuSans-6f" transform="translate(640.71875 0)"/>
     <use xlink:href="#DejaVuSans-72" transform="translate(701.900391 0)"/>
     <use xlink:href="#DejaVuSans-79" transform="translate(743.013672 0)"/>
     <use xlink:href="#DejaVuSans-20" transform="translate(802.193359 0)"/>
     <use xlink:href="#DejaVuSans-45" transform="translate(833.980469 0)"/>
     <use xlink:href="#DejaVuSans-73" transform="translate(897.164062 0)"/>
     <use xlink:href="#DejaVuSans-74" transform="translate(949.263672 0)"/>
     <use xlink:href="#DejaVuSans-69" transform="translate(988.472656 0)"/>
     <use xlink:href="#DejaVuSans-6d" transform="translate(1016.255859 0)"/>
     <use xlink:href="#DejaVuSans-61" transform="translate(1113.667969 0)"/>
     <use xlink:href="#DejaVuSans-74" transform="translate(1174.947266 0)"/>
     <use xlink:href="#DejaVuSans-65" transform="translate(1214.15625 0)"/>
     <use xlink:href="#DejaVuSans-20" transform="translate(1275.679688 0)"/>
     <use xlink:href="#DejaVuSans-76" transform="translate(1307.466797 0)"/>
     <use xlink:href="#DejaVuSans-73" transform="translate(1366.646484 0)"/>
     <use xlink:href="#DejaVuSans-20" transform="translate(1418.746094 0)"/>
     <use xlink:href="#DejaVuSans-4f" transform="translate(1450.533203 0)"/>
     <use xlink:href="#DejaVuSans-70" transform="translate(1529.244141 0)"/>
     <use xlink:href="#DejaVuSans-74" transform="translate(1592.720703 0)"/>
     <use xlink:href="#DejaVuSans-69" transform="translate(1631.929688 0)"/>
     <use xlink:href="#DejaVuSans-6d" transform="translate(1659.712891 0)"/>
     <use xlink:href="#DejaVuSans-69" transform="translate(1757.125 0)"/>
     <use xlink:href="#DejaVuSans-7a" transform="translate(1784.908203 0)"/>
     <use xlink:href="#DejaVuSans-65" transform="translate(1837.398438 0)"/>
     <use xlink:href="#DejaVuSans-64" transform="translate(1898.921875 0)"/>
     <use xlink:href="#DejaVuSans-20" transform="translate(1962.398438 0)"/>
     <use xlink:href="#DejaVuSans-54" transform="translate(1994.185547 0)"/>
     <use xlink:href="#DejaVuSans-72" transform="translate(2040.519531 0)"/>
     <use xlink:href="#DejaVuSans-61" transform="translate(2081.632812 0)"/>
     <use xlink:href="#DejaVuSans-6a" transform="translate(2142.912109 0)"/>
     <use xlink:href="#DejaVuSans-65" transform="translate(2170.695312 0)"/>
     <use xlink:href="#DejaVuSans-63" transform="translate(2232.21875 0)"/>
     <use xlink:href="#DejaVuSans-74" transform="translate(2287.199219 0)"/>
     <use xlink:href="#DejaVuSans-6f" transform="translate(2326.408203 0)"/>
     <use xlink:href="#DejaVuSans-72" transform="translate(2387.589844 0)"/>
     <use xlink:href="#DejaVuSans-79" transform="translate(2428.703125 0)"/>
     <use xlink:href="#DejaVuSans-20" transform="translate(2487.882812 0)"/>
     <use xlink:href="#DejaVuSans-45" transform="translate(2519.669922 0)"/>
     <use xlink:href="#DejaVuSans-73" transform="translate(2582.853516 0)"/>
     <use xlink:href="#DejaVuSans-74" transform="translate(2634.953125 0)"/>
     <use xlink:href="#DejaVuSans-69" transform="translate(2674.162109 0)"/>
     <use xlink:href="#DejaVuSans-6d" transform="translate(2701.945312 0)"/>
     <use xlink:href="#DejaVuSans-61" transform="translate(2799.357422 0)"/>
     <use xlink:href="#DejaVuSans-74" transform="translate(2860.636719 0)"/>
     <use xlink:href="#DejaVuSans-65" transform="translate(2899.845703 0)"/>
    </g>
   </g>
   <g id="legend_1">
    <g id="patch_7">
     <path d="M 197.030937 302.584 
L 407.72 302.584 
Q 409.72 302.584 409.72 300.584 
L 409.72 242.8715 
Q 409.72 240.8715 407.72 240.8715 
L 197.030937 240.8715 
Q 195.030937 240.8715 195.030937 242.8715 
L 195.030937 300.584 
Q 195.030937 302.584 197.030937 302.584 
z
" style="fill: #ffffff; opacity: 0.8; stroke: #cccccc; stroke-linejoin: miter"/>
    </g>
    <g id="PathCollection_3">
     <g>
      <use xlink:href="#m133bed24b0" x="209.030937" y="249.844937" style="fill: #0000ff; stroke: #0000ff"/>
     </g>
    </g>
    <g id="text_17">
     <!-- Start Initial Trajectory Estimate -->
     <g transform="translate(227.030937 252.469937) scale(0.1 -0.1)">
      <defs>
       <path id="DejaVuSans-53" d="M 3425 4513 
L 3425 3897 
Q 3066 4069 2747 4153 
Q 2428 4238 2131 4238 
Q 1616 4238 1336 4038 
Q 1056 3838 1056 3469 
Q 1056 3159 1242 3001 
Q 1428 2844 1947 2747 
L 2328 2669 
Q 3034 2534 3370 2195 
Q 3706 1856 3706 1288 
Q 3706 609 3251 259 
Q 2797 -91 1919 -91 
Q 1588 -91 1214 -16 
Q 841 59 441 206 
L 441 856 
Q 825 641 1194 531 
Q 1563 422 1919 422 
Q 2459 422 2753 634 
Q 3047 847 3047 1241 
Q 3047 1584 2836 1778 
Q 2625 1972 2144 2069 
L 1759 2144 
Q 1053 2284 737 2584 
Q 422 2884 422 3419 
Q 422 4038 858 4394 
Q 1294 4750 2059 4750 
Q 2388 4750 2728 4690 
Q 3069 4631 3425 4513 
z
" transform="scale(0.015625)"/>
      </defs>
      <use xlink:href="#DejaVuSans-53"/>
      <use xlink:href="#DejaVuSans-74" transform="translate(63.476562 0)"/>
      <use xlink:href="#DejaVuSans-61" transform="translate(102.685547 0)"/>
      <use xlink:href="#DejaVuSans-72" transform="translate(163.964844 0)"/>
      <use xlink:href="#DejaVuSans-74" transform="translate(205.078125 0)"/>
      <use xlink:href="#DejaVuSans-20" transform="translate(244.287109 0)"/>
      <use xlink:href="#DejaVuSans-49" transform="translate(276.074219 0)"/>
      <use xlink:href="#DejaVuSans-6e" transform="translate(305.566406 0)"/>
      <use xlink:href="#DejaVuSans-69" transform="translate(368.945312 0)"/>
      <use xlink:href="#DejaVuSans-74" transform="translate(396.728516 0)"/>
      <use xlink:href="#DejaVuSans-69" transform="translate(435.9375 0)"/>
      <use xlink:href="#DejaVuSans-61" transform="translate(463.720703 0)"/>
      <use xlink:href="#DejaVuSans-6c" transform="translate(525 0)"/>
      <use xlink:href="#DejaVuSans-20" transform="translate(552.783203 0)"/>
      <use xlink:href="#DejaVuSans-54" transform="translate(584.570312 0)"/>
      <use xlink:href="#DejaVuSans-72" transform="translate(630.904297 0)"/>
      <use xlink:href="#DejaVuSans-61" transform="translate(672.017578 0)"/>
      <use xlink:href="#DejaVuSans-6a" transform="translate(733.296875 0)"/>
      <use xlink:href="#DejaVuSans-65" transform="translate(761.080078 0)"/>
      <use xlink:href="#DejaVuSans-63" transform="translate(822.603516 0)"/>
      <use xlink:href="#DejaVuSans-74" transform="translate(877.583984 0)"/>
      <use xlink:href="#DejaVuSans-6f" transform="translate(916.792969 0)"/>
      <use xlink:href="#DejaVuSans-72" transform="translate(977.974609 0)"/>
      <use xlink:href="#DejaVuSans-79" transform="translate(1019.087891 0)"/>
      <use xlink:href="#DejaVuSans-20" transform="translate(1078.267578 0)"/>
      <use xlink:href="#DejaVuSans-45" transform="translate(1110.054688 0)"/>
      <use xlink:href="#DejaVuSans-73" transform="translate(1173.238281 0)"/>
      <use xlink:href="#DejaVuSans-74" transform="translate(1225.337891 0)"/>
      <use xlink:href="#DejaVuSans-69" transform="translate(1264.546875 0)"/>
      <use xlink:href="#DejaVuSans-6d" transform="translate(1292.330078 0)"/>
      <use xlink:href="#DejaVuSans-61" transform="translate(1389.742188 0)"/>
      <use xlink:href="#DejaVuSans-74" transform="translate(1451.021484 0)"/>
      <use xlink:href="#DejaVuSans-65" transform="translate(1490.230469 0)"/>
     </g>
    </g>
    <g id="PathCollection_4">
     <g>
      <use xlink:href="#m9bec10bbeb" x="209.030937" y="264.523062" style="fill: #ff0000; stroke: #ff0000"/>
     </g>
    </g>
    <g id="text_18">
     <!-- Start Optimized Trajectory Estimate -->
     <g transform="translate(227.030937 267.148062) scale(0.1 -0.1)">
      <use xlink:href="#DejaVuSans-53"/>
      <use xlink:href="#DejaVuSans-74" transform="translate(63.476562 0)"/>
      <use xlink:href="#DejaVuSans-61" transform="translate(102.685547 0)"/>
      <use xlink:href="#DejaVuSans-72" transform="translate(163.964844 0)"/>
      <use xlink:href="#DejaVuSans-74" transform="translate(205.078125 0)"/>
      <use xlink:href="#DejaVuSans-20" transform="translate(244.287109 0)"/>
      <use xlink:href="#DejaVuSans-4f" transform="translate(276.074219 0)"/>
      <use xlink:href="#DejaVuSans-70" transform="translate(354.785156 0)"/>
      <use xlink:href="#DejaVuSans-74" transform="translate(418.261719 0)"/>
      <use xlink:href="#DejaVuSans-69" transform="translate(457.470703 0)"/>
      <use xlink:href="#DejaVuSans-6d" transform="translate(485.253906 0)"/>
      <use xlink:href="#DejaVuSans-69" transform="translate(582.666016 0)"/>
      <use xlink:href="#DejaVuSans-7a" transform="translate(610.449219 0)"/>
      <use xlink:href="#DejaVuSans-65" transform="translate(662.939453 0)"/>
      <use xlink:href="#DejaVuSans-64" transform="translate(724.462891 0)"/>
      <use xlink:href="#DejaVuSans-20" transform="translate(787.939453 0)"/>
      <use xlink:href="#DejaVuSans-54" transform="translate(819.726562 0)"/>
      <use xlink:href="#DejaVuSans-72" transform="translate(866.060547 0)"/>
      <use xlink:href="#DejaVuSans-61" transform="translate(907.173828 0)"/>
      <use xlink:href="#DejaVuSans-6a" transform="translate(968.453125 0)"/>
      <use xlink:href="#DejaVuSans-65" transform="translate(996.236328 0)"/>
      <use xlink:href="#DejaVuSans-63" transform="translate(1057.759766 0)"/>
      <use xlink:href="#DejaVuSans-74" transform="translate(1112.740234 0)"/>
      <use xlink:href="#DejaVuSans-6f" transform="translate(1151.949219 0)"/>
      <use xlink:href="#DejaVuSans-72" transform="translate(1213.130859 0)"/>
      <use xlink:href="#DejaVuSans-79" transform="translate(1254.244141 0)"/>
      <use xlink:href="#DejaVuSans-20" transform="translate(1313.423828 0)"/>
      <use xlink:href="#DejaVuSans-45" transform="translate(1345.210938 0)"/>
      <use xlink:href="#DejaVuSans-73" transform="translate(1408.394531 0)"/>
      <use xlink:href="#DejaVuSans-74" transform="translate(1460.494141 0)"/>
      <use xlink:href="#DejaVuSans-69" transform="translate(1499.703125 0)"/>
      <use xlink:href="#DejaVuSans-6d" transform="translate(1527.486328 0)"/>
      <use xlink:href="#DejaVuSans-61" transform="translate(1624.898438 0)"/>
      <use xlink:href="#DejaVuSans-74" transform="translate(1686.177734 0)"/>
      <use xlink:href="#DejaVuSans-65" transform="translate(1725.386719 0)"/>
     </g>
    </g>
    <g id="line2d_16">
     <path d="M 199.030937 278.326187 
L 209.030937 278.326187 
L 219.030937 278.326187 
" style="fill: none; stroke: #0000ff; stroke-opacity: 0.7; stroke-width: 0.75; stroke-linecap: square"/>
    </g>
    <g id="text_19">
     <!-- Initial Trajectory Estimate -->
     <g transform="translate(227.030937 281.826187) scale(0.1 -0.1)">
      <use xlink:href="#DejaVuSans-49"/>
      <use xlink:href="#DejaVuSans-6e" transform="translate(29.492188 0)"/>
      <use xlink:href="#DejaVuSans-69" transform="translate(92.871094 0)"/>
      <use xlink:href="#DejaVuSans-74" transform="translate(120.654297 0)"/>
      <use xlink:href="#DejaVuSans-69" transform="translate(159.863281 0)"/>
      <use xlink:href="#DejaVuSans-61" transform="translate(187.646484 0)"/>
      <use xlink:href="#DejaVuSans-6c" transform="translate(248.925781 0)"/>
      <use xlink:href="#DejaVuSans-20" transform="translate(276.708984 0)"/>
      <use xlink:href="#DejaVuSans-54" transform="translate(308.496094 0)"/>
      <use xlink:href="#DejaVuSans-72" transform="translate(354.830078 0)"/>
      <use xlink:href="#DejaVuSans-61" transform="translate(395.943359 0)"/>
      <use xlink:href="#DejaVuSans-6a" transform="translate(457.222656 0)"/>
      <use xlink:href="#DejaVuSans-65" transform="translate(485.005859 0)"/>
      <use xlink:href="#DejaVuSans-63" transform="translate(546.529297 0)"/>
      <use xlink:href="#DejaVuSans-74" transform="translate(601.509766 0)"/>
      <use xlink:href="#DejaVuSans-6f" transform="translate(640.71875 0)"/>
      <use xlink:href="#DejaVuSans-72" transform="translate(701.900391 0)"/>
      <use xlink:href="#DejaVuSans-79" transform="translate(743.013672 0)"/>
      <use xlink:href="#DejaVuSans-20" transform="translate(802.193359 0)"/>
      <use xlink:href="#DejaVuSans-45" transform="translate(833.980469 0)"/>
      <use xlink:href="#DejaVuSans-73" transform="translate(897.164062 0)"/>
      <use xlink:href="#DejaVuSans-74" transform="translate(949.263672 0)"/>
      <use xlink:href="#DejaVuSans-69" transform="translate(988.472656 0)"/>
      <use xlink:href="#DejaVuSans-6d" transform="translate(1016.255859 0)"/>
      <use xlink:href="#DejaVuSans-61" transform="translate(1113.667969 0)"/>
      <use xlink:href="#DejaVuSans-74" transform="translate(1174.947266 0)"/>
      <use xlink:href="#DejaVuSans-65" transform="translate(1214.15625 0)"/>
     </g>
    </g>
    <g id="line2d_17">
     <path d="M 199.030937 293.004312 
L 209.030937 293.004312 
L 219.030937 293.004312 
" style="fill: none; stroke: #ff0000; stroke-opacity: 0.7; stroke-width: 0.75; stroke-linecap: square"/>
    </g>
    <g id="text_20">
     <!-- Optimized Trajectory Estimate -->
     <g transform="translate(227.030937 296.504312) scale(0.1 -0.1)">
      <use xlink:href="#DejaVuSans-4f"/>
      <use xlink:href="#DejaVuSans-70" transform="translate(78.710938 0)"/>
      <use xlink:href="#DejaVuSans-74" transform="translate(142.1875 0)"/>
      <use xlink:href="#DejaVuSans-69" transform="translate(181.396484 0)"/>
      <use xlink:href="#DejaVuSans-6d" transform="translate(209.179688 0)"/>
      <use xlink:href="#DejaVuSans-69" transform="translate(306.591797 0)"/>
      <use xlink:href="#DejaVuSans-7a" transform="translate(334.375 0)"/>
      <use xlink:href="#DejaVuSans-65" transform="translate(386.865234 0)"/>
      <use xlink:href="#DejaVuSans-64" transform="translate(448.388672 0)"/>
      <use xlink:href="#DejaVuSans-20" transform="translate(511.865234 0)"/>
      <use xlink:href="#DejaVuSans-54" transform="translate(543.652344 0)"/>
      <use xlink:href="#DejaVuSans-72" transform="translate(589.986328 0)"/>
      <use xlink:href="#DejaVuSans-61" transform="translate(631.099609 0)"/>
      <use xlink:href="#DejaVuSans-6a" transform="translate(692.378906 0)"/>
      <use xlink:href="#DejaVuSans-65" transform="translate(720.162109 0)"/>
      <use xlink:href="#DejaVuSans-63" transform="translate(781.685547 0)"/>
      <use xlink:href="#DejaVuSans-74" transform="translate(836.666016 0)"/>
      <use xlink:href="#DejaVuSans-6f" transform="translate(875.875 0)"/>
      <use xlink:href="#DejaVuSans-72" transform="translate(937.056641 0)"/>
      <use xlink:href="#DejaVuSans-79" transform="translate(978.169922 0)"/>
      <use xlink:href="#DejaVuSans-20" transform="translate(1037.349609 0)"/>
      <use xlink:href="#DejaVuSans-45" transform="translate(1069.136719 0)"/>
      <use xlink:href="#DejaVuSans-73" transform="translate(1132.320312 0)"/>
      <use xlink:href="#DejaVuSans-74" transform="translate(1184.419922 0)"/>
      <use xlink:href="#DejaVuSans-69" transform="translate(1223.628906 0)"/>
      <use xlink:href="#DejaVuSans-6d" transform="translate(1251.412109 0)"/>
      <use xlink:href="#DejaVuSans-61" transform="translate(1348.824219 0)"/>
      <use xlink:href="#DejaVuSans-74" transform="translate(1410.103516 0)"/>
      <use xlink:href="#DejaVuSans-65" transform="translate(1449.3125 0)"/>
     </g>
    </g>
   </g>
  </g>
 </g>
 <defs>
  <clipPath id="p2e32b7f08f">
   <rect x="57.6" y="41.472" width="357.12" height="266.112"/>
  </clipPath>
 </defs>
</svg>
