<?xml version="1.0" encoding="utf-8" standalone="no"?>
<!DOCTYPE svg PUBLIC "-//W3C//DTD SVG 1.1//EN"
  "http://www.w3.org/Graphics/SVG/1.1/DTD/svg11.dtd">
<svg xmlns:xlink="http://www.w3.org/1999/xlink" width="460.8pt" height="345.6pt" viewBox="0 0 460.8 345.6" xmlns="http://www.w3.org/2000/svg" version="1.1">
 <metadata>
  <rdf:RDF xmlns:dc="http://purl.org/dc/elements/1.1/" xmlns:cc="http://creativecommons.org/ns#" xmlns:rdf="http://www.w3.org/1999/02/22-rdf-syntax-ns#">
   <cc:Work>
    <dc:type rdf:resource="http://purl.org/dc/dcmitype/StillImage"/>
    <dc:date>2025-11-16T16:41:04.914790</dc:date>
    <dc:format>image/svg+xml</dc:format>
    <dc:creator>
     <cc:Agent>
      <dc:title>Matplotlib v3.10.7, https://matplotlib.org/</dc:title>
     </cc:Agent>
    </dc:creator>
   </cc:Work>
  </rdf:RDF>
 </metadata>
 <defs>
  <style type="text/css">*{stroke-linejoin: round; stroke-linecap: butt}</style>
 </defs>
 <g id="figure_1">
  <g id="patch_1">
   <path d="M 0 345.6 
L 460.8 345.6 
L 460.8 0 
L 0 0 
z
" style="fill: #ffffff"/>
  </g>
  <g id="axes_1">
   <g id="patch_2">
    <path d="M 57.6 307.584 
L 414.72 307.584 
L 414.72 41.472 
L 57.6 41.472 
z
" style="fill: #ffffff"/>
   </g>
   <g id="PathCollection_1">
    <defs>
     <path id="m82c0aac749" d="M 0 3.535534 
C 0.937635 3.535534 1.836992 3.163008 2.5 2.5 
C 3.163008 1.836992 3.535534 0.937635 3.535534 0 
C 3.535534 -0.937635 3.163008 -1.836992 2.5 -2.5 
C 1.836992 -3.163008 0.937635 -3.535534 0 -3.535534 
C -0.937635 -3.535534 -1.836992 -3.163008 -2.5 -2.5 
C -3.163008 -1.836992 -3.535534 -0.937635 -3.535534 0 
C -3.535534 0.937635 -3.163008 1.836992 -2.5 2.5 
C -1.836992 3.163008 -0.937635 3.535534 0 3.535534 
z
" style="stroke: #0000ff"/>
    </defs>
    <g clip-path="url(#pfb2d78c9b3)">
     <use xlink:href="#m82c0aac749" x="113.839605" y="235.099929" style="fill: #0000ff; stroke: #0000ff"/>
    </g>
   </g>
   <g id="PathCollection_2">
    <defs>
     <path id="mc193dc55d9" d="M 0 3.535534 
C 0.937635 3.535534 1.836992 3.163008 2.5 2.5 
C 3.163008 1.836992 3.535534 0.937635 3.535534 0 
C 3.535534 -0.937635 3.163008 -1.836992 2.5 -2.5 
C 1.836992 -3.163008 0.937635 -3.535534 0 -3.535534 
C -0.937635 -3.535534 -1.836992 -3.163008 -2.5 -2.5 
C -3.163008 -1.836992 -3.535534 -0.937635 -3.535534 0 
C -3.535534 0.937635 -3.163008 1.836992 -2.5 2.5 
C -1.836992 3.163008 -0.937635 3.535534 0 3.535534 
z
" style="stroke: #ff0000"/>
    </defs>
    <g clip-path="url(#pfb2d78c9b3)">
     <use xlink:href="#mc193dc55d9" x="398.487273" y="130.013783" style="fill: #ff0000; stroke: #ff0000"/>
    </g>
   </g>
   <g id="matplotlib.axis_1">
    <g id="xtick_1">
     <g id="line2d_1">
      <defs>
       <path id="mec1770fbc0" d="M 0 0 
L 0 3.5 
" style="stroke: #000000; stroke-width: 0.8"/>
      </defs>
      <g>
       <use xlink:href="#mec1770fbc0" x="96.65204" y="307.584" style="stroke: #000000; stroke-width: 0.8"/>
      </g>
     </g>
     <g id="text_1">
      <!-- −10 -->
      <g transform="translate(86.099697 322.182437) scale(0.1 -0.1)">
       <defs>
        <path id="DejaVuSans-2212" d="M 678 2272 
L 4684 2272 
L 4684 1741 
L 678 1741 
L 678 2272 
z
" transform="scale(0.015625)"/>
        <path id="DejaVuSans-31" d="M 794 531 
L 1825 531 
L 1825 4091 
L 703 3866 
L 703 4441 
L 1819 4666 
L 2450 4666 
L 2450 531 
L 3481 531 
L 3481 0 
L 794 0 
L 794 531 
z
" transform="scale(0.015625)"/>
        <path id="DejaVuSans-30" d="M 2034 4250 
Q 1547 4250 1301 3770 
Q 1056 3291 1056 2328 
Q 1056 1369 1301 889 
Q 1547 409 2034 409 
Q 2525 409 2770 889 
Q 3016 1369 3016 2328 
Q 3016 3291 2770 3770 
Q 2525 4250 2034 4250 
z
M 2034 4750 
Q 2819 4750 3233 4129 
Q 3647 3509 3647 2328 
Q 3647 1150 3233 529 
Q 2819 -91 2034 -91 
Q 1250 -91 836 529 
Q 422 1150 422 2328 
Q 422 3509 836 4129 
Q 1250 4750 2034 4750 
z
" transform="scale(0.015625)"/>
       </defs>
       <use xlink:href="#DejaVuSans-2212"/>
       <use xlink:href="#DejaVuSans-31" transform="translate(83.789062 0)"/>
       <use xlink:href="#DejaVuSans-30" transform="translate(147.412109 0)"/>
      </g>
     </g>
    </g>
    <g id="xtick_2">
     <g id="line2d_2">
      <g>
       <use xlink:href="#mec1770fbc0" x="168.748768" y="307.584" style="stroke: #000000; stroke-width: 0.8"/>
      </g>
     </g>
     <g id="text_2">
      <!-- 0 -->
      <g transform="translate(165.567518 322.182437) scale(0.1 -0.1)">
       <use xlink:href="#DejaVuSans-30"/>
      </g>
     </g>
    </g>
    <g id="xtick_3">
     <g id="line2d_3">
      <g>
       <use xlink:href="#mec1770fbc0" x="240.845496" y="307.584" style="stroke: #000000; stroke-width: 0.8"/>
      </g>
     </g>
     <g id="text_3">
      <!-- 10 -->
      <g transform="translate(234.482996 322.182437) scale(0.1 -0.1)">
       <use xlink:href="#DejaVuSans-31"/>
       <use xlink:href="#DejaVuSans-30" transform="translate(63.623047 0)"/>
      </g>
     </g>
    </g>
    <g id="xtick_4">
     <g id="line2d_4">
      <g>
       <use xlink:href="#mec1770fbc0" x="312.942224" y="307.584" style="stroke: #000000; stroke-width: 0.8"/>
      </g>
     </g>
     <g id="text_4">
      <!-- 20 -->
      <g transform="translate(306.579724 322.182437) scale(0.1 -0.1)">
       <defs>
        <path id="DejaVuSans-32" d="M 1228 531 
L 3431 531 
L 3431 0 
L 469 0 
L 469 531 
Q 828 903 1448 1529 
Q 2069 2156 2228 2338 
Q 2531 2678 2651 2914 
Q 2772 3150 2772 3378 
Q 2772 3750 2511 3984 
Q 2250 4219 1831 4219 
Q 1534 4219 1204 4116 
Q 875 4013 500 3803 
L 500 4441 
Q 881 4594 1212 4672 
Q 1544 4750 1819 4750 
Q 2544 4750 2975 4387 
Q 3406 4025 3406 3419 
Q 3406 3131 3298 2873 
Q 3191 2616 2906 2266 
Q 2828 2175 2409 1742 
Q 1991 1309 1228 531 
z
" transform="scale(0.015625)"/>
       </defs>
       <use xlink:href="#DejaVuSans-32"/>
       <use xlink:href="#DejaVuSans-30" transform="translate(63.623047 0)"/>
      </g>
     </g>
    </g>
    <g id="xtick_5">
     <g id="line2d_5">
      <g>
       <use xlink:href="#mec1770fbc0" x="385.038952" y="307.584" style="stroke: #000000; stroke-width: 0.8"/>
      </g>
     </g>
     <g id="text_5">
      <!-- 30 -->
      <g transform="translate(378.676452 322.182437) scale(0.1 -0.1)">
       <defs>
        <path id="DejaVuSans-33" d="M 2597 2516 
Q 3050 2419 3304 2112 
Q 3559 1806 3559 1356 
Q 3559 666 3084 287 
Q 2609 -91 1734 -91 
Q 1441 -91 1130 -33 
Q 819 25 488 141 
L 488 750 
Q 750 597 1062 519 
Q 1375 441 1716 441 
Q 2309 441 2620 675 
Q 2931 909 2931 1356 
Q 2931 1769 2642 2001 
Q 2353 2234 1838 2234 
L 1294 2234 
L 1294 2753 
L 1863 2753 
Q 2328 2753 2575 2939 
Q 2822 3125 2822 3475 
Q 2822 3834 2567 4026 
Q 2313 4219 1838 4219 
Q 1578 4219 1281 4162 
Q 984 4106 628 3988 
L 628 4550 
Q 988 4650 1302 4700 
Q 1616 4750 1894 4750 
Q 2613 4750 3031 4423 
Q 3450 4097 3450 3541 
Q 3450 3153 3228 2886 
Q 3006 2619 2597 2516 
z
" transform="scale(0.015625)"/>
       </defs>
       <use xlink:href="#DejaVuSans-33"/>
       <use xlink:href="#DejaVuSans-30" transform="translate(63.623047 0)"/>
      </g>
     </g>
    </g>
    <g id="text_6">
     <!-- X-axis -->
     <g transform="translate(221.163906 335.860562) scale(0.1 -0.1)">
      <defs>
       <path id="DejaVuSans-58" d="M 403 4666 
L 1081 4666 
L 2241 2931 
L 3406 4666 
L 4084 4666 
L 2584 2425 
L 4184 0 
L 3506 0 
L 2194 1984 
L 872 0 
L 191 0 
L 1856 2491 
L 403 4666 
z
" transform="scale(0.015625)"/>
       <path id="DejaVuSans-2d" d="M 313 2009 
L 1997 2009 
L 1997 1497 
L 313 1497 
L 313 2009 
z
" transform="scale(0.015625)"/>
       <path id="DejaVuSans-61" d="M 2194 1759 
Q 1497 1759 1228 1600 
Q 959 1441 959 1056 
Q 959 750 1161 570 
Q 1363 391 1709 391 
Q 2188 391 2477 730 
Q 2766 1069 2766 1631 
L 2766 1759 
L 2194 1759 
z
M 3341 1997 
L 3341 0 
L 2766 0 
L 2766 531 
Q 2569 213 2275 61 
Q 1981 -91 1556 -91 
Q 1019 -91 701 211 
Q 384 513 384 1019 
Q 384 1609 779 1909 
Q 1175 2209 1959 2209 
L 2766 2209 
L 2766 2266 
Q 2766 2663 2505 2880 
Q 2244 3097 1772 3097 
Q 1472 3097 1187 3025 
Q 903 2953 641 2809 
L 641 3341 
Q 956 3463 1253 3523 
Q 1550 3584 1831 3584 
Q 2591 3584 2966 3190 
Q 3341 2797 3341 1997 
z
" transform="scale(0.015625)"/>
       <path id="DejaVuSans-78" d="M 3513 3500 
L 2247 1797 
L 3578 0 
L 2900 0 
L 1881 1375 
L 863 0 
L 184 0 
L 1544 1831 
L 300 3500 
L 978 3500 
L 1906 2253 
L 2834 3500 
L 3513 3500 
z
" transform="scale(0.015625)"/>
       <path id="DejaVuSans-69" d="M 603 3500 
L 1178 3500 
L 1178 0 
L 603 0 
L 603 3500 
z
M 603 4863 
L 1178 4863 
L 1178 4134 
L 603 4134 
L 603 4863 
z
" transform="scale(0.015625)"/>
       <path id="DejaVuSans-73" d="M 2834 3397 
L 2834 2853 
Q 2591 2978 2328 3040 
Q 2066 3103 1784 3103 
Q 1356 3103 1142 2972 
Q 928 2841 928 2578 
Q 928 2378 1081 2264 
Q 1234 2150 1697 2047 
L 1894 2003 
Q 2506 1872 2764 1633 
Q 3022 1394 3022 966 
Q 3022 478 2636 193 
Q 2250 -91 1575 -91 
Q 1294 -91 989 -36 
Q 684 19 347 128 
L 347 722 
Q 666 556 975 473 
Q 1284 391 1588 391 
Q 1994 391 2212 530 
Q 2431 669 2431 922 
Q 2431 1156 2273 1281 
Q 2116 1406 1581 1522 
L 1381 1569 
Q 847 1681 609 1914 
Q 372 2147 372 2553 
Q 372 3047 722 3315 
Q 1072 3584 1716 3584 
Q 2034 3584 2315 3537 
Q 2597 3491 2834 3397 
z
" transform="scale(0.015625)"/>
      </defs>
      <use xlink:href="#DejaVuSans-58"/>
      <use xlink:href="#DejaVuSans-2d" transform="translate(63.505859 0)"/>
      <use xlink:href="#DejaVuSans-61" transform="translate(99.589844 0)"/>
      <use xlink:href="#DejaVuSans-78" transform="translate(160.869141 0)"/>
      <use xlink:href="#DejaVuSans-69" transform="translate(220.048828 0)"/>
      <use xlink:href="#DejaVuSans-73" transform="translate(247.832031 0)"/>
     </g>
    </g>
   </g>
   <g id="matplotlib.axis_2">
    <g id="ytick_1">
     <g id="line2d_6">
      <defs>
       <path id="mff3a9373dc" d="M 0 0 
L -3.5 0 
" style="stroke: #000000; stroke-width: 0.8"/>
      </defs>
      <g>
       <use xlink:href="#mff3a9373dc" x="57.6" y="283.508981" style="stroke: #000000; stroke-width: 0.8"/>
      </g>
     </g>
     <g id="text_7">
      <!-- −40 -->
      <g transform="translate(29.495313 287.3082) scale(0.1 -0.1)">
       <defs>
        <path id="DejaVuSans-34" d="M 2419 4116 
L 825 1625 
L 2419 1625 
L 2419 4116 
z
M 2253 4666 
L 3047 4666 
L 3047 1625 
L 3713 1625 
L 3713 1100 
L 3047 1100 
L 3047 0 
L 2419 0 
L 2419 1100 
L 313 1100 
L 313 1709 
L 2253 4666 
z
" transform="scale(0.015625)"/>
       </defs>
       <use xlink:href="#DejaVuSans-2212"/>
       <use xlink:href="#DejaVuSans-34" transform="translate(83.789062 0)"/>
       <use xlink:href="#DejaVuSans-30" transform="translate(147.412109 0)"/>
      </g>
     </g>
    </g>
    <g id="ytick_2">
     <g id="line2d_7">
      <g>
       <use xlink:href="#mff3a9373dc" x="57.6" y="231.734527" style="stroke: #000000; stroke-width: 0.8"/>
      </g>
     </g>
     <g id="text_8">
      <!-- −30 -->
      <g transform="translate(29.495313 235.533746) scale(0.1 -0.1)">
       <use xlink:href="#DejaVuSans-2212"/>
       <use xlink:href="#DejaVuSans-33" transform="translate(83.789062 0)"/>
       <use xlink:href="#DejaVuSans-30" transform="translate(147.412109 0)"/>
      </g>
     </g>
    </g>
    <g id="ytick_3">
     <g id="line2d_8">
      <g>
       <use xlink:href="#mff3a9373dc" x="57.6" y="179.960074" style="stroke: #000000; stroke-width: 0.8"/>
      </g>
     </g>
     <g id="text_9">
      <!-- −20 -->
      <g transform="translate(29.495313 183.759292) scale(0.1 -0.1)">
       <use xlink:href="#DejaVuSans-2212"/>
       <use xlink:href="#DejaVuSans-32" transform="translate(83.789062 0)"/>
       <use xlink:href="#DejaVuSans-30" transform="translate(147.412109 0)"/>
      </g>
     </g>
    </g>
    <g id="ytick_4">
     <g id="line2d_9">
      <g>
       <use xlink:href="#mff3a9373dc" x="57.6" y="128.18562" style="stroke: #000000; stroke-width: 0.8"/>
      </g>
     </g>
     <g id="text_10">
      <!-- −10 -->
      <g transform="translate(29.495313 131.984839) scale(0.1 -0.1)">
       <use xlink:href="#DejaVuSans-2212"/>
       <use xlink:href="#DejaVuSans-31" transform="translate(83.789062 0)"/>
       <use xlink:href="#DejaVuSans-30" transform="translate(147.412109 0)"/>
      </g>
     </g>
    </g>
    <g id="ytick_5">
     <g id="line2d_10">
      <g>
       <use xlink:href="#mff3a9373dc" x="57.6" y="76.411166" style="stroke: #000000; stroke-width: 0.8"/>
      </g>
     </g>
     <g id="text_11">
      <!-- 0 -->
      <g transform="translate(44.2375 80.210385) scale(0.1 -0.1)">
       <use xlink:href="#DejaVuSans-30"/>
      </g>
     </g>
    </g>
    <g id="text_12">
     <!-- Y-axis -->
     <g transform="translate(23.415625 188.80925) rotate(-90) scale(0.1 -0.1)">
      <defs>
       <path id="DejaVuSans-59" d="M -13 4666 
L 666 4666 
L 1959 2747 
L 3244 4666 
L 3922 4666 
L 2272 2222 
L 2272 0 
L 1638 0 
L 1638 2222 
L -13 4666 
z
" transform="scale(0.015625)"/>
      </defs>
      <use xlink:href="#DejaVuSans-59"/>
      <use xlink:href="#DejaVuSans-2d" transform="translate(49.208984 0)"/>
      <use xlink:href="#DejaVuSans-61" transform="translate(85.292969 0)"/>
      <use xlink:href="#DejaVuSans-78" transform="translate(146.572266 0)"/>
      <use xlink:href="#DejaVuSans-69" transform="translate(205.751953 0)"/>
      <use xlink:href="#DejaVuSans-73" transform="translate(233.535156 0)"/>
     </g>
    </g>
   </g>
   <g id="line2d_11">
    <path d="M 168.748768 76.411166 
L 168.828089 76.416214 
L 173.797478 76.49108 
L 173.751964 76.389354 
L 173.911716 76.198259 
L 174.074936 76.105335 
L 174.289921 76.026187 
L 176.408995 76.337895 
L 185.237297 77.946175 
L 194.17887 80.004236 
L 203.203902 81.548947 
L 207.853875 81.743961 
L 221.492427 82.748768 
L 232.867719 83.752903 
L 239.410115 89.701047 
L 245.682069 94.599397 
L 251.122488 98.758403 
L 255.097044 108.164946 
L 257.235526 114.670473 
L 258.012844 117.951975 
L 259.134799 124.565167 
L 259.803388 131.232557 
L 259.687781 137.592179 
L 258.850356 143.786065 
L 257.50643 150.106287 
L 256.733856 153.433629 
L 254.765564 163.330016 
L 252.735198 172.750911 
L 251.372036 179.176317 
L 249.871552 184.992908 
L 249.859735 184.973347 
L 249.695874 184.890752 
L 238.308217 185.273277 
L 233.698201 185.167569 
L 224.481175 184.561259 
L 219.907013 184.024741 
L 210.21019 182.61675 
L 203.299856 181.177327 
L 189.380177 181.96726 
L 184.761531 181.71967 
L 180.183014 181.29909 
L 175.530641 181.144502 
L 166.484801 181.096678 
L 156.861496 180.444299 
L 152.665192 180.08061 
L 148.047245 179.986494 
L 143.396076 179.730697 
L 138.812599 179.329197 
L 129.521191 179.100789 
L 117.175664 178.818706 
L 117.095111 178.768894 
L 117.025689 178.213385 
L 116.828439 174.785289 
L 115.745647 168.166495 
L 114.841591 164.896995 
L 113.554397 161.053436 
L 112.173168 157.751422 
L 112.466162 151.863289 
L 112.176232 148.715521 
L 111.468415 144.471129 
L 113.504283 140.190661 
L 114.415737 136.96109 
L 115.059611 133.701272 
L 116.919094 120.483305 
L 117.057354 117.163615 
L 117.878391 111.018438 
L 120.728043 98.246172 
L 121.161936 95.02663 
L 121.289338 91.663159 
L 121.896335 85.063231 
L 123.305263 79.885284 
L 123.715133 79.927439 
L 135.907425 81.708293 
L 145.086175 82.621087 
L 170.146969 84.983514 
L 183.880429 85.480347 
L 192.671847 86.058083 
L 231.059093 90.230653 
L 234.407705 91.828361 
L 237.610804 93.711921 
L 240.510693 96.046514 
L 243.231018 98.708653 
L 245.553146 101.543811 
L 247.402398 104.605307 
L 252.367281 113.736193 
L 255.156249 120.069431 
L 257.446366 126.173841 
L 258.342716 129.274354 
L 259.823792 135.671393 
L 260.712449 142.263953 
L 260.706421 145.565491 
L 260.553569 148.861531 
L 259.872378 155.123345 
L 259.274559 159.284168 
L 258.54742 162.350805 
L 256.522245 168.363367 
L 253.606018 177.937453 
L 250.902773 187.691869 
L 248.476012 194.116126 
L 247.698679 195.984981 
L 247.707727 195.981611 
L 225.137421 195.333648 
L 206.701776 195.929096 
L 202.351676 195.74948 
L 198.014048 195.333364 
L 195.346772 195.221381 
L 196.289084 195.257478 
L 189.478892 193.244772 
L 183.021418 191.637957 
L 175.700472 192.084993 
L 171.083974 192.610012 
L 166.457599 192.877422 
L 157.901462 192.104988 
L 153.483641 191.998721 
L 148.821052 191.763997 
L 139.613536 191.633447 
L 130.355689 190.982104 
L 126.282909 191.026138 
L 126.485493 191.046755 
L 123.974249 189.218573 
L 118.483896 184.551127 
L 115.566119 181.875785 
L 115.14395 178.996427 
L 114.487761 175.768926 
L 112.421022 169.385286 
L 112.882737 166.006977 
L 113.20214 162.795605 
L 113.333168 159.642924 
L 113.135623 156.475658 
L 114.022759 149.569572 
L 116.220224 143.138771 
L 116.975062 139.877249 
L 118.884292 133.353601 
L 119.093791 130.044592 
L 118.894335 126.728775 
L 119.684486 120.410588 
L 119.686296 117.388653 
L 121.158035 110.832873 
L 122.109467 107.596815 
L 123.217731 104.366705 
L 124.524578 101.189897 
L 125.597276 97.955516 
L 126.837145 94.792355 
L 128.793483 88.145976 
L 128.935001 88.107191 
L 141.369762 89.569991 
L 150.382631 91.033613 
L 154.831403 91.931646 
L 163.427467 94.421681 
L 171.781726 96.994991 
L 180.068928 98.838379 
L 185.883896 100.366559 
L 190.401276 101.006657 
L 194.959692 101.452404 
L 204.060823 102.779191 
L 208.623478 103.450701 
L 215.270876 104.216461 
L 215.432798 103.058582 
L 215.716318 96.497925 
L 215.724134 93.186949 
L 215.572695 89.886778 
L 215.146329 86.599203 
L 214.732148 84.812358 
L 214.833328 84.955002 
L 215.005091 85.154463 
L 214.526088 91.845333 
L 213.545731 98.438799 
L 212.668847 102.632292 
L 213.037579 102.612452 
L 213.996458 102.823842 
L 218.573454 103.661609 
L 227.677923 104.186908 
L 229.637137 104.257616 
L 230.906724 107.63518 
L 233.131045 114.718867 
L 233.466381 116.126589 
L 233.519632 115.907919 
L 233.671122 115.858733 
L 234.285047 113.030414 
L 232.504835 109.99845 
L 233.153128 109.192705 
L 238.35981 103.889505 
L 249.540852 108.558748 
L 252.385529 109.896242 
L 256.037646 107.207393 
L 258.943505 104.60758 
L 261.519997 101.847526 
L 262.391228 100.772217 
L 262.348309 100.839679 
L 263.27765 101.472068 
L 267.030415 103.289211 
L 271.041754 104.884216 
L 275.310572 106.794041 
L 274.305508 106.8862 
L 274.197933 106.719217 
L 275.527367 105.886565 
L 275.500922 105.907109 
L 275.180582 106.517659 
L 272.40656 112.911949 
L 270.040316 115.760517 
L 267.366912 118.417354 
L 264.670472 120.81783 
L 264.65451 120.789867 
L 271.810658 124.983556 
L 271.810291 124.978394 
L 269.46502 127.309591 
L 260.948573 135.06353 
L 259.725264 136.382929 
L 255.07429 138.133418 
L 255.382294 137.819349 
L 255.417283 137.706828 
L 255.412344 137.713233 
L 263.919426 134.413119 
L 266.170921 133.672956 
L 266.100648 133.714531 
L 269.976929 139.030344 
L 271.827017 142.021551 
L 275.275043 147.216796 
L 275.316571 147.140543 
L 275.588102 146.879879 
L 275.586465 146.723396 
L 274.491309 143.490687 
L 273.250762 140.230574 
L 270.571806 134.734943 
L 270.571316 134.742254 
L 272.248415 134.038059 
L 276.066615 132.587717 
L 280.170245 131.151639 
L 282.627179 130.45697 
L 282.59909 130.432823 
L 283.813228 132.47517 
L 285.402312 135.640898 
L 286.520871 138.359652 
L 288.470403 138.099589 
L 292.721132 137.358474 
L 296.843774 136.769172 
L 305.802737 135.859143 
L 314.023884 135.656322 
L 314.199584 135.776744 
L 314.171653 135.818774 
L 314.206678 135.899589 
L 314.110638 135.827571 
L 314.110638 135.827571 
L 310.793525 136.015838 
L 306.285367 136.434932 
L 301.690599 136.744786 
L 292.555367 137.707599 
L 289.089858 138.255399 
L 289.702687 139.448065 
L 291.126201 142.504135 
L 292.397879 145.651535 
L 293.851839 148.783289 
L 295.506524 151.883802 
L 297.421954 154.899038 
L 298.915265 158.011676 
L 300.004343 161.228925 
L 304.639781 166.558163 
L 307.043745 169.853063 
L 308.493625 172.047223 
L 314.546109 170.393361 
L 319.0193 169.667742 
L 330.805861 168.431327 
L 330.823589 168.448433 
L 330.816091 168.399858 
L 330.828867 168.407065 
L 325.658356 169.578602 
L 321.237241 170.479617 
L 307.56052 174.22071 
L 312.960118 182.007334 
L 316.413919 187.614616 
L 317.996255 190.686902 
L 320.503657 197.015226 
L 321.496847 200.267536 
L 322.579141 204.618159 
L 322.579141 204.618159 
L 329.074703 202.656922 
L 333.01091 201.644758 
L 337.40101 200.642052 
L 341.872124 199.876997 
L 346.225678 199.000232 
L 351.218038 197.294269 
L 351.65888 197.482004 
L 351.590417 197.570139 
L 351.713818 197.775787 
L 350.706641 198.046899 
L 341.733555 199.949367 
L 337.42801 201.217437 
L 329.236661 204.171625 
L 328.059134 204.918726 
L 316.781302 210.170649 
L 316.788051 210.165223 
L 322.147938 215.117786 
L 326.275511 219.289243 
L 326.210423 219.549368 
L 326.476337 219.958179 
L 326.600971 219.907621 
L 326.53891 219.894983 
L 326.397449 219.850747 
L 322.307041 218.210424 
L 318.110903 216.748676 
L 313.848963 215.461092 
L 307.248882 213.797703 
L 303.691305 215.652165 
L 300.433283 217.776958 
L 291.368489 225.226339 
L 288.609744 227.913883 
L 282.620142 234.744979 
L 285.504314 236.896844 
L 288.689634 238.809077 
L 295.197741 243.207316 
L 297.141671 244.699016 
L 297.327853 244.545106 
L 295.69585 244.027998 
L 291.651649 242.609611 
L 287.789737 240.855907 
L 283.743006 239.314804 
L 277.908982 236.755717 
L 277.773757 236.775184 
L 271.945155 240.751499 
L 272.126089 240.674288 
L 279.140697 243.671894 
L 282.375468 245.952916 
L 288.438976 250.667461 
L 291.313725 253.067678 
L 289.787826 251.613111 
L 288.555361 250.360258 
L 286.621763 249.060833 
L 280.396355 244.136564 
L 277.227797 241.952645 
L 274.326704 240.211238 
L 273.934989 240.600002 
L 271.603344 243.52693 
L 269.15021 246.334017 
L 266.474571 249.005222 
L 263.538986 251.516397 
L 261.431022 253.071613 
L 255.160864 257.984258 
L 252.039508 260.362585 
L 248.864029 262.537697 
L 246.103799 264.270158 
L 247.115857 265.136609 
L 250.80974 267.032263 
L 255.11328 268.088535 
L 259.677565 268.257438 
L 263.95647 268.595665 
L 268.813662 270.668471 
L 268.764031 270.575857 
L 258.687432 268.030149 
L 254.140882 267.456125 
L 249.5299 267.299937 
L 245.915475 266.990404 
L 243.276331 270.918547 
L 241.820431 274.010517 
L 242.0753 274.104871 
L 254.117934 277.755534 
L 258.404394 278.962428 
L 264.512026 281.134485 
L 260.812151 279.760288 
L 259.188374 278.938896 
L 259.322517 278.89246 
L 254.252394 277.110187 
L 251.218326 276.475152 
L 242.228722 275.907538 
L 240.010601 275.876262 
L 240.079901 278.181969 
L 239.852032 280.685301 
L 239.320412 283.945108 
L 238.551818 287.180737 
L 238.002398 290.272625 
L 237.58526 295.488 
L 237.491852 295.358885 
L 237.407657 295.309927 
L 236.890493 293.292225 
L 236.313445 289.97326 
L 235.26756 286.758206 
L 233.990344 283.891423 
L 232.340598 277.788841 
L 228.977041 268.788002 
L 228.952658 268.800154 
L 228.382315 268.899281 
L 228.383007 268.87139 
L 227.018403 271.243784 
L 219.948692 279.34792 
L 217.288957 282.009261 
L 210.867648 287.720035 
L 204.944966 292.949633 
L 205.099592 292.950151 
L 206.138831 291.462314 
L 211.594022 282.369819 
L 214.679654 275.528865 
L 214.669409 275.529518 
L 206.785423 273.496428 
L 204.638692 276.187183 
L 202.061191 278.861302 
L 200.05719 281.218376 
L 200.009765 281.168429 
L 201.725227 278.747326 
L 204.365662 276.039449 
L 207.28979 273.423431 
L 207.264498 273.399299 
L 201.144373 271.943158 
L 196.848078 270.777607 
L 188.48728 268.083072 
L 184.427197 266.585579 
L 180.51556 264.875738 
L 176.576432 263.654073 
L 173.033563 262.338459 
L 168.939868 261.006571 
L 165.397359 265.852551 
L 165.48536 265.838148 
L 166.280573 262.660988 
L 167.382773 259.07147 
L 163.459896 258.005232 
L 159.632591 257.163271 
L 158.914803 258.240381 
L 157.153603 261.271599 
L 153.987396 267.430792 
L 153.281122 268.548923 
L 151.176928 268.708761 
L 144.964649 268.954442 
L 145.042823 268.904495 
L 148.483906 268.111445 
L 152.749855 266.998998 
L 154.763906 266.222459 
L 156.644643 263.335049 
L 158.441279 260.294548 
L 158.524839 260.581058 
L 152.975525 257.873865 
L 148.985656 256.249845 
L 144.902451 254.76719 
L 140.614166 253.56359 
L 136.264297 252.572984 
L 127.922042 249.843585 
L 123.605157 248.713794 
L 118.087825 247.557194 
L 116.253396 250.344963 
L 111.31836 255.771884 
L 111.4537 255.845341 
L 111.522336 255.652456 
L 112.26264 254.637744 
L 118.859289 246.823902 
L 118.719284 246.781012 
L 114.508136 245.533465 
L 110.487265 243.898448 
L 93.629789 239.027166 
L 89.58889 237.762741 
L 80.373082 234.662419 
L 80.425013 234.744834 
L 80.662096 234.696968 
L 80.885257 234.629801 
L 86.372597 236.225262 
L 94.827041 238.71215 
L 99.08214 239.962813 
L 104.309549 241.627243 
L 104.969847 239.760562 
L 106.234842 236.555687 
L 107.734692 233.417409 
L 109.048301 230.399062 
L 110.521382 227.456824 
L 111.883282 224.44866 
L 115.142818 218.275064 
L 118.454588 212.833875 
L 117.773728 212.659317 
L 108.775271 210.94681 
L 104.625664 209.951803 
L 95.113309 208.326877 
L 95.106777 208.407542 
L 95.182392 208.325454 
L 95.362403 208.246777 
L 99.363569 209.11999 
L 104.748726 210.50462 
L 109.413767 210.207605 
L 112.69659 210.173522 
L 112.384029 210.161971 
L 117.025898 210.651157 
L 121.322625 211.955112 
L 123.854756 212.854512 
L 123.881785 212.806212 
L 123.803964 212.803064 
L 120.886663 217.451395 
L 118.685781 220.349071 
L 116.676431 223.353222 
L 116.067956 226.65871 
L 116.711051 229.964001 
L 127.044812 234.404318 
L 131.160123 236.353373 
L 141.237745 241.594206 
L 149.719031 240.818329 
L 163.167335 239.032903 
L 164.270747 239.12298 
L 168.644286 239.683185 
L 185.608855 241.275311 
L 187.011497 240.908396 
L 191.333349 239.966588 
L 199.613175 239.746583 
L 208.726353 239.922336 
L 213.291554 240.188607 
L 221.501807 240.978017 
L 233.984865 237.36022 
L 242.615096 235.056759 
L 247.048316 234.220405 
L 251.571802 233.57061 
L 259.74349 232.839886 
L 258.917738 230.04274 
L 258.328181 226.943257 
L 258.022253 223.672717 
L 257.84625 220.377796 
L 258.170628 214.232437 
L 258.388158 210.901315 
L 258.213771 207.595118 
L 258.424704 203.375474 
L 256.029153 198.439375 
L 255.008249 195.384724 
L 254.470451 192.109508 
L 255.503237 185.5456 
L 254.982518 182.274221 
L 254.329949 179.034124 
L 254.117155 175.726694 
L 254.233375 172.449444 
L 254.548077 169.162056 
L 255.125817 166.030266 
L 255.862639 162.944627 
L 256.976836 156.729378 
L 257.166198 153.449922 
L 256.97768 150.172543 
L 256.45487 146.881132 
L 255.959587 141.413848 
L 255.952673 141.415308 
L 249.157867 142.768444 
L 244.776866 142.999798 
L 240.191434 142.948184 
L 221.826985 143.42017 
L 212.645135 143.851519 
L 208.087353 144.138432 
L 195.263875 145.389541 
L 190.937185 145.96112 
L 181.954315 147.390815 
L 168.485211 149.311901 
L 155.130158 151.182574 
L 146.701279 152.41316 
L 138.004676 153.939248 
L 135.175564 154.413828 
L 132.949945 157.300963 
L 130.407281 160.068613 
L 127.288636 162.45146 
L 123.964768 164.748434 
L 120.483426 166.879232 
L 117.358372 169.048794 
L 114.435174 171.40915 
L 111.943093 173.796708 
L 110.783669 175.088118 
L 110.970169 179.344833 
L 111.335692 182.594803 
L 111.500808 185.856972 
L 112.142974 189.139752 
L 112.678919 195.693269 
L 113.090051 199.728528 
L 113.561044 202.835363 
L 113.647121 205.827124 
L 114.754512 215.561555 
L 114.786811 215.985468 
L 115.326419 219.303455 
L 116.376169 223.554169 
L 126.216854 223.239007 
L 135.388271 223.645996 
L 141.182491 224.068217 
L 140.580504 226.062377 
L 140.376665 229.428788 
L 139.868924 232.97713 
L 139.965152 232.911946 
L 140.267338 233.072006 
L 140.187995 231.184651 
L 139.869876 227.83327 
L 138.450082 218.0545 
L 138.157045 215.961937 
L 138.20517 215.959586 
L 138.277764 215.779189 
L 142.429504 215.241428 
L 150.378998 214.54909 
L 150.366539 214.541696 
L 150.761723 216.133202 
L 153.060462 222.245865 
L 153.186581 222.266098 
L 159.179146 225.905252 
L 159.172794 225.89483 
L 161.461353 232.08227 
L 161.605706 232.090948 
L 170.562123 231.864652 
L 170.554943 231.86504 
L 175.281193 233.861764 
L 175.074002 233.773778 
L 161.732935 232.421502 
L 159.673218 229.952849 
L 157.464578 227.056866 
L 155.557424 224.310459 
L 155.68624 224.128637 
L 158.277749 223.72855 
L 162.936106 223.151793 
L 167.395058 222.816424 
L 168.979204 221.932267 
L 177.945463 220.400276 
L 186.067613 219.271759 
L 190.075982 217.766965 
L 194.466774 216.625991 
L 198.692161 215.67403 
L 202.698411 215.34609 
L 206.618396 214.276777 
L 210.725545 212.761908 
L 218.660374 210.262522 
L 223.561099 208.628412 
L 223.542757 208.620195 
L 227.571897 211.729432 
L 227.886722 214.763892 
L 228.595909 217.725385 
L 229.658888 221.45734 
L 229.65873 221.391301 
L 227.721606 218.708463 
L 226.575499 214.780019 
L 226.47886 211.4659 
L 226.72272 207.016435 
L 226.751444 207.018423 
L 228.952607 206.743547 
L 237.431586 206.090646 
L 237.431428 206.0953 
L 238.01469 208.105624 
L 241.214934 217.429846 
L 242.117253 220.518182 
L 244.786354 226.956051 
L 244.731553 226.79469 
L 228.542766 235.037359 
L 224.743759 236.5466 
L 220.575551 237.937091 
L 211.610049 239.518092 
L 202.722715 241.459918 
L 199.114583 242.438279 
L 203.568698 241.193534 
L 211.871645 238.648498 
L 220.520866 236.358172 
L 229.378807 234.582252 
L 238.303538 233.113115 
L 244.706809 232.112362 
L 243.63166 228.631933 
L 241.028131 222.27914 
L 237.998699 215.934807 
L 234.315681 208.266374 
L 234.320504 208.272685 
L 233.693688 208.469154 
L 229.75544 209.912102 
L 221.721442 212.52036 
L 217.632974 214.023377 
L 213.307567 215.036992 
L 209.003111 216.234944 
L 205.053573 217.816793 
L 200.764704 219.080488 
L 196.636886 220.471337 
L 192.595648 222.035929 
L 188.823806 223.617313 
L 180.591997 225.342536 
L 176.466896 226.351858 
L 172.051498 227.160223 
L 167.616323 228.113696 
L 154.602662 231.187499 
L 150.215915 232.109685 
L 140.88135 234.659064 
L 136.575365 235.292328 
L 128.748992 237.692923 
L 124.916243 239.021492 
L 120.584232 240.318959 
L 116.708319 241.641574 
L 116.651471 241.593641 
L 113.839605 235.099929 
L 113.839605 235.099929 
" clip-path="url(#pfb2d78c9b3)" style="fill: none; stroke: #0000ff; stroke-opacity: 0.7; stroke-width: 0.75; stroke-linecap: square"/>
   </g>
   <g id="line2d_12">
    <path d="M 168.748768 76.411166 
L 168.828108 76.416079 
L 173.79677 76.467021 
L 173.751259 76.365297 
L 173.911008 76.174206 
L 174.074222 76.081293 
L 174.289205 76.002146 
L 176.408289 76.313857 
L 185.236595 77.922137 
L 194.038481 79.95874 
L 202.696543 81.547775 
L 207.119383 81.826801 
L 215.939568 82.676435 
L 231.124145 84.694031 
L 231.10812 84.691065 
L 231.91179 85.51969 
L 237.119744 91.11066 
L 245.4953 98.988915 
L 247.34379 100.699207 
L 247.393639 100.983908 
L 248.811009 107.786181 
L 249.314074 111.078452 
L 249.641331 114.554171 
L 249.814389 118.037483 
L 249.737778 121.316451 
L 249.121265 127.889975 
L 248.012962 134.479187 
L 246.219837 140.680978 
L 243.806631 146.573395 
L 240.890311 152.388892 
L 239.275999 155.501893 
L 234.762925 164.816177 
L 229.903505 173.563891 
L 226.66014 179.493861 
L 224.862581 182.543986 
L 223.66885 184.823566 
L 223.816069 184.779421 
L 223.952089 184.814083 
L 223.845206 184.736051 
L 212.685175 184.047793 
L 203.788357 182.976729 
L 199.500612 182.376013 
L 195.499346 181.621959 
L 187.343605 179.803655 
L 184.241902 178.865657 
L 181.788283 177.992762 
L 168.289566 176.799539 
L 163.864578 175.883345 
L 159.500765 174.787419 
L 154.993654 173.900505 
L 146.232649 172.458606 
L 132.816721 169.39714 
L 128.336665 168.653525 
L 124.0284 167.81991 
L 119.799558 166.814801 
L 99.197224 162.856283 
L 99.271083 162.481047 
L 100.052915 159.278662 
L 100.878264 152.973753 
L 101.040426 149.915672 
L 100.994711 146.279909 
L 100.691274 143.378513 
L 100.751786 143.597206 
L 101.636827 141.156 
L 102.617551 138.021284 
L 103.103665 135.084108 
L 103.341067 131.538402 
L 106.111368 127.617082 
L 107.505582 124.649446 
L 108.691717 121.685985 
L 111.717878 112.86678 
L 112.472217 110.010204 
L 113.010001 107.231909 
L 114.547889 101.478246 
L 115.524911 98.617868 
L 116.464687 95.480266 
L 117.545185 92.349469 
L 118.455068 89.234413 
L 118.904817 86.079543 
L 119.034124 82.788249 
L 119.595611 76.322703 
L 121.004374 71.31525 
L 121.078818 71.371392 
L 124.954453 71.798072 
L 129.761872 72.354176 
L 139.32021 73.028279 
L 148.803929 73.420032 
L 162.923432 73.578918 
L 168.324943 73.546982 
L 168.062699 73.628994 
L 167.873098 73.968569 
L 167.492185 73.698616 
L 168.722924 73.793139 
L 178.088555 74.220071 
L 182.229047 74.457215 
L 190.567742 75.166828 
L 203.408634 76.901958 
L 220.772132 79.357179 
L 228.12303 80.711767 
L 231.251111 82.468307 
L 234.147758 84.46987 
L 236.628965 86.841116 
L 238.911845 89.653515 
L 240.79586 92.695551 
L 242.177021 96.032695 
L 244.519725 102.647781 
L 246.517019 109.301827 
L 247.35077 112.556342 
L 248.037111 115.784272 
L 248.523929 118.765266 
L 248.804588 121.872116 
L 248.93062 124.966759 
L 248.917067 128.262695 
L 248.366993 134.794453 
L 247.651111 137.994166 
L 246.792079 141.165294 
L 244.811715 147.01196 
L 243.383653 150.869673 
L 241.967274 153.863533 
L 238.553541 159.595307 
L 231.518506 171.763153 
L 229.888926 174.828158 
L 228.063596 177.822635 
L 224.108049 183.752165 
L 222.936513 185.42047 
L 223.041597 185.386689 
L 223.087581 185.409075 
L 200.78742 182.404954 
L 187.069701 181.225749 
L 182.225468 181.202319 
L 178.429312 180.811884 
L 172.987499 180.034368 
L 174.505341 180.261013 
L 164.510503 176.127978 
L 162.785594 175.419043 
L 155.59557 174.842456 
L 150.958728 174.673463 
L 146.414897 174.237664 
L 138.535503 172.194025 
L 125.56619 169.883697 
L 121.160169 169.193645 
L 112.615908 167.468914 
L 108.685289 166.976829 
L 109.078194 167.063807 
L 107.119549 165.103636 
L 102.813468 160.205526 
L 100.268899 157.140296 
L 100.3239 156.783098 
L 100.319368 151.258713 
L 99.699147 145.96285 
L 99.747209 145.999845 
L 100.827639 142.898099 
L 101.712702 139.976222 
L 102.381289 137.140567 
L 102.716731 134.339866 
L 104.555489 128.069607 
L 107.366467 122.251841 
L 108.371055 119.313194 
L 110.604675 113.399157 
L 111.011774 110.350574 
L 110.997278 107.364344 
L 111.976938 101.525642 
L 112.036419 98.825494 
L 113.443694 92.657576 
L 114.339064 89.570597 
L 115.391513 86.458584 
L 116.644325 83.357318 
L 117.638099 80.250586 
L 118.796596 77.176437 
L 120.435606 70.75043 
L 120.601479 70.810248 
L 133.070536 71.151581 
L 142.137461 71.739528 
L 146.701876 72.182279 
L 160.331665 74.509453 
L 164.485751 75.27656 
L 172.809 76.145517 
L 178.4888 76.987948 
L 182.953804 77.159774 
L 187.421802 77.159433 
L 196.45072 77.638528 
L 200.977296 77.914408 
L 207.403439 78.163895 
L 207.274877 78.2193 
L 207.300617 77.215691 
L 206.995685 70.964916 
L 206.744502 67.62982 
L 206.347396 64.312607 
L 205.680988 61.029866 
L 205.171513 59.184981 
L 205.454799 59.30391 
L 205.628463 59.48551 
L 204.930753 66.059253 
L 203.60371 72.445072 
L 202.447977 76.396346 
L 202.701723 76.348134 
L 203.150706 76.401899 
L 203.473813 76.296442 
L 203.531261 76.121477 
L 203.534897 76.134467 
L 204.341357 76.48982 
L 208.440349 78.090415 
L 216.753315 80.134353 
L 218.428163 80.5042 
L 218.293459 80.471079 
L 218.369951 83.988778 
L 218.10552 91.278352 
L 217.851952 92.838733 
L 217.523095 92.85823 
L 217.362077 92.759619 
L 217.116072 92.753219 
L 218.540491 90.21383 
L 217.747934 86.95009 
L 218.533663 86.34347 
L 225.497275 81.83964 
L 225.545717 81.859141 
L 237.621251 89.530635 
L 237.571523 89.506255 
L 241.920636 87.5254 
L 245.585236 85.518722 
L 250.202397 82.453843 
L 250.156345 82.470564 
L 250.833575 83.20248 
L 253.922841 85.526115 
L 257.649675 87.809788 
L 261.748481 90.654362 
L 260.889163 90.560329 
L 261.04455 90.672513 
L 261.246298 90.735771 
L 262.932372 90.459477 
L 262.799865 90.498941 
L 261.91951 90.990067 
L 254.669069 95.310373 
L 250.597061 96.703917 
L 246.405772 97.811495 
L 242.408188 98.68778 
L 242.484981 98.663973 
L 242.520539 98.52998 
L 244.428596 103.240412 
L 244.877379 104.660615 
L 244.881565 104.580664 
L 244.962561 104.486336 
L 241.234765 105.336475 
L 228.052814 107.84691 
L 225.913233 108.3842 
L 220.730768 107.777121 
L 220.757019 107.773665 
L 221.150035 107.673631 
L 221.059672 107.743022 
L 233.062246 109.136053 
L 232.907153 109.113375 
L 233.052849 109.218038 
L 231.710337 115.328701 
L 230.687729 118.613593 
L 229.137202 124.363933 
L 229.344047 124.344399 
L 229.52146 124.116433 
L 231.027745 120.973128 
L 232.42013 117.745967 
L 233.532704 114.495827 
L 234.244184 112.065824 
L 234.224666 112.088338 
L 236.097957 112.10793 
L 240.412493 112.2708 
L 244.95671 112.554957 
L 247.489184 112.844695 
L 247.485169 112.846148 
L 247.45127 112.717901 
L 247.007821 114.816365 
L 246.061414 118.013773 
L 245.049257 120.647654 
L 245.103695 120.578106 
L 246.90542 121.092052 
L 251.016567 122.089216 
L 254.899222 123.167404 
L 258.885785 124.415445 
L 263.136363 125.86372 
L 270.34236 128.919662 
L 270.472698 129.222944 
L 270.451918 129.246123 
L 270.504749 129.192531 
L 267.558256 128.148418 
L 263.398079 126.856632 
L 259.23807 125.440058 
L 250.724957 122.926734 
L 247.423457 122.118953 
L 247.457242 122.094517 
L 247.150164 123.305697 
L 246.235006 126.421122 
L 245.12922 129.560166 
L 244.10688 132.81967 
L 243.267089 136.089344 
L 242.701052 139.330526 
L 241.668335 142.577609 
L 240.160617 145.83441 
L 240.104435 148.816867 
L 240.169747 151.932851 
L 239.762129 155.621507 
L 239.303162 158.0483 
L 245.134691 159.08055 
L 249.153176 160.290665 
L 257.309331 163.272142 
L 259.731214 164.295238 
L 259.728885 164.211981 
L 259.867978 163.969082 
L 255.136742 162.546427 
L 251.081128 161.209187 
L 237.951 157.710072 
L 238.102688 157.609579 
L 234.782028 165.816326 
L 232.130024 171.585023 
L 230.499015 174.575928 
L 226.51755 180.530353 
L 224.162059 183.538578 
L 220.708539 187.380567 
L 220.701496 187.316361 
L 220.73266 187.32377 
L 227.466148 189.105285 
L 231.350165 190.317554 
L 235.54495 191.764668 
L 239.549057 193.427296 
L 243.576723 194.960734 
L 248.998913 196.312221 
L 249.201481 196.109774 
L 249.347175 196.358328 
L 249.470983 196.268795 
L 249.557286 196.078154 
L 249.697634 196.043086 
L 248.759379 195.68849 
L 240.831147 192.076232 
L 236.681834 190.573303 
L 228.384429 188.045128 
L 227.034649 187.924793 
L 214.299779 185.583684 
L 214.644072 185.693845 
L 214.199165 185.683391 
L 210.877544 196.055211 
L 210.78776 196.09012 
L 210.480697 196.451584 
L 210.714842 196.771818 
L 211.321862 196.972062 
L 211.258438 196.861333 
L 211.209696 196.695658 
L 210.79588 193.265279 
L 210.111652 189.87515 
L 209.185136 186.546743 
L 208.058466 183.2473 
L 207.322081 181.518033 
L 203.185841 180.435273 
L 198.915607 179.68436 
L 185.890875 178.515811 
L 181.855397 178.391587 
L 172.485199 178.443778 
L 172.51058 178.423827 
L 171.263668 181.493978 
L 170.413688 184.679064 
L 169.224793 188.098836 
L 167.989554 191.138471 
L 167.023205 193.12514 
L 167.227818 193.239306 
L 167.410431 193.200953 
L 167.36275 191.952119 
L 167.460147 188.740799 
L 168.091161 185.40339 
L 168.371977 182.033156 
L 168.975719 178.996785 
L 169.21709 176.873802 
L 169.107015 176.831324 
L 161.588182 174.594082 
L 161.776944 174.647906 
L 160.782887 180.352239 
L 159.153505 183.345189 
L 155.469107 189.167052 
L 153.484647 192.006582 
L 154.724305 190.44869 
L 155.827592 189.265796 
L 155.651529 189.387997 
L 154.894874 189.290292 
L 154.1495 188.956868 
L 153.765548 188.494319 
L 154.759435 186.66788 
L 158.860186 180.670619 
L 160.570398 177.7096 
L 161.859617 175.009053 
L 161.324614 174.903697 
L 151.718854 174.118797 
L 147.210211 173.541684 
L 142.946222 172.793677 
L 140.192398 172.12287 
L 127.269967 169.235881 
L 123.285763 168.146381 
L 119.917497 167.061499 
L 119.938134 167.06011 
L 119.307289 167.872885 
L 117.868042 170.98534 
L 117.709115 174.32055 
L 118.827733 177.622697 
L 119.60906 180.77034 
L 118.136379 184.741928 
L 118.376137 184.841809 
L 118.606029 184.723647 
L 119.218807 180.320641 
L 119.765268 177.217013 
L 119.55145 173.969086 
L 118.776386 170.699994 
L 118.425234 168.07338 
L 113.012742 167.144007 
L 108.764589 166.79973 
L 108.566514 167.287222 
L 106.588516 173.222472 
L 105.605767 176.224675 
L 104.705214 179.402719 
L 102.861697 183.961572 
L 104.114903 181.013119 
L 104.998488 179.560074 
L 105.377112 179.600573 
L 105.430634 179.669003 
L 106.751377 175.559129 
L 106.912322 173.228136 
L 105.55412 166.99374 
L 105.151269 165.541678 
L 105.43623 165.814587 
L 102.380674 166.377891 
L 99.038226 166.787157 
L 94.62729 167.172931 
L 90.221716 167.396399 
L 86.040088 167.739607 
L 79.073851 168.672959 
L 79.177862 168.650896 
L 79.367009 169.375476 
L 79.546498 169.345984 
L 79.429877 169.531211 
L 81.991876 168.677739 
L 86.325127 167.444582 
L 90.344521 165.926575 
L 93.794875 164.350881 
L 101.514394 161.663413 
L 113.007074 156.887622 
L 113.085527 156.93057 
L 112.861269 156.701121 
L 112.85185 156.665913 
L 112.928318 156.729535 
L 113.065189 156.675183 
L 109.631102 156.605258 
L 96.739939 154.915337 
L 92.365689 154.137922 
L 82.741848 151.988481 
L 74.07694 149.951593 
L 73.878975 150.066689 
L 73.832727 150.33588 
L 74.042567 150.466705 
L 76.382226 150.670618 
L 90.223146 151.362197 
L 100.546682 151.216443 
L 100.671351 151.374398 
L 100.920618 145.695068 
L 100.939687 145.818638 
L 101.054665 145.839569 
L 96.996202 145.28291 
L 92.831227 144.43895 
L 89.320327 143.933591 
L 89.647431 144.028888 
L 89.785071 144.189176 
L 93.718584 144.620014 
L 98.341633 145.616552 
L 103.142171 146.938301 
L 103.221655 142.610961 
L 103.450449 139.461126 
L 103.881991 136.317444 
L 104.461844 133.14348 
L 105.164897 129.978749 
L 106.142588 126.814388 
L 106.40227 123.851217 
L 106.870722 121.096471 
L 107.08536 118.353084 
L 107.111383 118.591081 
L 106.947203 118.529815 
L 99.917316 117.394984 
L 99.995138 117.402978 
L 99.938327 117.581154 
L 100.059674 117.784542 
L 100.273771 117.807947 
L 104.880606 117.577904 
L 110.238245 117.51089 
L 110.221523 117.606903 
L 110.704534 114.782319 
L 110.926835 112.106946 
L 110.993405 112.277243 
L 109.534046 112.070239 
L 105.164385 111.614779 
L 96.474137 110.954922 
L 95.104486 110.786677 
L 95.208478 110.821551 
L 94.47206 109.335935 
L 92.656197 104.796134 
L 92.785357 104.58926 
L 93.042377 104.443927 
L 93.439878 104.552971 
L 95.276909 106.786463 
L 97.734016 109.537901 
L 99.262794 110.811423 
L 103.502252 111.487742 
L 107.942302 112.045781 
L 107.498878 112.203727 
L 108.287733 110.682094 
L 109.695564 107.539284 
L 110.74703 104.268283 
L 111.535345 100.963017 
L 111.808861 97.730955 
L 111.759802 94.508944 
L 112.697463 88.116995 
L 112.781856 84.879183 
L 112.505768 80.721943 
L 108.263217 80.353978 
L 99.532515 78.663503 
L 105.663486 79.873623 
L 113.621734 81.848336 
L 114.914814 78.758994 
L 116.58483 75.91937 
L 118.650574 69.917404 
L 122.180329 57.797512 
L 123.550572 53.608518 
L 123.208649 53.568 
L 122.883536 53.728931 
L 122.60676 53.610568 
L 122.61286 53.616605 
L 122.373306 54.90646 
L 118.390517 71.86315 
L 118.367043 71.85682 
L 125.415519 72.062143 
L 147.375609 73.777165 
L 152.099422 74.267162 
L 160.70445 75.44003 
L 160.82062 74.894692 
L 161.148407 71.494684 
L 161.614939 68.175483 
L 162.294297 65.034178 
L 163.136597 58.00311 
L 163.386892 58.015672 
L 163.977429 58.363239 
L 163.012113 61.254419 
L 161.405196 65.116205 
L 162.023111 68.467317 
L 162.197692 70.825845 
L 162.206488 70.588159 
L 161.668078 73.921605 
L 159.978544 76.996789 
L 158.756955 78.734043 
L 159.100795 78.891804 
L 159.16502 78.803316 
L 153.14062 76.48749 
L 149.383909 74.740525 
L 145.481281 73.10885 
L 141.090805 72.416251 
L 136.559368 72.598475 
L 134.312236 74.786522 
L 129.068735 79.176785 
L 125.682317 81.788663 
L 116.610236 88.034743 
L 116.673703 87.943453 
L 116.33096 90.349105 
L 116.082112 93.18517 
L 115.781346 102.422034 
L 113.981054 105.667572 
L 109.121444 115.920316 
L 109.335567 117.040957 
L 109.771279 120.275796 
L 108.481083 125.673754 
L 106.522674 131.449102 
L 105.315464 134.252711 
L 104.018678 136.849916 
L 102.733636 138.988856 
L 102.667924 138.687869 
L 103.196458 141.422017 
L 104.204881 147.26218 
L 105.088592 153.559435 
L 105.085776 156.77433 
L 104.770347 159.90209 
L 104.152501 162.857702 
L 103.529076 165.087441 
L 102.90164 164.819261 
L 106.947414 165.186082 
L 111.161939 165.788752 
L 119.849309 167.584891 
L 132.008013 170.844961 
L 136.615984 171.758198 
L 142.119899 173.210518 
L 150.16108 173.156927 
L 154.789194 173.41256 
L 159.454422 174.032342 
L 167.781444 176.522231 
L 172.469511 177.084759 
L 177.135183 177.44335 
L 181.450352 178.042821 
L 189.20401 179.575921 
L 195.634916 181.314114 
L 203.921798 183.768318 
L 208.335907 184.810605 
L 212.799815 185.60838 
L 217.330615 186.207101 
L 225.360604 187.560813 
L 225.5306 187.481618 
L 225.543257 187.574466 
L 225.561148 187.667279 
L 225.951412 182.779761 
L 227.05236 179.762908 
L 228.609332 176.680055 
L 231.273441 170.423131 
L 234.347321 164.019738 
L 235.773438 160.84573 
L 238.268755 154.556829 
L 240.06444 148.61204 
L 240.786132 145.475075 
L 241.38106 142.328028 
L 242.223584 135.783313 
L 242.755116 132.519361 
L 245.083656 113.382067 
L 245.332931 109.949753 
L 245.354728 106.437724 
L 245.664335 100.271377 
L 245.821703 100.366679 
L 242.674685 98.30291 
L 239.674261 96.028425 
L 237.15856 93.364103 
L 234.752066 90.555872 
L 232.493117 87.708462 
L 230.104193 85.072702 
L 227.394729 82.506757 
L 224.534655 80.201904 
L 222.87798 79.024463 
L 222.221407 78.937029 
L 218.283153 78.569736 
L 209.669846 77.900311 
L 205.161231 77.848549 
L 196.394199 77.324116 
L 169.456298 76.33798 
L 169.57595 76.34137 
L 165.127086 76.38026 
L 159.58923 76.679353 
L 159.791095 76.609814 
L 159.6056 83.763114 
L 158.986919 87.341265 
L 158.198742 90.920005 
L 156.890332 95.578825 
L 156.690007 95.679493 
L 156.994014 95.836224 
L 154.586234 95.27181 
L 150.185261 94.723293 
L 145.599828 93.919663 
L 146.008597 94.0469 
L 145.782267 94.413552 
L 146.00802 94.79511 
L 145.64511 94.933748 
L 147.310746 94.93894 
L 148.691423 94.821031 
L 150.165875 94.546374 
L 154.490985 95.064091 
L 160.86031 95.660797 
L 167.235068 96.065373 
L 172.548423 96.220647 
L 173.53931 96.270315 
L 171.585922 96.136971 
L 169.948256 96.981022 
L 167.839749 97.768825 
L 167.268424 97.582639 
L 166.405967 98.558001 
L 165.616463 102.617159 
L 163.677719 110.326508 
L 164.035053 110.175582 
L 161.563642 109.82088 
L 152.19368 109.188734 
L 152.313833 109.138286 
L 152.694698 108.666314 
L 146.126712 111.465973 
L 141.71248 111.196066 
L 136.028822 110.936008 
L 136.179257 110.524203 
L 134.654551 113.041441 
L 133.124778 115.336596 
L 133.163232 114.684712 
L 128.758502 116.495642 
L 128.169553 115.644964 
L 127.347257 115.555287 
L 127.197554 115.72655 
L 129.412487 114.149162 
L 131.640173 112.417588 
L 134.069669 110.39277 
L 134.175525 110.416965 
L 138.255037 110.034386 
L 147.283945 109.490531 
L 146.993064 109.554773 
L 146.83509 109.732874 
L 146.217796 109.538055 
L 145.291795 110.875302 
L 143.789341 113.669804 
L 142.532943 116.403372 
L 142.513504 116.223135 
L 142.921102 117.255683 
L 142.895154 116.997494 
L 141.218628 122.946094 
L 139.358453 128.138275 
L 139.312015 127.861246 
L 139.500786 130.798674 
L 139.096129 133.844453 
L 138.522908 136.706845 
L 137.2886 139.193326 
L 136.960061 141.898122 
L 137.061073 144.904176 
L 136.726599 150.516257 
L 136.609419 153.770835 
L 136.699105 153.573834 
L 136.752817 153.466881 
L 130.970408 154.494906 
L 130.703101 154.334044 
L 126.551063 152.976792 
L 116.76725 150.613749 
L 116.552686 150.341238 
L 116.633799 150.068863 
L 116.446237 149.897395 
L 120.507617 149.849284 
L 125.655448 150.846988 
L 129.5185 152.18624 
L 134.302586 154.047899 
L 134.12579 153.80535 
L 134.213679 153.635226 
L 133.560773 154.898419 
L 130.299282 160.40351 
L 130.366888 160.454254 
L 127.906824 159.943435 
L 111.76614 157.142968 
L 103.15189 156.128572 
L 102.569853 156.487641 
L 102.628718 156.760028 
L 103.218619 156.781352 
L 103.13504 155.322549 
L 102.812054 152.235039 
L 102.713952 149.261325 
L 102.087288 143.485167 
L 102.25217 140.626597 
L 102.699103 137.5722 
L 105.19698 131.491213 
L 107.097544 125.325282 
L 107.572206 122.287163 
L 108.390764 122.174147 
L 108.336132 122.307876 
L 105.794926 134.329152 
L 104.903644 137.402189 
L 102.527488 143.119517 
L 99.722902 148.482401 
L 97.683602 152.02139 
L 97.98565 151.683833 
L 101.954552 152.951188 
L 114.418145 156.293543 
L 122.89409 158.445308 
L 121.570567 157.920447 
L 117.964315 156.694597 
L 112.174107 155.984319 
L 113.782125 155.764526 
L 116.479807 153.156439 
L 119.17572 151.278204 
L 122.383892 149.331028 
L 126.086596 147.486507 
L 134.531475 145.580165 
L 128.025516 146.951963 
L 130.334001 144.921826 
L 132.001863 142.084209 
L 132.881198 138.258073 
L 132.572079 133.828331 
L 131.662973 129.476902 
L 128.825083 119.627489 
L 128.141089 114.378231 
L 128.27661 109.023024 
L 127.694169 114.580042 
L 127.084458 106.287593 
L 126.008024 102.394147 
L 124.931099 97.459246 
L 122.502941 89.889605 
L 117.293736 79.927776 
L 117.056844 76.441421 
L 115.235951 70.387801 
L 112.493536 63.340578 
L 112.510509 59.551707 
L 396.424225 151.751027 
L 389.056015 146.974269 
L 383.907076 140.452696 
L 382.051223 137.714395 
L 388.638574 132.715282 
L 398.487273 130.013783 
L 398.487273 130.013783 
" clip-path="url(#pfb2d78c9b3)" style="fill: none; stroke: #ff0000; stroke-opacity: 0.7; stroke-width: 0.75; stroke-linecap: square"/>
   </g>
   <g id="patch_3">
    <path d="M 57.6 307.584 
L 57.6 41.472 
" style="fill: none; stroke: #000000; stroke-width: 0.8; stroke-linejoin: miter; stroke-linecap: square"/>
   </g>
   <g id="patch_4">
    <path d="M 414.72 307.584 
L 414.72 41.472 
" style="fill: none; stroke: #000000; stroke-width: 0.8; stroke-linejoin: miter; stroke-linecap: square"/>
   </g>
   <g id="patch_5">
    <path d="M 57.6 307.584 
L 414.72 307.584 
" style="fill: none; stroke: #000000; stroke-width: 0.8; stroke-linejoin: miter; stroke-linecap: square"/>
   </g>
   <g id="patch_6">
    <path d="M 57.6 41.472 
L 414.72 41.472 
" style="fill: none; stroke: #000000; stroke-width: 0.8; stroke-linejoin: miter; stroke-linecap: square"/>
   </g>
   <g id="text_13">
    <!-- Initial Trajectory Estimate vs Incremental Trajectory Estimate -->
    <g transform="translate(53.263125 35.472) scale(0.12 -0.12)">
     <defs>
      <path id="DejaVuSans-49" d="M 628 4666 
L 1259 4666 
L 1259 0 
L 628 0 
L 628 4666 
z
" transform="scale(0.015625)"/>
      <path id="DejaVuSans-6e" d="M 3513 2113 
L 3513 0 
L 2938 0 
L 2938 2094 
Q 2938 2591 2744 2837 
Q 2550 3084 2163 3084 
Q 1697 3084 1428 2787 
Q 1159 2491 1159 1978 
L 1159 0 
L 581 0 
L 581 3500 
L 1159 3500 
L 1159 2956 
Q 1366 3272 1645 3428 
Q 1925 3584 2291 3584 
Q 2894 3584 3203 3211 
Q 3513 2838 3513 2113 
z
" transform="scale(0.015625)"/>
      <path id="DejaVuSans-74" d="M 1172 4494 
L 1172 3500 
L 2356 3500 
L 2356 3053 
L 1172 3053 
L 1172 1153 
Q 1172 725 1289 603 
Q 1406 481 1766 481 
L 2356 481 
L 2356 0 
L 1766 0 
Q 1100 0 847 248 
Q 594 497 594 1153 
L 594 3053 
L 172 3053 
L 172 3500 
L 594 3500 
L 594 4494 
L 1172 4494 
z
" transform="scale(0.015625)"/>
      <path id="DejaVuSans-6c" d="M 603 4863 
L 1178 4863 
L 1178 0 
L 603 0 
L 603 4863 
z
" transform="scale(0.015625)"/>
      <path id="DejaVuSans-20" transform="scale(0.015625)"/>
      <path id="DejaVuSans-54" d="M -19 4666 
L 3928 4666 
L 3928 4134 
L 2272 4134 
L 2272 0 
L 1638 0 
L 1638 4134 
L -19 4134 
L -19 4666 
z
" transform="scale(0.015625)"/>
      <path id="DejaVuSans-72" d="M 2631 2963 
Q 2534 3019 2420 3045 
Q 2306 3072 2169 3072 
Q 1681 3072 1420 2755 
Q 1159 2438 1159 1844 
L 1159 0 
L 581 0 
L 581 3500 
L 1159 3500 
L 1159 2956 
Q 1341 3275 1631 3429 
Q 1922 3584 2338 3584 
Q 2397 3584 2469 3576 
Q 2541 3569 2628 3553 
L 2631 2963 
z
" transform="scale(0.015625)"/>
      <path id="DejaVuSans-6a" d="M 603 3500 
L 1178 3500 
L 1178 -63 
Q 1178 -731 923 -1031 
Q 669 -1331 103 -1331 
L -116 -1331 
L -116 -844 
L 38 -844 
Q 366 -844 484 -692 
Q 603 -541 603 -63 
L 603 3500 
z
M 603 4863 
L 1178 4863 
L 1178 4134 
L 603 4134 
L 603 4863 
z
" transform="scale(0.015625)"/>
      <path id="DejaVuSans-65" d="M 3597 1894 
L 3597 1613 
L 953 1613 
Q 991 1019 1311 708 
Q 1631 397 2203 397 
Q 2534 397 2845 478 
Q 3156 559 3463 722 
L 3463 178 
Q 3153 47 2828 -22 
Q 2503 -91 2169 -91 
Q 1331 -91 842 396 
Q 353 884 353 1716 
Q 353 2575 817 3079 
Q 1281 3584 2069 3584 
Q 2775 3584 3186 3129 
Q 3597 2675 3597 1894 
z
M 3022 2063 
Q 3016 2534 2758 2815 
Q 2500 3097 2075 3097 
Q 1594 3097 1305 2825 
Q 1016 2553 972 2059 
L 3022 2063 
z
" transform="scale(0.015625)"/>
      <path id="DejaVuSans-63" d="M 3122 3366 
L 3122 2828 
Q 2878 2963 2633 3030 
Q 2388 3097 2138 3097 
Q 1578 3097 1268 2742 
Q 959 2388 959 1747 
Q 959 1106 1268 751 
Q 1578 397 2138 397 
Q 2388 397 2633 464 
Q 2878 531 3122 666 
L 3122 134 
Q 2881 22 2623 -34 
Q 2366 -91 2075 -91 
Q 1284 -91 818 406 
Q 353 903 353 1747 
Q 353 2603 823 3093 
Q 1294 3584 2113 3584 
Q 2378 3584 2631 3529 
Q 2884 3475 3122 3366 
z
" transform="scale(0.015625)"/>
      <path id="DejaVuSans-6f" d="M 1959 3097 
Q 1497 3097 1228 2736 
Q 959 2375 959 1747 
Q 959 1119 1226 758 
Q 1494 397 1959 397 
Q 2419 397 2687 759 
Q 2956 1122 2956 1747 
Q 2956 2369 2687 2733 
Q 2419 3097 1959 3097 
z
M 1959 3584 
Q 2709 3584 3137 3096 
Q 3566 2609 3566 1747 
Q 3566 888 3137 398 
Q 2709 -91 1959 -91 
Q 1206 -91 779 398 
Q 353 888 353 1747 
Q 353 2609 779 3096 
Q 1206 3584 1959 3584 
z
" transform="scale(0.015625)"/>
      <path id="DejaVuSans-79" d="M 2059 -325 
Q 1816 -950 1584 -1140 
Q 1353 -1331 966 -1331 
L 506 -1331 
L 506 -850 
L 844 -850 
Q 1081 -850 1212 -737 
Q 1344 -625 1503 -206 
L 1606 56 
L 191 3500 
L 800 3500 
L 1894 763 
L 2988 3500 
L 3597 3500 
L 2059 -325 
z
" transform="scale(0.015625)"/>
      <path id="DejaVuSans-45" d="M 628 4666 
L 3578 4666 
L 3578 4134 
L 1259 4134 
L 1259 2753 
L 3481 2753 
L 3481 2222 
L 1259 2222 
L 1259 531 
L 3634 531 
L 3634 0 
L 628 0 
L 628 4666 
z
" transform="scale(0.015625)"/>
      <path id="DejaVuSans-6d" d="M 3328 2828 
Q 3544 3216 3844 3400 
Q 4144 3584 4550 3584 
Q 5097 3584 5394 3201 
Q 5691 2819 5691 2113 
L 5691 0 
L 5113 0 
L 5113 2094 
Q 5113 2597 4934 2840 
Q 4756 3084 4391 3084 
Q 3944 3084 3684 2787 
Q 3425 2491 3425 1978 
L 3425 0 
L 2847 0 
L 2847 2094 
Q 2847 2600 2669 2842 
Q 2491 3084 2119 3084 
Q 1678 3084 1418 2786 
Q 1159 2488 1159 1978 
L 1159 0 
L 581 0 
L 581 3500 
L 1159 3500 
L 1159 2956 
Q 1356 3278 1631 3431 
Q 1906 3584 2284 3584 
Q 2666 3584 2933 3390 
Q 3200 3197 3328 2828 
z
" transform="scale(0.015625)"/>
      <path id="DejaVuSans-76" d="M 191 3500 
L 800 3500 
L 1894 563 
L 2988 3500 
L 3597 3500 
L 2284 0 
L 1503 0 
L 191 3500 
z
" transform="scale(0.015625)"/>
     </defs>
     <use xlink:href="#DejaVuSans-49"/>
     <use xlink:href="#DejaVuSans-6e" transform="translate(29.492188 0)"/>
     <use xlink:href="#DejaVuSans-69" transform="translate(92.871094 0)"/>
     <use xlink:href="#DejaVuSans-74" transform="translate(120.654297 0)"/>
     <use xlink:href="#DejaVuSans-69" transform="translate(159.863281 0)"/>
     <use xlink:href="#DejaVuSans-61" transform="translate(187.646484 0)"/>
     <use xlink:href="#DejaVuSans-6c" transform="translate(248.925781 0)"/>
     <use xlink:href="#DejaVuSans-20" transform="translate(276.708984 0)"/>
     <use xlink:href="#DejaVuSans-54" transform="translate(308.496094 0)"/>
     <use xlink:href="#DejaVuSans-72" transform="translate(354.830078 0)"/>
     <use xlink:href="#DejaVuSans-61" transform="translate(395.943359 0)"/>
     <use xlink:href="#DejaVuSans-6a" transform="translate(457.222656 0)"/>
     <use xlink:href="#DejaVuSans-65" transform="translate(485.005859 0)"/>
     <use xlink:href="#DejaVuSans-63" transform="translate(546.529297 0)"/>
     <use xlink:href="#DejaVuSans-74" transform="translate(601.509766 0)"/>
     <use xlink:href="#DejaVuSans-6f" transform="translate(640.71875 0)"/>
     <use xlink:href="#DejaVuSans-72" transform="translate(701.900391 0)"/>
     <use xlink:href="#DejaVuSans-79" transform="translate(743.013672 0)"/>
     <use xlink:href="#DejaVuSans-20" transform="translate(802.193359 0)"/>
     <use xlink:href="#DejaVuSans-45" transform="translate(833.980469 0)"/>
     <use xlink:href="#DejaVuSans-73" transform="translate(897.164062 0)"/>
     <use xlink:href="#DejaVuSans-74" transform="translate(949.263672 0)"/>
     <use xlink:href="#DejaVuSans-69" transform="translate(988.472656 0)"/>
     <use xlink:href="#DejaVuSans-6d" transform="translate(1016.255859 0)"/>
     <use xlink:href="#DejaVuSans-61" transform="translate(1113.667969 0)"/>
     <use xlink:href="#DejaVuSans-74" transform="translate(1174.947266 0)"/>
     <use xlink:href="#DejaVuSans-65" transform="translate(1214.15625 0)"/>
     <use xlink:href="#DejaVuSans-20" transform="translate(1275.679688 0)"/>
     <use xlink:href="#DejaVuSans-76" transform="translate(1307.466797 0)"/>
     <use xlink:href="#DejaVuSans-73" transform="translate(1366.646484 0)"/>
     <use xlink:href="#DejaVuSans-20" transform="translate(1418.746094 0)"/>
     <use xlink:href="#DejaVuSans-49" transform="translate(1450.533203 0)"/>
     <use xlink:href="#DejaVuSans-6e" transform="translate(1480.025391 0)"/>
     <use xlink:href="#DejaVuSans-63" transform="translate(1543.404297 0)"/>
     <use xlink:href="#DejaVuSans-72" transform="translate(1598.384766 0)"/>
     <use xlink:href="#DejaVuSans-65" transform="translate(1637.248047 0)"/>
     <use xlink:href="#DejaVuSans-6d" transform="translate(1698.771484 0)"/>
     <use xlink:href="#DejaVuSans-65" transform="translate(1796.183594 0)"/>
     <use xlink:href="#DejaVuSans-6e" transform="translate(1857.707031 0)"/>
     <use xlink:href="#DejaVuSans-74" transform="translate(1921.085938 0)"/>
     <use xlink:href="#DejaVuSans-61" transform="translate(1960.294922 0)"/>
     <use xlink:href="#DejaVuSans-6c" transform="translate(2021.574219 0)"/>
     <use xlink:href="#DejaVuSans-20" transform="translate(2049.357422 0)"/>
     <use xlink:href="#DejaVuSans-54" transform="translate(2081.144531 0)"/>
     <use xlink:href="#DejaVuSans-72" transform="translate(2127.478516 0)"/>
     <use xlink:href="#DejaVuSans-61" transform="translate(2168.591797 0)"/>
     <use xlink:href="#DejaVuSans-6a" transform="translate(2229.871094 0)"/>
     <use xlink:href="#DejaVuSans-65" transform="translate(2257.654297 0)"/>
     <use xlink:href="#DejaVuSans-63" transform="translate(2319.177734 0)"/>
     <use xlink:href="#DejaVuSans-74" transform="translate(2374.158203 0)"/>
     <use xlink:href="#DejaVuSans-6f" transform="translate(2413.367188 0)"/>
     <use xlink:href="#DejaVuSans-72" transform="translate(2474.548828 0)"/>
     <use xlink:href="#DejaVuSans-79" transform="translate(2515.662109 0)"/>
     <use xlink:href="#DejaVuSans-20" transform="translate(2574.841797 0)"/>
     <use xlink:href="#DejaVuSans-45" transform="translate(2606.628906 0)"/>
     <use xlink:href="#DejaVuSans-73" transform="translate(2669.8125 0)"/>
     <use xlink:href="#DejaVuSans-74" transform="translate(2721.912109 0)"/>
     <use xlink:href="#DejaVuSans-69" transform="translate(2761.121094 0)"/>
     <use xlink:href="#DejaVuSans-6d" transform="translate(2788.904297 0)"/>
     <use xlink:href="#DejaVuSans-61" transform="translate(2886.316406 0)"/>
     <use xlink:href="#DejaVuSans-74" transform="translate(2947.595703 0)"/>
     <use xlink:href="#DejaVuSans-65" transform="translate(2986.804688 0)"/>
    </g>
   </g>
   <g id="legend_1">
    <g id="patch_7">
     <path d="M 188.335625 302.584 
L 407.72 302.584 
Q 409.72 302.584 409.72 300.584 
L 409.72 242.8715 
Q 409.72 240.8715 407.72 240.8715 
L 188.335625 240.8715 
Q 186.335625 240.8715 186.335625 242.8715 
L 186.335625 300.584 
Q 186.335625 302.584 188.335625 302.584 
z
" style="fill: #ffffff; opacity: 0.8; stroke: #cccccc; stroke-linejoin: miter"/>
    </g>
    <g id="PathCollection_3">
     <g>
      <use xlink:href="#m82c0aac749" x="200.335625" y="249.844937" style="fill: #0000ff; stroke: #0000ff"/>
     </g>
    </g>
    <g id="text_14">
     <!-- Start Initial Trajectory Estimate -->
     <g transform="translate(218.335625 252.469937) scale(0.1 -0.1)">
      <defs>
       <path id="DejaVuSans-53" d="M 3425 4513 
L 3425 3897 
Q 3066 4069 2747 4153 
Q 2428 4238 2131 4238 
Q 1616 4238 1336 4038 
Q 1056 3838 1056 3469 
Q 1056 3159 1242 3001 
Q 1428 2844 1947 2747 
L 2328 2669 
Q 3034 2534 3370 2195 
Q 3706 1856 3706 1288 
Q 3706 609 3251 259 
Q 2797 -91 1919 -91 
Q 1588 -91 1214 -16 
Q 841 59 441 206 
L 441 856 
Q 825 641 1194 531 
Q 1563 422 1919 422 
Q 2459 422 2753 634 
Q 3047 847 3047 1241 
Q 3047 1584 2836 1778 
Q 2625 1972 2144 2069 
L 1759 2144 
Q 1053 2284 737 2584 
Q 422 2884 422 3419 
Q 422 4038 858 4394 
Q 1294 4750 2059 4750 
Q 2388 4750 2728 4690 
Q 3069 4631 3425 4513 
z
" transform="scale(0.015625)"/>
      </defs>
      <use xlink:href="#DejaVuSans-53"/>
      <use xlink:href="#DejaVuSans-74" transform="translate(63.476562 0)"/>
      <use xlink:href="#DejaVuSans-61" transform="translate(102.685547 0)"/>
      <use xlink:href="#DejaVuSans-72" transform="translate(163.964844 0)"/>
      <use xlink:href="#DejaVuSans-74" transform="translate(205.078125 0)"/>
      <use xlink:href="#DejaVuSans-20" transform="translate(244.287109 0)"/>
      <use xlink:href="#DejaVuSans-49" transform="translate(276.074219 0)"/>
      <use xlink:href="#DejaVuSans-6e" transform="translate(305.566406 0)"/>
      <use xlink:href="#DejaVuSans-69" transform="translate(368.945312 0)"/>
      <use xlink:href="#DejaVuSans-74" transform="translate(396.728516 0)"/>
      <use xlink:href="#DejaVuSans-69" transform="translate(435.9375 0)"/>
      <use xlink:href="#DejaVuSans-61" transform="translate(463.720703 0)"/>
      <use xlink:href="#DejaVuSans-6c" transform="translate(525 0)"/>
      <use xlink:href="#DejaVuSans-20" transform="translate(552.783203 0)"/>
      <use xlink:href="#DejaVuSans-54" transform="translate(584.570312 0)"/>
      <use xlink:href="#DejaVuSans-72" transform="translate(630.904297 0)"/>
      <use xlink:href="#DejaVuSans-61" transform="translate(672.017578 0)"/>
      <use xlink:href="#DejaVuSans-6a" transform="translate(733.296875 0)"/>
      <use xlink:href="#DejaVuSans-65" transform="translate(761.080078 0)"/>
      <use xlink:href="#DejaVuSans-63" transform="translate(822.603516 0)"/>
      <use xlink:href="#DejaVuSans-74" transform="translate(877.583984 0)"/>
      <use xlink:href="#DejaVuSans-6f" transform="translate(916.792969 0)"/>
      <use xlink:href="#DejaVuSans-72" transform="translate(977.974609 0)"/>
      <use xlink:href="#DejaVuSans-79" transform="translate(1019.087891 0)"/>
      <use xlink:href="#DejaVuSans-20" transform="translate(1078.267578 0)"/>
      <use xlink:href="#DejaVuSans-45" transform="translate(1110.054688 0)"/>
      <use xlink:href="#DejaVuSans-73" transform="translate(1173.238281 0)"/>
      <use xlink:href="#DejaVuSans-74" transform="translate(1225.337891 0)"/>
      <use xlink:href="#DejaVuSans-69" transform="translate(1264.546875 0)"/>
      <use xlink:href="#DejaVuSans-6d" transform="translate(1292.330078 0)"/>
      <use xlink:href="#DejaVuSans-61" transform="translate(1389.742188 0)"/>
      <use xlink:href="#DejaVuSans-74" transform="translate(1451.021484 0)"/>
      <use xlink:href="#DejaVuSans-65" transform="translate(1490.230469 0)"/>
     </g>
    </g>
    <g id="PathCollection_4">
     <g>
      <use xlink:href="#mc193dc55d9" x="200.335625" y="264.523062" style="fill: #ff0000; stroke: #ff0000"/>
     </g>
    </g>
    <g id="text_15">
     <!-- Start Incremental Trajectory Estimate -->
     <g transform="translate(218.335625 267.148062) scale(0.1 -0.1)">
      <use xlink:href="#DejaVuSans-53"/>
      <use xlink:href="#DejaVuSans-74" transform="translate(63.476562 0)"/>
      <use xlink:href="#DejaVuSans-61" transform="translate(102.685547 0)"/>
      <use xlink:href="#DejaVuSans-72" transform="translate(163.964844 0)"/>
      <use xlink:href="#DejaVuSans-74" transform="translate(205.078125 0)"/>
      <use xlink:href="#DejaVuSans-20" transform="translate(244.287109 0)"/>
      <use xlink:href="#DejaVuSans-49" transform="translate(276.074219 0)"/>
      <use xlink:href="#DejaVuSans-6e" transform="translate(305.566406 0)"/>
      <use xlink:href="#DejaVuSans-63" transform="translate(368.945312 0)"/>
      <use xlink:href="#DejaVuSans-72" transform="translate(423.925781 0)"/>
      <use xlink:href="#DejaVuSans-65" transform="translate(462.789062 0)"/>
      <use xlink:href="#DejaVuSans-6d" transform="translate(524.3125 0)"/>
      <use xlink:href="#DejaVuSans-65" transform="translate(621.724609 0)"/>
      <use xlink:href="#DejaVuSans-6e" transform="translate(683.248047 0)"/>
      <use xlink:href="#DejaVuSans-74" transform="translate(746.626953 0)"/>
      <use xlink:href="#DejaVuSans-61" transform="translate(785.835938 0)"/>
      <use xlink:href="#DejaVuSans-6c" transform="translate(847.115234 0)"/>
      <use xlink:href="#DejaVuSans-20" transform="translate(874.898438 0)"/>
      <use xlink:href="#DejaVuSans-54" transform="translate(906.685547 0)"/>
      <use xlink:href="#DejaVuSans-72" transform="translate(953.019531 0)"/>
      <use xlink:href="#DejaVuSans-61" transform="translate(994.132812 0)"/>
      <use xlink:href="#DejaVuSans-6a" transform="translate(1055.412109 0)"/>
      <use xlink:href="#DejaVuSans-65" transform="translate(1083.195312 0)"/>
      <use xlink:href="#DejaVuSans-63" transform="translate(1144.71875 0)"/>
      <use xlink:href="#DejaVuSans-74" transform="translate(1199.699219 0)"/>
      <use xlink:href="#DejaVuSans-6f" transform="translate(1238.908203 0)"/>
      <use xlink:href="#DejaVuSans-72" transform="translate(1300.089844 0)"/>
      <use xlink:href="#DejaVuSans-79" transform="translate(1341.203125 0)"/>
      <use xlink:href="#DejaVuSans-20" transform="translate(1400.382812 0)"/>
      <use xlink:href="#DejaVuSans-45" transform="translate(1432.169922 0)"/>
      <use xlink:href="#DejaVuSans-73" transform="translate(1495.353516 0)"/>
      <use xlink:href="#DejaVuSans-74" transform="translate(1547.453125 0)"/>
      <use xlink:href="#DejaVuSans-69" transform="translate(1586.662109 0)"/>
      <use xlink:href="#DejaVuSans-6d" transform="translate(1614.445312 0)"/>
      <use xlink:href="#DejaVuSans-61" transform="translate(1711.857422 0)"/>
      <use xlink:href="#DejaVuSans-74" transform="translate(1773.136719 0)"/>
      <use xlink:href="#DejaVuSans-65" transform="translate(1812.345703 0)"/>
     </g>
    </g>
    <g id="line2d_13">
     <path d="M 190.335625 278.326187 
L 200.335625 278.326187 
L 210.335625 278.326187 
" style="fill: none; stroke: #0000ff; stroke-opacity: 0.7; stroke-width: 0.75; stroke-linecap: square"/>
    </g>
    <g id="text_16">
     <!-- Initial Trajectory Estimate -->
     <g transform="translate(218.335625 281.826187) scale(0.1 -0.1)">
      <use xlink:href="#DejaVuSans-49"/>
      <use xlink:href="#DejaVuSans-6e" transform="translate(29.492188 0)"/>
      <use xlink:href="#DejaVuSans-69" transform="translate(92.871094 0)"/>
      <use xlink:href="#DejaVuSans-74" transform="translate(120.654297 0)"/>
      <use xlink:href="#DejaVuSans-69" transform="translate(159.863281 0)"/>
      <use xlink:href="#DejaVuSans-61" transform="translate(187.646484 0)"/>
      <use xlink:href="#DejaVuSans-6c" transform="translate(248.925781 0)"/>
      <use xlink:href="#DejaVuSans-20" transform="translate(276.708984 0)"/>
      <use xlink:href="#DejaVuSans-54" transform="translate(308.496094 0)"/>
      <use xlink:href="#DejaVuSans-72" transform="translate(354.830078 0)"/>
      <use xlink:href="#DejaVuSans-61" transform="translate(395.943359 0)"/>
      <use xlink:href="#DejaVuSans-6a" transform="translate(457.222656 0)"/>
      <use xlink:href="#DejaVuSans-65" transform="translate(485.005859 0)"/>
      <use xlink:href="#DejaVuSans-63" transform="translate(546.529297 0)"/>
      <use xlink:href="#DejaVuSans-74" transform="translate(601.509766 0)"/>
      <use xlink:href="#DejaVuSans-6f" transform="translate(640.71875 0)"/>
      <use xlink:href="#DejaVuSans-72" transform="translate(701.900391 0)"/>
      <use xlink:href="#DejaVuSans-79" transform="translate(743.013672 0)"/>
      <use xlink:href="#DejaVuSans-20" transform="translate(802.193359 0)"/>
      <use xlink:href="#DejaVuSans-45" transform="translate(833.980469 0)"/>
      <use xlink:href="#DejaVuSans-73" transform="translate(897.164062 0)"/>
      <use xlink:href="#DejaVuSans-74" transform="translate(949.263672 0)"/>
      <use xlink:href="#DejaVuSans-69" transform="translate(988.472656 0)"/>
      <use xlink:href="#DejaVuSans-6d" transform="translate(1016.255859 0)"/>
      <use xlink:href="#DejaVuSans-61" transform="translate(1113.667969 0)"/>
      <use xlink:href="#DejaVuSans-74" transform="translate(1174.947266 0)"/>
      <use xlink:href="#DejaVuSans-65" transform="translate(1214.15625 0)"/>
     </g>
    </g>
    <g id="line2d_14">
     <path d="M 190.335625 293.004312 
L 200.335625 293.004312 
L 210.335625 293.004312 
" style="fill: none; stroke: #ff0000; stroke-opacity: 0.7; stroke-width: 0.75; stroke-linecap: square"/>
    </g>
    <g id="text_17">
     <!-- Incremental Trajectory Estimate -->
     <g transform="translate(218.335625 296.504312) scale(0.1 -0.1)">
      <use xlink:href="#DejaVuSans-49"/>
      <use xlink:href="#DejaVuSans-6e" transform="translate(29.492188 0)"/>
      <use xlink:href="#DejaVuSans-63" transform="translate(92.871094 0)"/>
      <use xlink:href="#DejaVuSans-72" transform="translate(147.851562 0)"/>
      <use xlink:href="#DejaVuSans-65" transform="translate(186.714844 0)"/>
      <use xlink:href="#DejaVuSans-6d" transform="translate(248.238281 0)"/>
      <use xlink:href="#DejaVuSans-65" transform="translate(345.650391 0)"/>
      <use xlink:href="#DejaVuSans-6e" transform="translate(407.173828 0)"/>
      <use xlink:href="#DejaVuSans-74" transform="translate(470.552734 0)"/>
      <use xlink:href="#DejaVuSans-61" transform="translate(509.761719 0)"/>
      <use xlink:href="#DejaVuSans-6c" transform="translate(571.041016 0)"/>
      <use xlink:href="#DejaVuSans-20" transform="translate(598.824219 0)"/>
      <use xlink:href="#DejaVuSans-54" transform="translate(630.611328 0)"/>
      <use xlink:href="#DejaVuSans-72" transform="translate(676.945312 0)"/>
      <use xlink:href="#DejaVuSans-61" transform="translate(718.058594 0)"/>
      <use xlink:href="#DejaVuSans-6a" transform="translate(779.337891 0)"/>
      <use xlink:href="#DejaVuSans-65" transform="translate(807.121094 0)"/>
      <use xlink:href="#DejaVuSans-63" transform="translate(868.644531 0)"/>
      <use xlink:href="#DejaVuSans-74" transform="translate(923.625 0)"/>
      <use xlink:href="#DejaVuSans-6f" transform="translate(962.833984 0)"/>
      <use xlink:href="#DejaVuSans-72" transform="translate(1024.015625 0)"/>
      <use xlink:href="#DejaVuSans-79" transform="translate(1065.128906 0)"/>
      <use xlink:href="#DejaVuSans-20" transform="translate(1124.308594 0)"/>
      <use xlink:href="#DejaVuSans-45" transform="translate(1156.095703 0)"/>
      <use xlink:href="#DejaVuSans-73" transform="translate(1219.279297 0)"/>
      <use xlink:href="#DejaVuSans-74" transform="translate(1271.378906 0)"/>
      <use xlink:href="#DejaVuSans-69" transform="translate(1310.587891 0)"/>
      <use xlink:href="#DejaVuSans-6d" transform="translate(1338.371094 0)"/>
      <use xlink:href="#DejaVuSans-61" transform="translate(1435.783203 0)"/>
      <use xlink:href="#DejaVuSans-74" transform="translate(1497.0625 0)"/>
      <use xlink:href="#DejaVuSans-65" transform="translate(1536.271484 0)"/>
     </g>
    </g>
   </g>
  </g>
 </g>
 <defs>
  <clipPath id="pfb2d78c9b3">
   <rect x="57.6" y="41.472" width="357.12" height="266.112"/>
  </clipPath>
 </defs>
</svg>
