<?xml version="1.0" encoding="utf-8" standalone="no"?>
<!DOCTYPE svg PUBLIC "-//W3C//DTD SVG 1.1//EN"
  "http://www.w3.org/Graphics/SVG/1.1/DTD/svg11.dtd">
<svg xmlns:xlink="http://www.w3.org/1999/xlink" width="460.8pt" height="345.6pt" viewBox="0 0 460.8 345.6" xmlns="http://www.w3.org/2000/svg" version="1.1">
 <metadata>
  <rdf:RDF xmlns:dc="http://purl.org/dc/elements/1.1/" xmlns:cc="http://creativecommons.org/ns#" xmlns:rdf="http://www.w3.org/1999/02/22-rdf-syntax-ns#">
   <cc:Work>
    <dc:type rdf:resource="http://purl.org/dc/dcmitype/StillImage"/>
    <dc:date>2025-11-07T13:58:18.854947</dc:date>
    <dc:format>image/svg+xml</dc:format>
    <dc:creator>
     <cc:Agent>
      <dc:title>Matplotlib v3.10.7, https://matplotlib.org/</dc:title>
     </cc:Agent>
    </dc:creator>
   </cc:Work>
  </rdf:RDF>
 </metadata>
 <defs>
  <style type="text/css">*{stroke-linejoin: round; stroke-linecap: butt}</style>
 </defs>
 <g id="figure_1">
  <g id="patch_1">
   <path d="M 0 345.6 
L 460.8 345.6 
L 460.8 0 
L 0 0 
z
" style="fill: #ffffff"/>
  </g>
  <g id="axes_1">
   <g id="patch_2">
    <path d="M 57.6 307.584 
L 414.72 307.584 
L 414.72 41.472 
L 57.6 41.472 
z
" style="fill: #ffffff"/>
   </g>
   <g id="matplotlib.axis_1">
    <g id="xtick_1">
     <g id="line2d_1">
      <defs>
       <path id="m7f1c0041e2" d="M 0 0 
L 0 3.5 
" style="stroke: #000000; stroke-width: 0.8"/>
      </defs>
      <g>
       <use xlink:href="#m7f1c0041e2" x="96.652133" y="307.584" style="stroke: #000000; stroke-width: 0.8"/>
      </g>
     </g>
     <g id="text_1">
      <!-- −10 -->
      <g transform="translate(86.09979 322.182437) scale(0.1 -0.1)">
       <defs>
        <path id="DejaVuSans-2212" d="M 678 2272 
L 4684 2272 
L 4684 1741 
L 678 1741 
L 678 2272 
z
" transform="scale(0.015625)"/>
        <path id="DejaVuSans-31" d="M 794 531 
L 1825 531 
L 1825 4091 
L 703 3866 
L 703 4441 
L 1819 4666 
L 2450 4666 
L 2450 531 
L 3481 531 
L 3481 0 
L 794 0 
L 794 531 
z
" transform="scale(0.015625)"/>
        <path id="DejaVuSans-30" d="M 2034 4250 
Q 1547 4250 1301 3770 
Q 1056 3291 1056 2328 
Q 1056 1369 1301 889 
Q 1547 409 2034 409 
Q 2525 409 2770 889 
Q 3016 1369 3016 2328 
Q 3016 3291 2770 3770 
Q 2525 4250 2034 4250 
z
M 2034 4750 
Q 2819 4750 3233 4129 
Q 3647 3509 3647 2328 
Q 3647 1150 3233 529 
Q 2819 -91 2034 -91 
Q 1250 -91 836 529 
Q 422 1150 422 2328 
Q 422 3509 836 4129 
Q 1250 4750 2034 4750 
z
" transform="scale(0.015625)"/>
       </defs>
       <use xlink:href="#DejaVuSans-2212"/>
       <use xlink:href="#DejaVuSans-31" transform="translate(83.789062 0)"/>
       <use xlink:href="#DejaVuSans-30" transform="translate(147.412109 0)"/>
      </g>
     </g>
    </g>
    <g id="xtick_2">
     <g id="line2d_2">
      <g>
       <use xlink:href="#m7f1c0041e2" x="168.749457" y="307.584" style="stroke: #000000; stroke-width: 0.8"/>
      </g>
     </g>
     <g id="text_2">
      <!-- 0 -->
      <g transform="translate(165.568207 322.182437) scale(0.1 -0.1)">
       <use xlink:href="#DejaVuSans-30"/>
      </g>
     </g>
    </g>
    <g id="xtick_3">
     <g id="line2d_3">
      <g>
       <use xlink:href="#m7f1c0041e2" x="240.846781" y="307.584" style="stroke: #000000; stroke-width: 0.8"/>
      </g>
     </g>
     <g id="text_3">
      <!-- 10 -->
      <g transform="translate(234.484281 322.182437) scale(0.1 -0.1)">
       <use xlink:href="#DejaVuSans-31"/>
       <use xlink:href="#DejaVuSans-30" transform="translate(63.623047 0)"/>
      </g>
     </g>
    </g>
    <g id="xtick_4">
     <g id="line2d_4">
      <g>
       <use xlink:href="#m7f1c0041e2" x="312.944105" y="307.584" style="stroke: #000000; stroke-width: 0.8"/>
      </g>
     </g>
     <g id="text_4">
      <!-- 20 -->
      <g transform="translate(306.581605 322.182437) scale(0.1 -0.1)">
       <defs>
        <path id="DejaVuSans-32" d="M 1228 531 
L 3431 531 
L 3431 0 
L 469 0 
L 469 531 
Q 828 903 1448 1529 
Q 2069 2156 2228 2338 
Q 2531 2678 2651 2914 
Q 2772 3150 2772 3378 
Q 2772 3750 2511 3984 
Q 2250 4219 1831 4219 
Q 1534 4219 1204 4116 
Q 875 4013 500 3803 
L 500 4441 
Q 881 4594 1212 4672 
Q 1544 4750 1819 4750 
Q 2544 4750 2975 4387 
Q 3406 4025 3406 3419 
Q 3406 3131 3298 2873 
Q 3191 2616 2906 2266 
Q 2828 2175 2409 1742 
Q 1991 1309 1228 531 
z
" transform="scale(0.015625)"/>
       </defs>
       <use xlink:href="#DejaVuSans-32"/>
       <use xlink:href="#DejaVuSans-30" transform="translate(63.623047 0)"/>
      </g>
     </g>
    </g>
    <g id="xtick_5">
     <g id="line2d_5">
      <g>
       <use xlink:href="#m7f1c0041e2" x="385.041429" y="307.584" style="stroke: #000000; stroke-width: 0.8"/>
      </g>
     </g>
     <g id="text_5">
      <!-- 30 -->
      <g transform="translate(378.678929 322.182437) scale(0.1 -0.1)">
       <defs>
        <path id="DejaVuSans-33" d="M 2597 2516 
Q 3050 2419 3304 2112 
Q 3559 1806 3559 1356 
Q 3559 666 3084 287 
Q 2609 -91 1734 -91 
Q 1441 -91 1130 -33 
Q 819 25 488 141 
L 488 750 
Q 750 597 1062 519 
Q 1375 441 1716 441 
Q 2309 441 2620 675 
Q 2931 909 2931 1356 
Q 2931 1769 2642 2001 
Q 2353 2234 1838 2234 
L 1294 2234 
L 1294 2753 
L 1863 2753 
Q 2328 2753 2575 2939 
Q 2822 3125 2822 3475 
Q 2822 3834 2567 4026 
Q 2313 4219 1838 4219 
Q 1578 4219 1281 4162 
Q 984 4106 628 3988 
L 628 4550 
Q 988 4650 1302 4700 
Q 1616 4750 1894 4750 
Q 2613 4750 3031 4423 
Q 3450 4097 3450 3541 
Q 3450 3153 3228 2886 
Q 3006 2619 2597 2516 
z
" transform="scale(0.015625)"/>
       </defs>
       <use xlink:href="#DejaVuSans-33"/>
       <use xlink:href="#DejaVuSans-30" transform="translate(63.623047 0)"/>
      </g>
     </g>
    </g>
    <g id="text_6">
     <!-- X-axis -->
     <g transform="translate(221.163906 335.860562) scale(0.1 -0.1)">
      <defs>
       <path id="DejaVuSans-58" d="M 403 4666 
L 1081 4666 
L 2241 2931 
L 3406 4666 
L 4084 4666 
L 2584 2425 
L 4184 0 
L 3506 0 
L 2194 1984 
L 872 0 
L 191 0 
L 1856 2491 
L 403 4666 
z
" transform="scale(0.015625)"/>
       <path id="DejaVuSans-2d" d="M 313 2009 
L 1997 2009 
L 1997 1497 
L 313 1497 
L 313 2009 
z
" transform="scale(0.015625)"/>
       <path id="DejaVuSans-61" d="M 2194 1759 
Q 1497 1759 1228 1600 
Q 959 1441 959 1056 
Q 959 750 1161 570 
Q 1363 391 1709 391 
Q 2188 391 2477 730 
Q 2766 1069 2766 1631 
L 2766 1759 
L 2194 1759 
z
M 3341 1997 
L 3341 0 
L 2766 0 
L 2766 531 
Q 2569 213 2275 61 
Q 1981 -91 1556 -91 
Q 1019 -91 701 211 
Q 384 513 384 1019 
Q 384 1609 779 1909 
Q 1175 2209 1959 2209 
L 2766 2209 
L 2766 2266 
Q 2766 2663 2505 2880 
Q 2244 3097 1772 3097 
Q 1472 3097 1187 3025 
Q 903 2953 641 2809 
L 641 3341 
Q 956 3463 1253 3523 
Q 1550 3584 1831 3584 
Q 2591 3584 2966 3190 
Q 3341 2797 3341 1997 
z
" transform="scale(0.015625)"/>
       <path id="DejaVuSans-78" d="M 3513 3500 
L 2247 1797 
L 3578 0 
L 2900 0 
L 1881 1375 
L 863 0 
L 184 0 
L 1544 1831 
L 300 3500 
L 978 3500 
L 1906 2253 
L 2834 3500 
L 3513 3500 
z
" transform="scale(0.015625)"/>
       <path id="DejaVuSans-69" d="M 603 3500 
L 1178 3500 
L 1178 0 
L 603 0 
L 603 3500 
z
M 603 4863 
L 1178 4863 
L 1178 4134 
L 603 4134 
L 603 4863 
z
" transform="scale(0.015625)"/>
       <path id="DejaVuSans-73" d="M 2834 3397 
L 2834 2853 
Q 2591 2978 2328 3040 
Q 2066 3103 1784 3103 
Q 1356 3103 1142 2972 
Q 928 2841 928 2578 
Q 928 2378 1081 2264 
Q 1234 2150 1697 2047 
L 1894 2003 
Q 2506 1872 2764 1633 
Q 3022 1394 3022 966 
Q 3022 478 2636 193 
Q 2250 -91 1575 -91 
Q 1294 -91 989 -36 
Q 684 19 347 128 
L 347 722 
Q 666 556 975 473 
Q 1284 391 1588 391 
Q 1994 391 2212 530 
Q 2431 669 2431 922 
Q 2431 1156 2273 1281 
Q 2116 1406 1581 1522 
L 1381 1569 
Q 847 1681 609 1914 
Q 372 2147 372 2553 
Q 372 3047 722 3315 
Q 1072 3584 1716 3584 
Q 2034 3584 2315 3537 
Q 2597 3491 2834 3397 
z
" transform="scale(0.015625)"/>
      </defs>
      <use xlink:href="#DejaVuSans-58"/>
      <use xlink:href="#DejaVuSans-2d" transform="translate(63.505859 0)"/>
      <use xlink:href="#DejaVuSans-61" transform="translate(99.589844 0)"/>
      <use xlink:href="#DejaVuSans-78" transform="translate(160.869141 0)"/>
      <use xlink:href="#DejaVuSans-69" transform="translate(220.048828 0)"/>
      <use xlink:href="#DejaVuSans-73" transform="translate(247.832031 0)"/>
     </g>
    </g>
   </g>
   <g id="matplotlib.axis_2">
    <g id="ytick_1">
     <g id="line2d_6">
      <defs>
       <path id="m32cf414bbb" d="M 0 0 
L -3.5 0 
" style="stroke: #000000; stroke-width: 0.8"/>
      </defs>
      <g>
       <use xlink:href="#m32cf414bbb" x="57.6" y="283.508982" style="stroke: #000000; stroke-width: 0.8"/>
      </g>
     </g>
     <g id="text_7">
      <!-- −40 -->
      <g transform="translate(29.495313 287.308201) scale(0.1 -0.1)">
       <defs>
        <path id="DejaVuSans-34" d="M 2419 4116 
L 825 1625 
L 2419 1625 
L 2419 4116 
z
M 2253 4666 
L 3047 4666 
L 3047 1625 
L 3713 1625 
L 3713 1100 
L 3047 1100 
L 3047 0 
L 2419 0 
L 2419 1100 
L 313 1100 
L 313 1709 
L 2253 4666 
z
" transform="scale(0.015625)"/>
       </defs>
       <use xlink:href="#DejaVuSans-2212"/>
       <use xlink:href="#DejaVuSans-34" transform="translate(83.789062 0)"/>
       <use xlink:href="#DejaVuSans-30" transform="translate(147.412109 0)"/>
      </g>
     </g>
    </g>
    <g id="ytick_2">
     <g id="line2d_7">
      <g>
       <use xlink:href="#m32cf414bbb" x="57.6" y="231.734533" style="stroke: #000000; stroke-width: 0.8"/>
      </g>
     </g>
     <g id="text_8">
      <!-- −30 -->
      <g transform="translate(29.495313 235.533751) scale(0.1 -0.1)">
       <use xlink:href="#DejaVuSans-2212"/>
       <use xlink:href="#DejaVuSans-33" transform="translate(83.789062 0)"/>
       <use xlink:href="#DejaVuSans-30" transform="translate(147.412109 0)"/>
      </g>
     </g>
    </g>
    <g id="ytick_3">
     <g id="line2d_8">
      <g>
       <use xlink:href="#m32cf414bbb" x="57.6" y="179.960083" style="stroke: #000000; stroke-width: 0.8"/>
      </g>
     </g>
     <g id="text_9">
      <!-- −20 -->
      <g transform="translate(29.495313 183.759302) scale(0.1 -0.1)">
       <use xlink:href="#DejaVuSans-2212"/>
       <use xlink:href="#DejaVuSans-32" transform="translate(83.789062 0)"/>
       <use xlink:href="#DejaVuSans-30" transform="translate(147.412109 0)"/>
      </g>
     </g>
    </g>
    <g id="ytick_4">
     <g id="line2d_9">
      <g>
       <use xlink:href="#m32cf414bbb" x="57.6" y="128.185634" style="stroke: #000000; stroke-width: 0.8"/>
      </g>
     </g>
     <g id="text_10">
      <!-- −10 -->
      <g transform="translate(29.495313 131.984852) scale(0.1 -0.1)">
       <use xlink:href="#DejaVuSans-2212"/>
       <use xlink:href="#DejaVuSans-31" transform="translate(83.789062 0)"/>
       <use xlink:href="#DejaVuSans-30" transform="translate(147.412109 0)"/>
      </g>
     </g>
    </g>
    <g id="ytick_5">
     <g id="line2d_10">
      <g>
       <use xlink:href="#m32cf414bbb" x="57.6" y="76.411184" style="stroke: #000000; stroke-width: 0.8"/>
      </g>
     </g>
     <g id="text_11">
      <!-- 0 -->
      <g transform="translate(44.2375 80.210403) scale(0.1 -0.1)">
       <use xlink:href="#DejaVuSans-30"/>
      </g>
     </g>
    </g>
    <g id="text_12">
     <!-- Y-axis -->
     <g transform="translate(23.415625 188.80925) rotate(-90) scale(0.1 -0.1)">
      <defs>
       <path id="DejaVuSans-59" d="M -13 4666 
L 666 4666 
L 1959 2747 
L 3244 4666 
L 3922 4666 
L 2272 2222 
L 2272 0 
L 1638 0 
L 1638 2222 
L -13 4666 
z
" transform="scale(0.015625)"/>
      </defs>
      <use xlink:href="#DejaVuSans-59"/>
      <use xlink:href="#DejaVuSans-2d" transform="translate(49.208984 0)"/>
      <use xlink:href="#DejaVuSans-61" transform="translate(85.292969 0)"/>
      <use xlink:href="#DejaVuSans-78" transform="translate(146.572266 0)"/>
      <use xlink:href="#DejaVuSans-69" transform="translate(205.751953 0)"/>
      <use xlink:href="#DejaVuSans-73" transform="translate(233.535156 0)"/>
     </g>
    </g>
   </g>
   <g id="line2d_11">
    <path d="M 168.749457 76.411184 
L 168.828779 76.416232 
L 173.798209 76.491098 
L 173.752694 76.389372 
L 173.912448 76.198277 
L 174.075669 76.105353 
L 174.290656 76.026205 
L 176.409747 76.337913 
L 185.238122 77.946193 
L 194.17977 80.004253 
L 203.204877 81.548965 
L 207.854887 81.743979 
L 221.493552 82.748786 
L 232.868938 83.75292 
L 239.411388 89.701064 
L 245.683394 94.599414 
L 251.123858 98.758419 
L 255.098447 108.164962 
L 257.236947 114.670488 
L 258.014272 117.951989 
L 259.136236 124.565181 
L 259.80483 131.23257 
L 259.689222 137.592192 
L 258.85179 143.786078 
L 257.507853 150.106299 
L 256.735272 153.433641 
L 254.766965 163.330026 
L 252.736582 172.750921 
L 251.373409 179.176327 
L 249.872912 184.992917 
L 249.861095 184.973356 
L 249.697232 184.890761 
L 238.309482 185.273286 
L 233.699427 185.167578 
L 224.482325 184.561268 
L 219.908125 184.02475 
L 210.211222 182.61676 
L 203.300831 181.177337 
L 189.381037 181.96727 
L 184.762352 181.719679 
L 180.183797 181.2991 
L 175.531386 181.144512 
L 166.485472 181.096688 
L 156.862087 180.444309 
L 152.665748 180.080619 
L 148.047763 179.986504 
L 143.396556 179.730707 
L 138.813041 179.329206 
L 129.521556 179.100798 
L 117.175927 178.818715 
L 117.095373 178.768903 
L 117.02595 178.213394 
L 116.828699 174.785299 
L 115.745898 168.166506 
L 114.841834 164.897006 
L 113.55463 161.053447 
L 112.173389 157.751433 
L 112.466386 151.863301 
L 112.176454 148.715534 
L 111.468631 144.471142 
L 113.504515 140.190674 
L 114.415977 136.961103 
L 115.059856 133.701285 
L 116.919354 120.48332 
L 117.057615 117.16363 
L 117.87866 111.018453 
L 120.728335 98.246189 
L 121.162231 95.026646 
L 121.289635 91.663176 
L 121.896636 85.063249 
L 123.305577 79.885302 
L 123.71545 79.927456 
L 135.907843 81.708311 
L 145.086669 82.621105 
L 170.14767 84.983532 
L 183.881244 85.480364 
L 192.672734 86.0581 
L 231.060298 90.23067 
L 234.408937 91.828378 
L 237.612063 93.711938 
L 240.511976 96.04653 
L 243.232323 98.708669 
L 245.55447 101.543828 
L 247.403737 104.605323 
L 252.368662 113.736208 
L 255.157653 120.069445 
L 257.447789 126.173855 
L 258.344146 129.274368 
L 259.825234 135.671406 
L 260.713898 142.263966 
L 260.707871 145.565504 
L 260.555017 148.861543 
L 259.87382 155.123357 
L 259.275996 159.284179 
L 258.548852 162.350816 
L 256.523659 168.363378 
L 253.607409 177.937462 
L 250.904142 187.691877 
L 248.47736 194.116134 
L 247.700021 195.98499 
L 247.709069 195.981619 
L 225.138577 195.333657 
L 206.702779 195.929104 
L 202.352643 195.749488 
L 198.01498 195.333372 
L 195.347681 195.221389 
L 196.290001 195.257486 
L 189.479752 193.24478 
L 183.022226 191.637965 
L 175.701218 192.085002 
L 171.084682 192.61002 
L 166.458269 192.87743 
L 157.902062 192.104997 
L 153.484204 191.99873 
L 148.821577 191.764005 
L 139.613984 191.633456 
L 130.356061 190.982113 
L 126.283247 191.026147 
L 126.485833 191.046763 
L 123.974568 189.218582 
L 118.484169 184.551136 
L 115.566369 181.875795 
L 115.144196 178.996436 
L 114.488002 175.768936 
L 112.421246 169.385297 
L 112.882964 166.006988 
L 113.20237 162.795616 
L 113.333399 159.642935 
L 113.135853 156.475669 
L 114.022996 149.569584 
L 116.220479 143.138783 
L 116.975324 139.877262 
L 118.884569 133.353614 
L 119.094069 130.044606 
L 118.894612 126.728789 
L 119.68477 120.410603 
L 119.686579 117.388668 
L 121.158331 110.832889 
L 122.10977 107.59683 
L 123.218043 104.366721 
L 124.524901 101.189913 
L 125.597608 97.955532 
L 126.837488 94.792372 
L 128.793841 88.145993 
L 128.935361 88.107208 
L 141.370225 89.570008 
L 150.383169 91.03363 
L 154.831977 91.931663 
L 163.428112 94.421698 
L 171.78244 96.995007 
L 180.06971 98.838395 
L 185.884727 100.366575 
L 190.402144 101.006673 
L 194.960598 101.45242 
L 204.061804 102.779207 
L 208.624497 103.450717 
L 215.27195 104.216476 
L 215.433873 103.058598 
L 215.717396 96.497941 
L 215.725211 93.186965 
L 215.573771 89.886795 
L 215.147402 86.599221 
L 214.733217 84.812376 
L 214.834398 84.95502 
L 215.006163 85.154481 
L 214.527156 91.84535 
L 213.546791 98.438815 
L 212.6699 102.632308 
L 213.038634 102.612468 
L 213.997522 102.823858 
L 218.574555 103.661625 
L 227.679099 104.186923 
L 229.638329 104.257632 
L 230.907927 107.635195 
L 233.132267 114.718882 
L 233.467606 116.126603 
L 233.520857 115.907934 
L 233.672348 115.858748 
L 234.286278 113.030429 
L 232.506051 109.998466 
L 233.15435 109.192721 
L 238.361075 103.889521 
L 249.542209 108.558763 
L 252.38691 109.896258 
L 256.039057 107.207409 
L 258.94494 104.607596 
L 261.521453 101.847542 
L 262.392692 100.772233 
L 262.349772 100.839695 
L 263.279121 101.472084 
L 267.031916 103.289227 
L 271.043289 104.884232 
L 275.312143 106.794057 
L 274.30707 106.886215 
L 274.199494 106.719233 
L 275.528939 105.88658 
L 275.502494 105.907124 
L 275.182151 106.517675 
L 272.408106 112.911964 
L 270.041843 115.760532 
L 267.368416 118.417369 
L 264.671955 120.817845 
L 264.655992 120.789881 
L 271.8122 124.98357 
L 271.811832 124.978409 
L 269.466542 127.309605 
L 260.950024 135.063543 
L 259.726706 136.382943 
L 255.075693 138.133431 
L 255.3837 137.819362 
L 255.418689 137.706841 
L 255.41375 137.713246 
L 263.920903 134.413132 
L 266.172415 133.672969 
L 266.102142 133.714544 
L 269.978455 139.030356 
L 271.828559 142.021563 
L 275.276613 147.216808 
L 275.318141 147.140555 
L 275.589674 146.879891 
L 275.588038 146.723408 
L 274.492872 143.490699 
L 273.252315 140.230587 
L 270.573337 134.734957 
L 270.572847 134.742267 
L 272.24996 134.038073 
L 276.068191 132.58773 
L 280.171856 131.151652 
L 282.62881 130.456984 
L 282.600721 130.432836 
L 283.814869 132.475183 
L 285.403966 135.640911 
L 286.522534 138.359665 
L 288.472082 138.099602 
L 292.722846 137.358487 
L 296.845523 136.769185 
L 305.80456 135.859156 
L 314.025774 135.656335 
L 314.201475 135.776757 
L 314.173545 135.818787 
L 314.20857 135.899602 
L 314.112529 135.827584 
L 314.112529 135.827584 
L 310.795389 136.015851 
L 306.287193 136.434945 
L 301.692388 136.744799 
L 292.55708 137.707613 
L 289.091542 138.255412 
L 289.704376 139.448078 
L 291.127902 142.504148 
L 292.399591 145.651547 
L 293.853563 148.783301 
L 295.508261 151.883814 
L 297.423707 154.899049 
L 298.91703 158.011688 
L 300.006118 161.228936 
L 304.641594 166.558174 
L 307.045578 169.853074 
L 308.49547 172.047234 
L 314.548004 170.393371 
L 319.021232 169.667752 
L 330.80789 168.431337 
L 330.825619 168.448443 
L 330.818121 168.399869 
L 330.830896 168.407076 
L 325.660343 169.578612 
L 321.239191 170.479627 
L 307.562357 174.22072 
L 312.962 182.007343 
L 316.415829 187.614625 
L 317.998178 190.68691 
L 320.5056 197.015234 
L 321.498799 200.267544 
L 322.581102 204.618167 
L 322.581102 204.618167 
L 329.076718 202.65693 
L 333.012958 201.644765 
L 337.403094 200.64206 
L 341.874245 199.877004 
L 346.227835 199.00024 
L 351.220236 197.294277 
L 351.661082 197.482012 
L 351.592618 197.570147 
L 351.71602 197.775795 
L 350.708835 198.046907 
L 341.735674 199.949375 
L 337.430094 201.217445 
L 329.238677 204.171633 
L 328.06114 204.918733 
L 316.783216 210.170656 
L 316.789964 210.16523 
L 322.149895 215.117792 
L 326.277503 219.289249 
L 326.212414 219.549374 
L 326.47833 219.958185 
L 326.602965 219.907628 
L 326.540904 219.89499 
L 326.399441 219.850753 
L 322.309 218.21043 
L 318.112827 216.748682 
L 313.850852 215.461098 
L 307.250717 213.797709 
L 303.69311 215.652172 
L 300.435061 217.776964 
L 291.370192 225.226344 
L 288.611424 227.913889 
L 282.621773 234.744984 
L 285.505969 236.896849 
L 288.691315 238.809081 
L 295.199476 243.207321 
L 297.143422 244.69902 
L 297.329606 244.54511 
L 295.697589 244.028003 
L 291.653354 242.609616 
L 287.791411 240.855912 
L 283.744646 239.314809 
L 277.910574 236.755722 
L 277.775348 236.775189 
L 271.946697 240.751503 
L 272.127633 240.674292 
L 279.142299 243.671898 
L 282.377097 245.95292 
L 288.440654 250.667465 
L 291.315427 253.067682 
L 289.789516 251.613115 
L 288.557041 250.360261 
L 286.623427 249.060836 
L 280.397967 244.136569 
L 277.229384 241.95265 
L 274.328267 240.211242 
L 273.936547 240.600006 
L 271.604884 243.526935 
L 269.151729 246.334021 
L 266.476068 249.005226 
L 263.540459 251.5164 
L 261.432478 253.071617 
L 255.162267 257.984261 
L 252.040886 260.362588 
L 248.865381 262.5377 
L 246.105127 264.270161 
L 247.117194 265.136611 
L 250.811107 267.032266 
L 255.114683 268.088537 
L 259.679006 268.257441 
L 263.957946 268.595668 
L 268.815179 270.668473 
L 268.765547 270.575859 
L 258.688865 268.030151 
L 254.142278 267.456127 
L 249.531257 267.299939 
L 245.916802 266.990406 
L 243.277636 270.918549 
L 241.821725 274.010519 
L 242.076596 274.104873 
L 254.119329 277.755536 
L 258.405825 278.962429 
L 264.513506 281.134487 
L 260.813602 279.760289 
L 259.189811 278.938898 
L 259.323956 278.892461 
L 254.253791 277.110188 
L 251.219697 276.475154 
L 242.230019 275.90754 
L 240.01188 275.876263 
L 240.08118 278.181971 
L 239.853309 280.685302 
L 239.321685 283.945109 
L 238.553084 287.180738 
L 238.003659 290.272625 
L 237.586519 295.488 
L 237.493109 295.358885 
L 237.408914 295.309927 
L 236.891746 293.292225 
L 236.314693 289.97326 
L 235.268799 286.758207 
L 233.991573 283.891424 
L 232.341813 277.788842 
L 228.978228 268.788004 
L 228.953845 268.800156 
L 228.383497 268.899283 
L 228.384189 268.871392 
L 227.019574 271.243786 
L 219.949804 279.347921 
L 217.290048 282.009262 
L 210.868685 287.720036 
L 204.945955 292.949633 
L 205.100582 292.950151 
L 206.139829 291.462314 
L 211.595066 282.36982 
L 214.680723 275.528867 
L 214.670478 275.529519 
L 206.786426 273.49643 
L 204.639678 276.187184 
L 202.062156 278.861303 
L 200.058138 281.218377 
L 200.010713 281.16843 
L 201.726189 278.747327 
L 204.366646 276.039451 
L 207.290798 273.423433 
L 207.265506 273.399301 
L 201.14533 271.94316 
L 196.849 270.777609 
L 188.488133 268.083075 
L 184.428015 266.585582 
L 180.516346 264.875741 
L 176.577186 263.654076 
L 173.034288 262.338461 
L 168.940558 261.006574 
L 165.39802 265.852554 
L 165.486022 265.83815 
L 166.281241 262.66099 
L 167.383451 259.071473 
L 163.460542 258.005235 
L 159.633205 257.163274 
L 158.915411 258.240384 
L 157.154196 261.271602 
L 153.987963 267.430794 
L 153.281683 268.548926 
L 151.177472 268.708764 
L 144.965141 268.954444 
L 145.043316 268.904497 
L 148.484428 268.111447 
L 152.750412 266.999 
L 154.76448 266.222461 
L 156.645232 263.335052 
L 158.441883 260.294551 
L 158.525444 260.58106 
L 152.976084 257.873868 
L 148.986182 256.249848 
L 144.902943 254.767194 
L 140.614623 253.563593 
L 136.264717 252.572987 
L 127.922394 249.843588 
L 123.605473 248.713797 
L 118.088095 247.557198 
L 116.253651 250.344967 
L 111.318575 255.771887 
L 111.453916 255.845345 
L 111.522552 255.652459 
L 112.262862 254.637747 
L 118.859565 246.823906 
L 118.71956 246.781016 
L 114.508377 245.533469 
L 110.487473 243.898453 
L 93.629857 239.027171 
L 89.588924 237.762746 
L 80.373041 234.662424 
L 80.424972 234.744839 
L 80.662057 234.696973 
L 80.88522 234.629806 
L 86.372605 236.225267 
L 94.827119 238.712154 
L 99.082253 239.962818 
L 104.309705 241.627247 
L 104.970009 239.760566 
L 106.235014 236.555692 
L 107.734876 233.417414 
L 109.048497 230.399068 
L 110.521589 227.456829 
L 111.8835 224.448666 
L 115.143064 218.275071 
L 118.454862 212.833881 
L 117.773996 212.659324 
L 108.775464 210.946817 
L 104.625823 209.95181 
L 95.113389 208.326885 
L 95.106857 208.407549 
L 95.182473 208.325461 
L 95.362485 208.246784 
L 99.363685 209.119997 
L 104.748886 210.504627 
L 109.413965 210.207612 
L 112.696816 210.173529 
L 112.384252 210.161978 
L 117.026159 210.651164 
L 121.322922 211.955119 
L 123.855074 212.854519 
L 123.882103 212.806218 
L 123.804281 212.80307 
L 120.886957 217.451401 
L 118.686056 220.349077 
L 116.676689 223.353228 
L 116.068209 226.658716 
L 116.71131 229.964007 
L 127.045157 234.404323 
L 131.160501 236.353378 
L 141.238207 241.59421 
L 149.719563 240.818334 
L 163.167978 239.032907 
L 164.271399 239.122985 
L 168.644974 239.683189 
L 185.609683 241.275316 
L 187.012337 240.908401 
L 191.334225 239.966592 
L 199.61412 239.746587 
L 208.727373 239.922341 
L 213.292612 240.188611 
L 221.502932 240.978022 
L 233.986094 237.360225 
L 242.616396 235.056764 
L 247.049653 234.22041 
L 251.573176 233.570615 
L 259.744932 232.839891 
L 258.919172 230.042745 
L 258.329611 226.943263 
L 258.02368 223.672723 
L 257.847676 220.377802 
L 258.172057 214.232444 
L 258.389589 210.901322 
L 258.2152 207.595125 
L 258.426135 203.375482 
L 256.030564 198.439383 
L 255.009652 195.384732 
L 254.471849 192.109517 
L 255.504643 185.545609 
L 254.98392 182.27423 
L 254.331346 179.034133 
L 254.11855 175.726704 
L 254.234771 172.449454 
L 254.549476 169.162066 
L 255.127221 166.030276 
L 255.864048 162.944638 
L 256.978255 156.72939 
L 257.167618 153.449934 
L 256.979098 150.172555 
L 256.456284 146.881144 
L 255.960997 141.413861 
L 255.954083 141.415321 
L 249.159221 142.768456 
L 244.778183 142.99981 
L 240.192714 142.948196 
L 221.828113 143.420183 
L 212.646187 143.851531 
L 208.088367 144.138444 
L 195.264784 145.389553 
L 190.938058 145.961133 
L 181.955113 147.390827 
L 168.485898 149.311913 
L 155.130734 151.182586 
L 146.701786 152.413171 
L 138.005111 153.93926 
L 135.175976 154.41384 
L 132.950339 157.300975 
L 130.407653 160.068624 
L 127.288983 162.451471 
L 123.965087 164.748444 
L 120.483716 166.879243 
L 117.358636 169.048804 
L 114.435414 171.40916 
L 111.943312 173.796718 
L 110.783879 175.088128 
L 110.970381 179.344842 
L 111.335907 182.594812 
L 111.501024 185.856981 
L 112.143195 189.13976 
L 112.679145 195.693277 
L 113.09028 199.728536 
L 113.561277 202.835371 
L 113.647354 205.827131 
L 114.754755 215.561561 
L 114.787054 215.985475 
L 115.326667 219.303461 
L 116.376425 223.554175 
L 126.217191 223.239013 
L 135.388684 223.646002 
L 141.182952 224.068222 
L 140.580961 226.062383 
L 140.37712 229.428794 
L 139.869375 232.977135 
L 139.965603 232.911951 
L 140.267792 233.072011 
L 140.188448 231.184657 
L 139.870326 227.833276 
L 138.450521 218.054506 
L 138.157481 215.961944 
L 138.205606 215.959593 
L 138.278201 215.779195 
L 142.429976 215.241435 
L 150.379535 214.549096 
L 150.367077 214.541703 
L 150.762264 216.133208 
L 153.061022 222.245871 
L 153.187142 222.266104 
L 159.179756 225.905258 
L 159.173404 225.894835 
L 161.461982 232.082276 
L 161.606336 232.090953 
L 170.562828 231.864657 
L 170.555647 231.865046 
L 175.281936 233.861769 
L 175.074743 233.773783 
L 161.733566 232.421507 
L 159.673832 229.952855 
L 157.465173 227.056872 
L 155.558005 224.310465 
L 155.686821 224.128643 
L 158.278352 223.728556 
L 162.936748 223.151799 
L 167.395736 222.81643 
L 168.979895 221.932273 
L 177.946228 220.400282 
L 186.068446 219.271765 
L 190.076848 217.766972 
L 194.467676 216.625997 
L 198.693098 215.674036 
L 202.699381 215.346097 
L 206.619399 214.276784 
L 210.726581 212.761915 
L 218.661476 210.262529 
L 223.562241 208.628419 
L 223.543899 208.620202 
L 227.573073 211.729439 
L 227.8879 214.763898 
L 228.597093 217.725392 
L 229.660081 221.457346 
L 229.659923 221.391307 
L 227.722783 218.708469 
L 226.576666 214.780026 
L 226.480027 211.465907 
L 226.723889 207.016442 
L 226.752612 207.01843 
L 228.953794 206.743555 
L 237.432843 206.090653 
L 237.432685 206.095307 
L 238.015952 208.105632 
L 241.216222 217.429853 
L 242.118549 220.518188 
L 244.787671 226.956056 
L 244.73287 226.794696 
L 228.54395 235.037364 
L 224.744911 236.546605 
L 220.576669 237.937096 
L 211.611093 239.518096 
L 202.723685 241.459923 
L 199.115524 242.438284 
L 203.569675 241.193538 
L 211.872691 238.648503 
L 220.521983 236.358177 
L 229.379997 234.582257 
L 238.304803 233.11312 
L 244.708126 232.112367 
L 243.632968 228.631938 
L 241.029418 222.279146 
L 237.999961 215.934814 
L 234.316912 208.266381 
L 234.321736 208.272692 
L 233.694914 208.469161 
L 229.756634 209.912109 
L 221.72257 212.520366 
L 217.634067 214.023384 
L 213.308624 215.036998 
L 209.004133 216.23495 
L 205.054562 217.816799 
L 200.765658 219.080495 
L 196.637805 220.471343 
L 192.596534 222.035936 
L 188.824662 223.617319 
L 180.592784 225.342542 
L 176.467649 226.351864 
L 172.052214 227.160229 
L 167.617003 228.113702 
L 154.603234 231.187504 
L 150.216451 232.10969 
L 140.881808 234.659069 
L 136.575789 235.292333 
L 128.74935 237.692928 
L 124.91657 239.021496 
L 120.584523 240.318964 
L 116.708578 241.641579 
L 116.651729 241.593646 
L 113.83984 235.099934 
L 113.83984 235.099934 
" clip-path="url(#pd70a51fed7)" style="fill: none; stroke: #0000ff; stroke-opacity: 0.7; stroke-width: 0.75; stroke-linecap: square"/>
   </g>
   <g id="line2d_12">
    <path d="M 168.749457 76.411184 
L 173.797556 76.467042 
L 173.752046 76.36532 
L 173.911803 76.174222 
L 174.075037 76.081308 
L 174.290039 76.002157 
L 176.40915 76.313869 
L 185.237547 77.922153 
L 194.039563 79.95869 
L 202.697706 81.547764 
L 207.120563 81.826796 
L 215.940797 82.676431 
L 231.12551 84.694028 
L 231.109487 84.691063 
L 231.913161 85.519685 
L 237.121153 91.110653 
L 245.496775 98.988909 
L 247.345279 100.699201 
L 247.395129 100.983905 
L 248.812506 107.786181 
L 249.315574 111.078454 
L 249.64283 114.554175 
L 249.815887 118.037489 
L 249.739273 121.316457 
L 249.122749 127.889981 
L 248.01443 134.479194 
L 246.221284 140.680984 
L 243.808051 146.5734 
L 240.891701 152.388897 
L 239.277372 155.501897 
L 234.764251 164.81618 
L 229.904782 173.563893 
L 226.661383 179.493863 
L 224.863806 182.543987 
L 223.670063 184.823566 
L 223.817283 184.779422 
L 223.953303 184.814083 
L 223.84642 184.736052 
L 212.686297 184.047788 
L 203.789404 182.97672 
L 199.501624 182.376002 
L 195.500325 181.621946 
L 187.344518 179.803638 
L 184.242789 178.865639 
L 181.789151 177.992743 
L 168.290321 176.799513 
L 163.865297 175.883317 
L 159.501449 174.787389 
L 154.994301 173.900473 
L 146.233223 172.458569 
L 132.817186 169.397096 
L 128.337092 168.653479 
L 124.028793 167.819862 
L 119.799918 166.814751 
L 99.197421 162.856224 
L 99.271281 162.480988 
L 100.053123 159.278604 
L 100.878486 152.973697 
L 101.040653 149.915618 
L 100.994942 146.279858 
L 100.691505 143.378465 
L 100.752018 143.597162 
L 101.637069 141.155958 
L 102.617804 138.021243 
L 103.103925 135.08407 
L 103.341332 131.538367 
L 106.11166 127.617049 
L 107.505888 124.649415 
L 108.692036 121.685957 
L 111.718229 112.86676 
L 112.472577 110.010187 
L 113.010367 107.231897 
L 114.548273 101.478236 
L 115.525306 98.617859 
L 116.465092 95.480258 
L 117.545601 92.349462 
L 118.455494 89.234407 
L 118.905248 86.079537 
L 119.034557 82.788244 
L 119.596055 76.322699 
L 121.00483 71.315246 
L 121.079274 71.371388 
L 124.954942 71.79807 
L 129.762402 72.354175 
L 139.32082 73.028278 
L 148.804622 73.420031 
L 162.924251 73.578915 
L 168.325809 73.546978 
L 168.063562 73.628988 
L 167.873951 73.968566 
L 167.493027 73.698606 
L 168.723769 73.793128 
L 178.089488 74.220055 
L 182.23003 74.457196 
L 190.568819 75.166802 
L 203.409819 76.901929 
L 220.773417 79.357162 
L 228.124363 80.711753 
L 231.25247 82.468294 
L 234.149142 84.469859 
L 236.630371 86.841108 
L 238.91327 89.653509 
L 240.7973 92.695546 
L 242.178471 96.032692 
L 244.521191 102.647782 
L 246.518498 109.301831 
L 247.352252 112.556346 
L 248.038596 115.784276 
L 248.525415 118.765271 
L 248.806075 121.872122 
L 248.932104 124.966765 
L 248.918548 128.262702 
L 248.368463 134.794459 
L 247.652573 137.994172 
L 246.79353 141.1653 
L 244.813143 147.011966 
L 243.385066 150.869679 
L 241.968671 153.863539 
L 238.554905 159.595312 
L 231.519798 171.763156 
L 229.890201 174.82816 
L 228.064854 177.822636 
L 224.109268 183.752165 
L 222.93772 185.42047 
L 223.042804 185.38669 
L 223.088789 185.409076 
L 200.788444 182.404944 
L 187.07061 181.225732 
L 182.226337 181.2023 
L 178.430149 180.811863 
L 172.988292 180.034345 
L 174.506145 180.26099 
L 164.511229 176.127951 
L 162.786306 175.419015 
L 155.596222 174.842425 
L 150.95934 174.673429 
L 146.415471 174.237628 
L 138.536014 172.193985 
L 125.566595 169.88365 
L 121.160538 169.193596 
L 112.616209 167.468861 
L 108.685557 166.976773 
L 109.078466 167.063752 
L 107.119808 165.10358 
L 102.813697 160.205469 
L 100.26911 157.140239 
L 100.324113 156.78304 
L 100.319587 151.258657 
L 99.699367 145.962801 
L 99.74743 145.999798 
L 100.827871 142.898054 
L 101.712945 139.976179 
L 102.38154 137.140526 
L 102.716988 134.339828 
L 104.555767 128.069575 
L 107.366775 122.251812 
L 108.371374 119.313168 
L 110.605017 113.399136 
L 111.012123 110.350555 
L 110.99763 107.364327 
L 111.977303 101.525629 
L 112.036786 98.825483 
L 113.444077 92.657567 
L 114.339456 89.570589 
L 115.391916 86.458578 
L 116.64474 83.357312 
L 117.638526 80.250581 
L 118.797034 77.176433 
L 120.43606 70.750427 
L 120.601934 70.810245 
L 133.071095 71.151581 
L 142.138094 71.739529 
L 146.702548 72.18228 
L 160.332454 74.509463 
L 164.486576 75.276571 
L 172.809892 76.14553 
L 178.489741 76.987963 
L 182.954779 77.15979 
L 187.422787 77.159453 
L 196.451743 77.638556 
L 200.978339 77.914439 
L 207.404493 78.163927 
L 207.27586 78.219377 
L 207.301592 77.21584 
L 206.996652 70.965227 
L 206.745538 67.631474 
L 206.348558 64.315587 
L 205.682396 61.03402 
L 205.172116 59.195988 
L 205.630233 59.482955 
L 204.932351 66.05825 
L 203.605215 72.44444 
L 202.449358 76.396079 
L 202.703018 76.347881 
L 203.152024 76.401648 
L 203.475012 76.296227 
L 203.532406 76.121454 
L 203.536045 76.134452 
L 204.342511 76.489804 
L 208.441532 78.090399 
L 216.754561 80.134326 
L 218.429424 80.504173 
L 218.294719 80.471052 
L 218.371211 83.988753 
L 218.106775 91.27833 
L 217.853203 92.838715 
L 217.524342 92.858211 
L 217.363322 92.759605 
L 217.117315 92.753205 
L 218.541745 90.213819 
L 217.749182 86.950082 
L 218.534917 86.343463 
L 225.498592 81.839632 
L 225.547034 81.859133 
L 237.622665 89.530628 
L 237.572937 89.506248 
L 241.922086 87.525393 
L 245.586717 85.518716 
L 250.203917 82.453839 
L 250.157865 82.47056 
L 250.8351 83.202476 
L 253.924391 85.526112 
L 257.651257 87.809786 
L 261.750102 90.654364 
L 260.890777 90.560331 
L 261.046167 90.672517 
L 261.247918 90.735777 
L 262.934006 90.459484 
L 262.801497 90.498948 
L 261.921132 90.990074 
L 254.670626 95.310379 
L 250.598584 96.703922 
L 246.407259 97.811498 
L 242.409641 98.68778 
L 242.486434 98.663973 
L 242.521994 98.529981 
L 244.430062 103.240414 
L 244.878848 104.660617 
L 244.883035 104.580666 
L 244.964031 104.486339 
L 241.236203 105.336477 
L 228.054141 107.846905 
L 225.914542 108.384194 
L 220.732035 107.777114 
L 220.758286 107.773657 
L 221.151305 107.673624 
L 221.060941 107.743015 
L 233.063614 109.136052 
L 232.908519 109.113373 
L 233.054216 109.218037 
L 231.711688 115.328698 
L 230.689068 118.61359 
L 229.138523 124.363929 
L 229.34537 124.344395 
L 229.522785 124.116429 
L 231.029084 120.973124 
L 232.421484 117.745965 
L 233.53407 114.495826 
L 234.245559 112.065823 
L 234.22604 112.088337 
L 236.099346 112.107929 
L 240.413918 112.270802 
L 244.958172 112.554961 
L 247.490668 112.8447 
L 247.486653 112.846153 
L 247.452754 112.717906 
L 247.009299 114.81637 
L 246.062881 118.013778 
L 245.050713 120.647658 
L 245.105151 120.578111 
L 246.906891 121.092057 
L 251.018071 122.089223 
L 254.900757 123.167414 
L 258.887352 124.415456 
L 263.137964 125.863733 
L 270.344017 128.919678 
L 270.474356 129.22296 
L 270.453576 129.246139 
L 270.506407 129.192547 
L 267.559891 128.148433 
L 263.399681 126.856646 
L 259.239639 125.440069 
L 250.726458 122.926741 
L 247.424931 122.118959 
L 247.458716 122.094524 
L 247.151634 123.305703 
L 246.236466 126.421127 
L 245.130668 129.560171 
L 244.108316 132.819675 
L 243.268515 136.089348 
L 242.70247 139.33053 
L 241.669741 142.577613 
L 240.162008 145.834414 
L 240.105822 148.816871 
L 240.171132 151.932855 
L 239.763507 155.621511 
L 239.304533 158.048305 
L 245.136109 159.080558 
L 249.154626 160.290675 
L 257.310846 163.272155 
L 259.732748 164.295253 
L 259.730419 164.211995 
L 259.869513 163.969097 
L 255.138239 162.54644 
L 251.082593 161.209198 
L 237.952359 157.710077 
L 238.104049 157.609584 
L 234.783354 165.816329 
L 232.131321 171.585026 
L 230.500295 174.575931 
L 226.518791 180.530354 
L 224.163277 183.538578 
L 220.709724 187.380566 
L 220.702682 187.31636 
L 220.733845 187.323769 
L 227.467388 189.105287 
L 231.351436 190.317558 
L 235.546253 191.764674 
L 239.550392 193.427304 
L 243.57809 194.960743 
L 249.000323 196.312233 
L 249.202894 196.109786 
L 249.348588 196.358341 
L 249.472397 196.268807 
L 249.558702 196.078166 
L 249.699051 196.043098 
L 248.760788 195.688501 
L 240.832495 192.07624 
L 236.683149 190.57331 
L 228.385678 188.04513 
L 227.035886 187.924795 
L 214.300912 185.58368 
L 214.645209 185.693841 
L 214.200298 185.683387 
L 210.878639 196.055204 
L 210.788855 196.090113 
L 210.481789 196.451577 
L 210.715936 196.771811 
L 211.32296 196.972056 
L 211.259535 196.861326 
L 211.210793 196.695652 
L 210.796977 193.265273 
L 210.112746 189.875144 
L 209.186226 186.546736 
L 208.059549 183.247294 
L 207.323161 181.518026 
L 203.186887 180.435265 
L 198.916617 179.684349 
L 185.891777 178.515793 
L 181.856265 178.391568 
L 172.485989 178.443754 
L 172.511371 178.423803 
L 171.264445 181.493953 
L 170.414454 184.679039 
L 169.225547 188.09881 
L 167.990294 191.138444 
L 167.023936 193.125113 
L 167.228549 193.239278 
L 167.411163 193.200926 
L 167.363483 191.952092 
L 167.460884 188.740772 
L 168.091907 185.403364 
L 168.372728 182.03313 
L 168.976479 178.99676 
L 169.217854 176.873777 
L 169.107777 176.831299 
L 161.588884 174.594053 
L 161.777647 174.647877 
L 160.783576 180.352209 
L 159.154177 183.345158 
L 155.469743 189.167019 
L 153.485264 192.006547 
L 154.724934 190.448657 
L 155.828231 189.265763 
L 155.652166 189.387964 
L 154.895505 189.290258 
L 154.150125 188.956834 
L 153.76617 188.494285 
L 154.760067 186.667847 
L 158.860858 180.670589 
L 160.571088 177.709571 
L 161.86032 175.009025 
L 161.325312 174.903668 
L 151.719472 174.118763 
L 147.210792 173.541648 
L 142.946769 172.793639 
L 140.192922 172.12283 
L 127.270387 169.235835 
L 123.286151 168.146333 
L 119.917859 167.061449 
L 119.938495 167.06006 
L 119.307645 167.872834 
L 117.868382 170.985288 
L 117.70945 174.320499 
L 118.828073 177.622645 
L 119.609404 180.770289 
L 118.136706 184.741875 
L 118.376466 184.841756 
L 118.606359 184.723595 
L 119.219147 180.320589 
L 119.765616 177.216962 
L 119.551799 173.969035 
L 118.776733 170.699943 
L 118.425581 168.07333 
L 113.013047 167.143954 
L 108.764859 166.799675 
L 108.566782 167.287167 
L 106.588761 173.222416 
L 105.606001 176.224617 
L 104.705437 179.402661 
L 102.8619 183.961512 
L 104.115119 181.01306 
L 104.998713 179.560015 
L 105.377341 179.600516 
L 105.430863 179.668945 
L 106.751622 175.559073 
L 106.912571 173.228079 
L 105.554364 166.993684 
L 105.151512 165.541621 
L 105.436475 165.814531 
L 102.380893 166.377833 
L 99.038416 166.787097 
L 94.627444 167.172869 
L 90.221833 167.396334 
L 86.04017 167.739539 
L 79.073874 168.672887 
L 79.177885 168.650824 
L 79.367033 169.375404 
L 79.546524 169.345912 
L 79.429901 169.53114 
L 81.991923 168.677669 
L 86.325211 167.444514 
L 90.34464 165.92651 
L 93.795024 164.350818 
L 101.51461 161.663355 
L 113.00739 156.88757 
L 113.085843 156.930518 
L 112.861584 156.70107 
L 112.852165 156.665862 
L 112.928634 156.729485 
L 113.065506 156.675133 
L 109.631391 156.605205 
L 96.740123 154.915278 
L 92.365838 154.13786 
L 82.74192 151.988413 
L 74.076942 149.951521 
L 73.878976 150.066617 
L 73.832727 150.335808 
L 74.042568 150.466633 
L 76.382247 150.670547 
L 90.223281 151.362134 
L 100.546902 151.216386 
L 100.671573 151.374343 
L 100.920848 145.695017 
L 100.939916 145.818588 
L 101.054896 145.839519 
L 96.9964 145.282858 
L 92.831393 144.438896 
L 89.320465 143.933535 
L 89.647573 144.028833 
L 89.785212 144.189123 
L 93.718758 144.619964 
L 98.341844 145.616505 
L 103.142421 146.938257 
L 103.22191 142.610921 
L 103.450708 139.461087 
L 103.882257 136.317407 
L 104.462118 133.143445 
L 105.165179 129.978714 
L 106.142881 126.814355 
L 106.402568 123.851185 
L 106.871027 121.09644 
L 107.085668 118.353057 
L 107.111691 118.591057 
L 106.947511 118.529791 
L 99.917568 117.394957 
L 99.995391 117.402951 
L 99.938578 117.581128 
L 100.059925 117.784517 
L 100.274025 117.807922 
L 104.880898 117.577882 
L 110.238581 117.51087 
L 110.221858 117.606884 
L 110.704875 114.782302 
L 110.92718 112.10693 
L 110.993751 112.277228 
L 109.53438 112.070224 
L 105.164683 111.614762 
L 96.474364 110.954901 
L 95.104703 110.786655 
L 95.208695 110.82153 
L 94.472273 109.335914 
L 92.656398 104.796113 
L 92.785559 104.589239 
L 93.042582 104.443906 
L 93.440086 104.55295 
L 95.277129 106.786443 
L 97.734254 109.537882 
L 99.263044 110.811405 
L 103.502538 111.487725 
L 107.942624 112.045766 
L 107.499196 112.203711 
L 108.288059 110.682079 
L 109.695904 107.539271 
L 110.747381 104.268271 
L 111.535705 100.963006 
L 111.809226 97.730945 
L 111.760168 94.508934 
L 112.697842 88.116987 
L 112.782238 84.879175 
L 112.506149 80.721936 
L 108.263563 80.35397 
L 99.532792 78.663491 
L 105.663813 79.873613 
L 113.622126 81.848329 
L 114.915217 78.758988 
L 116.585247 75.919366 
L 118.651012 69.917401 
L 122.180801 57.797511 
L 123.551056 53.608518 
L 123.209131 53.568 
L 122.884014 53.728931 
L 122.607236 53.610568 
L 122.613336 53.616605 
L 122.37378 54.906459 
L 118.390954 71.863148 
L 118.367479 71.856818 
L 125.416014 72.062141 
L 147.376285 73.777165 
L 152.100138 74.267163 
L 160.705236 75.440032 
L 160.821407 74.894694 
L 161.149197 71.494686 
L 161.615734 68.175486 
L 162.295098 65.034181 
L 163.137407 58.003115 
L 163.387703 58.015676 
L 163.978245 58.363244 
L 163.012921 61.254424 
L 161.405989 65.11621 
L 162.023907 68.467321 
L 162.19849 70.825849 
L 162.207286 70.588163 
L 161.668869 73.921609 
L 159.979321 76.996793 
L 158.757721 78.734046 
L 159.101563 78.891808 
L 159.16579 78.80332 
L 153.14134 76.487493 
L 149.384599 74.740528 
L 145.48194 73.108852 
L 141.091428 72.416252 
L 136.559952 72.598476 
L 134.312801 74.786522 
L 129.069253 79.176783 
L 125.682809 81.788658 
L 116.610648 88.034736 
L 116.674118 87.943444 
L 116.33137 90.349096 
L 116.082518 93.18516 
L 115.78174 102.422023 
L 113.98143 105.667559 
L 109.121772 115.920296 
L 109.335896 117.040934 
L 109.771608 120.275771 
L 108.481396 125.673724 
L 106.522965 131.449067 
L 105.315742 134.252674 
L 104.018943 136.849876 
L 102.733889 138.988815 
L 102.668177 138.687825 
L 103.196711 141.421972 
L 104.205136 147.262129 
L 105.088847 153.559381 
L 105.086026 156.774275 
L 104.770592 159.902034 
L 104.152737 162.857645 
L 103.529304 165.087382 
L 102.90186 164.8192 
L 106.947667 165.186023 
L 111.162225 165.788696 
L 119.849665 167.584839 
L 132.008467 170.844917 
L 136.616477 171.758156 
L 142.120436 173.210479 
L 150.161688 173.156892 
L 154.789841 173.412528 
L 159.455107 174.032313 
L 167.782196 176.522205 
L 172.470302 177.084736 
L 177.136013 177.443329 
L 181.451218 178.042802 
L 189.20494 179.575906 
L 195.635897 181.314102 
L 203.922846 183.76831 
L 208.336991 184.810599 
L 212.800936 185.608375 
L 217.331773 186.207099 
L 225.361828 187.560815 
L 225.531827 187.481619 
L 225.544484 187.574467 
L 225.562374 187.66728 
L 225.952647 182.779762 
L 227.053607 179.762909 
L 228.610595 176.680057 
L 231.274733 170.423134 
L 234.348645 164.019741 
L 235.774777 160.845733 
L 238.270122 154.556832 
L 240.065827 148.612043 
L 240.787529 145.475079 
L 241.382464 142.328032 
L 242.225002 135.783317 
L 242.756542 132.519365 
L 245.085119 113.382071 
L 245.334399 109.949754 
L 245.356198 106.437723 
L 245.665812 100.271372 
L 245.823181 100.366674 
L 242.676138 98.302904 
L 239.675689 96.028417 
L 237.159969 93.364094 
L 234.753456 90.555862 
L 232.494489 87.708451 
L 230.105547 85.072691 
L 227.396061 82.506745 
L 224.535966 80.201892 
L 222.879278 79.024451 
L 222.222699 78.937016 
L 218.284413 78.569722 
L 209.671033 77.90028 
L 205.162379 77.848517 
L 196.395278 77.324096 
L 169.457165 76.337964 
L 169.576821 76.341359 
L 165.127921 76.38025 
L 159.590019 76.679344 
L 159.791882 76.609807 
L 159.606388 83.763133 
L 158.987701 87.341297 
L 158.199515 90.920049 
L 156.891086 95.578894 
L 156.690749 95.67957 
L 156.994764 95.836303 
L 154.586961 95.271894 
L 150.185946 94.723381 
L 145.60046 93.919757 
L 146.009232 94.047001 
L 145.782882 94.413666 
L 146.00865 94.79523 
L 145.645725 94.933878 
L 147.311397 94.939096 
L 148.692097 94.821213 
L 150.166552 94.546565 
L 154.491704 95.064271 
L 160.861086 95.660967 
L 167.2359 96.065534 
L 172.549315 96.220818 
L 173.54022 96.270492 
L 171.58683 96.137154 
L 169.949095 96.98117 
L 167.840516 97.768986 
L 167.269186 97.582796 
L 166.406728 98.55816 
L 165.617229 102.61732 
L 163.678493 110.326672 
L 164.035832 110.17575 
L 161.5644 109.821044 
L 152.194354 109.188888 
L 152.314508 109.138442 
L 152.695387 108.666476 
L 146.127347 111.466138 
L 141.713077 111.196224 
L 136.029374 110.936164 
L 136.179804 110.524348 
L 134.655079 113.041576 
L 133.125287 115.336721 
L 133.163733 114.684826 
L 128.758969 116.495738 
L 128.170002 115.645054 
L 127.347698 115.555378 
L 127.197994 115.726652 
L 129.412952 114.149274 
L 131.640663 112.417708 
L 134.070185 110.392908 
L 134.176039 110.417109 
L 138.255582 110.034528 
L 147.284563 109.490668 
L 146.993679 109.554912 
L 146.835704 109.733011 
L 146.218413 109.538202 
L 145.292389 110.875469 
L 143.789927 113.66999 
L 142.53352 116.403551 
L 142.514081 116.223305 
L 142.921698 117.255844 
L 142.895747 116.997647 
L 141.219208 122.946232 
L 139.359018 128.138397 
L 139.312576 127.86136 
L 139.501346 130.79878 
L 139.096685 133.844551 
L 138.523459 136.706935 
L 137.289141 139.193408 
L 136.960598 141.898196 
L 137.061608 144.904243 
L 136.727127 150.516307 
L 136.609942 153.77087 
L 136.699632 153.573862 
L 136.753349 153.466906 
L 130.970896 154.494922 
L 130.703585 154.334058 
L 126.551511 152.976802 
L 116.767615 150.613747 
L 116.553045 150.341232 
L 116.63416 150.06885 
L 116.446593 149.897379 
L 120.508007 149.849268 
L 125.655878 150.846973 
L 129.518958 152.186225 
L 134.303073 154.047882 
L 134.126271 153.805329 
L 134.214165 153.635198 
L 133.561254 154.898384 
L 130.299731 160.403466 
L 130.367336 160.454211 
L 127.907253 159.94339 
L 111.766443 157.142915 
L 103.152125 156.128514 
L 102.570084 156.487582 
L 102.628948 156.759971 
L 103.218857 156.781296 
L 103.135279 155.322494 
L 102.812294 152.234987 
L 102.714194 149.261274 
L 102.087531 143.485119 
L 102.252418 140.626553 
L 102.699357 137.572159 
L 105.197262 131.491175 
L 107.097848 125.325248 
L 107.572517 122.287128 
L 108.391081 122.174112 
L 108.336448 122.30784 
L 105.79521 134.32911 
L 104.903917 137.402144 
L 102.527736 143.119468 
L 99.723122 148.482346 
L 97.683803 152.02133 
L 97.985852 151.68377 
L 101.954782 152.951127 
L 114.418467 156.293487 
L 122.894475 158.445257 
L 121.570883 157.920372 
L 117.964543 156.694494 
L 112.174227 155.984192 
L 113.782226 155.764389 
L 116.479908 153.156294 
L 119.175816 151.278055 
L 122.383985 149.330877 
L 126.086683 147.486357 
L 134.531531 145.580025 
L 128.02553 146.951654 
L 130.334032 144.921511 
L 132.001913 142.08388 
L 132.881261 138.257719 
L 132.572143 133.827946 
L 131.663019 129.476488 
L 128.825062 119.627007 
L 128.141033 114.377712 
L 128.276521 109.022469 
L 127.693794 114.580046 
L 127.084031 106.287465 
L 126.007587 102.393967 
L 124.93065 97.459039 
L 122.502452 89.889382 
L 117.293151 79.92752 
L 117.056266 76.441144 
L 115.235348 70.387526 
L 112.492883 63.340281 
L 112.509872 59.551403 
L 396.424209 151.7503 
L 389.055939 146.973543 
L 383.906958 140.451971 
L 382.051089 137.71367 
L 388.638494 132.714558 
L 398.487273 130.013059 
L 398.487273 130.013059 
" clip-path="url(#pd70a51fed7)" style="fill: none; stroke: #ff0000; stroke-opacity: 0.7; stroke-width: 0.75; stroke-linecap: square"/>
   </g>
   <g id="patch_3">
    <path d="M 57.6 307.584 
L 57.6 41.472 
" style="fill: none; stroke: #000000; stroke-width: 0.8; stroke-linejoin: miter; stroke-linecap: square"/>
   </g>
   <g id="patch_4">
    <path d="M 414.72 307.584 
L 414.72 41.472 
" style="fill: none; stroke: #000000; stroke-width: 0.8; stroke-linejoin: miter; stroke-linecap: square"/>
   </g>
   <g id="patch_5">
    <path d="M 57.6 307.584 
L 414.72 307.584 
" style="fill: none; stroke: #000000; stroke-width: 0.8; stroke-linejoin: miter; stroke-linecap: square"/>
   </g>
   <g id="patch_6">
    <path d="M 57.6 41.472 
L 414.72 41.472 
" style="fill: none; stroke: #000000; stroke-width: 0.8; stroke-linejoin: miter; stroke-linecap: square"/>
   </g>
   <g id="text_13">
    <!-- Initial Trajectory Estimate vs Incremental Trajectory Estimate -->
    <g transform="translate(53.263125 35.472) scale(0.12 -0.12)">
     <defs>
      <path id="DejaVuSans-49" d="M 628 4666 
L 1259 4666 
L 1259 0 
L 628 0 
L 628 4666 
z
" transform="scale(0.015625)"/>
      <path id="DejaVuSans-6e" d="M 3513 2113 
L 3513 0 
L 2938 0 
L 2938 2094 
Q 2938 2591 2744 2837 
Q 2550 3084 2163 3084 
Q 1697 3084 1428 2787 
Q 1159 2491 1159 1978 
L 1159 0 
L 581 0 
L 581 3500 
L 1159 3500 
L 1159 2956 
Q 1366 3272 1645 3428 
Q 1925 3584 2291 3584 
Q 2894 3584 3203 3211 
Q 3513 2838 3513 2113 
z
" transform="scale(0.015625)"/>
      <path id="DejaVuSans-74" d="M 1172 4494 
L 1172 3500 
L 2356 3500 
L 2356 3053 
L 1172 3053 
L 1172 1153 
Q 1172 725 1289 603 
Q 1406 481 1766 481 
L 2356 481 
L 2356 0 
L 1766 0 
Q 1100 0 847 248 
Q 594 497 594 1153 
L 594 3053 
L 172 3053 
L 172 3500 
L 594 3500 
L 594 4494 
L 1172 4494 
z
" transform="scale(0.015625)"/>
      <path id="DejaVuSans-6c" d="M 603 4863 
L 1178 4863 
L 1178 0 
L 603 0 
L 603 4863 
z
" transform="scale(0.015625)"/>
      <path id="DejaVuSans-20" transform="scale(0.015625)"/>
      <path id="DejaVuSans-54" d="M -19 4666 
L 3928 4666 
L 3928 4134 
L 2272 4134 
L 2272 0 
L 1638 0 
L 1638 4134 
L -19 4134 
L -19 4666 
z
" transform="scale(0.015625)"/>
      <path id="DejaVuSans-72" d="M 2631 2963 
Q 2534 3019 2420 3045 
Q 2306 3072 2169 3072 
Q 1681 3072 1420 2755 
Q 1159 2438 1159 1844 
L 1159 0 
L 581 0 
L 581 3500 
L 1159 3500 
L 1159 2956 
Q 1341 3275 1631 3429 
Q 1922 3584 2338 3584 
Q 2397 3584 2469 3576 
Q 2541 3569 2628 3553 
L 2631 2963 
z
" transform="scale(0.015625)"/>
      <path id="DejaVuSans-6a" d="M 603 3500 
L 1178 3500 
L 1178 -63 
Q 1178 -731 923 -1031 
Q 669 -1331 103 -1331 
L -116 -1331 
L -116 -844 
L 38 -844 
Q 366 -844 484 -692 
Q 603 -541 603 -63 
L 603 3500 
z
M 603 4863 
L 1178 4863 
L 1178 4134 
L 603 4134 
L 603 4863 
z
" transform="scale(0.015625)"/>
      <path id="DejaVuSans-65" d="M 3597 1894 
L 3597 1613 
L 953 1613 
Q 991 1019 1311 708 
Q 1631 397 2203 397 
Q 2534 397 2845 478 
Q 3156 559 3463 722 
L 3463 178 
Q 3153 47 2828 -22 
Q 2503 -91 2169 -91 
Q 1331 -91 842 396 
Q 353 884 353 1716 
Q 353 2575 817 3079 
Q 1281 3584 2069 3584 
Q 2775 3584 3186 3129 
Q 3597 2675 3597 1894 
z
M 3022 2063 
Q 3016 2534 2758 2815 
Q 2500 3097 2075 3097 
Q 1594 3097 1305 2825 
Q 1016 2553 972 2059 
L 3022 2063 
z
" transform="scale(0.015625)"/>
      <path id="DejaVuSans-63" d="M 3122 3366 
L 3122 2828 
Q 2878 2963 2633 3030 
Q 2388 3097 2138 3097 
Q 1578 3097 1268 2742 
Q 959 2388 959 1747 
Q 959 1106 1268 751 
Q 1578 397 2138 397 
Q 2388 397 2633 464 
Q 2878 531 3122 666 
L 3122 134 
Q 2881 22 2623 -34 
Q 2366 -91 2075 -91 
Q 1284 -91 818 406 
Q 353 903 353 1747 
Q 353 2603 823 3093 
Q 1294 3584 2113 3584 
Q 2378 3584 2631 3529 
Q 2884 3475 3122 3366 
z
" transform="scale(0.015625)"/>
      <path id="DejaVuSans-6f" d="M 1959 3097 
Q 1497 3097 1228 2736 
Q 959 2375 959 1747 
Q 959 1119 1226 758 
Q 1494 397 1959 397 
Q 2419 397 2687 759 
Q 2956 1122 2956 1747 
Q 2956 2369 2687 2733 
Q 2419 3097 1959 3097 
z
M 1959 3584 
Q 2709 3584 3137 3096 
Q 3566 2609 3566 1747 
Q 3566 888 3137 398 
Q 2709 -91 1959 -91 
Q 1206 -91 779 398 
Q 353 888 353 1747 
Q 353 2609 779 3096 
Q 1206 3584 1959 3584 
z
" transform="scale(0.015625)"/>
      <path id="DejaVuSans-79" d="M 2059 -325 
Q 1816 -950 1584 -1140 
Q 1353 -1331 966 -1331 
L 506 -1331 
L 506 -850 
L 844 -850 
Q 1081 -850 1212 -737 
Q 1344 -625 1503 -206 
L 1606 56 
L 191 3500 
L 800 3500 
L 1894 763 
L 2988 3500 
L 3597 3500 
L 2059 -325 
z
" transform="scale(0.015625)"/>
      <path id="DejaVuSans-45" d="M 628 4666 
L 3578 4666 
L 3578 4134 
L 1259 4134 
L 1259 2753 
L 3481 2753 
L 3481 2222 
L 1259 2222 
L 1259 531 
L 3634 531 
L 3634 0 
L 628 0 
L 628 4666 
z
" transform="scale(0.015625)"/>
      <path id="DejaVuSans-6d" d="M 3328 2828 
Q 3544 3216 3844 3400 
Q 4144 3584 4550 3584 
Q 5097 3584 5394 3201 
Q 5691 2819 5691 2113 
L 5691 0 
L 5113 0 
L 5113 2094 
Q 5113 2597 4934 2840 
Q 4756 3084 4391 3084 
Q 3944 3084 3684 2787 
Q 3425 2491 3425 1978 
L 3425 0 
L 2847 0 
L 2847 2094 
Q 2847 2600 2669 2842 
Q 2491 3084 2119 3084 
Q 1678 3084 1418 2786 
Q 1159 2488 1159 1978 
L 1159 0 
L 581 0 
L 581 3500 
L 1159 3500 
L 1159 2956 
Q 1356 3278 1631 3431 
Q 1906 3584 2284 3584 
Q 2666 3584 2933 3390 
Q 3200 3197 3328 2828 
z
" transform="scale(0.015625)"/>
      <path id="DejaVuSans-76" d="M 191 3500 
L 800 3500 
L 1894 563 
L 2988 3500 
L 3597 3500 
L 2284 0 
L 1503 0 
L 191 3500 
z
" transform="scale(0.015625)"/>
     </defs>
     <use xlink:href="#DejaVuSans-49"/>
     <use xlink:href="#DejaVuSans-6e" transform="translate(29.492188 0)"/>
     <use xlink:href="#DejaVuSans-69" transform="translate(92.871094 0)"/>
     <use xlink:href="#DejaVuSans-74" transform="translate(120.654297 0)"/>
     <use xlink:href="#DejaVuSans-69" transform="translate(159.863281 0)"/>
     <use xlink:href="#DejaVuSans-61" transform="translate(187.646484 0)"/>
     <use xlink:href="#DejaVuSans-6c" transform="translate(248.925781 0)"/>
     <use xlink:href="#DejaVuSans-20" transform="translate(276.708984 0)"/>
     <use xlink:href="#DejaVuSans-54" transform="translate(308.496094 0)"/>
     <use xlink:href="#DejaVuSans-72" transform="translate(354.830078 0)"/>
     <use xlink:href="#DejaVuSans-61" transform="translate(395.943359 0)"/>
     <use xlink:href="#DejaVuSans-6a" transform="translate(457.222656 0)"/>
     <use xlink:href="#DejaVuSans-65" transform="translate(485.005859 0)"/>
     <use xlink:href="#DejaVuSans-63" transform="translate(546.529297 0)"/>
     <use xlink:href="#DejaVuSans-74" transform="translate(601.509766 0)"/>
     <use xlink:href="#DejaVuSans-6f" transform="translate(640.71875 0)"/>
     <use xlink:href="#DejaVuSans-72" transform="translate(701.900391 0)"/>
     <use xlink:href="#DejaVuSans-79" transform="translate(743.013672 0)"/>
     <use xlink:href="#DejaVuSans-20" transform="translate(802.193359 0)"/>
     <use xlink:href="#DejaVuSans-45" transform="translate(833.980469 0)"/>
     <use xlink:href="#DejaVuSans-73" transform="translate(897.164062 0)"/>
     <use xlink:href="#DejaVuSans-74" transform="translate(949.263672 0)"/>
     <use xlink:href="#DejaVuSans-69" transform="translate(988.472656 0)"/>
     <use xlink:href="#DejaVuSans-6d" transform="translate(1016.255859 0)"/>
     <use xlink:href="#DejaVuSans-61" transform="translate(1113.667969 0)"/>
     <use xlink:href="#DejaVuSans-74" transform="translate(1174.947266 0)"/>
     <use xlink:href="#DejaVuSans-65" transform="translate(1214.15625 0)"/>
     <use xlink:href="#DejaVuSans-20" transform="translate(1275.679688 0)"/>
     <use xlink:href="#DejaVuSans-76" transform="translate(1307.466797 0)"/>
     <use xlink:href="#DejaVuSans-73" transform="translate(1366.646484 0)"/>
     <use xlink:href="#DejaVuSans-20" transform="translate(1418.746094 0)"/>
     <use xlink:href="#DejaVuSans-49" transform="translate(1450.533203 0)"/>
     <use xlink:href="#DejaVuSans-6e" transform="translate(1480.025391 0)"/>
     <use xlink:href="#DejaVuSans-63" transform="translate(1543.404297 0)"/>
     <use xlink:href="#DejaVuSans-72" transform="translate(1598.384766 0)"/>
     <use xlink:href="#DejaVuSans-65" transform="translate(1637.248047 0)"/>
     <use xlink:href="#DejaVuSans-6d" transform="translate(1698.771484 0)"/>
     <use xlink:href="#DejaVuSans-65" transform="translate(1796.183594 0)"/>
     <use xlink:href="#DejaVuSans-6e" transform="translate(1857.707031 0)"/>
     <use xlink:href="#DejaVuSans-74" transform="translate(1921.085938 0)"/>
     <use xlink:href="#DejaVuSans-61" transform="translate(1960.294922 0)"/>
     <use xlink:href="#DejaVuSans-6c" transform="translate(2021.574219 0)"/>
     <use xlink:href="#DejaVuSans-20" transform="translate(2049.357422 0)"/>
     <use xlink:href="#DejaVuSans-54" transform="translate(2081.144531 0)"/>
     <use xlink:href="#DejaVuSans-72" transform="translate(2127.478516 0)"/>
     <use xlink:href="#DejaVuSans-61" transform="translate(2168.591797 0)"/>
     <use xlink:href="#DejaVuSans-6a" transform="translate(2229.871094 0)"/>
     <use xlink:href="#DejaVuSans-65" transform="translate(2257.654297 0)"/>
     <use xlink:href="#DejaVuSans-63" transform="translate(2319.177734 0)"/>
     <use xlink:href="#DejaVuSans-74" transform="translate(2374.158203 0)"/>
     <use xlink:href="#DejaVuSans-6f" transform="translate(2413.367188 0)"/>
     <use xlink:href="#DejaVuSans-72" transform="translate(2474.548828 0)"/>
     <use xlink:href="#DejaVuSans-79" transform="translate(2515.662109 0)"/>
     <use xlink:href="#DejaVuSans-20" transform="translate(2574.841797 0)"/>
     <use xlink:href="#DejaVuSans-45" transform="translate(2606.628906 0)"/>
     <use xlink:href="#DejaVuSans-73" transform="translate(2669.8125 0)"/>
     <use xlink:href="#DejaVuSans-74" transform="translate(2721.912109 0)"/>
     <use xlink:href="#DejaVuSans-69" transform="translate(2761.121094 0)"/>
     <use xlink:href="#DejaVuSans-6d" transform="translate(2788.904297 0)"/>
     <use xlink:href="#DejaVuSans-61" transform="translate(2886.316406 0)"/>
     <use xlink:href="#DejaVuSans-74" transform="translate(2947.595703 0)"/>
     <use xlink:href="#DejaVuSans-65" transform="translate(2986.804688 0)"/>
    </g>
   </g>
   <g id="legend_1">
    <g id="patch_7">
     <path d="M 215.941875 78.82825 
L 407.72 78.82825 
Q 409.72 78.82825 409.72 76.82825 
L 409.72 48.472 
Q 409.72 46.472 407.72 46.472 
L 215.941875 46.472 
Q 213.941875 46.472 213.941875 48.472 
L 213.941875 76.82825 
Q 213.941875 78.82825 215.941875 78.82825 
z
" style="fill: #ffffff; opacity: 0.8; stroke: #cccccc; stroke-linejoin: miter"/>
    </g>
    <g id="line2d_13">
     <path d="M 217.941875 54.570437 
L 227.941875 54.570437 
L 237.941875 54.570437 
" style="fill: none; stroke: #0000ff; stroke-opacity: 0.7; stroke-width: 0.75; stroke-linecap: square"/>
    </g>
    <g id="text_14">
     <!-- Initial Trajectory Estimate -->
     <g transform="translate(245.941875 58.070437) scale(0.1 -0.1)">
      <use xlink:href="#DejaVuSans-49"/>
      <use xlink:href="#DejaVuSans-6e" transform="translate(29.492188 0)"/>
      <use xlink:href="#DejaVuSans-69" transform="translate(92.871094 0)"/>
      <use xlink:href="#DejaVuSans-74" transform="translate(120.654297 0)"/>
      <use xlink:href="#DejaVuSans-69" transform="translate(159.863281 0)"/>
      <use xlink:href="#DejaVuSans-61" transform="translate(187.646484 0)"/>
      <use xlink:href="#DejaVuSans-6c" transform="translate(248.925781 0)"/>
      <use xlink:href="#DejaVuSans-20" transform="translate(276.708984 0)"/>
      <use xlink:href="#DejaVuSans-54" transform="translate(308.496094 0)"/>
      <use xlink:href="#DejaVuSans-72" transform="translate(354.830078 0)"/>
      <use xlink:href="#DejaVuSans-61" transform="translate(395.943359 0)"/>
      <use xlink:href="#DejaVuSans-6a" transform="translate(457.222656 0)"/>
      <use xlink:href="#DejaVuSans-65" transform="translate(485.005859 0)"/>
      <use xlink:href="#DejaVuSans-63" transform="translate(546.529297 0)"/>
      <use xlink:href="#DejaVuSans-74" transform="translate(601.509766 0)"/>
      <use xlink:href="#DejaVuSans-6f" transform="translate(640.71875 0)"/>
      <use xlink:href="#DejaVuSans-72" transform="translate(701.900391 0)"/>
      <use xlink:href="#DejaVuSans-79" transform="translate(743.013672 0)"/>
      <use xlink:href="#DejaVuSans-20" transform="translate(802.193359 0)"/>
      <use xlink:href="#DejaVuSans-45" transform="translate(833.980469 0)"/>
      <use xlink:href="#DejaVuSans-73" transform="translate(897.164062 0)"/>
      <use xlink:href="#DejaVuSans-74" transform="translate(949.263672 0)"/>
      <use xlink:href="#DejaVuSans-69" transform="translate(988.472656 0)"/>
      <use xlink:href="#DejaVuSans-6d" transform="translate(1016.255859 0)"/>
      <use xlink:href="#DejaVuSans-61" transform="translate(1113.667969 0)"/>
      <use xlink:href="#DejaVuSans-74" transform="translate(1174.947266 0)"/>
      <use xlink:href="#DejaVuSans-65" transform="translate(1214.15625 0)"/>
     </g>
    </g>
    <g id="line2d_14">
     <path d="M 217.941875 69.248562 
L 227.941875 69.248562 
L 237.941875 69.248562 
" style="fill: none; stroke: #ff0000; stroke-opacity: 0.7; stroke-width: 0.75; stroke-linecap: square"/>
    </g>
    <g id="text_15">
     <!-- Incremental Trajectory Estimate -->
     <g transform="translate(245.941875 72.748562) scale(0.1 -0.1)">
      <use xlink:href="#DejaVuSans-49"/>
      <use xlink:href="#DejaVuSans-6e" transform="translate(29.492188 0)"/>
      <use xlink:href="#DejaVuSans-63" transform="translate(92.871094 0)"/>
      <use xlink:href="#DejaVuSans-72" transform="translate(147.851562 0)"/>
      <use xlink:href="#DejaVuSans-65" transform="translate(186.714844 0)"/>
      <use xlink:href="#DejaVuSans-6d" transform="translate(248.238281 0)"/>
      <use xlink:href="#DejaVuSans-65" transform="translate(345.650391 0)"/>
      <use xlink:href="#DejaVuSans-6e" transform="translate(407.173828 0)"/>
      <use xlink:href="#DejaVuSans-74" transform="translate(470.552734 0)"/>
      <use xlink:href="#DejaVuSans-61" transform="translate(509.761719 0)"/>
      <use xlink:href="#DejaVuSans-6c" transform="translate(571.041016 0)"/>
      <use xlink:href="#DejaVuSans-20" transform="translate(598.824219 0)"/>
      <use xlink:href="#DejaVuSans-54" transform="translate(630.611328 0)"/>
      <use xlink:href="#DejaVuSans-72" transform="translate(676.945312 0)"/>
      <use xlink:href="#DejaVuSans-61" transform="translate(718.058594 0)"/>
      <use xlink:href="#DejaVuSans-6a" transform="translate(779.337891 0)"/>
      <use xlink:href="#DejaVuSans-65" transform="translate(807.121094 0)"/>
      <use xlink:href="#DejaVuSans-63" transform="translate(868.644531 0)"/>
      <use xlink:href="#DejaVuSans-74" transform="translate(923.625 0)"/>
      <use xlink:href="#DejaVuSans-6f" transform="translate(962.833984 0)"/>
      <use xlink:href="#DejaVuSans-72" transform="translate(1024.015625 0)"/>
      <use xlink:href="#DejaVuSans-79" transform="translate(1065.128906 0)"/>
      <use xlink:href="#DejaVuSans-20" transform="translate(1124.308594 0)"/>
      <use xlink:href="#DejaVuSans-45" transform="translate(1156.095703 0)"/>
      <use xlink:href="#DejaVuSans-73" transform="translate(1219.279297 0)"/>
      <use xlink:href="#DejaVuSans-74" transform="translate(1271.378906 0)"/>
      <use xlink:href="#DejaVuSans-69" transform="translate(1310.587891 0)"/>
      <use xlink:href="#DejaVuSans-6d" transform="translate(1338.371094 0)"/>
      <use xlink:href="#DejaVuSans-61" transform="translate(1435.783203 0)"/>
      <use xlink:href="#DejaVuSans-74" transform="translate(1497.0625 0)"/>
      <use xlink:href="#DejaVuSans-65" transform="translate(1536.271484 0)"/>
     </g>
    </g>
   </g>
  </g>
 </g>
 <defs>
  <clipPath id="pd70a51fed7">
   <rect x="57.6" y="41.472" width="357.12" height="266.112"/>
  </clipPath>
 </defs>
</svg>
