<?xml version="1.0" encoding="utf-8" standalone="no"?>
<!DOCTYPE svg PUBLIC "-//W3C//DTD SVG 1.1//EN"
  "http://www.w3.org/Graphics/SVG/1.1/DTD/svg11.dtd">
<svg xmlns:xlink="http://www.w3.org/1999/xlink" width="460.8pt" height="345.6pt" viewBox="0 0 460.8 345.6" xmlns="http://www.w3.org/2000/svg" version="1.1">
 <metadata>
  <rdf:RDF xmlns:dc="http://purl.org/dc/elements/1.1/" xmlns:cc="http://creativecommons.org/ns#" xmlns:rdf="http://www.w3.org/1999/02/22-rdf-syntax-ns#">
   <cc:Work>
    <dc:type rdf:resource="http://purl.org/dc/dcmitype/StillImage"/>
    <dc:date>2025-11-16T16:41:00.265691</dc:date>
    <dc:format>image/svg+xml</dc:format>
    <dc:creator>
     <cc:Agent>
      <dc:title>Matplotlib v3.10.7, https://matplotlib.org/</dc:title>
     </cc:Agent>
    </dc:creator>
   </cc:Work>
  </rdf:RDF>
 </metadata>
 <defs>
  <style type="text/css">*{stroke-linejoin: round; stroke-linecap: butt}</style>
 </defs>
 <g id="figure_1">
  <g id="patch_1">
   <path d="M 0 345.6 
L 460.8 345.6 
L 460.8 0 
L 0 0 
z
" style="fill: #ffffff"/>
  </g>
  <g id="axes_1">
   <g id="patch_2">
    <path d="M 57.6 307.584 
L 414.72 307.584 
L 414.72 41.472 
L 57.6 41.472 
z
" style="fill: #ffffff"/>
   </g>
   <g id="PathCollection_1">
    <defs>
     <path id="mdcfcc94712" d="M 0 3.535534 
C 0.937635 3.535534 1.836992 3.163008 2.5 2.5 
C 3.163008 1.836992 3.535534 0.937635 3.535534 0 
C 3.535534 -0.937635 3.163008 -1.836992 2.5 -2.5 
C 1.836992 -3.163008 0.937635 -3.535534 0 -3.535534 
C -0.937635 -3.535534 -1.836992 -3.163008 -2.5 -2.5 
C -3.163008 -1.836992 -3.535534 -0.937635 -3.535534 0 
C -3.535534 0.937635 -3.163008 1.836992 -2.5 2.5 
C -1.836992 3.163008 -0.937635 3.535534 0 3.535534 
z
" style="stroke: #0000ff"/>
    </defs>
    <g clip-path="url(#pb9b4620a5c)">
     <use xlink:href="#mdcfcc94712" x="245.538231" y="183.494352" style="fill: #0000ff; stroke: #0000ff"/>
    </g>
   </g>
   <g id="PathCollection_2">
    <defs>
     <path id="m785c635a30" d="M 0 3.535534 
C 0.937635 3.535534 1.836992 3.163008 2.5 2.5 
C 3.163008 1.836992 3.535534 0.937635 3.535534 0 
C 3.535534 -0.937635 3.163008 -1.836992 2.5 -2.5 
C 1.836992 -3.163008 0.937635 -3.535534 0 -3.535534 
C -0.937635 -3.535534 -1.836992 -3.163008 -2.5 -2.5 
C -3.163008 -1.836992 -3.535534 -0.937635 -3.535534 0 
C -3.535534 0.937635 -3.163008 1.836992 -2.5 2.5 
C -1.836992 3.163008 -0.937635 3.535534 0 3.535534 
z
" style="stroke: #ff0000"/>
    </defs>
    <g clip-path="url(#pb9b4620a5c)">
     <use xlink:href="#m785c635a30" x="112.465536" y="164.61177" style="fill: #ff0000; stroke: #ff0000"/>
    </g>
   </g>
   <g id="matplotlib.axis_1">
    <g id="xtick_1">
     <g id="line2d_1">
      <defs>
       <path id="mb4610132c4" d="M 0 0 
L 0 3.5 
" style="stroke: #000000; stroke-width: 0.8"/>
      </defs>
      <g>
       <use xlink:href="#mb4610132c4" x="95.424817" y="307.584" style="stroke: #000000; stroke-width: 0.8"/>
      </g>
     </g>
     <g id="text_1">
      <!-- −40 -->
      <g transform="translate(84.872474 322.182437) scale(0.1 -0.1)">
       <defs>
        <path id="DejaVuSans-2212" d="M 678 2272 
L 4684 2272 
L 4684 1741 
L 678 1741 
L 678 2272 
z
" transform="scale(0.015625)"/>
        <path id="DejaVuSans-34" d="M 2419 4116 
L 825 1625 
L 2419 1625 
L 2419 4116 
z
M 2253 4666 
L 3047 4666 
L 3047 1625 
L 3713 1625 
L 3713 1100 
L 3047 1100 
L 3047 0 
L 2419 0 
L 2419 1100 
L 313 1100 
L 313 1709 
L 2253 4666 
z
" transform="scale(0.015625)"/>
        <path id="DejaVuSans-30" d="M 2034 4250 
Q 1547 4250 1301 3770 
Q 1056 3291 1056 2328 
Q 1056 1369 1301 889 
Q 1547 409 2034 409 
Q 2525 409 2770 889 
Q 3016 1369 3016 2328 
Q 3016 3291 2770 3770 
Q 2525 4250 2034 4250 
z
M 2034 4750 
Q 2819 4750 3233 4129 
Q 3647 3509 3647 2328 
Q 3647 1150 3233 529 
Q 2819 -91 2034 -91 
Q 1250 -91 836 529 
Q 422 1150 422 2328 
Q 422 3509 836 4129 
Q 1250 4750 2034 4750 
z
" transform="scale(0.015625)"/>
       </defs>
       <use xlink:href="#DejaVuSans-2212"/>
       <use xlink:href="#DejaVuSans-34" transform="translate(83.789062 0)"/>
       <use xlink:href="#DejaVuSans-30" transform="translate(147.412109 0)"/>
      </g>
     </g>
    </g>
    <g id="xtick_2">
     <g id="line2d_2">
      <g>
       <use xlink:href="#mb4610132c4" x="141.779067" y="307.584" style="stroke: #000000; stroke-width: 0.8"/>
      </g>
     </g>
     <g id="text_2">
      <!-- −30 -->
      <g transform="translate(131.226724 322.182437) scale(0.1 -0.1)">
       <defs>
        <path id="DejaVuSans-33" d="M 2597 2516 
Q 3050 2419 3304 2112 
Q 3559 1806 3559 1356 
Q 3559 666 3084 287 
Q 2609 -91 1734 -91 
Q 1441 -91 1130 -33 
Q 819 25 488 141 
L 488 750 
Q 750 597 1062 519 
Q 1375 441 1716 441 
Q 2309 441 2620 675 
Q 2931 909 2931 1356 
Q 2931 1769 2642 2001 
Q 2353 2234 1838 2234 
L 1294 2234 
L 1294 2753 
L 1863 2753 
Q 2328 2753 2575 2939 
Q 2822 3125 2822 3475 
Q 2822 3834 2567 4026 
Q 2313 4219 1838 4219 
Q 1578 4219 1281 4162 
Q 984 4106 628 3988 
L 628 4550 
Q 988 4650 1302 4700 
Q 1616 4750 1894 4750 
Q 2613 4750 3031 4423 
Q 3450 4097 3450 3541 
Q 3450 3153 3228 2886 
Q 3006 2619 2597 2516 
z
" transform="scale(0.015625)"/>
       </defs>
       <use xlink:href="#DejaVuSans-2212"/>
       <use xlink:href="#DejaVuSans-33" transform="translate(83.789062 0)"/>
       <use xlink:href="#DejaVuSans-30" transform="translate(147.412109 0)"/>
      </g>
     </g>
    </g>
    <g id="xtick_3">
     <g id="line2d_3">
      <g>
       <use xlink:href="#mb4610132c4" x="188.133317" y="307.584" style="stroke: #000000; stroke-width: 0.8"/>
      </g>
     </g>
     <g id="text_3">
      <!-- −20 -->
      <g transform="translate(177.580974 322.182437) scale(0.1 -0.1)">
       <defs>
        <path id="DejaVuSans-32" d="M 1228 531 
L 3431 531 
L 3431 0 
L 469 0 
L 469 531 
Q 828 903 1448 1529 
Q 2069 2156 2228 2338 
Q 2531 2678 2651 2914 
Q 2772 3150 2772 3378 
Q 2772 3750 2511 3984 
Q 2250 4219 1831 4219 
Q 1534 4219 1204 4116 
Q 875 4013 500 3803 
L 500 4441 
Q 881 4594 1212 4672 
Q 1544 4750 1819 4750 
Q 2544 4750 2975 4387 
Q 3406 4025 3406 3419 
Q 3406 3131 3298 2873 
Q 3191 2616 2906 2266 
Q 2828 2175 2409 1742 
Q 1991 1309 1228 531 
z
" transform="scale(0.015625)"/>
       </defs>
       <use xlink:href="#DejaVuSans-2212"/>
       <use xlink:href="#DejaVuSans-32" transform="translate(83.789062 0)"/>
       <use xlink:href="#DejaVuSans-30" transform="translate(147.412109 0)"/>
      </g>
     </g>
    </g>
    <g id="xtick_4">
     <g id="line2d_4">
      <g>
       <use xlink:href="#mb4610132c4" x="234.487568" y="307.584" style="stroke: #000000; stroke-width: 0.8"/>
      </g>
     </g>
     <g id="text_4">
      <!-- −10 -->
      <g transform="translate(223.935224 322.182437) scale(0.1 -0.1)">
       <defs>
        <path id="DejaVuSans-31" d="M 794 531 
L 1825 531 
L 1825 4091 
L 703 3866 
L 703 4441 
L 1819 4666 
L 2450 4666 
L 2450 531 
L 3481 531 
L 3481 0 
L 794 0 
L 794 531 
z
" transform="scale(0.015625)"/>
       </defs>
       <use xlink:href="#DejaVuSans-2212"/>
       <use xlink:href="#DejaVuSans-31" transform="translate(83.789062 0)"/>
       <use xlink:href="#DejaVuSans-30" transform="translate(147.412109 0)"/>
      </g>
     </g>
    </g>
    <g id="xtick_5">
     <g id="line2d_5">
      <g>
       <use xlink:href="#mb4610132c4" x="280.841818" y="307.584" style="stroke: #000000; stroke-width: 0.8"/>
      </g>
     </g>
     <g id="text_5">
      <!-- 0 -->
      <g transform="translate(277.660568 322.182437) scale(0.1 -0.1)">
       <use xlink:href="#DejaVuSans-30"/>
      </g>
     </g>
    </g>
    <g id="xtick_6">
     <g id="line2d_6">
      <g>
       <use xlink:href="#mb4610132c4" x="327.196068" y="307.584" style="stroke: #000000; stroke-width: 0.8"/>
      </g>
     </g>
     <g id="text_6">
      <!-- 10 -->
      <g transform="translate(320.833568 322.182437) scale(0.1 -0.1)">
       <use xlink:href="#DejaVuSans-31"/>
       <use xlink:href="#DejaVuSans-30" transform="translate(63.623047 0)"/>
      </g>
     </g>
    </g>
    <g id="xtick_7">
     <g id="line2d_7">
      <g>
       <use xlink:href="#mb4610132c4" x="373.550318" y="307.584" style="stroke: #000000; stroke-width: 0.8"/>
      </g>
     </g>
     <g id="text_7">
      <!-- 20 -->
      <g transform="translate(367.187818 322.182437) scale(0.1 -0.1)">
       <use xlink:href="#DejaVuSans-32"/>
       <use xlink:href="#DejaVuSans-30" transform="translate(63.623047 0)"/>
      </g>
     </g>
    </g>
    <g id="text_8">
     <!-- X-axis -->
     <g transform="translate(221.163906 335.860562) scale(0.1 -0.1)">
      <defs>
       <path id="DejaVuSans-58" d="M 403 4666 
L 1081 4666 
L 2241 2931 
L 3406 4666 
L 4084 4666 
L 2584 2425 
L 4184 0 
L 3506 0 
L 2194 1984 
L 872 0 
L 191 0 
L 1856 2491 
L 403 4666 
z
" transform="scale(0.015625)"/>
       <path id="DejaVuSans-2d" d="M 313 2009 
L 1997 2009 
L 1997 1497 
L 313 1497 
L 313 2009 
z
" transform="scale(0.015625)"/>
       <path id="DejaVuSans-61" d="M 2194 1759 
Q 1497 1759 1228 1600 
Q 959 1441 959 1056 
Q 959 750 1161 570 
Q 1363 391 1709 391 
Q 2188 391 2477 730 
Q 2766 1069 2766 1631 
L 2766 1759 
L 2194 1759 
z
M 3341 1997 
L 3341 0 
L 2766 0 
L 2766 531 
Q 2569 213 2275 61 
Q 1981 -91 1556 -91 
Q 1019 -91 701 211 
Q 384 513 384 1019 
Q 384 1609 779 1909 
Q 1175 2209 1959 2209 
L 2766 2209 
L 2766 2266 
Q 2766 2663 2505 2880 
Q 2244 3097 1772 3097 
Q 1472 3097 1187 3025 
Q 903 2953 641 2809 
L 641 3341 
Q 956 3463 1253 3523 
Q 1550 3584 1831 3584 
Q 2591 3584 2966 3190 
Q 3341 2797 3341 1997 
z
" transform="scale(0.015625)"/>
       <path id="DejaVuSans-78" d="M 3513 3500 
L 2247 1797 
L 3578 0 
L 2900 0 
L 1881 1375 
L 863 0 
L 184 0 
L 1544 1831 
L 300 3500 
L 978 3500 
L 1906 2253 
L 2834 3500 
L 3513 3500 
z
" transform="scale(0.015625)"/>
       <path id="DejaVuSans-69" d="M 603 3500 
L 1178 3500 
L 1178 0 
L 603 0 
L 603 3500 
z
M 603 4863 
L 1178 4863 
L 1178 4134 
L 603 4134 
L 603 4863 
z
" transform="scale(0.015625)"/>
       <path id="DejaVuSans-73" d="M 2834 3397 
L 2834 2853 
Q 2591 2978 2328 3040 
Q 2066 3103 1784 3103 
Q 1356 3103 1142 2972 
Q 928 2841 928 2578 
Q 928 2378 1081 2264 
Q 1234 2150 1697 2047 
L 1894 2003 
Q 2506 1872 2764 1633 
Q 3022 1394 3022 966 
Q 3022 478 2636 193 
Q 2250 -91 1575 -91 
Q 1294 -91 989 -36 
Q 684 19 347 128 
L 347 722 
Q 666 556 975 473 
Q 1284 391 1588 391 
Q 1994 391 2212 530 
Q 2431 669 2431 922 
Q 2431 1156 2273 1281 
Q 2116 1406 1581 1522 
L 1381 1569 
Q 847 1681 609 1914 
Q 372 2147 372 2553 
Q 372 3047 722 3315 
Q 1072 3584 1716 3584 
Q 2034 3584 2315 3537 
Q 2597 3491 2834 3397 
z
" transform="scale(0.015625)"/>
      </defs>
      <use xlink:href="#DejaVuSans-58"/>
      <use xlink:href="#DejaVuSans-2d" transform="translate(63.505859 0)"/>
      <use xlink:href="#DejaVuSans-61" transform="translate(99.589844 0)"/>
      <use xlink:href="#DejaVuSans-78" transform="translate(160.869141 0)"/>
      <use xlink:href="#DejaVuSans-69" transform="translate(220.048828 0)"/>
      <use xlink:href="#DejaVuSans-73" transform="translate(247.832031 0)"/>
     </g>
    </g>
   </g>
   <g id="matplotlib.axis_2">
    <g id="ytick_1">
     <g id="line2d_8">
      <defs>
       <path id="m2c36f0f393" d="M 0 0 
L -3.5 0 
" style="stroke: #000000; stroke-width: 0.8"/>
      </defs>
      <g>
       <use xlink:href="#m2c36f0f393" x="57.6" y="296.866617" style="stroke: #000000; stroke-width: 0.8"/>
      </g>
     </g>
     <g id="text_9">
      <!-- −60 -->
      <g transform="translate(29.495313 300.665836) scale(0.1 -0.1)">
       <defs>
        <path id="DejaVuSans-36" d="M 2113 2584 
Q 1688 2584 1439 2293 
Q 1191 2003 1191 1497 
Q 1191 994 1439 701 
Q 1688 409 2113 409 
Q 2538 409 2786 701 
Q 3034 994 3034 1497 
Q 3034 2003 2786 2293 
Q 2538 2584 2113 2584 
z
M 3366 4563 
L 3366 3988 
Q 3128 4100 2886 4159 
Q 2644 4219 2406 4219 
Q 1781 4219 1451 3797 
Q 1122 3375 1075 2522 
Q 1259 2794 1537 2939 
Q 1816 3084 2150 3084 
Q 2853 3084 3261 2657 
Q 3669 2231 3669 1497 
Q 3669 778 3244 343 
Q 2819 -91 2113 -91 
Q 1303 -91 875 529 
Q 447 1150 447 2328 
Q 447 3434 972 4092 
Q 1497 4750 2381 4750 
Q 2619 4750 2861 4703 
Q 3103 4656 3366 4563 
z
" transform="scale(0.015625)"/>
       </defs>
       <use xlink:href="#DejaVuSans-2212"/>
       <use xlink:href="#DejaVuSans-36" transform="translate(83.789062 0)"/>
       <use xlink:href="#DejaVuSans-30" transform="translate(147.412109 0)"/>
      </g>
     </g>
    </g>
    <g id="ytick_2">
     <g id="line2d_9">
      <g>
       <use xlink:href="#m2c36f0f393" x="57.6" y="258.238913" style="stroke: #000000; stroke-width: 0.8"/>
      </g>
     </g>
     <g id="text_10">
      <!-- −50 -->
      <g transform="translate(29.495313 262.038132) scale(0.1 -0.1)">
       <defs>
        <path id="DejaVuSans-35" d="M 691 4666 
L 3169 4666 
L 3169 4134 
L 1269 4134 
L 1269 2991 
Q 1406 3038 1543 3061 
Q 1681 3084 1819 3084 
Q 2600 3084 3056 2656 
Q 3513 2228 3513 1497 
Q 3513 744 3044 326 
Q 2575 -91 1722 -91 
Q 1428 -91 1123 -41 
Q 819 9 494 109 
L 494 744 
Q 775 591 1075 516 
Q 1375 441 1709 441 
Q 2250 441 2565 725 
Q 2881 1009 2881 1497 
Q 2881 1984 2565 2268 
Q 2250 2553 1709 2553 
Q 1456 2553 1204 2497 
Q 953 2441 691 2322 
L 691 4666 
z
" transform="scale(0.015625)"/>
       </defs>
       <use xlink:href="#DejaVuSans-2212"/>
       <use xlink:href="#DejaVuSans-35" transform="translate(83.789062 0)"/>
       <use xlink:href="#DejaVuSans-30" transform="translate(147.412109 0)"/>
      </g>
     </g>
    </g>
    <g id="ytick_3">
     <g id="line2d_10">
      <g>
       <use xlink:href="#m2c36f0f393" x="57.6" y="219.611209" style="stroke: #000000; stroke-width: 0.8"/>
      </g>
     </g>
     <g id="text_11">
      <!-- −40 -->
      <g transform="translate(29.495313 223.410427) scale(0.1 -0.1)">
       <use xlink:href="#DejaVuSans-2212"/>
       <use xlink:href="#DejaVuSans-34" transform="translate(83.789062 0)"/>
       <use xlink:href="#DejaVuSans-30" transform="translate(147.412109 0)"/>
      </g>
     </g>
    </g>
    <g id="ytick_4">
     <g id="line2d_11">
      <g>
       <use xlink:href="#m2c36f0f393" x="57.6" y="180.983504" style="stroke: #000000; stroke-width: 0.8"/>
      </g>
     </g>
     <g id="text_12">
      <!-- −30 -->
      <g transform="translate(29.495313 184.782723) scale(0.1 -0.1)">
       <use xlink:href="#DejaVuSans-2212"/>
       <use xlink:href="#DejaVuSans-33" transform="translate(83.789062 0)"/>
       <use xlink:href="#DejaVuSans-30" transform="translate(147.412109 0)"/>
      </g>
     </g>
    </g>
    <g id="ytick_5">
     <g id="line2d_12">
      <g>
       <use xlink:href="#m2c36f0f393" x="57.6" y="142.3558" style="stroke: #000000; stroke-width: 0.8"/>
      </g>
     </g>
     <g id="text_13">
      <!-- −20 -->
      <g transform="translate(29.495313 146.155019) scale(0.1 -0.1)">
       <use xlink:href="#DejaVuSans-2212"/>
       <use xlink:href="#DejaVuSans-32" transform="translate(83.789062 0)"/>
       <use xlink:href="#DejaVuSans-30" transform="translate(147.412109 0)"/>
      </g>
     </g>
    </g>
    <g id="ytick_6">
     <g id="line2d_13">
      <g>
       <use xlink:href="#m2c36f0f393" x="57.6" y="103.728096" style="stroke: #000000; stroke-width: 0.8"/>
      </g>
     </g>
     <g id="text_14">
      <!-- −10 -->
      <g transform="translate(29.495313 107.527315) scale(0.1 -0.1)">
       <use xlink:href="#DejaVuSans-2212"/>
       <use xlink:href="#DejaVuSans-31" transform="translate(83.789062 0)"/>
       <use xlink:href="#DejaVuSans-30" transform="translate(147.412109 0)"/>
      </g>
     </g>
    </g>
    <g id="ytick_7">
     <g id="line2d_14">
      <g>
       <use xlink:href="#m2c36f0f393" x="57.6" y="65.100392" style="stroke: #000000; stroke-width: 0.8"/>
      </g>
     </g>
     <g id="text_15">
      <!-- 0 -->
      <g transform="translate(44.2375 68.89961) scale(0.1 -0.1)">
       <use xlink:href="#DejaVuSans-30"/>
      </g>
     </g>
    </g>
    <g id="text_16">
     <!-- Y-axis -->
     <g transform="translate(23.415625 188.80925) rotate(-90) scale(0.1 -0.1)">
      <defs>
       <path id="DejaVuSans-59" d="M -13 4666 
L 666 4666 
L 1959 2747 
L 3244 4666 
L 3922 4666 
L 2272 2222 
L 2272 0 
L 1638 0 
L 1638 2222 
L -13 4666 
z
" transform="scale(0.015625)"/>
      </defs>
      <use xlink:href="#DejaVuSans-59"/>
      <use xlink:href="#DejaVuSans-2d" transform="translate(49.208984 0)"/>
      <use xlink:href="#DejaVuSans-61" transform="translate(85.292969 0)"/>
      <use xlink:href="#DejaVuSans-78" transform="translate(146.572266 0)"/>
      <use xlink:href="#DejaVuSans-69" transform="translate(205.751953 0)"/>
      <use xlink:href="#DejaVuSans-73" transform="translate(233.535156 0)"/>
     </g>
    </g>
   </g>
   <g id="line2d_15">
    <path d="M 280.841818 65.100392 
L 280.892817 65.104158 
L 284.087862 65.160014 
L 284.058599 65.084118 
L 284.16131 64.941547 
L 284.404476 64.813168 
L 288.553529 65.614584 
L 291.443039 66.245626 
L 297.191981 67.781096 
L 302.994583 68.933569 
L 308.952806 69.314663 
L 311.935915 69.52095 
L 322.066794 70.577889 
L 328.26636 76.862821 
L 333.803611 81.77314 
L 336.359033 88.791141 
L 337.73396 93.644762 
L 338.233733 96.093013 
L 338.955089 101.026961 
L 339.384955 106.001344 
L 339.310626 110.746109 
L 338.772207 115.367222 
L 337.908136 120.082591 
L 337.0004 125.032619 
L 335.69283 132.276801 
L 334.840495 136.977213 
L 333.964057 141.771058 
L 332.999328 146.11068 
L 332.941747 146.052464 
L 332.886376 146.034463 
L 325.564737 146.319856 
L 322.600748 146.24099 
L 316.674705 145.788637 
L 310.81067 144.906488 
L 307.499243 144.337884 
L 303.056276 143.263965 
L 294.106684 143.853315 
L 291.137148 143.668594 
L 288.193412 143.354809 
L 285.20219 143.239475 
L 279.386211 143.203794 
L 261.594499 141.885118 
L 255.620632 141.714708 
L 247.631343 141.467089 
L 247.586708 141.052637 
L 247.459888 138.495015 
L 246.763712 133.556888 
L 246.182453 131.117591 
L 245.354858 128.250002 
L 244.466803 125.786446 
L 244.655182 121.393449 
L 244.183444 116.696776 
L 244.013686 115.878332 
L 245.322637 112.684775 
L 245.908652 110.275268 
L 246.640632 105.365996 
L 247.310952 100.453996 
L 247.518174 97.98158 
L 247.607067 95.504837 
L 248.134949 90.920065 
L 249.96712 81.390977 
L 250.246089 78.988952 
L 250.508088 74.035389 
L 250.718267 71.555494 
L 251.624131 67.692349 
L 251.887655 67.7238 
L 259.726632 69.052454 
L 268.579672 70.056303 
L 277.431118 71.020771 
L 281.740784 71.496019 
L 290.570648 71.866695 
L 296.223048 72.29773 
L 320.903946 75.410786 
L 323.056921 76.602799 
L 325.116338 78.008079 
L 326.980808 79.749864 
L 328.729828 81.736023 
L 330.222829 83.851268 
L 332.473281 88.34717 
L 334.603945 92.947718 
L 336.397099 97.672798 
L 337.869519 102.227155 
L 338.943713 106.86241 
L 339.398073 109.313055 
L 339.969431 114.23161 
L 339.86728 119.153907 
L 339.429311 123.8257 
L 339.044946 126.929993 
L 338.577436 129.217939 
L 337.275359 133.70377 
L 335.400385 140.84677 
L 333.662347 148.124311 
L 331.617494 154.28738 
L 331.60229 154.311608 
L 331.608107 154.309093 
L 317.096636 153.825663 
L 305.243525 154.269913 
L 302.446648 154.135906 
L 297.942879 153.741903 
L 298.548733 153.768834 
L 294.170153 152.267202 
L 290.018351 151.068395 
L 285.311383 151.401918 
L 282.343227 151.793622 
L 279.368721 151.99313 
L 273.867594 151.416836 
L 262.109458 151.06503 
L 256.157169 150.579078 
L 253.538594 150.611931 
L 253.668845 150.627313 
L 252.054252 149.263349 
L 248.524256 145.781077 
L 246.648285 143.785068 
L 246.376853 141.636846 
L 245.95496 139.228884 
L 244.62616 134.4662 
L 245.128376 129.549793 
L 245.21262 127.197652 
L 245.085609 124.834629 
L 245.655989 119.682161 
L 247.068839 114.884291 
L 247.554159 112.450946 
L 248.781689 107.583805 
L 248.916385 105.115031 
L 248.788146 102.641178 
L 249.29617 97.927327 
L 249.297333 95.672732 
L 250.243581 90.781619 
L 251.567853 85.957363 
L 252.408084 83.587221 
L 253.09777 81.174125 
L 253.894938 78.814165 
L 255.152756 73.855457 
L 255.243745 73.826521 
L 263.238615 74.917881 
L 269.033397 76.009856 
L 271.893714 76.679857 
L 280.189548 79.507587 
L 282.791844 80.4575 
L 288.120061 81.832808 
L 291.858767 82.972948 
L 294.763195 83.45051 
L 297.694007 83.783071 
L 310.752987 85.845269 
L 310.857094 84.981403 
L 311.039382 80.086651 
L 310.94704 75.154229 
L 310.67291 72.701447 
L 310.406614 71.368324 
L 310.471668 71.474747 
L 310.582102 71.62356 
L 310.274129 76.615461 
L 309.643813 81.534691 
L 309.080025 84.663358 
L 309.317099 84.648556 
L 309.933606 84.806269 
L 312.876364 85.431307 
L 318.730039 85.82322 
L 319.989706 85.875974 
L 321.456308 90.717045 
L 322.451701 94.731136 
L 322.533414 94.552 
L 322.583338 94.531295 
L 322.978058 92.421153 
L 321.833479 90.159076 
L 322.250296 89.557928 
L 325.597908 85.601335 
L 332.786706 89.084947 
L 334.615677 90.082821 
L 336.963789 88.076733 
L 338.832097 86.137074 
L 341.048794 83.275599 
L 341.0212 83.325931 
L 341.618715 83.797742 
L 344.031537 85.15347 
L 346.610609 86.343466 
L 349.355226 87.768341 
L 348.709024 87.837099 
L 348.639859 87.712517 
L 349.494613 87.091294 
L 349.47761 87.106622 
L 349.271649 87.562139 
L 347.488104 92.332769 
L 345.966739 94.458019 
L 344.247887 96.440222 
L 342.514224 98.231161 
L 342.503961 98.210298 
L 347.104972 101.339111 
L 347.104736 101.33526 
L 345.596856 103.074511 
L 340.121246 108.859543 
L 339.334725 109.843916 
L 336.344403 111.149915 
L 336.372439 111.126483 
L 336.694434 110.776381 
L 339.364267 109.510242 
L 343.47893 107.822069 
L 343.433748 107.853087 
L 347.11549 114.050759 
L 349.332382 117.926809 
L 349.453251 117.813596 
L 349.526509 117.815766 
L 349.499735 117.747052 
L 349.532609 117.558695 
L 348.03088 112.714553 
L 346.308458 108.614392 
L 346.308143 108.619847 
L 349.84132 107.012397 
L 354.016706 105.422434 
L 354.059403 105.422697 
L 354.041344 105.404681 
L 354.821968 106.928428 
L 355.843662 109.290304 
L 356.562834 111.318702 
L 357.816276 111.124675 
L 363.199896 110.132083 
L 368.960019 109.453131 
L 374.349053 109.347264 
L 374.363293 109.483307 
L 374.301544 109.429576 
L 372.168822 109.570038 
L 360.442685 110.832221 
L 358.214552 111.240922 
L 359.523809 114.410804 
L 360.341429 116.759005 
L 361.276245 119.095533 
L 362.340117 121.408753 
L 363.571634 123.65835 
L 364.531751 125.980616 
L 365.231969 128.38093 
L 368.212301 132.356949 
L 370.690112 136.452208 
L 374.581528 135.2183 
L 377.457545 134.676933 
L 385.05045 133.736372 
L 376.126594 136.136184 
L 370.090177 138.073796 
L 373.561823 143.883213 
L 375.782428 148.066674 
L 376.799783 150.358835 
L 378.411905 155.080249 
L 379.050472 157.506721 
L 379.746328 160.752619 
L 379.746328 160.752619 
L 383.922619 159.289386 
L 389.275979 157.786139 
L 394.949757 156.561216 
L 398.159571 155.288437 
L 398.443009 155.428501 
L 398.398991 155.494257 
L 398.478331 155.647686 
L 397.830771 155.849956 
L 392.061568 157.269343 
L 389.293338 158.21542 
L 384.026749 160.41947 
L 383.269664 160.976864 
L 376.018635 164.895201 
L 376.022974 164.891153 
L 381.196081 170.595422 
L 382.122892 171.69837 
L 382.081043 171.892443 
L 382.252012 172.197448 
L 382.332144 172.159728 
L 382.201291 172.117295 
L 379.571383 170.893488 
L 376.873496 169.802912 
L 371.3417 167.97987 
L 369.889811 167.601261 
L 367.602483 168.984832 
L 365.507753 170.57009 
L 359.679587 176.127898 
L 357.905865 178.133012 
L 354.054879 183.229532 
L 355.909244 184.834988 
L 357.95723 186.26166 
L 362.141587 189.543083 
L 363.494227 190.615798 
L 363.511132 190.541177 
L 359.861644 189.097149 
L 357.378646 187.788752 
L 354.776819 186.638971 
L 350.982603 184.715203 
L 350.938919 184.74422 
L 347.191446 187.710855 
L 347.307777 187.65325 
L 351.817786 189.889693 
L 353.897567 191.59151 
L 359.644377 196.899668 
L 358.663307 195.814449 
L 357.8709 194.879724 
L 356.627702 193.910254 
L 352.625105 190.236373 
L 350.587896 188.607002 
L 348.722652 187.307779 
L 348.4708 187.597827 
L 346.971681 189.78154 
L 345.39445 191.875841 
L 343.67416 193.868764 
L 341.78674 195.742293 
L 338.434058 198.737323 
L 334.393205 202.342226 
L 330.576869 205.257575 
L 331.227566 205.904013 
L 333.602531 207.318316 
L 336.369472 208.106376 
L 339.304057 208.232391 
L 342.055159 208.484734 
L 345.178068 210.031206 
L 345.146158 209.962109 
L 338.667456 208.062815 
L 335.744274 207.63455 
L 332.779664 207.518022 
L 330.455787 207.287086 
L 328.758962 210.217781 
L 327.822898 212.524628 
L 327.986765 212.595023 
L 335.729519 215.318697 
L 338.485478 216.219132 
L 342.412351 217.839653 
L 340.033534 216.814397 
L 338.989535 216.201576 
L 339.016119 216.182239 
L 339.075781 216.166931 
L 335.81597 214.837218 
L 333.86523 214.363434 
L 328.085406 213.939951 
L 326.659276 213.916616 
L 326.703832 215.636851 
L 326.557325 217.504527 
L 326.215522 219.936593 
L 325.721358 222.35062 
L 325.368111 224.657404 
L 325.099915 228.548474 
L 324.985726 228.415617 
L 324.653217 226.910257 
L 324.282207 224.434055 
L 323.60976 222.035379 
L 322.78858 219.89654 
L 321.727884 215.343547 
L 319.565301 208.628232 
L 319.549624 208.637298 
L 319.182924 208.711255 
L 319.183369 208.690446 
L 318.306004 210.460433 
L 313.760566 216.506739 
L 312.050503 218.492303 
L 307.921952 222.752978 
L 304.113992 226.654658 
L 304.213408 226.655044 
L 304.881581 225.545003 
L 308.388971 218.761306 
L 310.372863 213.657432 
L 310.366277 213.657918 
L 305.297305 212.141078 
L 303.917075 214.148587 
L 302.259882 216.143685 
L 300.97142 217.902242 
L 300.940928 217.864978 
L 302.043876 216.05865 
L 303.741531 214.038367 
L 305.605324 212.068612 
L 301.670419 210.98222 
L 298.908136 210.112629 
L 293.532601 208.1023 
L 290.922189 206.985056 
L 288.407221 205.709384 
L 285.874577 204.797928 
L 283.596706 203.816379 
L 280.964684 202.822689 
L 278.687045 206.438161 
L 278.743625 206.427415 
L 279.254903 204.05701 
L 279.963558 201.378955 
L 277.441363 200.58346 
L 274.980615 199.955293 
L 274.519116 200.7589 
L 273.386761 203.02042 
L 271.351063 207.615649 
L 270.896968 208.449861 
L 269.544086 208.569112 
L 265.549931 208.752409 
L 265.600193 208.715144 
L 270.555392 207.293498 
L 271.850317 206.714141 
L 274.214666 202.291465 
L 274.268391 202.505223 
L 270.700486 200.48545 
L 268.135218 199.273807 
L 265.509941 198.167634 
L 262.752809 197.269655 
L 259.956081 196.530588 
L 254.592467 194.494247 
L 249.135441 192.947922 
L 248.269604 192.788424 
L 247.090166 194.868314 
L 243.917209 198.917212 
L 244.067132 198.907111 
L 244.048354 198.828109 
L 244.524329 198.071057 
L 248.765613 192.241332 
L 248.675598 192.209333 
L 245.96806 191.278568 
L 243.38286 190.05872 
L 232.544425 186.424371 
L 227.512903 184.503666 
L 224.021088 183.167936 
L 224.350389 183.1436 
L 230.607786 185.228311 
L 239.410927 188.364227 
L 240.648784 184.580458 
L 246.376126 170.941715 
L 248.505413 166.882171 
L 248.067657 166.751938 
L 242.282141 165.474276 
L 239.614171 164.731925 
L 233.498247 163.519606 
L 233.494048 163.579788 
L 233.598419 163.476042 
L 233.658401 163.459846 
L 236.230932 164.111329 
L 239.693294 165.144369 
L 242.692659 164.922773 
L 244.803335 164.897345 
L 244.602376 164.888727 
L 247.586843 165.253697 
L 250.349403 166.226547 
L 251.994803 166.861532 
L 251.944768 166.859184 
L 250.069104 170.327195 
L 248.654057 172.489083 
L 247.362155 174.730409 
L 246.970939 177.196556 
L 247.384414 179.662557 
L 254.028457 182.975373 
L 258.85163 185.745767 
L 263.153736 188.339579 
L 268.606739 187.760716 
L 277.253262 186.428651 
L 277.962695 186.495855 
L 280.774641 186.913811 
L 291.681931 188.101659 
L 292.583752 187.827913 
L 295.362467 187.125251 
L 300.685942 186.961111 
L 306.545217 187.092236 
L 312.281444 187.570598 
L 314.759134 187.879855 
L 325.540442 184.300917 
L 328.333824 183.462144 
L 331.184142 182.83816 
L 334.092495 182.353363 
L 339.346444 181.808187 
L 338.81553 179.721302 
L 338.436477 177.40885 
L 338.126622 172.510514 
L 338.335179 167.925606 
L 338.47504 165.440334 
L 338.362918 162.973658 
L 338.498536 159.825481 
L 336.958328 156.142773 
L 336.301943 153.86377 
L 335.956168 151.420208 
L 336.620193 146.52303 
L 335.865833 141.664971 
L 335.729018 139.197375 
L 335.803741 136.752295 
L 336.006078 134.299653 
L 337.567637 125.023924 
L 337.689386 122.577199 
L 337.568179 120.132023 
L 337.232041 117.676378 
L 336.913601 113.597366 
L 336.909156 113.598455 
L 332.540467 114.607998 
L 329.723723 114.780606 
L 326.775542 114.742098 
L 312.025819 115.222963 
L 306.134375 115.630114 
L 297.88958 116.563537 
L 292.218166 117.532606 
L 283.552554 119.020468 
L 266.666489 121.803694 
L 261.075049 122.942273 
L 259.256085 123.296346 
L 257.825134 125.45037 
L 256.19034 127.515249 
L 254.185222 129.293035 
L 252.048157 131.006753 
L 249.809844 132.596491 
L 247.800606 134.215151 
L 245.921149 135.976157 
L 243.573432 138.720949 
L 243.693341 141.896783 
L 243.928352 144.32151 
L 244.034513 146.755337 
L 244.44739 149.204542 
L 245.056309 157.10458 
L 245.359132 159.422516 
L 245.414474 161.654599 
L 246.494171 171.708973 
L 247.169103 174.880331 
L 253.496124 174.645196 
L 259.392844 174.948841 
L 263.11821 175.26385 
L 262.731166 176.751646 
L 262.600108 179.263247 
L 262.273659 181.910581 
L 262.335528 181.861949 
L 262.529817 181.981366 
L 262.478804 180.573255 
L 262.27427 178.072868 
L 261.173014 169.215945 
L 261.265333 169.15158 
L 261.246309 169.078218 
L 261.25063 169.079601 
L 266.856472 168.347057 
L 269.031061 168.161853 
L 269.023051 168.156337 
L 269.277132 169.343722 
L 270.799448 173.915237 
L 270.836183 173.919332 
L 274.689074 176.634419 
L 274.684991 176.626643 
L 276.156409 181.242947 
L 276.249219 181.249421 
L 282.007706 181.080587 
L 282.003089 181.080877 
L 285.041809 182.570585 
L 284.908597 182.504942 
L 276.331021 181.49604 
L 273.586701 177.493611 
L 272.391952 175.34391 
L 272.443327 175.308929 
L 277.104594 174.580128 
L 279.971456 174.329917 
L 280.989975 173.670268 
L 286.754789 172.527286 
L 291.976887 171.685325 
L 294.554049 170.562634 
L 300.093781 169.001144 
L 302.66958 168.756476 
L 305.189916 167.958687 
L 307.830588 166.828479 
L 312.932248 164.963746 
L 316.083146 163.744574 
L 316.071354 163.738444 
L 318.66187 166.058173 
L 318.864285 168.322112 
L 320.003691 173.315936 
L 319.995876 173.313954 
L 320.003589 173.266666 
L 318.758125 171.265064 
L 318.021241 168.334144 
L 317.959107 165.861558 
L 318.115896 162.541916 
L 318.134363 162.543399 
L 319.549591 162.338321 
L 325.001111 161.851206 
L 325.001009 161.854679 
L 326.070058 165.721382 
L 327.433596 170.311118 
L 328.013738 172.615253 
L 329.729824 177.418395 
L 329.69459 177.298008 
L 319.286086 183.44767 
L 316.843532 184.573679 
L 314.163603 185.611092 
L 308.399276 186.790639 
L 302.685206 188.23939 
L 300.365375 188.969323 
L 303.229127 188.040647 
L 308.567467 186.141856 
L 314.128443 184.433097 
L 319.823614 183.108125 
L 329.678681 181.265398 
L 328.987418 178.668732 
L 327.313492 173.929062 
L 323.483635 164.553759 
L 322.997754 163.474466 
L 323.000855 163.479175 
L 322.597847 163.625755 
L 320.065769 164.702306 
L 314.900348 166.648265 
L 312.271687 167.769631 
L 309.490686 168.525865 
L 306.723157 169.419629 
L 304.18382 170.59981 
L 301.426312 171.542623 
L 298.772351 172.580302 
L 293.748969 174.927441 
L 280.113718 178.282087 
L 271.746646 180.57538 
L 268.926207 181.263401 
L 262.924593 183.165433 
L 260.156081 183.637896 
L 255.124151 185.428924 
L 252.659903 186.420137 
L 249.874657 187.388148 
L 247.346107 188.339158 
L 245.538231 183.494352 
L 245.538231 183.494352 
" clip-path="url(#pb9b4620a5c)" style="fill: none; stroke: #0000ff; stroke-opacity: 0.7; stroke-width: 0.75; stroke-linecap: square"/>
   </g>
   <g id="line2d_16">
    <path d="M 280.841818 65.100392 
L 280.841317 65.100374 
L 284.086237 65.159715 
L 284.081513 64.996369 
L 284.402173 64.811508 
L 288.550572 65.612865 
L 291.439741 66.243877 
L 300.787814 68.64917 
L 303.984244 69.30638 
L 310.235446 69.826271 
L 315.762752 70.405862 
L 321.749394 71.103918 
L 321.446495 71.046355 
L 324.121095 73.924086 
L 328.71945 78.935402 
L 335.253134 85.813158 
L 335.955069 87.899878 
L 338.002426 96.702628 
L 338.861445 101.103732 
L 339.544875 105.747353 
L 340.097197 110.46468 
L 340.053441 113.335945 
L 339.621904 119.182984 
L 338.82506 125.134704 
L 337.570636 130.640535 
L 335.915227 135.580925 
L 330.622065 148.61132 
L 327.391266 156.506516 
L 324.344999 164.70413 
L 322.096435 169.955151 
L 321.514594 169.963214 
L 320.883933 169.772536 
L 320.798356 169.684503 
L 320.54725 169.595156 
L 312.21906 169.102299 
L 308.963341 168.698408 
L 301.120954 168.020611 
L 294.611349 166.970901 
L 291.15347 166.34592 
L 288.888954 165.675734 
L 285.932863 164.620177 
L 277.59712 163.085358 
L 270.766239 161.102736 
L 267.268453 160.494465 
L 260.313861 159.554055 
L 243.356536 156.060937 
L 240.058721 155.174334 
L 233.486203 153.853176 
L 224.044697 152.056726 
L 223.608052 151.727715 
L 223.635902 151.032411 
L 224.10064 148.196566 
L 224.488482 142.581354 
L 224.429077 139.44726 
L 224.238619 135.891935 
L 223.680938 132.35445 
L 225.024261 126.235033 
L 225.338226 123.097679 
L 225.232329 118.94475 
L 224.829871 116.230733 
L 227.316799 111.503674 
L 229.659998 104.488619 
L 232.605703 93.825281 
L 233.390608 90.255116 
L 233.992708 86.679719 
L 235.586089 80.194267 
L 239.734169 66.842388 
L 240.307229 64.820702 
L 241.140776 60.636003 
L 241.58578 58.535322 
L 242.672344 55.406538 
L 242.502081 55.848318 
L 243.22518 55.936766 
L 249.123594 56.959989 
L 255.949456 57.732775 
L 265.692749 56.479289 
L 271.925663 55.693019 
L 274.663795 55.472428 
L 276.856688 55.850724 
L 279.011253 56.657084 
L 276.963455 58.85601 
L 275.54802 62.189982 
L 274.47651 62.54391 
L 274.305354 66.43129 
L 273.880466 66.067036 
L 276.210952 66.1986 
L 281.060144 66.207711 
L 286.038103 66.455659 
L 290.990935 66.917018 
L 296.093635 67.682406 
L 302.214716 68.919089 
L 310.875606 70.363717 
L 314.389406 71.005195 
L 313.335255 70.814833 
L 315.776481 72.181188 
L 318.40728 73.981785 
L 321.17207 76.542387 
L 323.918279 79.591887 
L 326.357804 83.136435 
L 328.350145 87.256736 
L 331.836532 95.676067 
L 333.427445 100.029199 
L 334.630893 105.932412 
L 335.480267 111.947581 
L 335.843521 118.494135 
L 335.857067 121.33388 
L 335.50177 127.145674 
L 334.35865 133.17562 
L 333.586661 136.24276 
L 332.688617 138.939062 
L 331.199324 142.593747 
L 330.259486 145.804569 
L 327.994398 151.754833 
L 324.651786 161.272207 
L 321.725505 166.900291 
L 318.724489 171.652351 
L 318.76993 171.570532 
L 317.625563 171.712001 
L 316.198056 171.297758 
L 307.93398 170.184092 
L 300.01586 168.672384 
L 292.655765 167.497334 
L 285.397789 166.384531 
L 282.345127 166.449821 
L 279.258283 165.965197 
L 278.531388 165.800535 
L 280.07407 165.959733 
L 272.74513 162.508054 
L 271.331372 161.85517 
L 265.743888 161.491879 
L 262.25418 161.437713 
L 258.827555 161.144591 
L 249.677281 158.853795 
L 246.403892 158.11604 
L 239.768475 156.999979 
L 233.33586 155.546951 
L 230.50581 155.188549 
L 228.919996 153.440024 
L 223.586182 146.640215 
L 223.509783 144.260735 
L 223.364646 141.981381 
L 221.862299 134.661188 
L 221.972822 133.467932 
L 223.272449 126.569583 
L 223.691543 123.14717 
L 223.813143 119.615761 
L 225.236308 112.236704 
L 227.610468 105.746531 
L 228.506591 102.251786 
L 230.570377 95.487437 
L 231.118806 91.920247 
L 231.287338 88.408489 
L 232.659817 81.444269 
L 232.938886 78.119807 
L 233.903115 74.521469 
L 234.806867 72.183556 
L 237.102814 67.179052 
L 238.511508 64.51477 
L 241.72028 57.317656 
L 242.387042 55.371208 
L 242.352644 55.600222 
L 242.938751 55.410964 
L 252.62992 56.243826 
L 258.561616 57.147323 
L 261.702554 57.778408 
L 272.013645 60.908256 
L 275.257504 61.983794 
L 280.878877 63.288079 
L 282.654672 63.748622 
L 282.988023 63.968025 
L 285.675602 64.729261 
L 288.232832 65.102437 
L 291.423469 65.237394 
L 305.918942 66.537918 
L 305.816583 63.681625 
L 305.42814 59.249763 
L 305.096833 57.016045 
L 304.24996 53.568 
L 304.04217 54.016942 
L 303.155419 54.291814 
L 302.816647 54.805487 
L 302.625896 54.635944 
L 302.00864 54.446004 
L 301.15756 54.478038 
L 300.87078 54.287338 
L 300.91369 54.486192 
L 300.419146 59.767268 
L 299.52335 64.734625 
L 298.724845 67.932805 
L 297.810488 68.193957 
L 297.988555 68.176842 
L 298.345797 67.869062 
L 298.275962 67.768844 
L 302.040353 69.243304 
L 307.769793 70.632721 
L 308.989069 70.896373 
L 309.328004 75.942921 
L 309.407632 80.085018 
L 309.527143 79.891667 
L 310.289847 77.817132 
L 309.512808 75.401 
L 310.026796 74.845218 
L 313.927703 71.354202 
L 314.137082 71.412287 
L 323.011516 76.640533 
L 322.67 76.52166 
L 322.502952 76.688895 
L 324.532271 75.3669 
L 326.361308 73.947645 
L 328.499037 72.017914 
L 328.379929 72.310604 
L 328.938579 72.499622 
L 329.362936 72.024053 
L 329.552068 71.605402 
L 330.329055 72.310898 
L 332.980879 74.034585 
L 337.196545 76.307708 
L 343.438936 80.008638 
L 342.979334 79.97967 
L 343.584866 82.483554 
L 344.656492 82.621722 
L 344.617596 83.188158 
L 343.410834 84.247525 
L 342.619699 84.5788 
L 341.315097 86.070204 
L 339.875462 88.572171 
L 336.649863 92.851878 
L 334.111874 95.18068 
L 330.991846 96.905442 
L 327.744719 98.355686 
L 324.612127 99.573748 
L 324.383605 99.858726 
L 328.036635 106.520501 
L 328.064818 106.939975 
L 325.074008 108.17475 
L 314.710645 111.845463 
L 313.003713 112.661523 
L 311.334053 112.645879 
L 308.883494 112.49981 
L 308.752833 112.63827 
L 308.891579 112.751389 
L 308.875955 113.575913 
L 308.802868 113.622442 
L 308.535317 113.949743 
L 308.628402 113.998636 
L 312.183739 114.211193 
L 317.473412 114.781234 
L 317.409605 114.792267 
L 317.752642 114.916395 
L 317.729953 121.014014 
L 317.445348 124.296686 
L 317.313826 127.617638 
L 316.855404 129.52925 
L 316.763946 129.285725 
L 316.983667 128.922355 
L 317.407405 128.74232 
L 317.649955 128.774591 
L 317.525654 128.615391 
L 317.452415 128.287692 
L 317.948573 127.180531 
L 319.625947 121.090926 
L 320.197736 118.029636 
L 320.496975 115.712577 
L 320.392248 115.471469 
L 320.406857 115.155029 
L 322.114864 114.977443 
L 328.401571 115.241917 
L 330.399934 115.468659 
L 330.727988 115.775833 
L 330.719548 118.097258 
L 330.358675 121.38341 
L 329.877196 124.671036 
L 340.514535 127.629862 
L 343.817642 128.714325 
L 349.761458 131.081316 
L 350.083566 130.920423 
L 347.979249 130.1162 
L 334.695221 126.384756 
L 332.03275 125.849723 
L 331.747625 125.977575 
L 331.652842 126.291319 
L 331.576746 127.566441 
L 331.128175 130.47176 
L 330.530622 133.412834 
L 329.875882 140.59838 
L 329.732724 143.961296 
L 329.326216 147.58687 
L 328.596171 151.478735 
L 328.673555 154.326759 
L 329.368996 157.6553 
L 330.099491 165.329502 
L 331.055389 165.693863 
L 333.92153 166.396378 
L 336.845992 167.431342 
L 339.769621 168.631182 
L 344.812278 170.565515 
L 345.315502 171.14565 
L 345.445212 171.909033 
L 345.987154 172.27093 
L 345.312108 172.201268 
L 334.459198 169.969198 
L 327.51947 168.858708 
L 326.231038 168.697354 
L 326.097503 169.506321 
L 326.101586 172.208583 
L 324.918718 178.460789 
L 323.560259 184.418825 
L 322.626957 187.600631 
L 321.461575 190.82005 
L 320.363519 194.322696 
L 319.018993 197.880048 
L 317.50596 201.379423 
L 317.039188 203.080228 
L 317.432872 203.431134 
L 317.899067 203.405466 
L 323.662206 204.614814 
L 327.042866 205.496079 
L 330.730921 206.58583 
L 334.342029 207.896476 
L 337.939194 209.078171 
L 342.493625 209.963467 
L 342.463251 210.006427 
L 342.585416 210.329211 
L 343.144216 210.86565 
L 343.039825 210.912285 
L 342.882903 211.201053 
L 343.147669 211.670842 
L 343.511557 212.019359 
L 343.60263 212.479009 
L 343.467052 212.711365 
L 335.837871 209.67007 
L 332.206494 208.6099 
L 324.312321 207.222007 
L 323.764148 207.316684 
L 323.409218 207.269824 
L 321.961081 207.382915 
L 314.133262 206.789019 
L 311.35712 206.917055 
L 314.94077 205.544502 
L 311.038752 209.19436 
L 310.783156 215.428954 
L 310.452336 218.572459 
L 311.962371 222.442237 
L 311.365933 224.214236 
L 312.169755 226.869151 
L 314.511769 227.237691 
L 315.12503 227.033237 
L 313.998195 227.224613 
L 312.772389 226.83745 
L 311.564187 226.309787 
L 309.301618 222.426111 
L 306.767628 218.663368 
L 304.001019 215.039332 
L 301.041586 211.508322 
L 298.835431 209.628906 
L 297.579959 209.369362 
L 292.960143 209.227938 
L 288.42567 209.442348 
L 279.215206 210.458603 
L 274.230192 211.915083 
L 269.183861 213.595797 
L 259.23842 217.683053 
L 256.524791 219.228622 
L 256.981153 221.674568 
L 258.588483 226.573101 
L 260.678937 231.246129 
L 262.530746 236.393677 
L 263.227688 243.14705 
L 263.534628 243.3598 
L 262.148823 244.01853 
L 261.859409 245.75497 
L 261.319175 244.392424 
L 260.188094 240.979261 
L 259.068624 237.117942 
L 257.556831 233.308173 
L 256.531081 229.770601 
L 255.551705 227.424344 
L 254.978113 227.184213 
L 254.29501 227.569592 
L 245.33984 227.765022 
L 245.004099 228.206312 
L 244.991325 228.410246 
L 245.478782 234.641257 
L 245.404425 238.636178 
L 244.869038 246.611644 
L 244.466842 250.576761 
L 245.373451 248.932843 
L 246.340211 247.76649 
L 246.69972 248.475396 
L 245.922894 249.521239 
L 244.771524 250.176546 
L 243.813856 250.268883 
L 244.229123 248.25703 
L 246.158212 241.159966 
L 246.756614 237.692986 
L 247.001503 234.667385 
L 247.240264 234.820613 
L 246.124916 235.313737 
L 241.153401 234.948181 
L 235.999281 234.870563 
L 230.396859 235.214647 
L 224.134072 235.988594 
L 219.917568 236.795993 
L 192.170522 240.310169 
L 189.826032 245.350215 
L 196.071826 253.155456 
L 197.233742 257.75939 
L 199.375056 261.778462 
L 202.166773 265.17064 
L 204.698721 268.507566 
L 206.096287 273.090293 
L 207.147485 274.417906 
L 206.040744 275.346345 
L 206.851217 276.828338 
L 206.722948 275.144767 
L 205.268101 268.42653 
L 203.340573 264.859008 
L 198.878859 261.360452 
L 195.320295 258.403434 
L 193.697232 258.163519 
L 191.528469 259.300974 
L 186.132521 260.937104 
L 181.122017 262.964894 
L 178.569255 266.004426 
L 184.751241 268.897981 
L 186.425423 279.78012 
L 187.23495 283.590755 
L 187.488892 287.359035 
L 187.250814 289.05338 
L 185.904511 284.975415 
L 184.953872 282.857609 
L 184.089296 281.46872 
L 184.446765 279.513213 
L 185.811805 278.572063 
L 186.824642 278.384035 
L 185.86754 276.777572 
L 184.385665 272.916567 
L 182.863165 270.223364 
L 181.511987 267.5428 
L 179.617886 264.789389 
L 178.481072 263.364814 
L 177.52035 263.68046 
L 174.772718 265.26427 
L 171.599814 266.865928 
L 167.298944 268.861322 
L 162.86814 270.718024 
L 158.764696 272.586038 
L 152.200086 275.955461 
L 152.240784 275.703398 
L 149.823685 275.53448 
L 149.84458 275.463062 
L 149.82591 275.046592 
L 149.018549 274.405771 
L 150.908058 272.213221 
L 154.231781 269.064436 
L 157.071526 265.586952 
L 159.311326 262.152071 
L 164.954583 255.801921 
L 167.629247 252.209907 
L 171.188505 241.407611 
L 171.953187 239.810323 
L 172.165662 239.663227 
L 168.777088 239.548164 
L 168.30734 237.039647 
L 165.59585 236.389829 
L 162.263249 235.75806 
L 157.480111 236.710785 
L 152.674774 237.791142 
L 147.885291 238.526959 
L 137.228912 239.500016 
L 127.579721 240.321091 
L 127.065914 240.700046 
L 127.378333 241.684567 
L 128.254447 242.184944 
L 130.225918 242.302342 
L 142.894933 240.943639 
L 146.987071 240.265225 
L 152.147017 238.633063 
L 152.037897 238.634334 
L 149.075582 231.773654 
L 148.948603 231.82906 
L 144.497373 232.43276 
L 139.774804 232.73218 
L 135.582053 233.245152 
L 135.560568 233.150741 
L 135.573976 233.152012 
L 139.441226 232.57477 
L 144.230126 232.431406 
L 149.046686 232.607402 
L 149.030128 232.54029 
L 148.228033 230.901709 
L 146.633184 227.10427 
L 145.161479 223.178974 
L 143.912614 219.198241 
L 141.2285 213.745544 
L 138.130347 207.904383 
L 134.303864 201.255004 
L 132.00031 196.390147 
L 128.823348 191.270671 
L 132.352687 190.198889 
L 137.074622 191.810555 
L 124.578759 201.50989 
L 116.078438 202.854581 
L 115.961047 203.019664 
L 115.664663 202.897652 
L 115.201677 202.937213 
L 115.179016 203.095779 
L 119.609571 201.423728 
L 124.705778 199.873957 
L 124.415341 199.642856 
L 122.825853 195.783732 
L 121.01407 192.201735 
L 120.530053 192.139751 
L 108.568554 194.977861 
L 103.131953 197.244055 
L 100.753268 198.674031 
L 99.931038 199.440883 
L 98.439422 197.971884 
L 94.417009 193.56759 
L 95.106603 193.697364 
L 96.087035 194.268283 
L 96.805162 195.516417 
L 96.276431 196.634655 
L 95.739407 196.968452 
L 98.726103 199.184392 
L 104.413686 203.11277 
L 111.268788 199.002357 
L 118.123044 194.607746 
L 116.683287 191.224118 
L 116.469459 187.307149 
L 114.52533 184.097365 
L 112.575875 178.71438 
L 110.411026 173.5521 
L 108.125939 168.59933 
L 105.427709 164.083926 
L 102.422786 159.769981 
L 97.582913 150.56262 
L 94.761988 146.135339 
L 91.803369 142.018829 
L 91.60856 140.957014 
L 91.029485 141.920612 
L 85.926472 143.603146 
L 74.917414 145.652196 
L 74.238486 146.454307 
L 74.903791 147.194583 
L 74.329632 147.503482 
L 73.832727 148.206399 
L 74.095545 149.291853 
L 74.463412 150.32772 
L 75.71591 151.056888 
L 84.544824 152.333224 
L 88.590188 153.037363 
L 83.319527 161.857013 
L 90.135882 164.14456 
L 90.463225 159.821216 
L 90.980625 150.873375 
L 91.484487 142.508323 
L 89.687272 134.399089 
L 88.15869 124.985841 
L 88.301966 124.958846 
L 88.279948 124.816084 
L 88.414291 124.994353 
L 89.460647 124.708549 
L 90.074146 126.31171 
L 96.251029 146.096037 
L 94.229027 146.268918 
L 94.40742 146.090628 
L 97.316981 144.242807 
L 102.159744 141.871574 
L 107.090272 139.832571 
L 111.769188 137.696001 
L 116.477492 135.823147 
L 121.202952 133.759651 
L 129.688139 134.217273 
L 133.937311 134.584341 
L 137.187704 135.14612 
L 137.556865 136.742332 
L 138.216349 136.376959 
L 137.013928 132.627488 
L 136.024604 128.943491 
L 135.419206 125.428548 
L 133.419085 118.585085 
L 133.626071 117.762585 
L 132.898264 117.962252 
L 132.565551 119.566869 
L 133.23303 121.080011 
L 131.655697 122.64752 
L 131.056632 123.887638 
L 130.184766 124.670307 
L 132.319057 128.973104 
L 134.23422 133.378931 
L 135.535927 135.165587 
L 139.099823 139.018277 
L 141.535269 141.853151 
L 141.753046 141.592559 
L 144.59445 146.1099 
L 147.639765 154.486301 
L 147.946847 154.519214 
L 147.215679 155.22611 
L 146.672948 156.519125 
L 147.661773 156.864246 
L 147.26598 156.946755 
L 143.412069 158.571564 
L 137.416131 160.429573 
L 131.136634 161.860839 
L 124.868115 163.607054 
L 119.490852 167.10875 
L 115.511442 171.642431 
L 114.920425 170.443475 
L 116.82825 175.211426 
L 116.829497 183.110818 
L 116.531481 187.864576 
L 114.595369 199.585113 
L 131.132227 208.05585 
L 130.615809 210.761811 
L 131.527384 213.494673 
L 133.749425 215.996949 
L 140.828597 218.447963 
L 148.247826 220.638766 
L 148.339595 221.56297 
L 149.085825 224.981055 
L 158.88549 235.996262 
L 161.487519 239.448867 
L 168.576791 238.616874 
L 177.872918 240.016857 
L 183.317987 242.881545 
L 189.053166 246.456343 
L 194.009896 250.342945 
L 198.77945 254.401897 
L 202.763423 258.736682 
L 205.995216 263.116757 
L 208.336302 267.380916 
L 210.42909 266.896054 
L 223.962881 271.734883 
L 237.592211 276.972023 
L 244.607137 279.853098 
L 251.534829 283.143862 
L 258.418438 286.759352 
L 265.14609 290.640937 
L 271.105782 293.778102 
L 273.392506 293.098656 
L 272.899938 295.488 
L 274.015361 286.397925 
L 276.290132 278.844309 
L 279.367414 272.914473 
L 283.296798 266.784634 
L 287.579967 261.638004 
L 295.892272 252.403081 
L 299.75424 246.274417 
L 304.323618 242.361083 
L 305.819888 240.507918 
L 306.596894 234.426239 
L 307.198151 225.673973 
L 309.165485 217.854662 
L 312.467213 211.366365 
L 321.648459 204.92646 
L 324.975712 198.489915 
L 327.626341 190.274857 
L 331.237971 183.66929 
L 335.2765 178.358836 
L 339.536467 173.819656 
L 343.861634 170.529091 
L 348.239597 167.962634 
L 352.820077 164.693527 
L 357.369424 161.642649 
L 361.815596 157.065047 
L 365.793112 151.262198 
L 369.27578 144.403949 
L 373.283895 138.334821 
L 376.56725 137.759439 
L 376.912057 138.315043 
L 376.578392 138.064479 
L 372.873956 138.951678 
L 368.653359 137.43799 
L 362.744079 134.623395 
L 357.898191 130.932821 
L 353.473612 126.736198 
L 343.934398 118.737175 
L 338.511515 115.08152 
L 332.749457 111.601479 
L 326.871585 108.217136 
L 320.56456 104.979803 
L 314.144023 101.836309 
L 307.426144 99.16345 
L 301.803808 96.38392 
L 295.513376 93.909998 
L 288.746995 91.663991 
L 273.579088 87.655731 
L 266.61402 85.365245 
L 260.365205 82.881377 
L 254.413399 80.369035 
L 248.286294 77.958154 
L 236.71011 73.09392 
L 230.921307 70.747128 
L 228.352691 67.844319 
L 225.179905 65.088885 
L 222.12463 62.121598 
L 220.747418 60.130362 
L 217.979955 63.91262 
L 210.370829 68.351143 
L 202.645675 71.977459 
L 195.174861 73.791061 
L 187.803548 75.0785 
L 181.032852 76.039831 
L 173.768198 78.01474 
L 165.774801 81.261935 
L 157.45777 85.956776 
L 150.805133 91.671935 
L 149.721668 91.119015 
L 148.300388 93.259228 
L 145.695954 98.921654 
L 142.899936 103.576673 
L 141.097865 110.559395 
L 138.564537 115.585893 
L 133.329413 126.981082 
L 130.302508 131.138515 
L 127.010739 134.290052 
L 123.89463 138.293315 
L 117.32054 146.250535 
L 116.944984 147.596794 
L 117.076568 149.16369 
L 113.884455 153.581691 
L 111.044701 158.620097 
L 110.390384 161.361735 
L 113.526298 165.397568 
L 123.56357 166.112166 
L 135.648262 169.038517 
L 139.036712 172.787525 
L 142.311779 176.963534 
L 148.624485 185.635755 
L 150.601041 187.437405 
L 150.400504 188.06074 
L 146.789034 189.680734 
L 141.440048 192.794103 
L 135.53422 195.728467 
L 135.746919 197.398442 
L 136.187232 197.409798 
L 135.995625 197.810549 
L 136.80891 198.320318 
L 138.861096 198.698739 
L 140.51481 199.427182 
L 140.889673 200.11338 
L 144.035272 198.114001 
L 149.511186 194.852309 
L 167.862983 183.085382 
L 167.830389 182.699973 
L 165.481195 182.883823 
L 164.788648 183.848953 
L 164.744731 182.93517 
L 166.756795 183.588545 
L 173.526236 187.157026 
L 180.360343 191.324071 
L 186.450011 194.524198 
L 183.850326 195.996313 
L 179.027451 199.376526 
L 174.385583 202.737474 
L 174.516668 202.859432 
L 175.236756 202.991143 
L 172.75691 212.252937 
L 172.74347 212.184849 
L 163.513339 218.653319 
L 163.27825 219.720245 
L 164.750514 219.981363 
L 173.628624 229.692097 
L 174.949031 229.601429 
L 175.630302 234.98418 
L 176.668357 237.59033 
L 177.239488 237.10765 
L 177.336449 237.465675 
L 175.868279 235.864468 
L 171.682358 230.443765 
L 167.467227 224.790663 
L 163.119695 219.343931 
L 162.686508 218.656743 
L 165.81631 214.282384 
L 169.635703 209.423024 
L 173.819073 204.426393 
L 174.139775 204.353146 
L 176.624879 206.831367 
L 180.7382 211.380102 
L 185.339796 215.586856 
L 186.654953 215.649566 
L 190.722392 215.550076 
L 192.361101 215.108165 
L 203.59301 222.505233 
L 208.995402 226.381341 
L 213.393861 229.372553 
L 215.080549 228.629037 
L 221.780526 230.802368 
L 228.04204 233.840675 
L 233.84099 236.913269 
L 238.218991 240.495355 
L 244.058346 243.065718 
L 250.79983 245.282809 
L 257.078669 247.79801 
L 269.826982 252.525294 
L 272.202784 252.359046 
L 273.111381 252.437391 
L 273.024472 252.3669 
L 270.770829 256.613032 
L 269.648091 257.801533 
L 269.493602 256.302384 
L 264.549111 257.369192 
L 259.82495 258.890622 
L 254.663515 260.889876 
L 253.632478 260.079027 
L 254.546954 258.43572 
L 255.893157 258.21862 
L 256.282388 256.511615 
L 259.198025 251.588409 
L 265.041089 246.111537 
L 270.760766 241.97396 
L 276.229372 238.256155 
L 278.763241 235.68969 
L 279.741634 234.035806 
L 280.627703 234.137298 
L 283.87232 236.025729 
L 288.763526 240.494795 
L 292.53892 244.199015 
L 293.512607 244.231085 
L 294.618005 244.720097 
L 291.694468 247.706775 
L 287.104213 252.091742 
L 282.723601 256.441785 
L 278.229668 260.682455 
L 273.618613 264.809481 
L 269.39674 269.27849 
L 266.338836 275.206896 
L 266.988835 278.562513 
L 280.32709 282.379668 
L 278.875713 283.473913 
L 279.222696 283.826286 
L 279.052751 283.596287 
L 274.437937 283.206909 
L 266.829676 281.562882 
L 259.582186 279.680023 
L 252.467739 278.257601 
L 245.100893 276.601036 
L 232.924049 277.831239 
L 222.481892 277.647079 
L 218.321342 274.650947 
L 213.9183 271.761847 
L 208.057032 269.298319 
L 201.612366 266.997768 
L 198.941269 263.093792 
L 201.567346 261.608691 
L 197.618114 257.072352 
L 193.306361 253.460035 
L 195.040709 253.522848 
L 201.319657 256.292677 
L 214.707585 261.917556 
L 221.071816 265.138543 
L 227.298367 268.581479 
L 232.727368 272.490381 
L 238.998221 276.545721 
L 244.945757 280.708263 
L 256.576874 289.196197 
L 260.042829 290.811752 
L 261.897937 290.373978 
L 261.877001 287.947994 
L 266.70462 282.364595 
L 275.586933 270.792339 
L 279.759587 264.961703 
L 287.883037 253.16361 
L 293.352734 251.496526 
L 296.372572 251.692445 
L 297.455105 253.360433 
L 294.208093 253.758749 
L 286.657903 251.909718 
L 272.05431 247.617302 
L 264.331087 245.707916 
L 257.499739 242.762653 
L 250.280025 240.123793 
L 242.490827 238.523048 
L 235.136454 235.992612 
L 227.60345 233.848067 
L 219.775151 232.07131 
L 212.060128 230.664209 
L 199.238242 224.634697 
L 192.467124 221.794827 
L 186.009972 218.277966 
L 179.183842 214.909994 
L 172.138051 211.771316 
L 164.912634 208.83858 
L 151.250028 201.126764 
L 144.442386 197.595773 
L 136.72029 193.284933 
L 130.029709 189.231833 
L 117.248441 183.072831 
L 112.323285 179.81559 
L 107.13474 175.981729 
L 102.192864 172.672196 
L 102.245102 172.573419 
L 106.716615 169.003871 
L 112.465536 164.61177 
L 112.465536 164.61177 
" clip-path="url(#pb9b4620a5c)" style="fill: none; stroke: #ff0000; stroke-opacity: 0.7; stroke-width: 0.75; stroke-linecap: square"/>
   </g>
   <g id="patch_3">
    <path d="M 57.6 307.584 
L 57.6 41.472 
" style="fill: none; stroke: #000000; stroke-width: 0.8; stroke-linejoin: miter; stroke-linecap: square"/>
   </g>
   <g id="patch_4">
    <path d="M 414.72 307.584 
L 414.72 41.472 
" style="fill: none; stroke: #000000; stroke-width: 0.8; stroke-linejoin: miter; stroke-linecap: square"/>
   </g>
   <g id="patch_5">
    <path d="M 57.6 307.584 
L 414.72 307.584 
" style="fill: none; stroke: #000000; stroke-width: 0.8; stroke-linejoin: miter; stroke-linecap: square"/>
   </g>
   <g id="patch_6">
    <path d="M 57.6 41.472 
L 414.72 41.472 
" style="fill: none; stroke: #000000; stroke-width: 0.8; stroke-linejoin: miter; stroke-linecap: square"/>
   </g>
   <g id="text_17">
    <!-- Initial Trajectory Estimate vs Optimized Trajectory Estimate -->
    <g transform="translate(58.480312 35.472) scale(0.12 -0.12)">
     <defs>
      <path id="DejaVuSans-49" d="M 628 4666 
L 1259 4666 
L 1259 0 
L 628 0 
L 628 4666 
z
" transform="scale(0.015625)"/>
      <path id="DejaVuSans-6e" d="M 3513 2113 
L 3513 0 
L 2938 0 
L 2938 2094 
Q 2938 2591 2744 2837 
Q 2550 3084 2163 3084 
Q 1697 3084 1428 2787 
Q 1159 2491 1159 1978 
L 1159 0 
L 581 0 
L 581 3500 
L 1159 3500 
L 1159 2956 
Q 1366 3272 1645 3428 
Q 1925 3584 2291 3584 
Q 2894 3584 3203 3211 
Q 3513 2838 3513 2113 
z
" transform="scale(0.015625)"/>
      <path id="DejaVuSans-74" d="M 1172 4494 
L 1172 3500 
L 2356 3500 
L 2356 3053 
L 1172 3053 
L 1172 1153 
Q 1172 725 1289 603 
Q 1406 481 1766 481 
L 2356 481 
L 2356 0 
L 1766 0 
Q 1100 0 847 248 
Q 594 497 594 1153 
L 594 3053 
L 172 3053 
L 172 3500 
L 594 3500 
L 594 4494 
L 1172 4494 
z
" transform="scale(0.015625)"/>
      <path id="DejaVuSans-6c" d="M 603 4863 
L 1178 4863 
L 1178 0 
L 603 0 
L 603 4863 
z
" transform="scale(0.015625)"/>
      <path id="DejaVuSans-20" transform="scale(0.015625)"/>
      <path id="DejaVuSans-54" d="M -19 4666 
L 3928 4666 
L 3928 4134 
L 2272 4134 
L 2272 0 
L 1638 0 
L 1638 4134 
L -19 4134 
L -19 4666 
z
" transform="scale(0.015625)"/>
      <path id="DejaVuSans-72" d="M 2631 2963 
Q 2534 3019 2420 3045 
Q 2306 3072 2169 3072 
Q 1681 3072 1420 2755 
Q 1159 2438 1159 1844 
L 1159 0 
L 581 0 
L 581 3500 
L 1159 3500 
L 1159 2956 
Q 1341 3275 1631 3429 
Q 1922 3584 2338 3584 
Q 2397 3584 2469 3576 
Q 2541 3569 2628 3553 
L 2631 2963 
z
" transform="scale(0.015625)"/>
      <path id="DejaVuSans-6a" d="M 603 3500 
L 1178 3500 
L 1178 -63 
Q 1178 -731 923 -1031 
Q 669 -1331 103 -1331 
L -116 -1331 
L -116 -844 
L 38 -844 
Q 366 -844 484 -692 
Q 603 -541 603 -63 
L 603 3500 
z
M 603 4863 
L 1178 4863 
L 1178 4134 
L 603 4134 
L 603 4863 
z
" transform="scale(0.015625)"/>
      <path id="DejaVuSans-65" d="M 3597 1894 
L 3597 1613 
L 953 1613 
Q 991 1019 1311 708 
Q 1631 397 2203 397 
Q 2534 397 2845 478 
Q 3156 559 3463 722 
L 3463 178 
Q 3153 47 2828 -22 
Q 2503 -91 2169 -91 
Q 1331 -91 842 396 
Q 353 884 353 1716 
Q 353 2575 817 3079 
Q 1281 3584 2069 3584 
Q 2775 3584 3186 3129 
Q 3597 2675 3597 1894 
z
M 3022 2063 
Q 3016 2534 2758 2815 
Q 2500 3097 2075 3097 
Q 1594 3097 1305 2825 
Q 1016 2553 972 2059 
L 3022 2063 
z
" transform="scale(0.015625)"/>
      <path id="DejaVuSans-63" d="M 3122 3366 
L 3122 2828 
Q 2878 2963 2633 3030 
Q 2388 3097 2138 3097 
Q 1578 3097 1268 2742 
Q 959 2388 959 1747 
Q 959 1106 1268 751 
Q 1578 397 2138 397 
Q 2388 397 2633 464 
Q 2878 531 3122 666 
L 3122 134 
Q 2881 22 2623 -34 
Q 2366 -91 2075 -91 
Q 1284 -91 818 406 
Q 353 903 353 1747 
Q 353 2603 823 3093 
Q 1294 3584 2113 3584 
Q 2378 3584 2631 3529 
Q 2884 3475 3122 3366 
z
" transform="scale(0.015625)"/>
      <path id="DejaVuSans-6f" d="M 1959 3097 
Q 1497 3097 1228 2736 
Q 959 2375 959 1747 
Q 959 1119 1226 758 
Q 1494 397 1959 397 
Q 2419 397 2687 759 
Q 2956 1122 2956 1747 
Q 2956 2369 2687 2733 
Q 2419 3097 1959 3097 
z
M 1959 3584 
Q 2709 3584 3137 3096 
Q 3566 2609 3566 1747 
Q 3566 888 3137 398 
Q 2709 -91 1959 -91 
Q 1206 -91 779 398 
Q 353 888 353 1747 
Q 353 2609 779 3096 
Q 1206 3584 1959 3584 
z
" transform="scale(0.015625)"/>
      <path id="DejaVuSans-79" d="M 2059 -325 
Q 1816 -950 1584 -1140 
Q 1353 -1331 966 -1331 
L 506 -1331 
L 506 -850 
L 844 -850 
Q 1081 -850 1212 -737 
Q 1344 -625 1503 -206 
L 1606 56 
L 191 3500 
L 800 3500 
L 1894 763 
L 2988 3500 
L 3597 3500 
L 2059 -325 
z
" transform="scale(0.015625)"/>
      <path id="DejaVuSans-45" d="M 628 4666 
L 3578 4666 
L 3578 4134 
L 1259 4134 
L 1259 2753 
L 3481 2753 
L 3481 2222 
L 1259 2222 
L 1259 531 
L 3634 531 
L 3634 0 
L 628 0 
L 628 4666 
z
" transform="scale(0.015625)"/>
      <path id="DejaVuSans-6d" d="M 3328 2828 
Q 3544 3216 3844 3400 
Q 4144 3584 4550 3584 
Q 5097 3584 5394 3201 
Q 5691 2819 5691 2113 
L 5691 0 
L 5113 0 
L 5113 2094 
Q 5113 2597 4934 2840 
Q 4756 3084 4391 3084 
Q 3944 3084 3684 2787 
Q 3425 2491 3425 1978 
L 3425 0 
L 2847 0 
L 2847 2094 
Q 2847 2600 2669 2842 
Q 2491 3084 2119 3084 
Q 1678 3084 1418 2786 
Q 1159 2488 1159 1978 
L 1159 0 
L 581 0 
L 581 3500 
L 1159 3500 
L 1159 2956 
Q 1356 3278 1631 3431 
Q 1906 3584 2284 3584 
Q 2666 3584 2933 3390 
Q 3200 3197 3328 2828 
z
" transform="scale(0.015625)"/>
      <path id="DejaVuSans-76" d="M 191 3500 
L 800 3500 
L 1894 563 
L 2988 3500 
L 3597 3500 
L 2284 0 
L 1503 0 
L 191 3500 
z
" transform="scale(0.015625)"/>
      <path id="DejaVuSans-4f" d="M 2522 4238 
Q 1834 4238 1429 3725 
Q 1025 3213 1025 2328 
Q 1025 1447 1429 934 
Q 1834 422 2522 422 
Q 3209 422 3611 934 
Q 4013 1447 4013 2328 
Q 4013 3213 3611 3725 
Q 3209 4238 2522 4238 
z
M 2522 4750 
Q 3503 4750 4090 4092 
Q 4678 3434 4678 2328 
Q 4678 1225 4090 567 
Q 3503 -91 2522 -91 
Q 1538 -91 948 565 
Q 359 1222 359 2328 
Q 359 3434 948 4092 
Q 1538 4750 2522 4750 
z
" transform="scale(0.015625)"/>
      <path id="DejaVuSans-70" d="M 1159 525 
L 1159 -1331 
L 581 -1331 
L 581 3500 
L 1159 3500 
L 1159 2969 
Q 1341 3281 1617 3432 
Q 1894 3584 2278 3584 
Q 2916 3584 3314 3078 
Q 3713 2572 3713 1747 
Q 3713 922 3314 415 
Q 2916 -91 2278 -91 
Q 1894 -91 1617 61 
Q 1341 213 1159 525 
z
M 3116 1747 
Q 3116 2381 2855 2742 
Q 2594 3103 2138 3103 
Q 1681 3103 1420 2742 
Q 1159 2381 1159 1747 
Q 1159 1113 1420 752 
Q 1681 391 2138 391 
Q 2594 391 2855 752 
Q 3116 1113 3116 1747 
z
" transform="scale(0.015625)"/>
      <path id="DejaVuSans-7a" d="M 353 3500 
L 3084 3500 
L 3084 2975 
L 922 459 
L 3084 459 
L 3084 0 
L 275 0 
L 275 525 
L 2438 3041 
L 353 3041 
L 353 3500 
z
" transform="scale(0.015625)"/>
      <path id="DejaVuSans-64" d="M 2906 2969 
L 2906 4863 
L 3481 4863 
L 3481 0 
L 2906 0 
L 2906 525 
Q 2725 213 2448 61 
Q 2172 -91 1784 -91 
Q 1150 -91 751 415 
Q 353 922 353 1747 
Q 353 2572 751 3078 
Q 1150 3584 1784 3584 
Q 2172 3584 2448 3432 
Q 2725 3281 2906 2969 
z
M 947 1747 
Q 947 1113 1208 752 
Q 1469 391 1925 391 
Q 2381 391 2643 752 
Q 2906 1113 2906 1747 
Q 2906 2381 2643 2742 
Q 2381 3103 1925 3103 
Q 1469 3103 1208 2742 
Q 947 2381 947 1747 
z
" transform="scale(0.015625)"/>
     </defs>
     <use xlink:href="#DejaVuSans-49"/>
     <use xlink:href="#DejaVuSans-6e" transform="translate(29.492188 0)"/>
     <use xlink:href="#DejaVuSans-69" transform="translate(92.871094 0)"/>
     <use xlink:href="#DejaVuSans-74" transform="translate(120.654297 0)"/>
     <use xlink:href="#DejaVuSans-69" transform="translate(159.863281 0)"/>
     <use xlink:href="#DejaVuSans-61" transform="translate(187.646484 0)"/>
     <use xlink:href="#DejaVuSans-6c" transform="translate(248.925781 0)"/>
     <use xlink:href="#DejaVuSans-20" transform="translate(276.708984 0)"/>
     <use xlink:href="#DejaVuSans-54" transform="translate(308.496094 0)"/>
     <use xlink:href="#DejaVuSans-72" transform="translate(354.830078 0)"/>
     <use xlink:href="#DejaVuSans-61" transform="translate(395.943359 0)"/>
     <use xlink:href="#DejaVuSans-6a" transform="translate(457.222656 0)"/>
     <use xlink:href="#DejaVuSans-65" transform="translate(485.005859 0)"/>
     <use xlink:href="#DejaVuSans-63" transform="translate(546.529297 0)"/>
     <use xlink:href="#DejaVuSans-74" transform="translate(601.509766 0)"/>
     <use xlink:href="#DejaVuSans-6f" transform="translate(640.71875 0)"/>
     <use xlink:href="#DejaVuSans-72" transform="translate(701.900391 0)"/>
     <use xlink:href="#DejaVuSans-79" transform="translate(743.013672 0)"/>
     <use xlink:href="#DejaVuSans-20" transform="translate(802.193359 0)"/>
     <use xlink:href="#DejaVuSans-45" transform="translate(833.980469 0)"/>
     <use xlink:href="#DejaVuSans-73" transform="translate(897.164062 0)"/>
     <use xlink:href="#DejaVuSans-74" transform="translate(949.263672 0)"/>
     <use xlink:href="#DejaVuSans-69" transform="translate(988.472656 0)"/>
     <use xlink:href="#DejaVuSans-6d" transform="translate(1016.255859 0)"/>
     <use xlink:href="#DejaVuSans-61" transform="translate(1113.667969 0)"/>
     <use xlink:href="#DejaVuSans-74" transform="translate(1174.947266 0)"/>
     <use xlink:href="#DejaVuSans-65" transform="translate(1214.15625 0)"/>
     <use xlink:href="#DejaVuSans-20" transform="translate(1275.679688 0)"/>
     <use xlink:href="#DejaVuSans-76" transform="translate(1307.466797 0)"/>
     <use xlink:href="#DejaVuSans-73" transform="translate(1366.646484 0)"/>
     <use xlink:href="#DejaVuSans-20" transform="translate(1418.746094 0)"/>
     <use xlink:href="#DejaVuSans-4f" transform="translate(1450.533203 0)"/>
     <use xlink:href="#DejaVuSans-70" transform="translate(1529.244141 0)"/>
     <use xlink:href="#DejaVuSans-74" transform="translate(1592.720703 0)"/>
     <use xlink:href="#DejaVuSans-69" transform="translate(1631.929688 0)"/>
     <use xlink:href="#DejaVuSans-6d" transform="translate(1659.712891 0)"/>
     <use xlink:href="#DejaVuSans-69" transform="translate(1757.125 0)"/>
     <use xlink:href="#DejaVuSans-7a" transform="translate(1784.908203 0)"/>
     <use xlink:href="#DejaVuSans-65" transform="translate(1837.398438 0)"/>
     <use xlink:href="#DejaVuSans-64" transform="translate(1898.921875 0)"/>
     <use xlink:href="#DejaVuSans-20" transform="translate(1962.398438 0)"/>
     <use xlink:href="#DejaVuSans-54" transform="translate(1994.185547 0)"/>
     <use xlink:href="#DejaVuSans-72" transform="translate(2040.519531 0)"/>
     <use xlink:href="#DejaVuSans-61" transform="translate(2081.632812 0)"/>
     <use xlink:href="#DejaVuSans-6a" transform="translate(2142.912109 0)"/>
     <use xlink:href="#DejaVuSans-65" transform="translate(2170.695312 0)"/>
     <use xlink:href="#DejaVuSans-63" transform="translate(2232.21875 0)"/>
     <use xlink:href="#DejaVuSans-74" transform="translate(2287.199219 0)"/>
     <use xlink:href="#DejaVuSans-6f" transform="translate(2326.408203 0)"/>
     <use xlink:href="#DejaVuSans-72" transform="translate(2387.589844 0)"/>
     <use xlink:href="#DejaVuSans-79" transform="translate(2428.703125 0)"/>
     <use xlink:href="#DejaVuSans-20" transform="translate(2487.882812 0)"/>
     <use xlink:href="#DejaVuSans-45" transform="translate(2519.669922 0)"/>
     <use xlink:href="#DejaVuSans-73" transform="translate(2582.853516 0)"/>
     <use xlink:href="#DejaVuSans-74" transform="translate(2634.953125 0)"/>
     <use xlink:href="#DejaVuSans-69" transform="translate(2674.162109 0)"/>
     <use xlink:href="#DejaVuSans-6d" transform="translate(2701.945312 0)"/>
     <use xlink:href="#DejaVuSans-61" transform="translate(2799.357422 0)"/>
     <use xlink:href="#DejaVuSans-74" transform="translate(2860.636719 0)"/>
     <use xlink:href="#DejaVuSans-65" transform="translate(2899.845703 0)"/>
    </g>
   </g>
   <g id="legend_1">
    <g id="patch_7">
     <path d="M 197.030937 302.584 
L 407.72 302.584 
Q 409.72 302.584 409.72 300.584 
L 409.72 242.8715 
Q 409.72 240.8715 407.72 240.8715 
L 197.030937 240.8715 
Q 195.030937 240.8715 195.030937 242.8715 
L 195.030937 300.584 
Q 195.030937 302.584 197.030937 302.584 
z
" style="fill: #ffffff; opacity: 0.8; stroke: #cccccc; stroke-linejoin: miter"/>
    </g>
    <g id="PathCollection_3">
     <g>
      <use xlink:href="#mdcfcc94712" x="209.030937" y="249.844937" style="fill: #0000ff; stroke: #0000ff"/>
     </g>
    </g>
    <g id="text_18">
     <!-- Start Initial Trajectory Estimate -->
     <g transform="translate(227.030937 252.469937) scale(0.1 -0.1)">
      <defs>
       <path id="DejaVuSans-53" d="M 3425 4513 
L 3425 3897 
Q 3066 4069 2747 4153 
Q 2428 4238 2131 4238 
Q 1616 4238 1336 4038 
Q 1056 3838 1056 3469 
Q 1056 3159 1242 3001 
Q 1428 2844 1947 2747 
L 2328 2669 
Q 3034 2534 3370 2195 
Q 3706 1856 3706 1288 
Q 3706 609 3251 259 
Q 2797 -91 1919 -91 
Q 1588 -91 1214 -16 
Q 841 59 441 206 
L 441 856 
Q 825 641 1194 531 
Q 1563 422 1919 422 
Q 2459 422 2753 634 
Q 3047 847 3047 1241 
Q 3047 1584 2836 1778 
Q 2625 1972 2144 2069 
L 1759 2144 
Q 1053 2284 737 2584 
Q 422 2884 422 3419 
Q 422 4038 858 4394 
Q 1294 4750 2059 4750 
Q 2388 4750 2728 4690 
Q 3069 4631 3425 4513 
z
" transform="scale(0.015625)"/>
      </defs>
      <use xlink:href="#DejaVuSans-53"/>
      <use xlink:href="#DejaVuSans-74" transform="translate(63.476562 0)"/>
      <use xlink:href="#DejaVuSans-61" transform="translate(102.685547 0)"/>
      <use xlink:href="#DejaVuSans-72" transform="translate(163.964844 0)"/>
      <use xlink:href="#DejaVuSans-74" transform="translate(205.078125 0)"/>
      <use xlink:href="#DejaVuSans-20" transform="translate(244.287109 0)"/>
      <use xlink:href="#DejaVuSans-49" transform="translate(276.074219 0)"/>
      <use xlink:href="#DejaVuSans-6e" transform="translate(305.566406 0)"/>
      <use xlink:href="#DejaVuSans-69" transform="translate(368.945312 0)"/>
      <use xlink:href="#DejaVuSans-74" transform="translate(396.728516 0)"/>
      <use xlink:href="#DejaVuSans-69" transform="translate(435.9375 0)"/>
      <use xlink:href="#DejaVuSans-61" transform="translate(463.720703 0)"/>
      <use xlink:href="#DejaVuSans-6c" transform="translate(525 0)"/>
      <use xlink:href="#DejaVuSans-20" transform="translate(552.783203 0)"/>
      <use xlink:href="#DejaVuSans-54" transform="translate(584.570312 0)"/>
      <use xlink:href="#DejaVuSans-72" transform="translate(630.904297 0)"/>
      <use xlink:href="#DejaVuSans-61" transform="translate(672.017578 0)"/>
      <use xlink:href="#DejaVuSans-6a" transform="translate(733.296875 0)"/>
      <use xlink:href="#DejaVuSans-65" transform="translate(761.080078 0)"/>
      <use xlink:href="#DejaVuSans-63" transform="translate(822.603516 0)"/>
      <use xlink:href="#DejaVuSans-74" transform="translate(877.583984 0)"/>
      <use xlink:href="#DejaVuSans-6f" transform="translate(916.792969 0)"/>
      <use xlink:href="#DejaVuSans-72" transform="translate(977.974609 0)"/>
      <use xlink:href="#DejaVuSans-79" transform="translate(1019.087891 0)"/>
      <use xlink:href="#DejaVuSans-20" transform="translate(1078.267578 0)"/>
      <use xlink:href="#DejaVuSans-45" transform="translate(1110.054688 0)"/>
      <use xlink:href="#DejaVuSans-73" transform="translate(1173.238281 0)"/>
      <use xlink:href="#DejaVuSans-74" transform="translate(1225.337891 0)"/>
      <use xlink:href="#DejaVuSans-69" transform="translate(1264.546875 0)"/>
      <use xlink:href="#DejaVuSans-6d" transform="translate(1292.330078 0)"/>
      <use xlink:href="#DejaVuSans-61" transform="translate(1389.742188 0)"/>
      <use xlink:href="#DejaVuSans-74" transform="translate(1451.021484 0)"/>
      <use xlink:href="#DejaVuSans-65" transform="translate(1490.230469 0)"/>
     </g>
    </g>
    <g id="PathCollection_4">
     <g>
      <use xlink:href="#m785c635a30" x="209.030937" y="264.523062" style="fill: #ff0000; stroke: #ff0000"/>
     </g>
    </g>
    <g id="text_19">
     <!-- Start Optimized Trajectory Estimate -->
     <g transform="translate(227.030937 267.148062) scale(0.1 -0.1)">
      <use xlink:href="#DejaVuSans-53"/>
      <use xlink:href="#DejaVuSans-74" transform="translate(63.476562 0)"/>
      <use xlink:href="#DejaVuSans-61" transform="translate(102.685547 0)"/>
      <use xlink:href="#DejaVuSans-72" transform="translate(163.964844 0)"/>
      <use xlink:href="#DejaVuSans-74" transform="translate(205.078125 0)"/>
      <use xlink:href="#DejaVuSans-20" transform="translate(244.287109 0)"/>
      <use xlink:href="#DejaVuSans-4f" transform="translate(276.074219 0)"/>
      <use xlink:href="#DejaVuSans-70" transform="translate(354.785156 0)"/>
      <use xlink:href="#DejaVuSans-74" transform="translate(418.261719 0)"/>
      <use xlink:href="#DejaVuSans-69" transform="translate(457.470703 0)"/>
      <use xlink:href="#DejaVuSans-6d" transform="translate(485.253906 0)"/>
      <use xlink:href="#DejaVuSans-69" transform="translate(582.666016 0)"/>
      <use xlink:href="#DejaVuSans-7a" transform="translate(610.449219 0)"/>
      <use xlink:href="#DejaVuSans-65" transform="translate(662.939453 0)"/>
      <use xlink:href="#DejaVuSans-64" transform="translate(724.462891 0)"/>
      <use xlink:href="#DejaVuSans-20" transform="translate(787.939453 0)"/>
      <use xlink:href="#DejaVuSans-54" transform="translate(819.726562 0)"/>
      <use xlink:href="#DejaVuSans-72" transform="translate(866.060547 0)"/>
      <use xlink:href="#DejaVuSans-61" transform="translate(907.173828 0)"/>
      <use xlink:href="#DejaVuSans-6a" transform="translate(968.453125 0)"/>
      <use xlink:href="#DejaVuSans-65" transform="translate(996.236328 0)"/>
      <use xlink:href="#DejaVuSans-63" transform="translate(1057.759766 0)"/>
      <use xlink:href="#DejaVuSans-74" transform="translate(1112.740234 0)"/>
      <use xlink:href="#DejaVuSans-6f" transform="translate(1151.949219 0)"/>
      <use xlink:href="#DejaVuSans-72" transform="translate(1213.130859 0)"/>
      <use xlink:href="#DejaVuSans-79" transform="translate(1254.244141 0)"/>
      <use xlink:href="#DejaVuSans-20" transform="translate(1313.423828 0)"/>
      <use xlink:href="#DejaVuSans-45" transform="translate(1345.210938 0)"/>
      <use xlink:href="#DejaVuSans-73" transform="translate(1408.394531 0)"/>
      <use xlink:href="#DejaVuSans-74" transform="translate(1460.494141 0)"/>
      <use xlink:href="#DejaVuSans-69" transform="translate(1499.703125 0)"/>
      <use xlink:href="#DejaVuSans-6d" transform="translate(1527.486328 0)"/>
      <use xlink:href="#DejaVuSans-61" transform="translate(1624.898438 0)"/>
      <use xlink:href="#DejaVuSans-74" transform="translate(1686.177734 0)"/>
      <use xlink:href="#DejaVuSans-65" transform="translate(1725.386719 0)"/>
     </g>
    </g>
    <g id="line2d_17">
     <path d="M 199.030937 278.326187 
L 209.030937 278.326187 
L 219.030937 278.326187 
" style="fill: none; stroke: #0000ff; stroke-opacity: 0.7; stroke-width: 0.75; stroke-linecap: square"/>
    </g>
    <g id="text_20">
     <!-- Initial Trajectory Estimate -->
     <g transform="translate(227.030937 281.826187) scale(0.1 -0.1)">
      <use xlink:href="#DejaVuSans-49"/>
      <use xlink:href="#DejaVuSans-6e" transform="translate(29.492188 0)"/>
      <use xlink:href="#DejaVuSans-69" transform="translate(92.871094 0)"/>
      <use xlink:href="#DejaVuSans-74" transform="translate(120.654297 0)"/>
      <use xlink:href="#DejaVuSans-69" transform="translate(159.863281 0)"/>
      <use xlink:href="#DejaVuSans-61" transform="translate(187.646484 0)"/>
      <use xlink:href="#DejaVuSans-6c" transform="translate(248.925781 0)"/>
      <use xlink:href="#DejaVuSans-20" transform="translate(276.708984 0)"/>
      <use xlink:href="#DejaVuSans-54" transform="translate(308.496094 0)"/>
      <use xlink:href="#DejaVuSans-72" transform="translate(354.830078 0)"/>
      <use xlink:href="#DejaVuSans-61" transform="translate(395.943359 0)"/>
      <use xlink:href="#DejaVuSans-6a" transform="translate(457.222656 0)"/>
      <use xlink:href="#DejaVuSans-65" transform="translate(485.005859 0)"/>
      <use xlink:href="#DejaVuSans-63" transform="translate(546.529297 0)"/>
      <use xlink:href="#DejaVuSans-74" transform="translate(601.509766 0)"/>
      <use xlink:href="#DejaVuSans-6f" transform="translate(640.71875 0)"/>
      <use xlink:href="#DejaVuSans-72" transform="translate(701.900391 0)"/>
      <use xlink:href="#DejaVuSans-79" transform="translate(743.013672 0)"/>
      <use xlink:href="#DejaVuSans-20" transform="translate(802.193359 0)"/>
      <use xlink:href="#DejaVuSans-45" transform="translate(833.980469 0)"/>
      <use xlink:href="#DejaVuSans-73" transform="translate(897.164062 0)"/>
      <use xlink:href="#DejaVuSans-74" transform="translate(949.263672 0)"/>
      <use xlink:href="#DejaVuSans-69" transform="translate(988.472656 0)"/>
      <use xlink:href="#DejaVuSans-6d" transform="translate(1016.255859 0)"/>
      <use xlink:href="#DejaVuSans-61" transform="translate(1113.667969 0)"/>
      <use xlink:href="#DejaVuSans-74" transform="translate(1174.947266 0)"/>
      <use xlink:href="#DejaVuSans-65" transform="translate(1214.15625 0)"/>
     </g>
    </g>
    <g id="line2d_18">
     <path d="M 199.030937 293.004312 
L 209.030937 293.004312 
L 219.030937 293.004312 
" style="fill: none; stroke: #ff0000; stroke-opacity: 0.7; stroke-width: 0.75; stroke-linecap: square"/>
    </g>
    <g id="text_21">
     <!-- Optimized Trajectory Estimate -->
     <g transform="translate(227.030937 296.504312) scale(0.1 -0.1)">
      <use xlink:href="#DejaVuSans-4f"/>
      <use xlink:href="#DejaVuSans-70" transform="translate(78.710938 0)"/>
      <use xlink:href="#DejaVuSans-74" transform="translate(142.1875 0)"/>
      <use xlink:href="#DejaVuSans-69" transform="translate(181.396484 0)"/>
      <use xlink:href="#DejaVuSans-6d" transform="translate(209.179688 0)"/>
      <use xlink:href="#DejaVuSans-69" transform="translate(306.591797 0)"/>
      <use xlink:href="#DejaVuSans-7a" transform="translate(334.375 0)"/>
      <use xlink:href="#DejaVuSans-65" transform="translate(386.865234 0)"/>
      <use xlink:href="#DejaVuSans-64" transform="translate(448.388672 0)"/>
      <use xlink:href="#DejaVuSans-20" transform="translate(511.865234 0)"/>
      <use xlink:href="#DejaVuSans-54" transform="translate(543.652344 0)"/>
      <use xlink:href="#DejaVuSans-72" transform="translate(589.986328 0)"/>
      <use xlink:href="#DejaVuSans-61" transform="translate(631.099609 0)"/>
      <use xlink:href="#DejaVuSans-6a" transform="translate(692.378906 0)"/>
      <use xlink:href="#DejaVuSans-65" transform="translate(720.162109 0)"/>
      <use xlink:href="#DejaVuSans-63" transform="translate(781.685547 0)"/>
      <use xlink:href="#DejaVuSans-74" transform="translate(836.666016 0)"/>
      <use xlink:href="#DejaVuSans-6f" transform="translate(875.875 0)"/>
      <use xlink:href="#DejaVuSans-72" transform="translate(937.056641 0)"/>
      <use xlink:href="#DejaVuSans-79" transform="translate(978.169922 0)"/>
      <use xlink:href="#DejaVuSans-20" transform="translate(1037.349609 0)"/>
      <use xlink:href="#DejaVuSans-45" transform="translate(1069.136719 0)"/>
      <use xlink:href="#DejaVuSans-73" transform="translate(1132.320312 0)"/>
      <use xlink:href="#DejaVuSans-74" transform="translate(1184.419922 0)"/>
      <use xlink:href="#DejaVuSans-69" transform="translate(1223.628906 0)"/>
      <use xlink:href="#DejaVuSans-6d" transform="translate(1251.412109 0)"/>
      <use xlink:href="#DejaVuSans-61" transform="translate(1348.824219 0)"/>
      <use xlink:href="#DejaVuSans-74" transform="translate(1410.103516 0)"/>
      <use xlink:href="#DejaVuSans-65" transform="translate(1449.3125 0)"/>
     </g>
    </g>
   </g>
  </g>
 </g>
 <defs>
  <clipPath id="pb9b4620a5c">
   <rect x="57.6" y="41.472" width="357.12" height="266.112"/>
  </clipPath>
 </defs>
</svg>
